<svg width="52" height="41" viewBox="0 0 52 41" fill="none" xmlns="http://www.w3.org/2000/svg">
<path d="M43.6619 41.0074C47.8141 41.0074 51.1802 37.6472 51.1802 33.5022C51.1802 29.3573 47.8141 25.9971 43.6619 25.9971C39.5096 25.9971 36.1436 29.3573 36.1436 33.5022C36.1436 37.6472 39.5096 41.0074 43.6619 41.0074Z" fill="#1A1623"/>
<path d="M33.3052 22.5986C33.1633 22.8818 33.1633 23.1651 33.0215 23.5899V23.4483C33.0215 23.3067 33.1633 23.0234 33.1633 22.8818C33.3052 22.5986 33.3052 22.5986 33.3052 22.5986Z" fill="#1A1623"/>
<path d="M18.4102 20.8992C18.4102 25.1474 21.8147 28.546 26.0703 28.546C29.333 28.546 32.1701 26.4219 33.1631 23.5898C33.3049 23.3065 33.3049 23.0233 33.4468 22.5985C34.8653 18.6335 38.5536 15.8014 42.9511 15.8014H43.0929C43.2348 15.8014 43.3766 15.8014 43.5185 15.8014C43.5185 15.8014 43.5185 15.8014 43.6604 15.8014C47.916 15.8014 51.3205 12.4028 51.3205 8.1546C51.3205 3.90638 47.916 0.507812 43.6604 0.507812C40.3977 0.507812 37.5606 2.63192 36.4257 5.60567C36.4257 5.74728 36.2839 6.03049 36.2839 6.17209C35.0072 10.1371 31.1771 13.1108 26.6377 13.1108H26.4959C26.354 13.1108 26.2122 13.1108 25.9285 13.1108C21.8147 13.2524 18.4102 16.651 18.4102 20.8992Z" fill="#1A1623"/>
<path d="M36.2852 6.3135C36.2852 6.17189 36.427 5.88868 36.427 5.74707C36.427 6.03029 36.427 6.17189 36.2852 6.3135Z" fill="#1A1623"/>
<path d="M18.5547 22.5986C18.6965 22.8818 18.6965 23.1651 18.8384 23.5899V23.4483C18.8384 23.3067 18.6965 23.0234 18.6965 22.8818C18.5547 22.5986 18.5547 22.5986 18.5547 22.5986Z" fill="#1A1623"/>
<path d="M33.5901 20.8992C33.5901 25.1474 30.1855 28.546 25.9299 28.546C22.6672 28.546 19.8301 26.4219 18.8371 23.5898C18.6953 23.3065 18.6953 23.0233 18.5534 22.5985C17.1349 18.6335 13.4466 15.8014 9.04914 15.8014H8.90728C8.76543 15.8014 8.62357 15.8014 8.48172 15.8014C8.48172 15.8014 8.48172 15.8014 8.33986 15.8014C4.08421 15.8014 0.679688 12.4028 0.679688 8.1546C0.679688 3.90638 4.08421 0.507812 8.33986 0.507812C11.6025 0.507812 14.4396 2.63192 15.5745 5.60567C15.5745 5.74728 15.7163 6.03049 15.7163 6.17209C16.993 10.1371 20.8231 13.1108 25.3625 13.1108H25.5043C25.6462 13.1108 25.788 13.1108 26.0717 13.1108C30.1855 13.2524 33.5901 16.651 33.5901 20.8992Z" fill="#1A1623"/>
<path d="M15.5725 6.3135C15.5725 6.17189 15.4307 5.88868 15.4307 5.74707C15.4307 6.03029 15.5725 6.17189 15.5725 6.3135Z" fill="#1A1623"/>
<path d="M13.7304 28.1212C15.007 29.5373 15.8582 31.3782 15.8582 33.3607C15.8582 37.6089 12.4537 41.0074 8.19801 41.0074C3.94236 41.0074 0.679688 37.6089 0.679688 33.3607C0.679688 31.2365 1.53082 29.3957 2.80752 28.1212C2.94937 27.9796 2.94937 27.9796 3.09122 27.838C4.93534 25.9971 6.07018 23.4482 6.07018 20.7576C6.07018 17.9255 4.93534 15.5182 3.09122 13.6773C2.94937 13.5357 2.94937 13.5357 2.80752 13.3941C1.53082 11.978 0.679688 10.1371 0.679688 8.1546C0.679688 3.90638 4.08421 0.507812 8.19801 0.507812C12.4537 0.507812 15.8582 3.90638 15.8582 8.1546C15.8582 10.2787 15.007 12.1196 13.7304 13.3941C13.5885 13.5357 13.5885 13.6773 13.4466 13.8189C11.6025 15.6598 10.4677 18.2087 10.4677 20.8992C10.4677 23.7314 11.6025 26.1387 13.4466 27.9796C13.5885 27.9796 13.5885 28.1212 13.7304 28.1212Z" fill="#1A1623"/>
</svg>
