<svg width="97" height="23" viewBox="0 0 97 23" fill="none" xmlns="http://www.w3.org/2000/svg">
<path d="M3.15839 9.56257C4.00952 8.28811 5.28622 7.58008 6.98848 7.58008C8.83259 7.58008 10.393 8.42972 11.1023 9.84579C11.9534 8.57133 13.5138 7.58008 15.3579 7.58008C18.7625 7.58008 21.0321 9.84579 21.0321 14.2356V21.316C21.0321 22.3072 20.4647 22.8736 19.4717 22.8736C18.4788 22.8736 17.9113 22.4488 17.9113 21.316V13.9524C17.9113 11.9699 16.7765 10.6954 15.0742 10.6954C13.372 10.6954 12.2371 11.9699 12.2371 13.9524V21.316C12.2371 22.3072 11.6697 22.8736 10.6767 22.8736C9.68373 22.8736 9.11631 22.4488 9.11631 21.316V13.9524C9.11631 11.9699 7.98146 10.6954 6.2792 10.6954C4.57694 10.6954 3.4421 11.9699 3.4421 13.9524V21.316C3.4421 22.3072 2.87468 22.8736 1.88169 22.8736C0.888708 22.8736 0.321289 22.3072 0.321289 21.316V9.56257C0.321289 8.71293 0.604999 8.0049 1.73984 8.0049C2.44912 7.86329 2.87468 8.42972 3.15839 9.56257Z" fill="#1A1623"/>
<path d="M26.2819 15.5101C26.5657 18.059 28.1261 19.7583 30.9632 19.7583C32.3817 19.7583 33.5166 19.1919 34.3677 18.4838C34.7932 18.059 35.2188 17.9174 35.6444 17.9174C36.3537 17.9174 37.0629 18.4838 37.0629 19.3335C37.0629 20.7495 34.5095 22.5904 30.8213 22.5904C26.5657 22.5904 23.1611 19.1919 23.1611 14.9437C23.1611 10.5538 26.5657 7.29688 30.8213 7.29688C35.2188 7.29688 38.0559 10.6954 38.0559 13.386C38.0559 14.6604 37.2048 15.3685 35.7862 15.3685H26.2819V15.5101ZM35.077 13.2444C34.7932 11.4035 33.091 10.2706 30.9632 10.2706C28.9772 10.2706 27.1331 11.4035 26.5657 13.2444H35.077Z" fill="#1A1623"/>
<path d="M43.3029 9.84579C43.8703 8.57132 45.2889 7.72168 46.9911 7.72168C48.5515 7.72168 50.6794 8.57132 50.6794 10.129C50.6794 10.9786 50.1119 11.6867 49.2608 11.6867C48.6934 11.6867 48.4097 11.5451 48.126 11.2619C47.5585 10.837 46.9911 10.6954 46.4237 10.6954C44.4377 10.6954 43.4448 12.1115 43.4448 13.9524V20.7495C43.4448 22.1656 43.1611 22.8736 41.8844 22.8736C40.7495 22.8736 40.4658 22.1656 40.4658 20.7495V9.70418C40.4658 8.71293 40.8914 8.1465 41.7425 8.1465C42.7355 8.00489 43.0192 8.57132 43.3029 9.84579Z" fill="#1A1623"/>
<path d="M54.7946 15.5101C55.0784 18.059 56.6388 19.7583 59.4758 19.7583C60.8944 19.7583 62.0292 19.1919 62.8804 18.4838C63.3059 18.059 63.7315 17.9174 64.1571 17.9174C64.8663 17.9174 65.5756 18.4838 65.5756 19.3335C65.5756 20.7495 63.0222 22.5904 59.334 22.5904C55.0783 22.5904 51.6738 19.1919 51.6738 14.9437C51.6738 10.5538 55.0783 7.29688 59.334 7.29688C63.7315 7.29688 66.5686 10.6954 66.5686 13.386C66.5686 14.6604 65.7175 15.3685 64.2989 15.3685H54.7946V15.5101ZM63.5896 13.2444C63.3059 11.4035 61.6037 10.2706 59.4758 10.2706C57.4899 10.2706 55.6458 11.4035 55.0783 13.2444H63.5896Z" fill="#1A1623"/>
<path d="M71.9597 16.6432V21.1746C71.9597 22.3075 71.3923 22.8739 70.3993 22.8739C69.4063 22.8739 68.8389 22.3075 68.8389 21.1746V2.34089C68.8389 1.20803 69.4063 0.641602 70.3993 0.641602C71.3923 0.641602 71.9597 1.20803 71.9597 2.34089V12.5366L76.7827 8.28839C77.2083 8.00517 77.6339 7.86357 77.9176 7.86357C78.7687 7.86357 79.478 8.42999 79.478 9.27964C79.478 9.70446 79.3361 10.1293 78.7687 10.5541L73.8038 14.6607L79.6198 20.1834C80.1873 20.6082 80.3291 21.033 80.3291 21.4578C80.3291 22.1659 79.7617 22.8739 78.9106 22.8739C78.485 22.8739 78.0594 22.7323 77.6339 22.3075L71.9597 16.6432Z" fill="#1A1623"/>
<path d="M94.7965 7.58009C95.7895 7.58009 96.2151 8.14652 96.2151 9.27938V20.7495C96.2151 22.024 95.9314 22.5904 94.7965 22.5904C93.8036 22.5904 93.378 21.8824 93.2361 20.3247C92.5269 21.7408 90.5409 22.5904 88.4131 22.5904C84.1574 22.5904 81.3203 19.1919 81.3203 14.9437C81.3203 10.5538 84.1574 7.29688 88.4131 7.29688C90.399 7.29688 92.385 8.14652 93.2361 9.7042C93.378 8.71295 93.6617 7.58009 94.7965 7.58009ZM84.4411 15.0853C84.4411 17.6342 86.2852 19.7583 88.8386 19.7583C91.392 19.7583 93.2361 17.7758 93.2361 15.0853C93.2361 12.5363 91.392 10.4122 88.8386 10.4122C86.2852 10.4122 84.4411 12.5363 84.4411 15.0853Z" fill="#1A1623"/>
</svg>
