<svg width="189" height="23" viewBox="0 0 189 23" fill="none" xmlns="http://www.w3.org/2000/svg">
<circle cx="11.5" cy="11.5" r="11.25" fill="white" stroke="black" stroke-width="0.5"/>
<path d="M14.356 8.537C14.314 8.607 14.2697 8.66067 14.223 8.698C14.1763 8.73067 14.1157 8.747 14.041 8.747C13.9617 8.747 13.8683 8.70733 13.761 8.628C13.6583 8.54867 13.5253 8.46233 13.362 8.369C13.2033 8.271 13.0097 8.18233 12.781 8.103C12.557 8.02367 12.284 7.984 11.962 7.984C11.6587 7.984 11.3903 8.026 11.157 8.11C10.9237 8.18933 10.7277 8.299 10.569 8.439C10.415 8.579 10.2983 8.74467 10.219 8.936C10.1397 9.12267 10.1 9.32567 10.1 9.545C10.1 9.825 10.1677 10.0583 10.303 10.245C10.443 10.427 10.625 10.5833 10.849 10.714C11.0777 10.8447 11.3343 10.959 11.619 11.057C11.9083 11.1503 12.2023 11.2483 12.501 11.351C12.8043 11.4537 13.0983 11.5703 13.383 11.701C13.6723 11.827 13.929 11.988 14.153 12.184C14.3817 12.38 14.5637 12.6203 14.699 12.905C14.839 13.1897 14.909 13.5397 14.909 13.955C14.909 14.3937 14.8343 14.8067 14.685 15.194C14.5357 15.5767 14.3163 15.9103 14.027 16.195C13.7423 16.4797 13.39 16.7037 12.97 16.867C12.5547 17.0303 12.081 17.112 11.549 17.112C10.9003 17.112 10.3077 16.9953 9.771 16.762C9.239 16.524 8.784 16.2043 8.406 15.803L8.798 15.159C8.83533 15.1077 8.87967 15.0657 8.931 15.033C8.987 14.9957 9.04767 14.977 9.113 14.977C9.211 14.977 9.323 15.0307 9.449 15.138C9.575 15.2407 9.73133 15.355 9.918 15.481C10.1093 15.607 10.338 15.7237 10.604 15.831C10.8747 15.9337 11.2037 15.985 11.591 15.985C11.913 15.985 12.2 15.9407 12.452 15.852C12.704 15.7633 12.9163 15.6397 13.089 15.481C13.2663 15.3177 13.4017 15.124 13.495 14.9C13.5883 14.676 13.635 14.4263 13.635 14.151C13.635 13.8477 13.565 13.6003 13.425 13.409C13.2897 13.213 13.11 13.0497 12.886 12.919C12.662 12.7883 12.4053 12.6787 12.116 12.59C11.8313 12.4967 11.5373 12.4033 11.234 12.31C10.9353 12.212 10.6413 12.1 10.352 11.974C10.0673 11.848 9.813 11.6847 9.589 11.484C9.365 11.2833 9.183 11.0337 9.043 10.735C8.90767 10.4317 8.84 10.0583 8.84 9.615C8.84 9.26033 8.90767 8.91733 9.043 8.586C9.183 8.25467 9.38367 7.96067 9.645 7.704C9.90633 7.44733 10.2283 7.242 10.611 7.088C10.9983 6.934 11.4417 6.857 11.941 6.857C12.501 6.857 13.012 6.94567 13.474 7.123C13.936 7.30033 14.3397 7.557 14.685 7.893L14.356 8.537Z" fill="black"/>
<circle cx="38.5" cy="11.5" r="11.25" fill="white" stroke="black" stroke-width="0.5"/>
<path d="M38.153 13.374C38.2183 13.486 38.2743 13.605 38.321 13.731C38.3723 13.8523 38.4213 13.976 38.468 14.102C38.5147 13.9713 38.5637 13.8477 38.615 13.731C38.6663 13.6097 38.7247 13.4883 38.79 13.367L42.185 7.2C42.2457 7.09267 42.3087 7.02733 42.374 7.004C42.4393 6.98067 42.5327 6.969 42.654 6.969H43.655V17H42.465V9.629C42.465 9.531 42.4673 9.426 42.472 9.314C42.4767 9.202 42.4837 9.08767 42.493 8.971L39.056 15.243C38.9393 15.453 38.776 15.558 38.566 15.558H38.37C38.16 15.558 37.9967 15.453 37.88 15.243L34.366 8.95C34.38 9.07133 34.3893 9.19033 34.394 9.307C34.4033 9.42367 34.408 9.531 34.408 9.629V17H33.218V6.969H34.219C34.3403 6.969 34.4337 6.98067 34.499 7.004C34.5643 7.02733 34.6273 7.09267 34.688 7.2L38.153 13.374Z" fill="black"/>
<circle cx="65.5" cy="11.5" r="11.5" fill="#C4C4C4"/>
<path d="M69.05 6.969V8.11H65.809V17H64.451V8.11H61.196V6.969H69.05Z" fill="black"/>
<circle cx="92.5" cy="11.5" r="11.25" fill="white" stroke="black" stroke-width="0.5"/>
<path d="M85.098 6.969H86.225C86.3463 6.969 86.4467 6.99933 86.526 7.06C86.6053 7.12067 86.659 7.19767 86.687 7.291L88.759 14.263C88.7963 14.389 88.829 14.5243 88.857 14.669C88.8897 14.8137 88.92 14.9653 88.948 15.124C88.9807 14.9653 89.0133 14.8137 89.046 14.669C89.0787 14.5197 89.116 14.3843 89.158 14.263L91.517 7.291C91.545 7.21167 91.5987 7.13933 91.678 7.074C91.762 7.004 91.8623 6.969 91.979 6.969H92.371C92.4923 6.969 92.5903 6.99933 92.665 7.06C92.7443 7.12067 92.8003 7.19767 92.833 7.291L95.178 14.263C95.262 14.5057 95.3367 14.7833 95.402 15.096C95.43 14.942 95.4557 14.795 95.479 14.655C95.5023 14.515 95.5327 14.3843 95.57 14.263L97.649 7.291C97.6723 7.207 97.7237 7.13233 97.803 7.067C97.887 7.00167 97.9873 6.969 98.104 6.969H99.161L96.032 17H94.814L92.273 9.349C92.2217 9.20433 92.175 9.03633 92.133 8.845C92.1097 8.93833 92.0863 9.02933 92.063 9.118C92.0443 9.202 92.0233 9.279 92 9.349L89.445 17H88.227L85.098 6.969Z" fill="black"/>
<circle cx="119.5" cy="11.5" r="11.25" fill="white" stroke="black" stroke-width="0.5"/>
<path d="M119.05 6.969V8.11H115.809V17H114.451V8.11H111.196V6.969H119.05ZM120.43 17V6.689H121.676V10.861C121.979 10.539 122.315 10.2823 122.684 10.091C123.052 9.895 123.477 9.797 123.958 9.797C124.345 9.797 124.686 9.86233 124.98 9.993C125.278 10.119 125.526 10.301 125.722 10.539C125.922 10.7723 126.074 11.0547 126.177 11.386C126.279 11.7173 126.331 12.0837 126.331 12.485V17H125.085V12.485C125.085 11.9483 124.961 11.533 124.714 11.239C124.471 10.9403 124.098 10.791 123.594 10.791C123.225 10.791 122.88 10.8797 122.558 11.057C122.24 11.2343 121.946 11.4747 121.676 11.778V17H120.43Z" fill="black"/>
<circle cx="146.5" cy="11.5" r="11.25" fill="white" stroke="black" stroke-width="0.5"/>
<path d="M150.399 6.969V8.075H145.583V11.582H149.699V12.688H145.583V17H144.218V6.969H150.399Z" fill="black"/>
<circle cx="173.5" cy="11.5" r="11.5" fill="#C4C4C4"/>
<path d="M176.356 8.537C176.314 8.607 176.27 8.66067 176.223 8.698C176.176 8.73067 176.116 8.747 176.041 8.747C175.962 8.747 175.868 8.70733 175.761 8.628C175.658 8.54867 175.525 8.46233 175.362 8.369C175.203 8.271 175.01 8.18233 174.781 8.103C174.557 8.02367 174.284 7.984 173.962 7.984C173.659 7.984 173.39 8.026 173.157 8.11C172.924 8.18933 172.728 8.299 172.569 8.439C172.415 8.579 172.298 8.74467 172.219 8.936C172.14 9.12267 172.1 9.32567 172.1 9.545C172.1 9.825 172.168 10.0583 172.303 10.245C172.443 10.427 172.625 10.5833 172.849 10.714C173.078 10.8447 173.334 10.959 173.619 11.057C173.908 11.1503 174.202 11.2483 174.501 11.351C174.804 11.4537 175.098 11.5703 175.383 11.701C175.672 11.827 175.929 11.988 176.153 12.184C176.382 12.38 176.564 12.6203 176.699 12.905C176.839 13.1897 176.909 13.5397 176.909 13.955C176.909 14.3937 176.834 14.8067 176.685 15.194C176.536 15.5767 176.316 15.9103 176.027 16.195C175.742 16.4797 175.39 16.7037 174.97 16.867C174.555 17.0303 174.081 17.112 173.549 17.112C172.9 17.112 172.308 16.9953 171.771 16.762C171.239 16.524 170.784 16.2043 170.406 15.803L170.798 15.159C170.835 15.1077 170.88 15.0657 170.931 15.033C170.987 14.9957 171.048 14.977 171.113 14.977C171.211 14.977 171.323 15.0307 171.449 15.138C171.575 15.2407 171.731 15.355 171.918 15.481C172.109 15.607 172.338 15.7237 172.604 15.831C172.875 15.9337 173.204 15.985 173.591 15.985C173.913 15.985 174.2 15.9407 174.452 15.852C174.704 15.7633 174.916 15.6397 175.089 15.481C175.266 15.3177 175.402 15.124 175.495 14.9C175.588 14.676 175.635 14.4263 175.635 14.151C175.635 13.8477 175.565 13.6003 175.425 13.409C175.29 13.213 175.11 13.0497 174.886 12.919C174.662 12.7883 174.405 12.6787 174.116 12.59C173.831 12.4967 173.537 12.4033 173.234 12.31C172.935 12.212 172.641 12.1 172.352 11.974C172.067 11.848 171.813 11.6847 171.589 11.484C171.365 11.2833 171.183 11.0337 171.043 10.735C170.908 10.4317 170.84 10.0583 170.84 9.615C170.84 9.26033 170.908 8.91733 171.043 8.586C171.183 8.25467 171.384 7.96067 171.645 7.704C171.906 7.44733 172.228 7.242 172.611 7.088C172.998 6.934 173.442 6.857 173.941 6.857C174.501 6.857 175.012 6.94567 175.474 7.123C175.936 7.30033 176.34 7.557 176.685 7.893L176.356 8.537Z" fill="black"/>
</svg>
