<svg width="24" height="24" viewBox="0 0 24 24" fill="none" xmlns="http://www.w3.org/2000/svg">
<path d="M19.3618 11.4937C19.3618 7.43437 16.0593 4.13184 12 4.13184C7.94063 4.13184 4.63818 7.43437 4.63818 11.4937C4.63818 13.983 5.90916 16.3097 7.98141 17.6628V19.982C7.98141 22.1978 9.78408 24.0005 11.9999 24.0005C14.2157 24.0005 16.0183 22.1978 16.0183 19.982V18.6794C16.0183 18.6791 16.0183 17.6628 16.0183 17.6628C18.0908 16.3098 19.3618 13.9831 19.3618 11.4937ZM14.5992 19.9821C14.5992 21.4153 13.4332 22.5813 12 22.5813C10.5667 22.5813 9.40069 21.4153 9.40069 19.9821V19.3889H14.5992V19.9821ZM14.9553 16.6505C14.735 16.7771 14.5992 17.0118 14.5992 17.2659V17.9698H12.7095V14.3005C13.6309 14.0007 14.299 13.1341 14.299 12.114C14.299 11.7221 13.9812 11.4044 13.5894 11.4044C13.1975 11.4044 12.8798 11.7221 12.8798 12.114C12.8798 12.5991 12.4851 12.9939 12 12.9939C11.5149 12.9939 11.1201 12.5992 11.1201 12.114C11.1201 11.7221 10.8024 11.4044 10.4105 11.4044C10.0186 11.4044 9.70093 11.7221 9.70093 12.114C9.70093 13.1341 10.3689 14.0007 11.2904 14.3005V17.9698H9.40079V17.2658C9.40079 17.0118 9.26499 16.7771 9.04468 16.6505C7.20206 15.592 6.05747 13.616 6.05747 11.4937C6.05747 8.21691 8.7233 5.55103 12.0001 5.55103C15.2769 5.55103 17.9427 8.21686 17.9427 11.4937C17.9426 13.616 16.798 15.592 14.9553 16.6505Z" fill="black"/>
<path d="M12 0C11.6081 0 11.2904 0.317719 11.2904 0.709595V1.9553C11.2904 2.34718 11.6081 2.6649 12 2.6649C12.3919 2.6649 12.7096 2.34718 12.7096 1.9553V0.709595C12.7096 0.317719 12.3919 0 12 0Z" fill="black"/>
<path d="M10.0039 2.13689L9.56347 0.971575C9.4249 0.605011 9.01526 0.420183 8.64884 0.558699C8.28228 0.697261 8.0974 1.10676 8.23596 1.47333L8.67635 2.63864C8.7837 2.92261 9.05361 3.09755 9.34025 3.09755C9.42359 3.09755 9.50843 3.08274 9.59103 3.05152C9.95759 2.91295 10.1425 2.50345 10.0039 2.13689Z" fill="black"/>
<path d="M15.3511 0.558731C14.9845 0.420121 14.5751 0.60509 14.4365 0.971653L13.9961 2.13697C13.8576 2.50348 14.0424 2.91299 14.409 3.05155C14.4916 3.08277 14.5764 3.09758 14.6597 3.09758C14.9464 3.09758 15.2163 2.92264 15.3236 2.63867L15.7641 1.47336C15.9026 1.10675 15.7177 0.697293 15.3511 0.558731Z" fill="black"/>
</svg>
