<svg width="24" height="24" viewBox="0 0 24 24" fill="none" xmlns="http://www.w3.org/2000/svg">
<path fill-rule="evenodd" clip-rule="evenodd" d="M11.7227 1.5C8.82466 1.5 6.47266 3.85275 6.47266 6.75C6.47266 9.64725 8.82466 12 11.7227 12C14.6199 12 16.9727 9.64725 16.9727 6.75C16.9727 3.85275 14.6199 1.5 11.7227 1.5ZM11.7227 3C13.7919 3 15.4727 4.68 15.4727 6.75C15.4727 8.82 13.7919 10.5 11.7227 10.5C9.65266 10.5 7.97266 8.82 7.97266 6.75C7.97266 4.68 9.65266 3 11.7227 3ZM2.72266 21H12.0017C12.4157 21 12.7517 21.336 12.7517 21.75C12.7517 22.164 12.4157 22.5 12.0017 22.5H1.97266C1.55791 22.5 1.22266 22.164 1.22266 21.75V20.25C1.22266 16.5217 4.24441 13.5 7.97266 13.5H12.0054C12.4194 13.5 12.7554 13.836 12.7554 14.25C12.7554 14.664 12.4194 15 12.0054 15H7.97266C5.07316 15 2.72266 17.3505 2.72266 20.25V21ZM17.7298 12.5847L16.436 15.0837L13.6595 15.5427C13.3828 15.5884 13.1548 15.7842 13.0678 16.0504C12.9815 16.3174 13.0505 16.6099 13.2478 16.8094L15.224 18.8127L14.8025 21.5952C14.7605 21.8719 14.8768 22.1494 15.1033 22.3144C15.3298 22.4787 15.6298 22.5034 15.8803 22.3782L18.3958 21.1167L20.912 22.3782C21.1625 22.5034 21.4625 22.4787 21.689 22.3144C21.9155 22.1494 22.0318 21.8719 21.9898 21.5952L21.5675 18.8127L23.5445 16.8094C23.7418 16.6099 23.8108 16.3174 23.7238 16.0504C23.6375 15.7842 23.4095 15.5884 23.1328 15.5427L20.3563 15.0837L19.0618 12.5847C18.9335 12.3357 18.6763 12.1797 18.3958 12.1797C18.116 12.1797 17.8588 12.3357 17.7298 12.5847ZM17.5948 16.1074L18.3958 14.5602L19.1975 16.1074C19.3063 16.3174 19.5073 16.4637 19.7413 16.5027L21.4595 16.7862L20.2363 18.0267C20.0698 18.1947 19.9933 18.4317 20.0285 18.6657L20.2895 20.3877L18.7325 19.6077C18.521 19.5012 18.2713 19.5012 18.0598 19.6077L16.5028 20.3877L16.7638 18.6657C16.799 18.4317 16.7225 18.1947 16.556 18.0267L15.3328 16.7862L17.051 16.5027C17.2843 16.4637 17.486 16.3174 17.5948 16.1074Z" fill="url(#paint0_linear_11707_40531)"/>
<defs>
<linearGradient id="paint0_linear_11707_40531" x1="0.75" y1="23" x2="23.75" y2="0.999996" gradientUnits="userSpaceOnUse">
<stop stop-color="#0BB7C4"/>
<stop offset="1" stop-color="#04EBEB"/>
</linearGradient>
</defs>
</svg>