<svg width="24" height="24" viewBox="0 0 24 24" fill="none" xmlns="http://www.w3.org/2000/svg">
<path fill-rule="evenodd" clip-rule="evenodd" d="M19.9778 6.1667C19.9778 7.9322 18.5415 9.36845 16.776 9.36845L14.5253 9.3692L12.9113 11.1159C12.6773 11.3687 12.3458 11.5134 12.0015 11.5134C11.6573 11.5134 11.3258 11.3687 11.0918 11.1159L9.47777 9.3692H7.22702C5.46152 9.3692 4.02527 7.93294 4.02527 6.16744V4.02695C4.02527 2.26145 5.46152 0.825195 7.22702 0.825195H16.776C18.5415 0.825195 19.9778 2.26145 19.9778 4.02695V6.1667ZM12.0015 10.1102L13.734 8.23519C13.8615 8.09719 14.0415 8.01845 14.229 8.0192H16.7753C17.7968 8.0192 18.627 7.18819 18.627 6.16744V4.02695C18.627 3.00545 17.796 2.1752 16.7753 2.1752H7.22702C6.20552 2.1752 5.37527 3.0062 5.37527 4.02695V6.1667C5.37527 7.18745 6.20627 8.01845 7.22702 8.01845H9.77327C9.96152 8.01845 10.1415 8.09644 10.269 8.23519L12.0015 10.1102ZM8.82527 4.41895H9.07502C9.44777 4.41895 9.75002 4.7212 9.75002 5.09395C9.75002 5.4667 9.44777 5.76894 9.07502 5.76894H8.82527C8.45252 5.76894 8.15027 5.4667 8.15027 5.09395C8.15027 4.7212 8.45252 4.41895 8.82527 4.41895ZM12.125 4.41895H11.876C11.5033 4.41895 11.201 4.7212 11.201 5.09395C11.201 5.4667 11.5033 5.76894 11.876 5.76894H12.125C12.4978 5.76894 12.8 5.4667 12.8 5.09395C12.8 4.7212 12.4978 4.41895 12.125 4.41895ZM14.9268 4.41895H15.1758C15.5486 4.41895 15.8516 4.7212 15.8516 5.09395C15.8516 5.4667 15.5493 5.76894 15.1766 5.76894H14.9268C14.5541 5.76894 14.2518 5.4667 14.2518 5.09395C14.2518 4.7212 14.5541 4.41895 14.9268 4.41895ZM20.3185 17.6266C20.9747 16.9951 21.3872 16.1124 21.3872 15.1314C21.3872 13.2181 19.8302 11.6611 17.917 11.6611C16.0037 11.6611 14.4467 13.2181 14.4467 15.1314C14.4467 16.1124 14.8592 16.9951 15.5155 17.6266C14.2285 18.2371 13.33 19.5384 13.33 21.0549V21.5019C13.33 22.1589 13.7965 22.7251 14.4392 22.8474C15.583 23.0664 16.753 23.1774 17.9162 23.1774C19.0795 23.1774 20.2495 23.0664 21.3932 22.8474C22.036 22.7244 22.5025 22.1589 22.5025 21.5019V21.0549C22.504 19.5391 21.6055 18.2371 20.3185 17.6266ZM17.9177 13.0111C19.087 13.0111 20.038 13.9621 20.038 15.1314C20.038 16.3006 19.087 17.2516 17.9177 17.2516C16.7485 17.2516 15.7975 16.3006 15.7975 15.1314C15.7975 13.9621 16.7485 13.0111 17.9177 13.0111ZM21.1412 21.5221C19.1747 21.8986 17.1385 21.9099 15.1615 21.5889L15.0595 21.5715C14.933 21.55 14.8066 21.5285 14.6807 21.5019V21.0549C14.6807 19.7019 15.781 18.6016 17.134 18.6016H18.7007C20.0537 18.6016 21.154 19.7019 21.154 21.0549L21.1412 21.5221ZM9.55127 15.1314C9.55127 16.1124 9.13877 16.9951 8.48252 17.6266C9.76952 18.2371 10.668 19.5391 10.6665 21.0549V21.5019C10.6665 22.1589 10.2 22.7244 9.55727 22.8474C8.41352 23.0664 7.24352 23.1774 6.08027 23.1774C4.91702 23.1774 3.74702 23.0664 2.60327 22.8474C1.96052 22.7251 1.49402 22.1589 1.49402 21.5019V21.0549C1.49402 19.5384 2.39252 18.2371 3.67952 17.6266C3.02327 16.9951 2.61077 16.1124 2.61077 15.1314C2.61077 13.2181 4.16777 11.6611 6.08102 11.6611C7.99427 11.6611 9.55127 13.2181 9.55127 15.1314ZM8.20127 15.1314C8.20127 13.9621 7.25027 13.0111 6.08102 13.0111C4.91177 13.0111 3.96077 13.9621 3.96077 15.1314C3.96077 16.3006 4.91177 17.2516 6.08102 17.2516C7.25027 17.2516 8.20127 16.3006 8.20127 15.1314ZM3.32552 21.5889C5.30252 21.9099 7.33877 21.8986 9.30527 21.5221L9.31802 21.0549C9.31802 19.7019 8.21777 18.6016 6.86477 18.6016H5.29802C3.94502 18.6016 2.84477 19.7019 2.84477 21.0549V21.5019C2.97069 21.5285 3.09707 21.55 3.22355 21.5715C3.25754 21.5772 3.29153 21.583 3.32552 21.5889Z" fill="url(#paint0_linear_11707_40537)"/>
<defs>
<linearGradient id="paint0_linear_11707_40537" x1="1.25183" y1="22.9971" x2="22.2518" y2="0.997071" gradientUnits="userSpaceOnUse">
<stop stop-color="#0D60F5"/>
<stop offset="1" stop-color="#25B1FF"/>
</linearGradient>
</defs>
</svg>