<svg width="24" height="24" viewBox="0 0 24 24" fill="none" xmlns="http://www.w3.org/2000/svg">
<path d="M18 3.75H16.75V3C16.75 2.80109 16.671 2.61032 16.5304 2.46967C16.3897 2.32902 16.1989 2.25 16 2.25C15.8011 2.25 15.6104 2.32902 15.4697 2.46967C15.3291 2.61032 15.25 2.80109 15.25 3V3.75H8.75004V3C8.75004 2.80109 8.67102 2.61032 8.53037 2.46967C8.38971 2.32902 8.19895 2.25 8.00004 2.25C7.80112 2.25 7.61036 2.32902 7.46971 2.46967C7.32905 2.61032 7.25004 2.80109 7.25004 3V3.75H6.00004C5.49338 3.69128 4.98 3.74788 4.4983 3.91557C4.0166 4.08326 3.57906 4.3577 3.2184 4.71836C2.85774 5.07902 2.5833 5.51657 2.4156 5.99826C2.24791 6.47996 2.19131 6.99334 2.25004 7.5V18C2.19131 18.5067 2.24791 19.02 2.4156 19.5017C2.5833 19.9834 2.85774 20.421 3.2184 20.7816C3.57906 21.1423 4.0166 21.4167 4.4983 21.5844C4.98 21.7521 5.49338 21.8087 6.00004 21.75H18C18.5067 21.8087 19.0201 21.7521 19.5018 21.5844C19.9835 21.4167 20.421 21.1423 20.7817 20.7816C21.1423 20.421 21.4168 19.9834 21.5845 19.5017C21.7522 19.02 21.8088 18.5067 21.75 18V7.5C21.8088 6.99334 21.7522 6.47996 21.5845 5.99826C21.4168 5.51657 21.1423 5.07902 20.7817 4.71836C20.421 4.3577 19.9835 4.08326 19.5018 3.91557C19.0201 3.74788 18.5067 3.69128 18 3.75ZM6.00004 5.25H7.25004V6C7.25004 6.19891 7.32905 6.38968 7.46971 6.53033C7.61036 6.67098 7.80112 6.75 8.00004 6.75C8.19895 6.75 8.38971 6.67098 8.53037 6.53033C8.67102 6.38968 8.75004 6.19891 8.75004 6V5.25H15.25V6C15.25 6.19891 15.3291 6.38968 15.4697 6.53033C15.6104 6.67098 15.8011 6.75 16 6.75C16.1989 6.75 16.3897 6.67098 16.5304 6.53033C16.671 6.38968 16.75 6.19891 16.75 6V5.25H18C19.577 5.25 20.25 5.923 20.25 7.5V8.25H3.75004V7.5C3.75004 5.923 4.42304 5.25 6.00004 5.25ZM18 20.25H6.00004C4.42304 20.25 3.75004 19.577 3.75004 18V9.75H20.25V18C20.25 19.577 19.577 20.25 18 20.25ZM15.03 12.8C15.0997 12.8697 15.155 12.9524 15.1927 13.0434C15.2305 13.1344 15.2499 13.232 15.2499 13.3305C15.2499 13.429 15.2305 13.5266 15.1927 13.6176C15.155 13.7086 15.0997 13.7913 15.03 13.861L11.7 17.2C11.6305 17.2698 11.5479 17.3252 11.457 17.3629C11.366 17.4007 11.2685 17.4202 11.17 17.4202C11.0715 17.4202 10.974 17.4007 10.8831 17.3629C10.7921 17.3252 10.7095 17.2698 10.64 17.2L8.97004 15.53C8.83756 15.3878 8.76543 15.1998 8.76886 15.0055C8.77229 14.8112 8.851 14.6258 8.98841 14.4884C9.12583 14.351 9.31121 14.2723 9.50551 14.2688C9.69981 14.2654 9.88786 14.3375 10.03 14.47L11.167 15.606L13.967 12.806C14.0363 12.7355 14.1187 12.6794 14.2098 12.6409C14.3008 12.6024 14.3985 12.5823 14.4973 12.5817C14.5961 12.5812 14.694 12.6002 14.7855 12.6376C14.8769 12.6751 14.96 12.7303 15.03 12.8Z" fill="url(#paint0_linear_11707_40527)"/>
<defs>
<linearGradient id="paint0_linear_11707_40527" x1="2.25098" y1="22" x2="21.751" y2="3.5" gradientUnits="userSpaceOnUse">
<stop stop-color="#FF8306"/>
<stop offset="1" stop-color="#FFC20A"/>
</linearGradient>
</defs>
</svg>