<svg width="25" height="24" viewBox="0 0 25 24" fill="none" xmlns="http://www.w3.org/2000/svg">
<g clip-path="url(#clip0_6245_4907)">
<path d="M19.826 14.1082C18.6856 14.1082 17.6601 14.6075 16.955 15.3985L15.3597 14.4347C15.6549 13.7651 15.8192 13.0254 15.8192 12.2479C15.8192 10.7683 15.2251 9.42519 14.2633 8.44353L16.5368 5.54999C16.8991 5.71293 17.3003 5.80438 17.7227 5.80438C19.3229 5.80438 20.6249 4.50248 20.6249 2.90217C20.6249 1.30186 19.323 0 17.7228 0C16.1225 0 14.8206 1.3019 14.8206 2.90221C14.8206 3.10907 14.8428 3.31082 14.8841 3.50554C14.9766 3.94106 15.1672 4.34043 15.4314 4.68013L13.1582 7.57339C12.3445 7.08795 11.3943 6.80853 10.3799 6.80853C9.00253 6.80853 7.74333 7.32341 6.78399 8.17053L5.39869 6.95961C5.5321 6.66182 5.60691 6.33233 5.60691 5.98555C5.60691 5.81511 5.58868 5.6489 5.5546 5.48844C5.32515 4.40765 4.3637 3.59423 3.21559 3.59423C1.89695 3.59423 0.824219 4.66696 0.824219 5.98555C0.824219 7.30414 1.89695 8.37692 3.21559 8.37692C3.67651 8.37692 4.1072 8.24548 4.47273 8.01866L5.85755 9.22911C5.2787 10.0934 4.94063 11.1319 4.94063 12.248C4.94063 13.7691 5.56852 15.1461 6.57839 16.1342L4.85635 18.4247C4.50891 18.2774 4.12707 18.1958 3.72653 18.1958C2.12626 18.1958 0.824312 19.4977 0.824312 21.098C0.824312 22.6983 2.12617 24 3.72648 24C5.32679 24 6.62869 22.6981 6.62869 21.0978C6.62869 20.9076 6.60975 20.7219 6.57469 20.5417C6.48211 20.0669 6.27366 19.6331 5.97971 19.2713L7.7018 16.9807C8.49291 17.4302 9.40697 17.6873 10.38 17.6873C12.0985 17.6873 13.6332 16.886 14.6307 15.6377L16.2261 16.6015C16.0672 17.0227 15.9796 17.4786 15.9796 17.9547C15.9796 18.2068 16.0047 18.453 16.0512 18.6917C16.3961 20.4612 17.9571 21.8011 19.826 21.8011C21.947 21.8011 23.6725 20.0756 23.6725 17.9547C23.6725 15.8337 21.9469 14.1082 19.826 14.1082ZM17.7228 1.40667C18.5474 1.40667 19.2183 2.07754 19.2183 2.90221C19.2183 3.72688 18.5474 4.39776 17.7228 4.39776C16.8981 4.39776 16.2273 3.72684 16.2273 2.90221C16.2273 2.07759 16.8981 1.40667 17.7228 1.40667ZM3.21554 6.97011C2.67254 6.97011 2.23089 6.52836 2.23089 5.98546C2.23089 5.44251 2.67259 5.00085 3.21554 5.00085C3.75849 5.00085 4.2002 5.44255 4.2002 5.98546C4.20024 6.52836 3.75854 6.97011 3.21554 6.97011ZM3.72639 22.5933C2.90176 22.5933 2.23084 21.9224 2.23084 21.0977C2.23084 20.2731 2.90171 19.6022 3.72639 19.6022C4.55101 19.6022 5.22193 20.2731 5.22193 21.0977C5.22188 21.9224 4.55101 22.5933 3.72639 22.5933ZM10.3799 16.2805C8.15625 16.2805 6.34725 14.4715 6.34725 12.2479C6.34725 10.0243 8.15635 8.2152 10.3799 8.2152C12.6035 8.2152 14.4126 10.0243 14.4126 12.2479C14.4126 14.4715 12.6035 16.2805 10.3799 16.2805ZM19.826 20.3944C18.4807 20.3944 17.3862 19.2999 17.3862 17.9546C17.3862 16.6094 18.4807 15.5149 19.826 15.5149C21.1714 15.5149 22.2658 16.6094 22.2658 17.9546C22.2658 19.2999 21.1714 20.3944 19.826 20.3944Z" fill="url(#paint0_linear_6245_4907)"/>
</g>
<defs>
<linearGradient id="paint0_linear_6245_4907" x1="1" y1="24" x2="24" y2="-3.9423e-07" gradientUnits="userSpaceOnUse">
<stop stop-color="#FB11A1"/>
<stop offset="1" stop-color="#F553CF"/>
</linearGradient>
<clipPath id="clip0_6245_4907">
<rect width="24" height="24" fill="white" transform="translate(0.25)"/>
</clipPath>
</defs>
</svg>
