<svg width="28" height="28" viewBox="0 0 28 28" fill="none" xmlns="http://www.w3.org/2000/svg">
<rect width="28" height="28" rx="14" fill="#2F80ED"/>
<path d="M20.6848 6.00619C20.5738 5.99604 20.4616 5.99819 20.3485 6.01401C18.5168 6.27099 14.5814 6.8372 10.5493 11.6049H8.44741L6.30489 13.835C6.00703 14.1328 5.91795 14.5773 6.07969 14.9672C6.24064 15.3572 6.61795 15.6084 7.03992 15.6084H9.00884C8.74457 15.908 8.60994 16.2269 8.474 16.5796C8.32343 16.9702 8.19807 17.3956 8.09397 17.7963C7.88579 18.5977 7.76243 19.3117 7.76243 19.3117L7.56382 20.4361L8.68825 20.2375C8.68825 20.2375 9.40226 20.1142 10.2036 19.906C10.6043 19.8019 11.0297 19.6765 11.4204 19.5259C11.7731 19.39 12.0919 19.2554 12.3915 18.9911V20.96C12.3915 21.382 12.6428 21.7601 13.0327 21.9202C13.1648 21.9755 13.3024 22 13.4378 22C13.7028 22 13.959 21.9018 14.1384 21.7216L16.3951 19.6651V17.4507C21.1608 13.419 21.7283 9.48307 21.9859 7.65139C22.0492 7.19659 21.9005 6.74959 21.5762 6.42531C21.3324 6.18149 21.0177 6.03663 20.6848 6.00619ZM17.5961 9.20276C18.2591 9.20276 18.7972 9.74083 18.7972 10.4038C18.7972 11.0668 18.2591 11.6049 17.5961 11.6049C16.9331 11.6049 16.3951 11.0668 16.3951 10.4038C16.3951 9.74083 16.9331 9.20276 17.5961 9.20276ZM14.3933 12.4056C15.0563 12.4056 15.5943 12.9437 15.5943 13.6066C15.5943 14.2696 15.0563 14.8077 14.3933 14.8077C13.7303 14.8077 13.1922 14.2696 13.1922 13.6066C13.1922 12.9437 13.7303 12.4056 14.3933 12.4056ZM10.5024 16.3653L11.6346 17.4976L11.3562 17.776C11.3707 17.7614 11.1435 17.9167 10.8433 18.0324C10.5431 18.1481 10.1642 18.26 9.80017 18.3546C9.69603 18.3816 9.70118 18.3744 9.60156 18.3984C9.6255 18.2988 9.61829 18.3039 9.64534 18.1998C9.73993 17.8357 9.85181 17.4568 9.9675 17.1567C10.0832 16.8565 10.2385 16.6292 10.224 16.6437L10.5024 16.3653Z" fill="white"/>
</svg>
