<svg width="25" height="25" viewBox="0 0 25 25" fill="none" xmlns="http://www.w3.org/2000/svg">
<g id="attach_money">
<path id="Vector" d="M13.1402 11.6109C10.8702 11.0209 10.1402 10.4109 10.1402 9.46094C10.1402 8.37094 11.1502 7.61094 12.8402 7.61094C14.6202 7.61094 15.2802 8.46094 15.3402 9.71094H17.5502C17.4802 7.99094 16.4302 6.41094 14.3402 5.90094V3.71094H11.3402V5.87094C9.40016 6.29094 7.84016 7.55094 7.84016 9.48094C7.84016 11.7909 9.75016 12.9409 12.5402 13.6109C15.0402 14.2109 15.5402 15.0909 15.5402 16.0209C15.5402 16.7109 15.0502 17.8109 12.8402 17.8109C10.7802 17.8109 9.97016 16.8909 9.86016 15.7109H7.66016C7.78016 17.9009 9.42016 19.1309 11.3402 19.5409V21.7109H14.3402V19.5609C16.2902 19.1909 17.8402 18.0609 17.8402 16.0109C17.8402 13.1709 15.4102 12.2009 13.1402 11.6109Z" fill="#1A1623"/>
</g>
</svg>
