<svg width="24" height="25" viewBox="0 0 24 25" fill="none" xmlns="http://www.w3.org/2000/svg">
<g id="directions_run">
<path id="Vector" d="M14.5492 5.96094C15.6492 5.96094 16.5492 5.06094 16.5492 3.96094C16.5492 2.86094 15.6492 1.96094 14.5492 1.96094C13.4492 1.96094 12.5492 2.86094 12.5492 3.96094C12.5492 5.06094 13.4492 5.96094 14.5492 5.96094ZM10.9492 19.8609L11.9492 15.4609L14.0492 17.4609V23.4609H16.0492V15.9609L13.9492 13.9609L14.5492 10.9609C15.8492 12.4609 17.8492 13.4609 20.0492 13.4609V11.4609C18.1492 11.4609 16.5492 10.4609 15.7492 9.06094L14.7492 7.46094C14.3492 6.86094 13.7492 6.46094 13.0492 6.46094C12.7492 6.46094 12.5492 6.56094 12.2492 6.56094L7.04922 8.76094V13.4609H9.04922V10.0609L10.8492 9.36094L9.24922 17.4609L4.34922 16.4609L3.94922 18.4609L10.9492 19.8609Z" fill="#1A1623"/>
</g>
</svg>
