<svg width="188" height="188" viewBox="0 0 188 188" fill="none" xmlns="http://www.w3.org/2000/svg">
<g clip-path="url(#clip0_5370_10281)">
<path d="M24.8597 132.996C13.4854 117.16 10.2337 95.1831 27.0594 73.2064C37.26 59.8829 66.5792 57.0043 79.5591 38.3788C96.8663 13.5438 155.071 24.2248 165.201 68.1158C171.09 93.6263 153.634 132.054 129.838 147.658C99.3901 167.623 44.5254 160.376 24.8596 132.996L24.8597 132.996Z" fill="#6878B9"/>
<path d="M61.5024 59.3855C69.5043 59.3855 75.9911 52.8959 75.9911 44.8905C75.9911 36.8851 69.5043 30.3955 61.5024 30.3955C53.5005 30.3955 47.0137 36.8851 47.0137 44.8905C47.0137 52.8959 53.5005 59.3855 61.5024 59.3855Z" fill="white"/>
<path d="M67.0659 78.3919C70.3987 78.3919 73.1005 75.6889 73.1005 72.3546C73.1005 69.0204 70.3987 66.3174 67.0659 66.3174C63.7331 66.3174 61.0312 69.0204 61.0312 72.3546C61.0312 75.6889 63.7331 78.3919 67.0659 78.3919Z" fill="white"/>
<path d="M87.5403 55.9681C89.8483 55.9681 91.7193 54.0963 91.7193 51.7873C91.7193 49.4783 89.8483 47.6064 87.5403 47.6064C85.2323 47.6064 83.3613 49.4783 83.3613 51.7873C83.3613 54.0963 85.2323 55.9681 87.5403 55.9681Z" fill="white"/>
</g>
<g clip-path="url(#clip1_5370_10281)">
<path d="M99.5052 50.3983L104.528 74.983C105.312 78.821 110.076 80.1883 112.766 77.3468L132.481 56.5159C135.17 53.6745 133.562 48.973 129.7 48.387L104.961 44.6333C101.639 44.1291 98.8306 47.0964 99.5052 50.3983Z" fill="#DB485A"/>
<path d="M109.299 79.1136C108.813 79.1128 108.33 79.0439 107.864 78.909C106.009 78.3769 104.671 76.9279 104.284 75.0327L99.2613 50.4482C98.9234 48.7934 99.3944 47.1419 100.554 45.9167C101.713 44.6917 103.333 44.1345 104.998 44.3866L129.736 48.1403C131.643 48.4296 133.156 49.6948 133.782 51.5245C134.408 53.3542 133.989 55.2842 132.661 56.6872L112.946 77.5183C111.961 78.5589 110.661 79.1138 109.299 79.1138V79.1136ZM99.7482 50.3481L104.771 74.9328C105.12 76.6425 106.327 77.9498 108 78.43C109.673 78.9098 111.387 78.4409 112.585 77.1752L132.301 56.344C133.499 55.0783 133.877 53.337 133.312 51.6864C132.747 50.0355 131.383 48.8942 129.662 48.6331L104.924 44.8795C103.422 44.6517 101.96 45.1548 100.914 46.2599C99.8683 47.3652 99.4433 48.8552 99.7482 50.3481Z" fill="#1A1A1A"/>
<path d="M118.664 64.6763C119.498 64.6763 120.174 63.9983 120.174 63.1619C120.174 62.3255 119.498 61.6475 118.664 61.6475C117.83 61.6475 117.154 62.3255 117.154 63.1619C117.154 63.9983 117.83 64.6763 118.664 64.6763Z" fill="white"/>
<path d="M115.962 61.696C116.571 61.696 117.065 61.2007 117.065 60.5897C117.065 59.9787 116.571 59.4834 115.962 59.4834C115.353 59.4834 114.859 59.9787 114.859 60.5897C114.859 61.2007 115.353 61.696 115.962 61.696Z" fill="white"/>
<path d="M115.278 61.4568L106.645 54.6009L109.516 51.5664L116.791 59.8586L115.278 61.4568Z" fill="white"/>
<path d="M107.944 55.0546C109.1 55.0546 110.038 54.1141 110.038 52.954C110.038 51.794 109.1 50.8535 107.944 50.8535C106.787 50.8535 105.85 51.794 105.85 52.954C105.85 54.1141 106.787 55.0546 107.944 55.0546Z" fill="white"/>
</g>
<g clip-path="url(#clip2_5370_10281)">
<path d="M168.408 152.135L96.5605 166.517L62.4172 173.351C58.7617 174.082 55.2041 171.716 54.4724 168.066L42.3166 107.518C41.5838 103.869 43.9526 100.317 47.6081 99.5853L153.599 78.3702C156.973 77.6944 160.264 79.6588 161.326 82.8369C161.416 83.1043 161.489 83.3771 161.545 83.6537L170.455 128.042L173.699 144.202C174.432 147.851 172.062 151.404 168.408 152.135Z" fill="white"/>
<path d="M168.408 152.134L96.5605 166.517C97.2984 166.022 98.0337 165.528 98.7543 165.023L108.318 158.335C109.953 157.191 111.672 156.012 113.65 155.738C116.057 155.405 118.426 156.459 120.847 156.666C125.037 157.023 129.033 154.817 132.29 152.16C135.547 149.502 138.391 146.312 141.961 144.092C145.531 141.873 150.189 140.753 153.939 142.655C155.07 143.229 156.065 144.051 157.215 144.589C158.365 145.126 159.785 145.342 160.866 144.678C162.948 143.403 162.277 140.321 162.264 137.883C162.239 133.288 165.897 129.039 170.392 128.054C170.413 128.048 170.434 128.045 170.455 128.041L173.699 144.201C174.432 147.85 172.062 151.404 168.408 152.134L168.408 152.134Z" fill="#449399"/>
<path d="M61.0896 173.732C57.8228 173.732 54.8931 171.432 54.2282 168.115L42.0723 107.567C41.7048 105.737 42.0732 103.873 43.1094 102.32C44.1458 100.766 45.726 99.7083 47.5591 99.3413L153.55 78.1261C157.003 77.4342 160.448 79.4256 161.563 82.7578C161.656 83.0352 161.731 83.318 161.789 83.6047L173.943 144.153C174.311 145.983 173.942 147.846 172.906 149.401C171.869 150.955 170.289 152.012 168.457 152.379L96.6094 166.761L62.4661 173.595C62.0129 173.686 61.5518 173.732 61.0895 173.732H61.0896ZM154.925 78.4868C154.503 78.4868 154.075 78.5282 153.647 78.6137L47.657 99.829C45.9544 100.17 44.4865 101.152 43.524 102.596C42.5616 104.039 42.2194 105.769 42.5608 107.469L54.7166 168.017C55.3342 171.098 58.0557 173.234 61.0898 173.234C61.5116 173.234 61.9392 173.193 62.3684 173.107L96.5115 166.273L168.359 151.891C170.061 151.551 171.528 150.568 172.491 149.125C173.454 147.682 173.796 145.951 173.455 144.251L161.3 83.7023C161.247 83.436 161.176 83.1732 161.09 82.9155C160.193 80.2335 157.67 78.4869 154.925 78.4869L154.925 78.4868Z" fill="#1A1A1A"/>
<path d="M51.725 98.7607L66.5339 172.526L62.4171 173.35C58.7613 174.082 55.2044 171.716 54.4719 168.066L42.3165 107.518C41.584 103.869 43.9525 100.317 47.6084 99.5848L51.725 98.7607Z" fill="#449399"/>
<path d="M61.0882 173.731C57.8224 173.731 54.8935 171.432 54.2277 168.115L42.0723 107.567C41.7049 105.737 42.0732 103.873 43.1094 102.319C44.1457 100.765 45.7261 99.7075 47.5593 99.3407L51.676 98.5166C51.7081 98.5102 51.7411 98.5101 51.7732 98.5164C51.8053 98.5227 51.8359 98.5352 51.8631 98.5533C51.8903 98.5714 51.9137 98.5947 51.9319 98.6219C51.9501 98.649 51.9628 98.6795 51.9692 98.7115L66.7781 172.477C66.7911 172.542 66.7778 172.609 66.7412 172.664C66.7046 172.719 66.6476 172.757 66.5828 172.77L62.4661 173.594C62.0124 173.685 61.5509 173.731 61.0882 173.731ZM51.5297 99.0533L47.6572 99.8283C45.9544 100.169 44.4865 101.152 43.524 102.595C42.5615 104.038 42.2194 105.769 42.5606 107.469L54.7161 168.017C55.4205 171.526 58.8532 173.81 62.3682 173.106L66.2407 172.331L51.5297 99.0533Z" fill="#1A1A1A"/>
<path d="M161.326 82.8365L161.544 83.654L42.3165 107.519C41.584 103.87 43.9525 100.317 47.6084 99.5854L153.599 78.37C156.973 77.6946 160.264 79.6594 161.326 82.8365Z" fill="#449399"/>
<path d="M42.3163 107.767C42.2588 107.767 42.203 107.748 42.1586 107.711C42.1141 107.675 42.0836 107.624 42.0723 107.568C41.7049 105.738 42.0732 103.874 43.1094 102.32C44.1457 100.766 45.7261 99.7084 47.5593 99.3415L153.55 78.1261C157.004 77.4342 160.449 79.4259 161.562 82.7576C161.564 82.7625 161.566 82.7673 161.567 82.7723L161.785 83.5899C161.794 83.6227 161.796 83.6569 161.791 83.6905C161.786 83.7241 161.774 83.7563 161.756 83.7852C161.738 83.814 161.714 83.8389 161.686 83.8582C161.658 83.8776 161.627 83.891 161.593 83.8977L42.3655 107.763C42.3493 107.766 42.3328 107.767 42.3163 107.767ZM154.925 78.4868C154.503 78.4868 154.076 78.5281 153.648 78.6138L47.6572 99.8291C45.9544 100.17 44.4865 101.153 43.524 102.596C42.6077 103.97 42.2536 105.604 42.5163 107.225L161.235 83.462L161.087 82.9077C160.189 80.2304 157.668 78.4868 154.925 78.4868Z" fill="#1A1A1A"/>
</g>
<g clip-path="url(#clip3_5370_10281)">
<path d="M143.632 65.3958L164.341 123.607C165.589 127.115 163.751 130.971 160.237 132.217L58.3207 168.355C54.8053 169.602 50.9443 167.767 49.6961 164.258L28.987 106.047C27.7389 102.539 29.5754 98.6836 33.0907 97.4371L135.007 61.2988C138.252 60.1483 141.792 61.6236 143.299 64.6175C143.426 64.8699 143.537 65.1298 143.632 65.3958H143.632Z" fill="#1A1A1A"/>
<path d="M56.0659 168.993C53.1842 168.993 50.4786 167.203 49.4604 164.341L28.7512 106.13C28.1253 104.371 28.223 102.473 29.0266 100.787C29.8302 99.1003 31.2437 97.8274 33.0064 97.2024L134.923 61.064C138.244 59.8868 141.94 61.3658 143.52 64.5054C143.652 64.7671 143.767 65.0365 143.866 65.3123L164.575 123.523C165.867 127.156 163.958 131.161 160.32 132.451L58.4032 168.589C57.6529 168.856 56.8624 168.993 56.0659 168.993ZM137.261 61.1584C136.538 61.1584 135.804 61.2793 135.089 61.5329L33.1732 97.6713C31.5359 98.2519 30.2231 99.4342 29.4766 101.001C28.7303 102.567 28.6395 104.33 29.2209 105.964L49.93 164.175C51.1304 167.549 54.8568 169.319 58.2362 168.12L160.153 131.982C163.532 130.784 165.305 127.064 164.105 123.69L143.396 65.4787C143.304 65.2223 143.197 64.9718 143.075 64.7286C141.948 62.4887 139.66 61.1586 137.261 61.1586L137.261 61.1584Z" fill="#1A1A1A"/>
<path d="M37.0493 96.0332L62.2792 166.951L58.3208 168.355C54.8054 169.601 50.9444 167.766 49.6962 164.258L28.987 106.047C27.7389 102.539 29.5754 98.6834 33.0907 97.4368L37.0492 96.0332H37.0493Z" fill="#AB3B78"/>
<path d="M56.0659 168.993C53.1842 168.993 50.4786 167.203 49.4604 164.341L28.7512 106.13C28.1253 104.37 28.223 102.473 29.0266 100.787C29.8302 99.1 31.2437 97.8271 33.0064 97.2021L36.9648 95.7984C37.0271 95.7764 37.0957 95.78 37.1554 95.8083C37.2151 95.8365 37.261 95.8875 37.2831 95.9497L62.513 166.868C62.5352 166.93 62.5316 166.998 62.5032 167.058C62.4748 167.117 62.4239 167.163 62.3616 167.185L58.4032 168.589C57.6529 168.856 56.8624 168.992 56.0659 168.993ZM36.8968 96.3505L33.1732 97.671C31.5359 98.2516 30.2231 99.4339 29.4767 101C28.7303 102.567 28.6395 104.329 29.2209 105.964L49.93 164.174C51.1304 167.549 54.8568 169.318 58.2362 168.12L61.9598 166.8L36.8968 96.3505Z" fill="#1A1A1A"/>
<path d="M143.299 64.6174L143.632 65.3956L28.987 106.047C27.7389 102.539 29.5754 98.6836 33.0907 97.4371L135.007 61.2988C138.252 60.1483 141.792 61.6235 143.299 64.6174Z" fill="#AB3B78"/>
<path d="M28.986 106.296C28.9345 106.296 28.8843 106.28 28.8423 106.25C28.8003 106.221 28.7685 106.179 28.7512 106.13C28.1253 104.371 28.223 102.473 29.0266 100.787C29.8302 99.1003 31.2437 97.8274 33.0064 97.2024L134.923 61.064C138.244 59.8868 141.94 61.3658 143.52 64.5054C143.523 64.51 143.525 64.5147 143.527 64.5194L143.86 65.2978C143.873 65.3291 143.88 65.3627 143.88 65.3967C143.88 65.4307 143.873 65.4642 143.859 65.4954C143.845 65.5265 143.825 65.5545 143.8 65.5776C143.775 65.6008 143.746 65.6186 143.714 65.63L29.0695 106.282C29.0427 106.291 29.0144 106.296 28.986 106.296ZM137.261 61.1584C136.538 61.1584 135.804 61.2793 135.089 61.5329L33.1732 97.6713C31.5359 98.2519 30.2231 99.4342 29.4767 101.001C28.7661 102.492 28.6497 104.161 29.1419 105.728L143.297 65.2497L143.071 64.722C141.943 62.4861 139.657 61.1584 137.261 61.1584Z" fill="#1A1A1A"/>
<path d="M135.894 66.0828C136.681 66.0828 137.318 65.4465 137.318 64.6615C137.318 63.8766 136.681 63.2402 135.894 63.2402C135.108 63.2402 134.471 63.8766 134.471 64.6615C134.471 65.4465 135.108 66.0828 135.894 66.0828Z" fill="white"/>
<path d="M131.594 67.5457C132.38 67.5457 133.017 66.9094 133.017 66.1244C133.017 65.3395 132.38 64.7031 131.594 64.7031C130.807 64.7031 130.17 65.3395 130.17 66.1244C130.17 66.9094 130.807 67.5457 131.594 67.5457Z" fill="white"/>
<path d="M127.367 69.1014C128.153 69.1014 128.791 68.4651 128.791 67.6801C128.791 66.8951 128.153 66.2588 127.367 66.2588C126.581 66.2588 125.943 66.8951 125.943 67.6801C125.943 68.4651 126.581 69.1014 127.367 69.1014Z" fill="white"/>
<path d="M47.3468 106.885C47.2881 106.885 47.2312 106.864 47.1863 106.826C47.1414 106.788 47.1113 106.736 47.1013 106.678C47.0913 106.62 47.1021 106.561 47.1317 106.51C47.1614 106.459 47.208 106.421 47.2633 106.401L67.7594 99.1334C67.8212 99.1132 67.8885 99.1179 67.9469 99.1466C68.0052 99.1752 68.0501 99.2255 68.0718 99.2867C68.0936 99.3479 68.0906 99.4151 68.0634 99.4741C68.0362 99.5331 67.987 99.5791 67.9262 99.6024L47.4302 106.87C47.4034 106.88 47.3752 106.885 47.3468 106.885ZM72.4613 97.9792C72.4025 97.9791 72.3456 97.9584 72.3007 97.9206C72.2558 97.8828 72.2257 97.8303 72.2157 97.7725C72.2057 97.7147 72.2165 97.6553 72.2462 97.6046C72.2758 97.554 72.3224 97.5154 72.3778 97.4958L76.9056 95.8903C76.9678 95.8682 77.0364 95.8718 77.0961 95.9001C77.1558 95.9285 77.2017 95.9793 77.2239 96.0415C77.246 96.1037 77.2425 96.1722 77.2141 96.2317C77.1857 96.2913 77.1347 96.3372 77.0724 96.3593L72.5446 97.9648C72.5178 97.9742 72.4897 97.9791 72.4613 97.9792ZM53.0608 111.957C53.002 111.957 52.9452 111.936 52.9002 111.899C52.8553 111.861 52.8252 111.808 52.8152 111.75C52.8052 111.693 52.816 111.633 52.8457 111.583C52.8753 111.532 52.9219 111.493 52.9773 111.474L60.0105 108.98C60.0413 108.969 60.074 108.964 60.1067 108.966C60.1394 108.967 60.1714 108.976 60.201 108.99C60.2305 109.004 60.257 109.023 60.279 109.048C60.3009 109.072 60.3178 109.1 60.3288 109.131C60.3397 109.162 60.3445 109.194 60.3428 109.227C60.3411 109.26 60.333 109.292 60.319 109.321C60.3049 109.351 60.2852 109.377 60.2608 109.399C60.2365 109.421 60.2082 109.438 60.1773 109.449L53.1441 111.943C53.1174 111.952 53.0892 111.957 53.0608 111.957ZM64.7124 107.826C64.6537 107.826 64.5968 107.805 64.5519 107.767C64.507 107.729 64.4769 107.677 64.4669 107.619C64.4569 107.561 64.4677 107.502 64.4974 107.451C64.527 107.401 64.5736 107.362 64.629 107.342L81.0198 101.53C81.0821 101.508 81.1506 101.512 81.2103 101.54C81.27 101.568 81.316 101.619 81.3381 101.681C81.3602 101.744 81.3567 101.812 81.3283 101.872C81.2999 101.931 81.2489 101.977 81.1866 101.999L64.7958 107.811C64.769 107.821 64.7409 107.826 64.7124 107.826ZM55.3034 118.261C55.2446 118.261 55.1877 118.24 55.1428 118.202C55.0979 118.164 55.0678 118.112 55.0578 118.054C55.0478 117.996 55.0586 117.937 55.0883 117.886C55.1179 117.836 55.1645 117.797 55.2199 117.777L68.8034 112.961C68.8657 112.939 68.9342 112.942 68.9939 112.971C69.0536 112.999 69.0995 113.05 69.1217 113.112C69.1438 113.174 69.1403 113.243 69.1119 113.302C69.0835 113.362 69.0325 113.408 68.9702 113.43L55.3867 118.246C55.3599 118.256 55.3318 118.261 55.3034 118.261Z" fill="#FECE2F"/>
<path d="M73.5053 111.806C73.4466 111.806 73.3897 111.785 73.3448 111.747C73.2999 111.71 73.2698 111.657 73.2598 111.599C73.2498 111.542 73.2606 111.482 73.2902 111.431C73.3199 111.381 73.3665 111.342 73.4218 111.323L85.2546 107.127C85.2854 107.116 85.3181 107.111 85.3508 107.113C85.3835 107.114 85.4155 107.122 85.4451 107.136C85.4747 107.15 85.5012 107.17 85.5231 107.194C85.545 107.219 85.5619 107.247 85.5729 107.278C85.5838 107.309 85.5886 107.341 85.5869 107.374C85.5853 107.407 85.5771 107.439 85.5631 107.468C85.549 107.498 85.5293 107.524 85.505 107.546C85.4807 107.568 85.4523 107.585 85.4214 107.596L73.5887 111.792C73.5619 111.801 73.5337 111.806 73.5053 111.806ZM57.546 124.564C57.4873 124.564 57.4304 124.543 57.3855 124.505C57.3406 124.467 57.3105 124.415 57.3005 124.357C57.2905 124.299 57.3013 124.24 57.331 124.189C57.3606 124.139 57.4072 124.1 57.4626 124.08L60.7829 122.903C60.8452 122.881 60.9137 122.884 60.9734 122.913C61.0331 122.941 61.0791 122.992 61.1012 123.054C61.1233 123.116 61.1198 123.185 61.0914 123.244C61.063 123.304 61.012 123.35 60.9497 123.372L57.6294 124.549C57.6026 124.559 57.5744 124.564 57.546 124.564Z" fill="white"/>
<path d="M82.1027 115.857C82.0439 115.857 81.9871 115.836 81.9422 115.799C81.8972 115.761 81.8671 115.708 81.8571 115.651C81.8472 115.593 81.8579 115.533 81.8876 115.483C81.9172 115.432 81.9638 115.393 82.0192 115.374L86.9546 113.624C87.0169 113.602 87.0854 113.605 87.1451 113.634C87.2048 113.662 87.2508 113.713 87.2729 113.775C87.295 113.837 87.2915 113.906 87.2631 113.965C87.2347 114.025 87.1837 114.071 87.1214 114.093L82.186 115.843C82.1593 115.852 82.1311 115.857 82.1027 115.857Z" fill="#FECE2F"/>
<path d="M65.4855 121.75C65.4267 121.75 65.3699 121.729 65.325 121.691C65.28 121.653 65.2499 121.601 65.24 121.543C65.23 121.485 65.2408 121.426 65.2704 121.375C65.3001 121.324 65.3467 121.286 65.402 121.266L77.7177 116.899C77.78 116.877 77.8486 116.881 77.9083 116.909C77.9679 116.937 78.0139 116.988 78.036 117.05C78.0582 117.113 78.0546 117.181 78.0262 117.241C77.9978 117.3 77.9469 117.346 77.8846 117.368L65.5689 121.735C65.5421 121.745 65.5139 121.75 65.4855 121.75Z" fill="white"/>
<path d="M56.3175 132.099C56.2588 132.099 56.2019 132.078 56.157 132.04C56.1121 132.002 56.082 131.95 56.072 131.892C56.062 131.834 56.0728 131.775 56.1024 131.724C56.1321 131.674 56.1787 131.635 56.234 131.615L80.2014 123.117C80.2637 123.095 80.3323 123.098 80.392 123.127C80.4517 123.155 80.4976 123.206 80.5198 123.268C80.5419 123.33 80.5384 123.399 80.5099 123.458C80.4815 123.518 80.4306 123.564 80.3683 123.586L56.4009 132.084C56.3741 132.094 56.3459 132.099 56.3175 132.099Z" fill="#FECE2F"/>
<path d="M62.0324 137.172C61.9736 137.172 61.9168 137.151 61.8718 137.113C61.8269 137.075 61.7968 137.023 61.7868 136.965C61.7768 136.907 61.7876 136.848 61.8173 136.797C61.8469 136.747 61.8935 136.708 61.9489 136.688L75.5324 131.872C75.5947 131.85 75.6632 131.853 75.7229 131.882C75.7826 131.91 75.8286 131.961 75.8507 132.023C75.8728 132.085 75.8693 132.154 75.8409 132.213C75.8125 132.273 75.7615 132.319 75.6992 132.341L62.1157 137.157C62.089 137.167 62.0608 137.172 62.0324 137.172Z" fill="white"/>
<path d="M80.2338 130.717C80.1751 130.717 80.1182 130.696 80.0733 130.658C80.0284 130.62 79.9983 130.568 79.9883 130.51C79.9783 130.452 79.9891 130.393 80.0187 130.342C80.0484 130.292 80.095 130.253 80.1504 130.233L95.9676 124.625C96.0299 124.603 96.0984 124.606 96.1581 124.634C96.2178 124.663 96.2638 124.714 96.2859 124.776C96.308 124.838 96.3045 124.907 96.2761 124.966C96.2477 125.026 96.1967 125.072 96.1344 125.094L80.3172 130.702C80.2904 130.712 80.2623 130.717 80.2338 130.717ZM64.2746 143.475C64.2158 143.474 64.159 143.454 64.114 143.416C64.0691 143.378 64.039 143.326 64.029 143.268C64.019 143.21 64.0298 143.151 64.0595 143.1C64.0891 143.049 64.1357 143.011 64.1911 142.991L92.5655 132.93C92.6278 132.908 92.6963 132.911 92.756 132.94C92.8157 132.968 92.8617 133.019 92.8838 133.081C92.906 133.143 92.9024 133.212 92.874 133.271C92.8456 133.331 92.7947 133.377 92.7324 133.399L64.3579 143.46C64.3312 143.47 64.303 143.474 64.2746 143.475ZM97.2674 131.776C97.2086 131.776 97.1518 131.755 97.1069 131.717C97.0619 131.679 97.0318 131.627 97.0218 131.569C97.0119 131.511 97.0226 131.452 97.0523 131.401C97.0819 131.35 97.1285 131.312 97.1839 131.292L110.037 126.735C110.099 126.713 110.168 126.716 110.227 126.745C110.287 126.773 110.333 126.824 110.355 126.886C110.377 126.948 110.374 127.017 110.345 127.076C110.317 127.136 110.266 127.182 110.204 127.204L97.3507 131.761C97.324 131.771 97.2958 131.776 97.2674 131.776ZM66.5171 149.778C66.4584 149.778 66.4015 149.757 66.3566 149.72C66.3117 149.682 66.2816 149.629 66.2716 149.572C66.2616 149.514 66.2724 149.454 66.3021 149.404C66.3317 149.353 66.3783 149.314 66.4337 149.295L100.653 137.161C100.715 137.139 100.783 137.143 100.843 137.171C100.903 137.199 100.949 137.25 100.971 137.312C100.993 137.375 100.989 137.443 100.961 137.503C100.933 137.562 100.882 137.608 100.819 137.63L66.6005 149.764C66.5737 149.773 66.5456 149.778 66.5171 149.778Z" fill="#FECE2F"/>
<path d="M105.355 136.007C105.296 136.007 105.239 135.986 105.194 135.949C105.149 135.911 105.119 135.858 105.109 135.801C105.099 135.743 105.11 135.683 105.14 135.633C105.169 135.582 105.216 135.544 105.271 135.524L112.28 133.039C112.342 133.017 112.41 133.02 112.47 133.049C112.53 133.077 112.576 133.128 112.598 133.19C112.62 133.252 112.616 133.321 112.588 133.38C112.56 133.44 112.509 133.486 112.446 133.508L105.438 135.993C105.411 136.002 105.383 136.007 105.355 136.007Z" fill="white"/>
<path d="M68.7589 156.082C68.7002 156.082 68.6433 156.061 68.5984 156.023C68.5535 155.986 68.5234 155.933 68.5134 155.875C68.5034 155.818 68.5142 155.758 68.5438 155.707C68.5735 155.657 68.6201 155.618 68.6754 155.599L82.2589 150.782C82.3212 150.76 82.3898 150.763 82.4495 150.792C82.5092 150.82 82.5551 150.871 82.5773 150.933C82.5994 150.995 82.5959 151.064 82.5674 151.123C82.539 151.183 82.4881 151.229 82.4258 151.251L68.8423 156.068C68.8155 156.077 68.7873 156.082 68.7589 156.082ZM86.9609 149.628C86.9022 149.628 86.8453 149.607 86.8004 149.569C86.7555 149.531 86.7254 149.479 86.7154 149.421C86.7054 149.363 86.7162 149.304 86.7458 149.253C86.7755 149.203 86.8221 149.164 86.8774 149.144L108.629 141.431C108.691 141.409 108.76 141.413 108.82 141.441C108.879 141.47 108.925 141.52 108.947 141.583C108.97 141.645 108.966 141.713 108.938 141.773C108.909 141.832 108.858 141.878 108.796 141.9L87.0443 149.613C87.0175 149.623 86.9893 149.628 86.9609 149.628ZM117.138 131.829C117.079 131.829 117.022 131.808 116.977 131.77C116.932 131.732 116.902 131.68 116.892 131.622C116.882 131.564 116.893 131.505 116.923 131.454C116.952 131.403 116.999 131.365 117.054 131.345L151.273 119.212C151.335 119.191 151.402 119.196 151.461 119.225C151.519 119.253 151.564 119.304 151.586 119.365C151.607 119.426 151.604 119.493 151.577 119.552C151.55 119.611 151.501 119.657 151.44 119.681L117.221 131.814C117.194 131.824 117.166 131.829 117.138 131.829ZM113.488 140.221C113.43 140.221 113.373 140.201 113.328 140.163C113.283 140.125 113.253 140.073 113.243 140.015C113.233 139.957 113.244 139.897 113.273 139.847C113.303 139.796 113.349 139.758 113.405 139.738L140.91 129.985C140.972 129.963 141.04 129.967 141.1 129.995C141.16 130.023 141.206 130.074 141.228 130.136C141.25 130.199 141.247 130.267 141.218 130.327C141.19 130.386 141.139 130.432 141.076 130.454L113.572 140.207C113.545 140.216 113.517 140.221 113.488 140.221Z" fill="#FECE2F"/>
<path d="M145.612 128.831C145.554 128.831 145.497 128.81 145.452 128.772C145.407 128.734 145.377 128.682 145.367 128.624C145.357 128.566 145.368 128.507 145.397 128.456C145.427 128.406 145.474 128.367 145.529 128.347L154.766 125.072C154.828 125.05 154.897 125.053 154.956 125.082C155.016 125.11 155.062 125.161 155.084 125.223C155.106 125.285 155.103 125.354 155.074 125.413C155.046 125.473 154.995 125.519 154.933 125.541L145.696 128.816C145.669 128.826 145.641 128.831 145.612 128.831Z" fill="white"/>
<path d="M35.9553 111.861C37.1786 111.861 38.1703 110.871 38.1703 109.65C38.1703 108.429 37.1786 107.438 35.9553 107.438C34.7319 107.438 33.7402 108.429 33.7402 109.65C33.7402 110.871 34.7319 111.861 35.9553 111.861Z" fill="white"/>
<path d="M35.9549 112.11C34.7273 112.11 33.6619 111.193 33.5103 109.946C33.3467 108.6 34.3108 107.371 35.6598 107.208C37.0082 107.044 38.2392 108.007 38.4029 109.353C38.5665 110.7 37.6024 111.928 36.2535 112.092C36.1544 112.104 36.0547 112.11 35.9549 112.11ZM35.958 107.687C35.8792 107.687 35.7997 107.692 35.7197 107.702C34.6437 107.832 33.8745 108.812 34.0051 109.886C34.1357 110.961 35.1176 111.729 36.1935 111.598C37.2695 111.468 38.0387 110.488 37.9081 109.413C37.7872 108.419 36.9372 107.687 35.958 107.687Z" fill="#1A1A1A"/>
<path d="M38.8264 119.684C40.0497 119.684 41.0414 118.693 41.0414 117.472C41.0414 116.251 40.0497 115.261 38.8264 115.261C37.603 115.261 36.6113 116.251 36.6113 117.472C36.6113 118.693 37.603 119.684 38.8264 119.684Z" fill="white"/>
<path d="M38.8243 119.933C37.5967 119.933 36.5312 119.016 36.3797 117.769C36.3003 117.117 36.4802 116.473 36.8862 115.955C37.2922 115.438 37.8756 115.11 38.5291 115.03C38.8503 114.991 39.1763 115.015 39.4881 115.102C39.8 115.188 40.0915 115.336 40.3458 115.536C40.864 115.941 41.1929 116.524 41.2723 117.176C41.3517 117.828 41.1718 118.473 40.7658 118.99C40.3598 119.507 39.7764 119.836 39.1229 119.915C39.0226 119.927 38.9228 119.933 38.8243 119.933ZM38.83 115.51C38.7501 115.51 38.6696 115.515 38.5891 115.524C38.3326 115.555 38.0847 115.636 37.8598 115.762C37.6348 115.889 37.4372 116.059 37.2785 116.262C37.1187 116.465 37.0007 116.697 36.9313 116.945C36.8619 117.194 36.8426 117.453 36.8744 117.709C37.005 118.783 37.9858 119.552 39.0628 119.421C39.584 119.358 40.0494 119.096 40.3733 118.683C40.6971 118.27 40.8405 117.756 40.7774 117.236C40.7469 116.98 40.666 116.733 40.5391 116.508C40.4122 116.283 40.242 116.086 40.0383 115.928C39.694 115.657 39.2683 115.51 38.83 115.51Z" fill="#1A1A1A"/>
<path d="M41.8518 127.724C43.0751 127.724 44.0668 126.733 44.0668 125.512C44.0668 124.291 43.0751 123.301 41.8518 123.301C40.6284 123.301 39.6367 124.291 39.6367 125.512C39.6367 126.733 40.6284 127.724 41.8518 127.724Z" fill="white"/>
<path d="M41.8463 127.973C41.2984 127.973 40.7695 127.792 40.3315 127.449C39.8134 127.044 39.4844 126.461 39.4051 125.809C39.3257 125.157 39.5056 124.512 39.9116 123.995C40.3176 123.478 40.901 123.149 41.5544 123.07C42.2078 122.991 42.853 123.171 43.3711 123.576C43.6265 123.774 43.8399 124.022 43.9989 124.303C44.1579 124.585 44.2594 124.895 44.2976 125.216C44.4612 126.563 43.4971 127.791 42.1482 127.955C42.0473 127.967 41.9463 127.973 41.8463 127.973V127.973ZM41.8554 123.55C41.7754 123.55 41.695 123.554 41.6145 123.564C41.358 123.595 41.1101 123.675 40.8852 123.802C40.6602 123.929 40.4626 124.099 40.3039 124.302C39.98 124.715 39.8366 125.228 39.8998 125.749C39.9629 126.269 40.2255 126.734 40.6388 127.057C40.8418 127.217 41.0743 127.335 41.3231 127.404C41.5718 127.473 41.8319 127.492 42.0881 127.461C43.1641 127.33 43.9332 126.35 43.8028 125.276C43.7723 125.02 43.6913 124.772 43.5645 124.548C43.4376 124.323 43.2674 124.126 43.0637 123.968C42.7194 123.697 42.2937 123.549 41.8554 123.55Z" fill="#1A1A1A"/>
<path d="M44.6154 135.723C45.8388 135.723 46.8305 134.733 46.8305 133.511C46.8305 132.29 45.8388 131.3 44.6154 131.3C43.3921 131.3 42.4004 132.29 42.4004 133.511C42.4004 134.733 43.3921 135.723 44.6154 135.723Z" fill="white"/>
<path d="M44.6097 135.971C44.0619 135.971 43.5331 135.789 43.095 135.447C42.8396 135.248 42.6262 135.001 42.4672 134.719C42.3082 134.438 42.2066 134.128 42.1685 133.807C42.0049 132.46 42.969 131.231 44.3179 131.068C45.667 130.904 46.8974 131.867 47.061 133.214C47.1404 133.866 46.9604 134.51 46.5545 135.027C46.1485 135.545 45.5651 135.873 44.9116 135.952C44.8107 135.965 44.7098 135.971 44.6097 135.971V135.971ZM44.6162 131.548C44.5376 131.548 44.4579 131.552 44.3779 131.562C43.3019 131.692 42.5327 132.672 42.6633 133.747C42.6937 134.003 42.7747 134.25 42.9016 134.475C43.0284 134.699 43.1986 134.897 43.4024 135.055C43.6053 135.215 43.8378 135.332 44.0866 135.402C44.3353 135.471 44.5953 135.49 44.8516 135.459C45.108 135.428 45.3559 135.347 45.5809 135.221C45.8059 135.094 46.0034 134.924 46.1622 134.721C46.322 134.518 46.44 134.286 46.5094 134.038C46.5788 133.789 46.5981 133.53 46.5663 133.274C46.4454 132.28 45.5954 131.548 44.6162 131.548Z" fill="#1A1A1A"/>
</g>
<g clip-path="url(#clip4_5370_10281)">
<path d="M40.6975 48.4649L14.9902 78.2943C10.9769 82.9511 13.8634 90.196 19.981 90.8205L64.8311 95.3992C70.9487 96.0237 75.241 89.5117 72.2526 84.1401L53.1098 49.7321C50.5388 45.1108 44.1502 44.4586 40.6975 48.4649Z" fill="white"/>
<path d="M65.6473 95.6905C65.366 95.6905 65.0849 95.6761 64.805 95.6473L19.9548 91.0686C16.9877 90.7657 14.5575 88.9314 13.454 86.1619C12.3506 83.3924 12.854 80.3906 14.8005 78.132L40.5079 48.3027C42.2074 46.3306 44.6676 45.3518 47.2589 45.6155C49.8496 45.88 52.0612 47.3364 53.3269 49.6113L72.4697 84.0194C73.9191 86.6247 73.8048 89.6663 72.164 92.1557C70.6797 94.4076 68.2868 95.6905 65.6473 95.6905ZM46.4309 46.0715C44.2946 46.0715 42.3064 46.9792 40.8857 48.6278L15.1782 78.4573C13.3553 80.5726 12.8839 83.384 13.9173 85.9776C14.9508 88.5713 17.2266 90.2893 20.0056 90.5731L64.8556 95.1518C67.634 95.4349 70.2108 94.213 71.7476 91.8816C73.2843 89.5502 73.3914 86.7016 72.0339 84.2616L52.8912 49.8535C51.7059 47.7229 49.6346 46.359 47.2082 46.1113C46.95 46.0849 46.6905 46.0715 46.4309 46.0715Z" fill="#1A1A1A"/>
<path d="M66.1566 92.0027C65.8309 92.0412 65.5019 92.0435 65.1757 92.0094L20.3257 87.4306C18.7403 87.2688 17.4417 86.2888 16.8522 84.8088C16.2627 83.329 16.5315 81.7252 17.5716 80.5184L43.279 50.689C44.158 49.6691 45.2083 49.3501 45.9348 49.2619C47.6482 49.0541 49.2943 49.8886 50.1285 51.388L69.2713 85.7961C70.2174 87.4968 69.7285 88.9867 69.3529 89.7235C68.7093 90.9858 67.5145 91.8379 66.1571 92.0024H66.1567L66.1566 92.0027Z" fill="#DB485A"/>
<path d="M43.2794 86.9382C44.5922 86.9382 45.6565 85.8745 45.6565 84.5624C45.6565 83.2502 44.5922 82.1865 43.2794 82.1865C41.9666 82.1865 40.9023 83.2502 40.9023 84.5624C40.9023 85.8745 41.9666 86.9382 43.2794 86.9382Z" fill="#1A1A1A"/>
<path d="M43.2838 87.188C43.1936 87.188 43.103 87.1834 43.012 87.174C41.5713 87.0269 40.5189 85.7358 40.6661 84.2959C40.8133 82.8559 42.105 81.8038 43.5457 81.9513C44.2437 82.0224 44.872 82.3611 45.3151 82.9047C45.7581 83.4483 45.9629 84.1318 45.8916 84.8293C45.8203 85.5268 45.4816 86.155 44.9377 86.5977C44.4647 86.9829 43.8857 87.188 43.2837 87.188H43.2838ZM43.2774 82.4358C42.2004 82.4358 41.2738 83.253 41.1621 84.3465C41.0429 85.5131 41.8955 86.5593 43.0627 86.6785C43.6282 86.7358 44.1822 86.5703 44.6229 86.2116C44.8402 86.0357 45.0203 85.8185 45.153 85.5725C45.2857 85.3266 45.3682 85.0568 45.3958 84.7787C45.4249 84.5008 45.3986 84.2199 45.3185 83.9523C45.2383 83.6846 45.1058 83.4355 44.9287 83.2193C44.7527 83.0023 44.5354 82.8222 44.2893 82.6896C44.0433 82.557 43.7734 82.4745 43.4952 82.4468C43.4222 82.4394 43.3494 82.4358 43.2774 82.4358Z" fill="#1A1A1A"/>
<path d="M43.8751 80.4682C44.8341 80.4682 45.6116 79.6911 45.6116 78.7326C45.6116 77.7741 44.8341 76.9971 43.8751 76.9971C42.9161 76.9971 42.1387 77.7741 42.1387 78.7326C42.1387 79.6911 42.9161 80.4682 43.8751 80.4682Z" fill="#1A1A1A"/>
<path d="M43.8783 80.7172C43.8101 80.7172 43.7416 80.7137 43.6728 80.7066C42.5834 80.5954 41.7878 79.6192 41.8991 78.5306C41.9249 78.2711 42.0019 78.0194 42.1257 77.7899C42.2495 77.5604 42.4176 77.3577 42.6203 77.1935C42.8221 77.0282 43.0547 76.9046 43.3046 76.8298C43.5545 76.755 43.8168 76.7306 44.0762 76.7579C44.6038 76.8117 45.0789 77.0676 45.414 77.4787C45.749 77.8898 45.9038 78.4065 45.8499 78.934C45.7961 79.4614 45.5398 79.9361 45.1287 80.271C44.776 80.5599 44.3342 80.7175 43.8783 80.7172ZM43.8717 77.2457C43.5308 77.2457 43.2031 77.3618 42.9353 77.5798C42.7835 77.7028 42.6576 77.8546 42.5649 78.0265C42.4721 78.1984 42.4145 78.387 42.3951 78.5813C42.3119 79.3966 42.9078 80.1277 43.7235 80.2111C43.9178 80.2315 44.1143 80.2131 44.3014 80.1571C44.4886 80.1011 44.6628 80.0085 44.814 79.8847C44.9658 79.7618 45.0917 79.61 45.1844 79.4381C45.2771 79.2662 45.3348 79.0777 45.3541 78.8834C45.3745 78.6892 45.3562 78.4928 45.3001 78.3058C45.2441 78.1187 45.1515 77.9446 45.0277 77.7935C44.9047 77.6418 44.7528 77.5159 44.5808 77.4232C44.4088 77.3306 44.2202 77.2729 44.0257 77.2536C43.9746 77.2484 43.9231 77.2458 43.8717 77.2457Z" fill="#1A1A1A"/>
<path d="M42.1387 78.7116L42.3471 61.3848L48.8804 62.0517L45.5797 79.0628L42.1387 78.7115V78.7116Z" fill="#1A1A1A"/>
<path d="M45.5792 79.3125C45.5707 79.3125 45.5622 79.3121 45.5536 79.3111L42.1127 78.9598C42.0507 78.9535 41.9934 78.9242 41.9519 78.8778C41.9105 78.8314 41.8879 78.7711 41.8887 78.7089L42.0971 61.382C42.098 61.312 42.1282 61.2458 42.1803 61.1992C42.206 61.1759 42.2363 61.1583 42.2693 61.1476C42.3023 61.1369 42.3372 61.1334 42.3717 61.1372L48.9049 61.8042C48.9393 61.8077 48.9726 61.8184 49.0027 61.8355C49.0328 61.8526 49.059 61.8757 49.0797 61.9035C49.1003 61.9313 49.1149 61.9631 49.1226 61.9968C49.1303 62.0305 49.1308 62.0655 49.1243 62.0994L45.8236 79.1107C45.8126 79.1674 45.7822 79.2185 45.7376 79.2553C45.693 79.2921 45.637 79.3123 45.5792 79.3123V79.3125ZM42.39 78.4873L45.3777 78.7922L48.5831 62.2724L42.5924 61.6607L42.39 78.4873Z" fill="#1A1A1A"/>
<path d="M45.6426 64.7193C47.4634 64.7193 48.9395 63.244 48.9395 61.4241C48.9395 59.6042 47.4634 58.1289 45.6426 58.1289C43.8218 58.1289 42.3457 59.6042 42.3457 61.4241C42.3457 63.244 43.8218 64.7193 45.6426 64.7193Z" fill="#1A1A1A"/>
<path d="M45.6507 64.9692C45.5289 64.9692 45.4066 64.963 45.2837 64.9505C43.3385 64.7519 41.9175 63.0085 42.1162 61.0643C42.3149 59.12 44.0604 57.6991 46.0044 57.8986C46.9468 57.9946 47.7952 58.4519 48.3934 59.1859C48.9917 59.92 49.2681 60.8428 49.1719 61.7846C49.0757 62.7265 48.6183 63.5745 47.8838 64.1724C47.2451 64.6925 46.4634 64.9692 45.6507 64.9692ZM45.6418 58.3782C44.0992 58.3782 42.7723 59.5487 42.6121 61.1149C42.4414 62.7859 43.6626 64.2842 45.3343 64.455C46.1441 64.5371 46.9378 64.3001 47.5689 63.7863C48.2001 63.2724 48.5932 62.5435 48.676 61.734C48.7587 60.9246 48.5211 60.1315 48.0069 59.5006C47.7549 59.1896 47.4436 58.9318 47.0912 58.7418C46.7388 58.5519 46.3522 58.4337 45.9538 58.3941C45.8501 58.3836 45.746 58.3782 45.6418 58.3782Z" fill="#1A1A1A"/>
</g>
<g clip-path="url(#clip5_5370_10281)">
<path d="M60.5604 56.427C52.434 57.4141 44.9922 52.1064 43.1263 44.3333C42.9814 43.7323 42.8715 43.1235 42.7974 42.5098C41.7363 33.7619 47.9678 25.809 56.7158 24.7467C63.678 23.9018 70.1364 27.6761 73.0184 33.6622C73.7577 35.1979 74.2615 36.8794 74.4788 38.6651C75.5398 47.4131 69.3084 55.366 60.5604 56.427Z" fill="#449399"/>
<path d="M73.0185 33.6622C72.4674 33.666 71.9151 33.6271 71.3724 33.5688C69.742 33.3939 68.1091 33.0589 66.4775 33.2228C65.2623 33.3442 64.0751 33.7413 62.8538 33.7181C61.215 33.6853 59.6987 32.9059 58.1314 32.4228C56.5654 31.9396 54.6836 31.8134 53.4526 32.895C52.4657 33.7618 52.1695 35.176 52.1463 36.4897C52.1232 37.802 52.3151 39.1313 52.0601 40.4194C51.8064 41.7074 50.9541 43.0051 49.6649 43.2516C48.1048 43.549 46.5522 42.2368 45.0031 42.5876C43.9689 42.8219 43.4104 43.4932 43.1263 44.3334C42.9814 43.7325 42.8715 43.1236 42.7974 42.5099C41.7363 33.7619 47.9678 25.809 56.7158 24.7467C63.678 23.9018 70.1364 27.6761 73.0184 33.6622H73.0185Z" fill="white"/>
<path d="M61.4665 40.3405L66.1075 34.4173C66.8142 33.5152 66.656 32.2112 65.7539 31.5044C64.8519 30.7974 63.5477 30.9557 62.8409 31.8579L58.1999 37.7811L52.2767 33.1401C51.3745 32.4334 50.0705 32.5917 49.3636 33.4936C48.6568 34.3955 48.8151 35.6997 49.7172 36.4066L55.6403 41.0475L50.9994 46.9707C50.2927 47.8728 50.4509 49.1768 51.3529 49.8836C51.5672 50.0521 51.8126 50.1764 52.0752 50.2497C52.3377 50.3229 52.6121 50.3435 52.8826 50.3102C53.1532 50.2777 53.4147 50.1921 53.6521 50.0582C53.8895 49.9243 54.0981 49.7449 54.266 49.5301L58.9069 43.6069L64.8301 48.2479C65.2812 48.6013 65.8327 48.7384 66.3598 48.6745C66.887 48.6107 67.3898 48.3455 67.7432 47.8944C68.4499 46.9923 68.2917 45.6883 67.3896 44.9814L61.4665 40.3405Z" fill="#1A1A1A"/>
<path d="M52.6291 50.5739C52.1108 50.5741 51.6077 50.3998 51.2006 50.0791C50.9598 49.8915 50.7587 49.658 50.6087 49.3921C50.4588 49.1262 50.3631 48.8332 50.3272 48.5301C50.2895 48.2272 50.3124 47.9199 50.3943 47.6259C50.4763 47.3319 50.6158 47.0571 50.8047 46.8173L55.2925 41.0896L49.5649 36.602C49.3241 36.4144 49.1229 36.1809 48.973 35.9151C48.8231 35.6492 48.7274 35.3562 48.6914 35.0531C48.6538 34.7502 48.6766 34.4429 48.7586 34.1488C48.8406 33.8548 48.9801 33.58 49.169 33.3402C49.9591 32.3319 51.4224 32.1545 52.431 32.9442L58.1584 37.4318L62.6462 31.7044C62.8337 31.4635 63.0672 31.2623 63.3331 31.1123C63.5989 30.9623 63.8919 30.8666 64.1951 30.8307C64.811 30.7561 65.4195 30.9255 65.9081 31.3085C66.3966 31.6912 66.7067 32.2414 66.7815 32.8575C66.8564 33.4736 66.6867 34.0819 66.304 34.5702L61.8162 40.2979L67.5438 44.7856C68.5522 45.5757 68.7298 47.039 67.9397 48.0473C67.7521 48.2882 67.5187 48.4894 67.2528 48.6394C66.9869 48.7893 66.6939 48.885 66.3907 48.9209C65.7747 48.9955 65.1663 48.826 64.6778 48.4432L58.9503 43.9556L54.4626 49.6832C54.275 49.924 54.0415 50.1252 53.7756 50.2751C53.5097 50.425 53.2168 50.5207 52.9136 50.5566C52.8184 50.5682 52.7235 50.5739 52.6291 50.5739ZM51.0001 32.9476C50.4575 32.9476 49.9202 33.1875 49.5604 33.6467C49.2596 34.0307 49.1262 34.5088 49.185 34.9931C49.2438 35.4774 49.4877 35.9098 49.8716 36.2107L55.7948 40.8517C55.8205 40.8718 55.8419 40.8968 55.858 40.9252C55.874 40.9536 55.8843 40.985 55.8882 41.0174C55.8922 41.0498 55.8897 41.0826 55.8809 41.1141C55.8721 41.1455 55.8573 41.1749 55.8371 41.2006L51.1961 47.1239C51.0477 47.3124 50.938 47.5284 50.8736 47.7595C50.8091 47.9906 50.7912 48.2322 50.8207 48.4703C50.8795 48.9545 51.1235 49.387 51.5073 49.6879C51.8912 49.9887 52.3691 50.1221 52.8539 50.0633C53.0921 50.035 53.3224 49.9598 53.5314 49.8419C53.7404 49.7241 53.9239 49.566 54.0714 49.3767L58.7124 43.4536C58.7325 43.4279 58.7575 43.4064 58.786 43.3903C58.8144 43.3743 58.8457 43.364 58.8781 43.3601C58.9105 43.3562 58.9434 43.3586 58.9748 43.3674C59.0063 43.3762 59.0357 43.3911 59.0614 43.4112L64.9845 48.0522C65.173 48.2007 65.389 48.3104 65.6202 48.3748C65.8513 48.4393 66.093 48.4572 66.3311 48.4276C66.5693 48.3993 66.7996 48.324 67.0086 48.2062C67.2176 48.0883 67.4011 47.9302 67.5485 47.7409C68.1697 46.9482 68.0301 45.798 67.2375 45.1769L61.3142 40.5359C61.2624 40.4952 61.2288 40.4356 61.2209 40.3702C61.2129 40.3048 61.2312 40.2389 61.2718 40.187L65.9128 34.2637C66.0613 34.0752 66.1709 33.8592 66.2354 33.6281C66.2998 33.3969 66.3178 33.1553 66.2882 32.9172C66.2599 32.679 66.1847 32.4487 66.0668 32.2397C65.949 32.0307 65.7909 31.8472 65.6016 31.6997C65.4132 31.5512 65.1971 31.4415 64.966 31.3771C64.7349 31.3126 64.4933 31.2946 64.2552 31.3241C64.0169 31.3525 63.7866 31.4277 63.5777 31.5456C63.3687 31.6635 63.1851 31.8217 63.0376 32.011L58.3965 37.934C58.3764 37.9597 58.3514 37.9812 58.323 37.9972C58.2945 38.0133 58.2632 38.0235 58.2308 38.0275C58.1984 38.0314 58.1656 38.0289 58.1341 38.0202C58.1027 38.0114 58.0733 37.9965 58.0476 37.9764L52.1244 33.3354C51.8037 33.0836 51.4078 32.947 51.0001 32.9476Z" fill="#1A1A1A"/>
<path d="M58.6051 56.7945C55.0018 56.7945 51.5241 55.6002 48.6431 53.343C45.2359 50.6734 43.0723 46.8367 42.5508 42.5398C41.4742 33.6692 47.8148 25.5767 56.6852 24.5001C65.5559 23.423 73.6481 29.7643 74.7248 38.6346C75.2463 42.9316 74.0633 47.1745 71.3935 50.5818C68.7239 53.9891 64.8872 56.1527 60.5902 56.6741C59.9315 56.7542 59.2686 56.7944 58.6051 56.7946V56.7945ZM58.649 24.878C58.0201 24.878 57.3848 24.9158 56.745 24.9934C48.1469 26.0372 42.0006 33.8815 43.0442 42.4797C43.5497 46.645 45.647 50.364 48.9498 52.9518C52.2525 55.5394 56.3655 56.6864 60.5304 56.1806C64.6957 55.6751 68.4146 53.5779 71.0025 50.2752C73.5902 46.9725 74.7369 42.8597 74.2314 38.6946C73.2654 30.7359 66.4728 24.8781 58.6491 24.8781L58.649 24.878Z" fill="#1A1A1A"/>
</g>
<g clip-path="url(#clip6_5370_10281)">
<path d="M114.682 80.1592L126.126 56.4073C126.807 54.995 128.505 54.4011 129.917 55.0818L129.961 55.1033C131.373 55.784 131.967 57.4831 131.286 58.8954L119.842 82.6473L114.682 80.1592Z" fill="white"/>
<path d="M119.843 82.8969C119.806 82.8969 119.769 82.8887 119.735 82.8723L114.574 80.3842C114.515 80.3555 114.469 80.3044 114.448 80.242C114.426 80.1797 114.43 80.1112 114.458 80.0517L125.903 56.2997C126.642 54.7652 128.491 54.1182 130.026 54.8579L130.07 54.8795C131.604 55.6191 132.251 57.4694 131.511 59.004L120.067 82.7561C120.047 82.7984 120.015 82.8341 119.975 82.859C119.935 82.8839 119.889 82.8971 119.843 82.8971L119.843 82.8969ZM115.015 80.0435L119.727 82.3155L131.063 58.7878C131.211 58.4815 131.298 58.1488 131.317 57.8089C131.336 57.469 131.288 57.1286 131.175 56.8075C131.063 56.4859 130.889 56.1895 130.663 55.9355C130.436 55.6816 130.161 55.4751 129.854 55.3281L129.809 55.3066C128.523 54.6864 126.971 55.2286 126.351 56.5158L115.015 80.0435Z" fill="#1A1A1A"/>
<path d="M120.722 81.0734C120.669 81.0733 120.617 81.0563 120.574 81.0248C120.532 80.9934 120.5 80.949 120.484 80.8983C119.679 78.3096 120.086 75.4474 121.573 73.2422C122.765 71.476 124.554 70.2094 126.133 69.0916C126.16 69.0727 126.19 69.0593 126.222 69.0521C126.254 69.0448 126.287 69.044 126.319 69.0495C126.351 69.055 126.382 69.0668 126.41 69.0843C126.437 69.1017 126.461 69.1244 126.48 69.1511C126.499 69.1778 126.513 69.208 126.52 69.2399C126.527 69.2718 126.528 69.3048 126.522 69.337C126.517 69.3693 126.505 69.4001 126.488 69.4278C126.47 69.4554 126.447 69.4794 126.421 69.4983C124.801 70.6446 123.126 71.8302 121.985 73.5209C120.603 75.5709 120.21 78.3411 120.96 80.7504C120.971 80.7877 120.974 80.8272 120.967 80.8657C120.961 80.9042 120.946 80.9407 120.922 80.9722C120.899 81.0036 120.869 81.0292 120.834 81.0468C120.799 81.0645 120.761 81.0736 120.722 81.0736V81.0734ZM117.327 82.88C117.283 82.88 117.24 82.8685 117.202 82.8467C117.165 82.8249 117.133 82.7936 117.111 82.7558C117.09 82.7181 117.078 82.6752 117.078 82.6316C117.078 82.588 117.089 82.5451 117.111 82.5072C117.284 82.2043 117.438 81.8909 117.573 81.5688C118.359 79.7024 118.58 77.3653 118.21 74.8097C118.129 74.2451 118.025 73.6918 117.894 73.0348C117.888 73.0026 117.887 72.9693 117.893 72.937C117.9 72.9047 117.912 72.8739 117.93 72.8464C117.948 72.8189 117.972 72.7954 117.999 72.777C118.026 72.7586 118.057 72.7459 118.089 72.7395C118.122 72.7331 118.155 72.7331 118.187 72.7396C118.219 72.7461 118.25 72.759 118.277 72.7774C118.305 72.7958 118.328 72.8195 118.346 72.847C118.364 72.8745 118.376 72.9053 118.383 72.9377C118.515 73.6024 118.62 74.163 118.703 74.7383C119.085 77.3836 118.853 79.8123 118.032 81.7615C117.889 82.1024 117.726 82.4341 117.543 82.7548C117.521 82.7929 117.489 82.8245 117.451 82.8465C117.413 82.8685 117.37 82.8801 117.326 82.88H117.327ZM115.97 81.8457C115.928 81.8457 115.888 81.8354 115.851 81.8158C115.815 81.7962 115.784 81.7678 115.761 81.7333C115.739 81.6987 115.725 81.6591 115.722 81.618C115.718 81.5768 115.725 81.5355 115.741 81.4976C115.836 81.2791 115.92 81.0562 115.994 80.8298C116.427 79.4867 116.485 78.039 116.161 76.6437C116.146 76.5794 116.157 76.5118 116.192 76.4557C116.227 76.3997 116.283 76.3598 116.347 76.3449C116.412 76.3299 116.479 76.3412 116.535 76.3761C116.591 76.4111 116.631 76.4668 116.646 76.5312C116.99 78.0142 116.929 79.5538 116.467 80.9833C116.389 81.2249 116.299 81.4626 116.198 81.6957C116.179 81.7403 116.147 81.7782 116.106 81.8049C116.066 81.8316 116.018 81.8458 115.97 81.8458L115.97 81.8457Z" fill="#1A1A1A"/>
<path d="M115.854 87.1106L119.844 82.6483L114.684 80.1602L113.68 86.0624L115.854 87.1106Z" fill="white"/>
<path d="M115.853 87.3597C115.816 87.3597 115.779 87.3517 115.745 87.335L113.571 86.2867C113.522 86.2633 113.482 86.2246 113.457 86.1766C113.433 86.1286 113.424 86.0738 113.433 86.0205L114.437 80.1183C114.443 80.0803 114.459 80.0442 114.481 80.0131C114.504 79.9819 114.534 79.9565 114.568 79.9388C114.603 79.9211 114.64 79.9117 114.679 79.9112C114.718 79.9106 114.756 79.9191 114.791 79.9359L119.951 82.424C119.986 82.4408 120.016 82.4654 120.04 82.4959C120.063 82.5264 120.079 82.562 120.087 82.5998C120.094 82.6377 120.093 82.6768 120.083 82.714C120.073 82.7512 120.054 82.7856 120.028 82.8144L116.038 87.2767C116.015 87.3029 115.986 87.3238 115.954 87.3381C115.922 87.3524 115.888 87.3597 115.853 87.3597ZM113.955 85.9194L115.792 86.805L119.437 82.7289L114.873 80.5282L113.956 85.9194H113.955Z" fill="#1A1A1A"/>
<path d="M119.802 72.5397C119.756 72.5397 119.71 72.5374 119.664 72.5331C119.202 72.4884 118.814 72.2107 118.57 71.7514C118.555 71.7225 118.545 71.6909 118.542 71.6583C118.539 71.6257 118.542 71.5929 118.552 71.5616C118.562 71.5304 118.577 71.5013 118.598 71.4761C118.619 71.4508 118.644 71.43 118.673 71.4146C118.702 71.3993 118.734 71.3898 118.766 71.3867C118.799 71.3836 118.832 71.387 118.863 71.3965C118.894 71.4061 118.923 71.4218 118.949 71.4426C118.974 71.4634 118.995 71.489 119.01 71.5179C119.175 71.8292 119.418 72.0089 119.712 72.0374C120.205 72.0847 120.806 71.7218 121.358 71.0403C121.415 70.9692 121.491 70.8701 121.586 70.7462C122.403 69.6816 124.571 66.8537 128.553 64.0721C128.607 64.0343 128.674 64.0195 128.739 64.0311C128.804 64.0426 128.862 64.0795 128.899 64.1336C128.937 64.1878 128.952 64.2547 128.941 64.3198C128.929 64.3848 128.892 64.4426 128.838 64.4804C124.919 67.2179 122.785 70.0014 121.981 71.0493C121.883 71.1776 121.804 71.2802 121.744 71.3538C121.121 72.1234 120.437 72.5395 119.802 72.5395L119.802 72.5397ZM121.876 66.1729C121.752 66.1729 121.632 66.1647 121.518 66.1481C121.485 66.1434 121.454 66.1324 121.426 66.1157C121.398 66.099 121.373 66.0769 121.354 66.0507C121.334 66.0245 121.32 65.9947 121.312 65.963C121.304 65.9313 121.302 65.8983 121.307 65.866C121.312 65.8336 121.323 65.8025 121.339 65.7744C121.356 65.7463 121.378 65.7217 121.404 65.7021C121.431 65.6826 121.46 65.6683 121.492 65.6603C121.524 65.6522 121.557 65.6505 121.589 65.6552C122.066 65.7239 122.938 65.6395 124.38 64.8442C126.265 63.8065 127.465 62.1391 128.737 60.3739L128.91 60.1336C129.646 59.1156 130.473 58.1666 131.381 57.2982C131.429 57.2526 131.493 57.2278 131.559 57.2292C131.625 57.2307 131.688 57.2583 131.733 57.3061C131.779 57.3538 131.804 57.4177 131.802 57.4837C131.801 57.5497 131.773 57.6124 131.725 57.658C130.839 58.5055 130.032 59.4317 129.313 60.4252L129.141 60.665C127.836 62.4771 126.603 64.1888 124.621 65.2805C123.545 65.8738 122.623 66.1729 121.876 66.1729ZM123.722 61.6503C123.667 61.6505 123.614 61.6325 123.57 61.5991C123.526 61.5657 123.495 61.5188 123.481 61.4657C123.467 61.4126 123.47 61.3562 123.492 61.3055C123.513 61.2548 123.55 61.2125 123.598 61.1853C126.087 59.7566 128.328 57.4157 129.591 54.9234C129.623 54.8667 129.674 54.8242 129.736 54.8051C129.798 54.786 129.865 54.7916 129.922 54.8208C129.98 54.8501 130.024 54.9006 130.045 54.9618C130.066 55.0229 130.063 55.0899 130.036 55.1485C128.73 57.724 126.416 60.1422 123.846 61.6171C123.808 61.6389 123.765 61.6503 123.722 61.6503Z" fill="#1A1A1A"/>
<path d="M100.342 88.5757C96.417 89.9483 93.2213 92.4716 91.0035 95.6366C90.0608 96.9818 89.2943 98.4422 88.7227 99.9822C89.0796 99.3192 89.4752 98.6777 89.9073 98.0611C92.1251 94.896 95.3208 92.3727 99.2462 91.0002C109.217 87.5139 120.124 92.773 123.609 102.747C125.137 107.119 124.985 111.671 123.492 115.699C125.945 111.136 126.549 105.599 124.705 100.323C121.22 90.3485 110.313 85.0894 100.342 88.5757Z" fill="#1A1A1A"/>
<path d="M123.493 115.948C123.453 115.948 123.413 115.938 123.378 115.919C123.342 115.901 123.312 115.874 123.289 115.841C123.266 115.808 123.251 115.77 123.246 115.73C123.241 115.69 123.246 115.649 123.26 115.612C124.78 111.508 124.821 106.968 123.375 102.829C121.711 98.0683 118.294 94.2402 113.753 92.0504C109.211 89.8605 104.089 89.5711 99.3291 91.2352C95.5736 92.5484 92.3864 94.9581 90.112 98.2041C89.6855 98.8129 89.295 99.446 88.9425 100.1C88.9125 100.156 88.8627 100.198 88.803 100.218C88.7433 100.238 88.6783 100.235 88.6209 100.209C88.5635 100.183 88.5182 100.136 88.4939 100.078C88.4696 100.02 88.4682 99.9546 88.49 99.8955C89.0692 98.3355 89.8456 96.8562 90.8005 95.4935C93.1351 92.1617 96.4065 89.6883 100.261 88.3406C110.345 84.8148 121.417 90.153 124.941 100.241C126.73 105.359 126.282 111.036 123.712 115.816C123.691 115.856 123.66 115.889 123.621 115.912C123.582 115.935 123.538 115.948 123.493 115.948ZM105.572 89.6696C108.445 89.6696 111.304 90.317 113.969 91.6018C118.63 93.8493 122.137 97.7783 123.845 102.665C124.928 105.764 125.198 109.081 124.66 112.284C125.863 108.436 125.817 104.258 124.471 100.405C121.037 90.5766 110.25 85.3757 100.425 88.8107C96.6699 90.1238 93.4825 92.5336 91.2081 95.7796C90.9657 96.1255 90.7349 96.4793 90.5161 96.8406C92.7724 94.0511 95.7382 91.9632 99.165 90.7652C101.258 90.0334 103.419 89.6696 105.572 89.6696Z" fill="#1A1A1A"/>
<path d="M99.1627 85.197C87.3271 89.3352 81.0859 102.288 85.2229 114.128C89.3598 125.968 102.308 132.211 114.144 128.073C125.979 123.934 132.22 110.982 128.083 99.1418C123.947 87.3018 110.998 81.0586 99.1627 85.197ZM121.163 119.102C119.043 121.577 116.26 123.542 112.963 124.695C112.718 124.781 112.471 124.862 112.223 124.938C108.528 126.066 104.734 126.015 101.261 124.991C95.5538 123.308 90.713 118.994 88.5999 112.947C86.4869 106.899 87.5874 100.508 91.004 95.6361C93.2217 92.4711 96.4174 89.9477 100.343 88.5752C110.314 85.0889 121.221 90.348 124.706 100.322C127.039 106.999 125.455 114.094 121.163 119.102V119.102Z" fill="white"/>
<path d="M101.255 128.162C100.954 128.268 100.628 128.275 100.322 128.185C96.7664 127.136 93.4965 125.208 90.8657 122.61C90.2669 122.018 90.2606 121.053 90.8519 120.454C91.4433 119.856 92.4078 119.849 93.0066 120.441C95.281 122.687 98.1087 124.354 101.184 125.261C101.991 125.499 102.453 126.346 102.215 127.154C102.146 127.386 102.024 127.599 101.857 127.774C101.69 127.95 101.483 128.083 101.255 128.162L101.255 128.162ZM87.4005 114.981C86.6062 115.259 85.7371 114.84 85.4594 114.045C84.2634 110.622 83.9098 106.929 84.4367 103.365C84.9465 99.9169 86.2761 96.5828 88.2812 93.7232C88.7644 93.0341 89.7146 92.8673 90.4035 93.3508C91.0925 93.8342 91.2591 94.7848 90.7758 95.4739C87.191 100.586 86.2789 107.152 88.3359 113.039C88.6136 113.834 88.1946 114.703 87.4003 114.981H87.4005Z" fill="white"/>
<path d="M106.636 129.606C103.232 129.606 99.8458 128.839 96.6889 127.317C91.1666 124.654 87.0114 119.999 84.9887 114.21C82.9659 108.421 83.3179 102.191 85.9795 96.6665C88.6413 91.1421 93.2942 86.9854 99.0813 84.962C104.868 82.9382 111.097 83.2904 116.619 85.9532C122.141 88.616 126.296 93.2707 128.319 99.0597C130.342 104.849 129.99 111.079 127.328 116.604C124.666 122.128 120.013 126.285 114.226 128.308C111.748 129.175 109.187 129.606 106.636 129.606ZM99.2456 85.432C93.5842 87.4115 89.0322 91.4782 86.4281 96.8826C83.824 102.287 83.4799 108.383 85.4588 114.046C87.4375 119.71 91.5026 124.263 96.9051 126.868C102.308 129.473 108.401 129.817 114.062 127.838C125.75 123.751 131.934 110.915 127.849 99.2239C125.871 93.5604 121.805 89.0066 116.403 86.4019C111 83.7968 104.907 83.4527 99.2456 85.432ZM106.654 126.021C104.804 126.02 102.965 125.754 101.191 125.23C95.2139 123.467 90.4193 118.906 88.3658 113.029C86.3122 107.152 87.2227 100.596 90.8011 95.4931C93.1358 92.1613 96.4071 89.6878 100.262 88.3401C110.346 84.8142 121.417 90.1525 124.942 100.24C126.082 103.505 126.332 107.013 125.664 110.386C125.012 113.666 123.527 116.724 121.353 119.264C119.143 121.843 116.271 123.803 113.046 124.93C112.798 125.017 112.548 125.099 112.296 125.176C110.467 125.736 108.566 126.02 106.654 126.021ZM106.637 87.7516C104.575 87.7516 102.48 88.0921 100.426 88.8103C96.6705 90.1234 93.4832 92.5332 91.2088 95.7792C87.7221 100.751 86.8351 107.138 88.8359 112.865C90.8366 118.591 95.5081 123.035 101.332 124.753C104.875 125.797 108.616 125.779 112.151 124.7C112.396 124.625 112.64 124.545 112.882 124.46C116.024 123.362 118.822 121.453 120.974 118.94C125.345 113.841 126.685 106.739 124.472 100.405C121.756 92.6308 114.439 87.7517 106.637 87.7517L106.637 87.7516Z" fill="#1A1A1A"/>
</g>
<defs>
<clipPath id="clip0_5370_10281">
<rect width="150.971" height="133.767" fill="white" transform="translate(15.3809 25.2539)"/>
</clipPath>
<clipPath id="clip1_5370_10281">
<rect width="34.9067" height="34.782" fill="white" transform="translate(99.1562 44.3281)"/>
</clipPath>
<clipPath id="clip2_5370_10281">
<rect width="132.147" height="95.744" fill="white" transform="translate(41.9336 77.9883)"/>
</clipPath>
<clipPath id="clip3_5370_10281">
<rect width="136.635" height="108.335" fill="white" transform="translate(28.3457 60.6592)"/>
</clipPath>
<clipPath id="clip4_5370_10281">
<rect width="60.588" height="50.116" fill="white" transform="translate(12.8867 45.5742)"/>
</clipPath>
<clipPath id="clip5_5370_10281">
<rect width="32.4133" height="32.4133" fill="white" transform="translate(42.4316 24.3809)"/>
</clipPath>
<clipPath id="clip6_5370_10281">
<rect width="48.1213" height="75.0493" fill="white" transform="translate(83.6973 54.5508)"/>
</clipPath>
</defs>
</svg>
