<svg width="24" height="24" viewBox="0 0 24 24" fill="none" xmlns="http://www.w3.org/2000/svg">
<path d="M5.33333 2.00781C3.50559 2.00781 2 3.5134 2 5.34115V19.7856C2 21.0134 2.99444 22.0078 4.22222 22.0078H19.7778C21.0056 22.0078 22 21.0134 22 19.7856V8.67448C22 7.4467 21.0056 6.45226 19.7778 6.45226H7.55556H5.33333C4.70552 6.45226 4.22222 5.96896 4.22222 5.34115C4.22222 4.71333 4.70552 4.23003 5.33333 4.23003H20.8889V2.00781H5.33333ZM18.6667 13.1189C19.28 13.1189 19.7778 13.6167 19.7778 14.23C19.7778 14.8434 19.28 15.3411 18.6667 15.3411C18.0533 15.3411 17.5556 14.8434 17.5556 14.23C17.5556 13.6167 18.0533 13.1189 18.6667 13.1189Z" fill="#7B7B7C"/>
</svg>
