<svg width="17" height="17" viewBox="0 0 17 17" fill="none" xmlns="http://www.w3.org/2000/svg">
<path fill-rule="evenodd" clip-rule="evenodd" d="M8.5 15.5C10.3565 15.5 12.137 14.7625 13.4497 13.4497C14.7625 12.137 15.5 10.3565 15.5 8.5C15.5 6.64348 14.7625 4.86301 13.4497 3.55025C12.137 2.2375 10.3565 1.5 8.5 1.5C6.64348 1.5 4.86301 2.2375 3.55025 3.55025C2.2375 4.86301 1.5 6.64348 1.5 8.5C1.5 10.3565 2.2375 12.137 3.55025 13.4497C4.86301 14.7625 6.64348 15.5 8.5 15.5ZM8.5 16.5C10.6217 16.5 12.6566 15.6571 14.1569 14.1569C15.6571 12.6566 16.5 10.6217 16.5 8.5C16.5 6.37827 15.6571 4.34344 14.1569 2.84315C12.6566 1.34285 10.6217 0.5 8.5 0.5C6.37827 0.5 4.34344 1.34285 2.84315 2.84315C1.34285 4.34344 0.5 6.37827 0.5 8.5C0.5 10.6217 1.34285 12.6566 2.84315 14.1569C4.34344 15.6571 6.37827 16.5 8.5 16.5Z" fill="#1A1623"/>
<path d="M9.42995 7.08984L7.13995 7.37684L7.05795 7.75684L7.50795 7.83984C7.80195 7.90984 7.85995 8.01584 7.79595 8.30884L7.05795 11.7768C6.86395 12.6738 7.16295 13.0958 7.86595 13.0958C8.41095 13.0958 9.04395 12.8438 9.33095 12.4978L9.41895 12.0818C9.21895 12.2578 8.92695 12.3278 8.73295 12.3278C8.45795 12.3278 8.35795 12.1348 8.42895 11.7948L9.42995 7.08984Z" fill="#1A1623"/>
<path d="M8.5 6C9.05228 6 9.5 5.55228 9.5 5C9.5 4.44772 9.05228 4 8.5 4C7.94772 4 7.5 4.44772 7.5 5C7.5 5.55228 7.94772 6 8.5 6Z" fill="#1A1623"/>
</svg>
