<svg width="92" height="93" viewBox="0 0 92 93" fill="none" xmlns="http://www.w3.org/2000/svg">
<path d="M76.6667 69.7128C80.8833 69.7128 84.295 66.2628 84.295 62.0461L84.3333 23.7128C84.3333 19.4961 80.8833 16.0461 76.6667 16.0461H15.3333C11.1167 16.0461 7.66667 19.4961 7.66667 23.7128V62.0461C7.66667 66.2628 11.1167 69.7128 15.3333 69.7128H3.83333C1.725 69.7128 0 71.4378 0 73.5461C0 75.6545 1.725 77.3795 3.83333 77.3795H88.1667C90.275 77.3795 92 75.6545 92 73.5461C92 71.4378 90.275 69.7128 88.1667 69.7128H76.6667ZM19.1667 23.7128H72.8333C74.9417 23.7128 76.6667 25.4378 76.6667 27.5461V58.2128C76.6667 60.3211 74.9417 62.0461 72.8333 62.0461H19.1667C17.0583 62.0461 15.3333 60.3211 15.3333 58.2128V27.5461C15.3333 25.4378 17.0583 23.7128 19.1667 23.7128Z" fill="black"/>
</svg>
