<svg width="24" height="24" viewBox="0 0 24 24" fill="none" xmlns="http://www.w3.org/2000/svg">
<rect width="24" height="24" rx="12" fill="#2F80ED"/>
<g clip-path="url(#clip0_79_17448)">
<path d="M12 7L6.5 10H12V10.5H7.5L6.5 10V14H7.5V10.5537L12 13L17.5 10L12 7ZM8.5 11.9004V14.0996C8.5 14.0996 9.5 16 12 16C12.5795 16 13.0755 15.8953 13.5 15.7383V15V14C13.5 13.6305 13.5769 13.2847 13.7119 12.9727L12 14L8.5 11.9004ZM15.5 12V12.5996C15 12.7496 14.5 13.2 14.5 14C14.5 14.95 15.2998 15.2502 15.7998 15.4502C16.3998 15.7002 16.5 15.75 16.5 16C16.5 16.25 16.4 16.5 16 16.5C15.6 16.5 15.5 16.25 15.5 16H14.5C14.5 16.5 14.8 17.2004 15.5 17.4004V18H16.5V17.4004C17.2 17.2004 17.5 16.5 17.5 16C17.5 15.05 16.7002 14.7498 16.2002 14.5498C15.6002 14.2998 15.5 14.25 15.5 14C15.5 13.6 15.75 13.5 16 13.5C16.4 13.5 16.5 13.75 16.5 14H17H17.5C17.5 13.5 17.2 12.7996 16.5 12.5996V12H15.5Z" fill="white"/>
</g>
<defs>
<clipPath id="clip0_79_17448">
<rect width="12" height="12" fill="white" transform="translate(6 6)"/>
</clipPath>
</defs>
</svg>
