<svg width="48" height="49" viewBox="0 0 48 49" fill="none" xmlns="http://www.w3.org/2000/svg">
<path d="M43.611 20.2959H42V20.2129H24V28.2129H35.303C33.654 32.8699 29.223 36.2129 24 36.2129C17.373 36.2129 12 30.8399 12 24.2129C12 17.5859 17.373 12.2129 24 12.2129C27.059 12.2129 29.842 13.3669 31.961 15.2519L37.618 9.59489C34.046 6.26589 29.268 4.21289 24 4.21289C12.955 4.21289 4 13.1679 4 24.2129C4 35.2579 12.955 44.2129 24 44.2129C35.045 44.2129 44 35.2579 44 24.2129C44 22.8719 43.862 21.5629 43.611 20.2959Z" fill="#FBC02D"/>
<path d="M6.30469 14.9039L12.8757 19.7229C14.6537 15.3209 18.9597 12.2129 23.9987 12.2129C27.0577 12.2129 29.8407 13.3669 31.9597 15.2519L37.6167 9.59489C34.0447 6.26589 29.2667 4.21289 23.9987 4.21289C16.3167 4.21289 9.65469 8.54989 6.30469 14.9039Z" fill="#E53935"/>
<path d="M24.0003 44.2128C29.1663 44.2128 33.8603 42.2358 37.4093 39.0208L31.2193 33.7828C29.2113 35.3038 26.7153 36.2128 24.0003 36.2128C18.7983 36.2128 14.3813 32.8958 12.7173 28.2668L6.19531 33.2918C9.50531 39.7688 16.2273 44.2128 24.0003 44.2128Z" fill="#4CAF50"/>
<path d="M43.611 20.2959L43.595 20.2129H42H24V28.2129H35.303C34.511 30.4499 33.072 32.3789 31.216 33.7839C31.217 33.7829 31.218 33.7829 31.219 33.7819L37.409 39.0199C36.971 39.4179 44 34.2129 44 24.2129C44 22.8719 43.862 21.5629 43.611 20.2959Z" fill="#1565C0"/>
</svg>
