<svg width="36" height="36" viewBox="0 0 36 36" fill="none" xmlns="http://www.w3.org/2000/svg">
<path d="M8.4375 4.5C7.69158 4.5 6.97621 4.79632 6.44876 5.32376C5.92132 5.85121 5.625 6.56658 5.625 7.3125C5.625 8.05842 5.92132 8.77379 6.44876 9.30124C6.97621 9.82868 7.69158 10.125 8.4375 10.125C8.96829 10.1235 9.4878 9.97173 9.936 9.68738L18.3578 16.0335C17.3966 17.2285 16.8734 18.7164 16.875 20.25C16.875 21.996 17.5432 23.58 18.63 24.7781L15.2055 28.2038C15.0163 28.1523 14.8211 28.1258 14.625 28.125C14.0283 28.125 13.456 28.3621 13.034 28.784C12.6121 29.206 12.375 29.7783 12.375 30.375C12.375 30.9717 12.6121 31.544 13.034 31.966C13.456 32.3879 14.0283 32.625 14.625 32.625C14.9697 32.6246 15.3098 32.545 15.6189 32.3923C15.928 32.2396 16.1978 32.018 16.4077 31.7444C16.6175 31.4709 16.7617 31.1528 16.829 30.8147C16.8964 30.4766 16.8852 30.1276 16.7963 29.7945L20.4064 26.1844H20.4086C21.4368 26.7416 22.5921 27.0222 23.7613 26.9986C24.9305 26.975 26.0736 26.648 27.0784 26.0497C28.0832 25.4514 28.9153 24.6022 29.4932 23.5856C30.0711 22.5689 30.375 21.4195 30.375 20.25C30.374 18.6557 29.8084 17.1132 28.7786 15.8961C27.7487 14.6791 26.3211 13.866 24.7489 13.6012V9.82125C25.1766 9.57314 25.5107 9.19104 25.6995 8.73403C25.8882 8.27701 25.9212 7.77053 25.7933 7.2929C25.6654 6.81526 25.3837 6.39306 24.9917 6.09158C24.5998 5.7901 24.1195 5.62612 23.625 5.625C23.1304 5.62587 22.6499 5.78968 22.2578 6.09107C21.8657 6.39246 21.5838 6.81466 21.4557 7.29236C21.3277 7.77005 21.3605 8.27664 21.5493 8.73377C21.7381 9.19089 22.0722 9.57309 22.5 9.82125V13.6012C21.6421 13.7458 20.8205 14.0561 20.0813 14.5148L11.2016 7.82437C11.2767 7.41868 11.2616 7.00143 11.1574 6.60222C11.0532 6.203 10.8625 5.83161 10.5987 5.51436C10.3349 5.19711 10.0046 4.94178 9.63107 4.76648C9.25757 4.59118 8.85009 4.50021 8.4375 4.5ZM23.625 16.875C25.4858 16.875 27 18.3892 27 20.25C27 22.1108 25.4858 23.625 23.625 23.625C21.7642 23.625 20.25 22.1108 20.25 20.25C20.25 18.3892 21.7642 16.875 23.625 16.875Z" fill="black"/>
</svg>
