<svg width="12" height="12" viewBox="0 0 12 12" fill="none" xmlns="http://www.w3.org/2000/svg">
<g clip-path="url(#clip0_79_18023)">
<path d="M6 1L0.5 4H6V4.5H1.5L0.5 4V8H1.5V4.55371L6 7L11.5 4L6 1ZM2.5 5.90039V8.09961C2.5 8.09961 3.5 10 6 10C6.5795 10 7.0755 9.89528 7.5 9.73828V9V8C7.5 7.6305 7.57691 7.28466 7.71191 6.97266L6 8L2.5 5.90039ZM9.5 6V6.59961C9 6.74961 8.5 7.2 8.5 8C8.5 8.95 9.2998 9.25019 9.7998 9.45019C10.3998 9.70019 10.5 9.75 10.5 10C10.5 10.25 10.4 10.5 10 10.5C9.6 10.5 9.5 10.25 9.5 10H8.5C8.5 10.5 8.8 11.2004 9.5 11.4004V12H10.5V11.4004C11.2 11.2004 11.5 10.5 11.5 10C11.5 9.05 10.7002 8.7498 10.2002 8.5498C9.60019 8.2998 9.5 8.25 9.5 8C9.5 7.6 9.75 7.5 10 7.5C10.4 7.5 10.5 7.75 10.5 8H11H11.5C11.5 7.5 11.2 6.79961 10.5 6.59961V6H9.5Z" fill="white"/>
</g>
<defs>
<clipPath id="clip0_79_18023">
<rect width="12" height="12" fill="white"/>
</clipPath>
</defs>
</svg>
