<svg width="25" height="25" viewBox="0 0 25 25" fill="none" xmlns="http://www.w3.org/2000/svg">
<path fill-rule="evenodd" clip-rule="evenodd" d="M0.393555 12.5C0.393555 9.3174 1.65784 6.26516 3.90827 4.01472C6.15871 1.76428 9.21096 0.5 12.3936 0.5C15.5762 0.5 18.6284 1.76428 20.8788 4.01472C23.1293 6.26516 24.3936 9.3174 24.3936 12.5C24.3936 15.6826 23.1293 18.7348 20.8788 20.9853C18.6284 23.2357 15.5762 24.5 12.3936 24.5C9.21096 24.5 6.15871 23.2357 3.90827 20.9853C1.65784 18.7348 0.393555 15.6826 0.393555 12.5H0.393555ZM11.7088 17.636L18.6176 8.9992L17.3696 8.0008L11.4784 15.3624L7.30555 11.8856L6.28155 13.1144L11.7088 17.6376V17.636Z" fill="#34A853"/>
</svg>
