<svg width="36" height="36" viewBox="0 0 36 36" fill="none" xmlns="http://www.w3.org/2000/svg">
<path d="M30 18C31.056 17.9845 32.0645 17.5581 32.8113 16.8113C33.5581 16.0645 33.9845 15.0561 34 14V6.00002H24V4.43002C23.9987 4.10959 23.9343 3.79256 23.8104 3.49703C23.6866 3.2015 23.5058 2.93325 23.2783 2.7076C23.0508 2.48196 22.781 2.30333 22.4845 2.18192C22.188 2.06052 21.8704 1.9987 21.55 2.00002H14.45C14.1296 1.9987 13.812 2.06052 13.5155 2.18192C13.2189 2.30333 12.9492 2.48196 12.7217 2.7076C12.4942 2.93325 12.3134 3.2015 12.1896 3.49703C12.0657 3.79256 12.0013 4.10959 12 4.43002V6.00002H2V14C2.01573 15.0646 2.44905 16.0805 3.20659 16.8287C3.96413 17.5769 4.98527 17.9975 6.05 18H10.05V15.92H12.05V21.62C12.05 21.8852 11.9446 22.1396 11.7571 22.3271C11.5696 22.5147 11.3152 22.62 11.05 22.62C10.7848 22.62 10.5304 22.5147 10.3429 22.3271C10.1554 22.1396 10.05 21.8852 10.05 21.62V20.06H6.06C4.55893 20.0576 3.11218 19.4981 2 18.49V27.94C2 28.4705 2.21071 28.9792 2.58579 29.3542C2.96086 29.7293 3.46957 29.94 4 29.94H32C32.5304 29.94 33.0391 29.7293 33.4142 29.3542C33.7893 28.9792 34 28.4705 34 27.94V18.49C32.8909 19.5031 31.4422 20.0634 29.94 20.06H28V18H30ZM14 4.43002C14.0052 4.31417 14.0548 4.20479 14.1387 4.12467C14.2225 4.04456 14.334 3.99991 14.45 4.00002H21.55C21.666 3.99991 21.7775 4.04456 21.8613 4.12467C21.9452 4.20479 21.9948 4.31417 22 4.43002V6.00002H14V4.43002ZM26 21.62C26 21.8852 25.8946 22.1396 25.7071 22.3271C25.5196 22.5147 25.2652 22.62 25 22.62C24.7348 22.62 24.4804 22.5147 24.2929 22.3271C24.1054 22.1396 24 21.8852 24 21.62V20.06H14V18H24V15.92H26V21.62Z" fill="black"/>
</svg>
