<svg width="48" height="49" viewBox="0 0 48 49" fill="none" xmlns="http://www.w3.org/2000/svg">
<g clip-path="url(#clip0_639_2396)">
<path d="M36.2335 24.1989C36.2335 18.3339 40.9995 15.6889 41.1995 15.5629C38.6035 11.5699 34.4095 11.0959 32.8375 11.0949C29.1945 11.0949 25.9745 13.1169 24.2525 13.1169C22.4555 13.1169 19.8345 10.9959 16.8895 11.0949C13.0465 11.1699 9.52648 13.4409 7.55548 16.7859C6.15848 19.1819 5.60848 22.0029 5.65948 24.8729C5.66148 24.9859 5.67648 25.1009 5.67948 25.2139H36.3215C36.2805 24.8849 36.2445 24.5509 36.2335 24.1989Z" fill="#0883D9"/>
<path d="M30.5646 7.27589C32.2606 5.40389 33.2096 2.83389 33.0596 0.212891C30.7136 0.212891 27.9936 1.58489 26.2716 3.60689C24.9236 5.27889 23.4766 7.89989 24.0006 10.5199C26.4216 10.8199 29.0426 9.29789 30.5646 7.27589Z" fill="#0883D9"/>
<path d="M17.5127 45.2129C20.2837 45.2129 21.3067 43.3649 24.9257 43.3649C28.2957 43.3649 29.3437 45.2129 32.2637 45.2129C35.3337 45.2129 37.3557 42.4179 39.1767 39.6459C41.4717 36.4279 42.2467 33.3579 42.3457 33.2319C42.2517 33.2319 37.0587 31.1199 36.3197 25.2129H5.67969C5.83669 30.5239 7.90769 36.0029 10.3507 39.5219C12.2717 42.2679 14.4427 45.2129 17.5127 45.2129Z" fill="#0370C8"/>
</g>
<defs>
<clipPath id="clip0_639_2396">
<rect width="48" height="48" fill="white" transform="translate(0 0.212891)"/>
</clipPath>
</defs>
</svg>
