<svg width="25" height="25" viewBox="0 0 25 25" fill="none" xmlns="http://www.w3.org/2000/svg">
<path d="M24.3936 12.5C24.3936 15.6826 23.1293 18.7348 20.8788 20.9853C18.6284 23.2357 15.5762 24.5 12.3936 24.5C9.21096 24.5 6.15871 23.2357 3.90827 20.9853C1.65784 18.7348 0.393555 15.6826 0.393555 12.5C0.393555 9.3174 1.65784 6.26516 3.90827 4.01472C6.15871 1.76428 9.21096 0.5 12.3936 0.5C15.5762 0.5 18.6284 1.76428 20.8788 4.01472C23.1293 6.26516 24.3936 9.3174 24.3936 12.5ZM8.42455 7.469C8.28372 7.32817 8.09272 7.24905 7.89355 7.24905C7.69439 7.24905 7.50338 7.32817 7.36255 7.469C7.22172 7.60983 7.14261 7.80084 7.14261 8C7.14261 8.19916 7.22172 8.39017 7.36255 8.531L11.3331 12.5L7.36255 16.469C7.29282 16.5387 7.23751 16.6215 7.19977 16.7126C7.16203 16.8037 7.14261 16.9014 7.14261 17C7.14261 17.0986 7.16203 17.1963 7.19977 17.2874C7.23751 17.3785 7.29282 17.4613 7.36255 17.531C7.50338 17.6718 7.69439 17.7509 7.89355 17.7509C7.99217 17.7509 8.08982 17.7315 8.18093 17.6938C8.27204 17.656 8.35482 17.6007 8.42455 17.531L12.3936 13.5605L16.3626 17.531C16.4323 17.6007 16.5151 17.656 16.6062 17.6938C16.6973 17.7315 16.7949 17.7509 16.8936 17.7509C16.9922 17.7509 17.0898 17.7315 17.1809 17.6938C17.272 17.656 17.3548 17.6007 17.4246 17.531C17.4943 17.4613 17.5496 17.3785 17.5873 17.2874C17.6251 17.1963 17.6445 17.0986 17.6445 17C17.6445 16.9014 17.6251 16.8037 17.5873 16.7126C17.5496 16.6215 17.4943 16.5387 17.4246 16.469L13.4541 12.5L17.4246 8.531C17.4943 8.46127 17.5496 8.37848 17.5873 8.28738C17.6251 8.19627 17.6445 8.09862 17.6445 8C17.6445 7.90138 17.6251 7.80373 17.5873 7.71262C17.5496 7.62152 17.4943 7.53873 17.4246 7.469C17.3548 7.39927 17.272 7.34395 17.1809 7.30621C17.0898 7.26848 16.9922 7.24905 16.8936 7.24905C16.7949 7.24905 16.6973 7.26848 16.6062 7.30621C16.5151 7.34395 16.4323 7.39927 16.3626 7.469L12.3936 11.4395L8.42455 7.469Z" fill="#D72E32"/>
</svg>
