<svg width="11" height="23" viewBox="0 0 11 23" fill="none" xmlns="http://www.w3.org/2000/svg">
<path d="M9.5 5.32812V16.8281C9.5 19.0381 7.71 20.8281 5.5 20.8281C3.29 20.8281 1.5 19.0381 1.5 16.8281V4.32812C1.5 2.94812 2.62 1.82812 4 1.82812C5.38 1.82812 6.5 2.94812 6.5 4.32812V14.8281C6.5 15.3781 6.05 15.8281 5.5 15.8281C4.95 15.8281 4.5 15.3781 4.5 14.8281V5.32812H3V14.8281C3 16.2081 4.12 17.3281 5.5 17.3281C6.88 17.3281 8 16.2081 8 14.8281V4.32812C8 2.11812 6.21 0.328125 4 0.328125C1.79 0.328125 0 2.11812 0 4.32812V16.8281C0 19.8681 2.46 22.3281 5.5 22.3281C8.54 22.3281 11 19.8681 11 16.8281V5.32812H9.5Z" fill="black"/>
</svg>
