<svg width="26" height="28" viewBox="0 0 26 28" fill="none" xmlns="http://www.w3.org/2000/svg">
<path d="M16.6667 0.667023C15.7826 0.667023 14.9348 1.01821 14.3096 1.64333C13.6845 2.26845 13.3333 3.1163 13.3333 4.00036C13.3345 4.62194 13.5095 5.2308 13.8385 5.75817L12.0703 8.85713C11.613 8.73163 11.1409 8.6677 10.6667 8.66702C9.87903 8.66958 9.10173 8.84656 8.39062 9.18525L6.35156 6.73994C6.55788 6.29977 6.66543 5.81981 6.66667 5.33369C6.66667 4.44963 6.31548 3.60179 5.69036 2.97667C5.06523 2.35155 4.21739 2.00036 3.33333 2.00036C2.44928 2.00036 1.60143 2.35155 0.976311 2.97667C0.351189 3.60179 0 4.44963 0 5.33369C0 6.21774 0.351189 7.06559 0.976311 7.69071C1.60143 8.31583 2.44928 8.66702 3.33333 8.66702C3.67906 8.66633 4.02258 8.61186 4.35156 8.50556L6.34115 10.891C5.68806 11.7964 5.33556 12.884 5.33333 14.0004C5.33556 15.1167 5.68806 16.2043 6.34115 17.1097L4.35156 19.4978C4.02272 19.3906 3.6792 19.3352 3.33333 19.3337C2.44928 19.3337 1.60143 19.6849 0.976311 20.31C0.351189 20.9351 0 21.783 0 22.667C0 23.5511 0.351189 24.3989 0.976311 25.024C1.60143 25.6492 2.44928 26.0004 3.33333 26.0004C4.21739 26.0004 5.06523 25.6492 5.69036 25.024C6.31548 24.3989 6.66667 23.5511 6.66667 22.667C6.66543 22.1809 6.55788 21.7009 6.35156 21.2608L8.38802 18.8155C9.09992 19.1545 9.87815 19.3315 10.6667 19.3337C11.343 19.3324 12.0129 19.2025 12.6406 18.9509L15.1198 22.3285C14.8241 22.8361 14.6677 23.4129 14.6667 24.0004C14.6667 24.8844 15.0179 25.7323 15.643 26.3574C16.2681 26.9825 17.1159 27.3337 18 27.3337C18.8841 27.3337 19.7319 26.9825 20.357 26.3574C20.9821 25.7323 21.3333 24.8844 21.3333 24.0004C21.3333 23.1163 20.9821 22.2685 20.357 21.6433C19.7319 21.0182 18.8841 20.667 18 20.667C17.7546 20.6679 17.5101 20.6958 17.2708 20.7504L14.7943 17.3728C15.3475 16.6936 15.7249 15.8886 15.8932 15.029L19.0312 14.8441C19.3098 15.3922 19.7346 15.8525 20.2585 16.1743C20.7825 16.496 21.3852 16.6665 22 16.667C22.8841 16.667 23.7319 16.3158 24.357 15.6907C24.9821 15.0656 25.3333 14.2177 25.3333 13.3337C25.3333 12.4496 24.9821 11.6018 24.357 10.9767C23.7319 10.3515 22.8841 10.0004 22 10.0004C21.3185 10.001 20.6536 10.2106 20.0948 10.6008C19.5361 10.991 19.1103 11.5431 18.875 12.1826L15.7422 12.3649C15.4757 11.5371 15.0108 10.787 14.388 10.18L16.0469 7.27379C16.2512 7.31305 16.4587 7.33311 16.6667 7.33369C17.1044 7.33369 17.5379 7.24747 17.9423 7.07996C18.3467 6.91244 18.7142 6.66691 19.0237 6.35738C19.3332 6.04785 19.5787 5.68039 19.7463 5.27597C19.9138 4.87155 20 4.4381 20 4.00036C20 3.1163 19.6488 2.26845 19.0237 1.64333C18.3986 1.01821 17.5507 0.667023 16.6667 0.667023Z" fill="black"/>
</svg>
