<svg width="17" height="18" viewBox="0 0 17 18" fill="none" xmlns="http://www.w3.org/2000/svg">
<path d="M7.60723 1.45462L5.57318 5.76359L1.02101 6.45643C0.836901 6.48459 0.664004 6.56596 0.521853 6.69137C0.379702 6.81677 0.273963 6.98121 0.216584 7.16609C0.159206 7.35097 0.152475 7.54893 0.197153 7.7376C0.24183 7.92627 0.336136 8.09812 0.469412 8.23375L3.75993 11.5858L2.9806 16.3208C2.94888 16.5126 2.96928 16.7098 3.03947 16.8901C3.10966 17.0704 3.22683 17.2265 3.37769 17.3408C3.52855 17.455 3.70705 17.5228 3.89293 17.5364C4.07881 17.5501 4.26463 17.509 4.42929 17.4179L8.49914 15.182L12.569 17.4179C12.7338 17.5103 12.9201 17.5524 13.1067 17.5394C13.2933 17.5263 13.4726 17.4587 13.6242 17.3443C13.7758 17.2299 13.8935 17.0732 13.9638 16.8922C14.0341 16.7112 14.0543 16.5132 14.022 16.3208L13.2427 11.5858L16.5332 8.23375C16.6665 8.09812 16.7608 7.92627 16.8055 7.7376C16.8501 7.54893 16.8434 7.35097 16.786 7.16609C16.7286 6.98121 16.6229 6.81677 16.4808 6.69137C16.3386 6.56596 16.1657 6.48459 15.9816 6.45643L11.4294 5.76359L9.39624 1.45462C9.31362 1.28057 9.1861 1.13408 9.02806 1.03167C8.87001 0.929263 8.68772 0.875 8.50174 0.875C8.31575 0.875 8.13346 0.929263 7.97541 1.03167C7.81737 1.13408 7.68985 1.28057 7.60723 1.45462Z" fill="white"/>
</svg>
