<svg width="21" height="22" viewBox="0 0 21 22" fill="none" xmlns="http://www.w3.org/2000/svg">
<path d="M20.2274 18.4759L16.234 14.4831C16.0538 14.3029 15.8095 14.2028 15.5531 14.2028H14.9002C16.0057 12.7891 16.6626 11.011 16.6626 9.07671C16.6626 4.47525 12.9336 0.746826 8.33131 0.746826C3.72906 0.746826 0 4.47525 0 9.07671C0 13.6782 3.72906 17.4066 8.33131 17.4066C10.2659 17.4066 12.0443 16.7498 13.4583 15.6445V16.2973C13.4583 16.5536 13.5584 16.7979 13.7386 16.9781L17.7321 20.9708C18.1086 21.3473 18.7174 21.3473 19.0899 20.9708L20.2234 19.8375C20.6 19.461 20.6 18.8523 20.2274 18.4759ZM8.33131 14.2028C5.49946 14.2028 3.20435 11.9121 3.20435 9.07671C3.20435 6.24535 5.49546 3.95063 8.33131 3.95063C11.1631 3.95063 13.4583 6.24134 13.4583 9.07671C13.4583 11.9081 11.1672 14.2028 8.33131 14.2028Z" fill="#020202"/>
</svg>
