<svg width="17" height="15" viewBox="0 0 17 15" fill="none" xmlns="http://www.w3.org/2000/svg">
<path d="M15.4457 0.833252H1.55686C0.790075 0.833252 0.167969 1.39315 0.167969 2.08325V10.4166C0.167969 11.1067 0.790075 11.6666 1.55686 11.6666H7.11241L6.64945 12.9166H4.56612C4.18128 12.9166 3.87167 13.1952 3.87167 13.5416C3.87167 13.8879 4.18128 14.1666 4.56612 14.1666H12.4365C12.8213 14.1666 13.1309 13.8879 13.1309 13.5416C13.1309 13.1952 12.8213 12.9166 12.4365 12.9166H10.3532L9.89019 11.6666H15.4457C16.2125 11.6666 16.8346 11.1067 16.8346 10.4166V2.08325C16.8346 1.39315 16.2125 0.833252 15.4457 0.833252ZM14.9828 9.99992H2.01982V2.49992H14.9828V9.99992Z" fill="white"/>
</svg>
