<svg width="24" height="17" viewBox="0 0 24 17" fill="none" xmlns="http://www.w3.org/2000/svg">
<path d="M0 15.8002C0 16.4628 0.537375 17.0002 1.2 17.0002H22.8C23.4626 17.0002 24 16.4628 24 15.8002V3.8002H0V15.8002ZM16.8 8.0002C16.8 7.66869 17.0685 7.4002 17.4 7.4002H21C21.3315 7.4002 21.6 7.66869 21.6 8.0002V9.20019C21.6 9.53169 21.3315 9.80019 21 9.80019H17.4C17.0685 9.80019 16.8 9.53169 16.8 9.20019V8.0002ZM16.8 12.5002C16.8 12.3344 16.9342 12.2002 17.1 12.2002H21.3C21.4658 12.2002 21.6 12.3344 21.6 12.5002V13.1002C21.6 13.2659 21.4658 13.4002 21.3 13.4002H17.1C16.9342 13.4002 16.8 13.2659 16.8 13.1002V12.5002ZM2.4 8.9002C2.4 8.73444 2.53425 8.60019 2.7 8.60019H14.1C14.2658 8.60019 14.4 8.73444 14.4 8.9002V9.50019C14.4 9.66595 14.2658 9.80019 14.1 9.80019H2.7C2.53425 9.80019 2.4 9.66595 2.4 9.50019V8.9002ZM2.4 12.5002C2.4 12.3344 2.53425 12.2002 2.7 12.2002H9.3C9.46575 12.2002 9.6 12.3344 9.6 12.5002V13.1002C9.6 13.2659 9.46575 13.4002 9.3 13.4002H2.7C2.53425 13.4002 2.4 13.2659 2.4 13.1002V12.5002ZM23.4 0.200195H0.6C0.2685 0.200195 0 0.468695 0 0.800195V2.6002H24V0.800195C24 0.468695 23.7315 0.200195 23.4 0.200195Z" fill="black" fill-opacity="0.38"/>
</svg>
