<svg width="20" height="18" viewBox="0 0 20 18" fill="none" xmlns="http://www.w3.org/2000/svg">
<path d="M3.81982 3.28011C4.01982 4.44011 4.54982 4.92011 5.64982 4.91011H6.93982C7.19821 4.91157 7.45209 4.84249 7.67412 4.71033C7.89615 4.57817 8.07791 4.38793 8.19982 4.16011C8.33699 3.87424 8.44746 3.57631 8.52982 3.27011H19.1898C19.3455 3.27866 19.4999 3.23782 19.631 3.15342C19.7621 3.06902 19.8632 2.94537 19.9198 2.80011C19.9854 2.6635 20.0108 2.51109 19.993 2.36062C19.9753 2.21014 19.9153 2.06778 19.8198 1.95011C19.7343 1.84092 19.6225 1.7552 19.4948 1.70099C19.3671 1.64677 19.2278 1.62583 19.0898 1.64011H8.47982C8.48334 1.4143 8.43961 1.19025 8.35143 0.982334C8.26325 0.774421 8.13257 0.587242 7.96778 0.432812C7.80299 0.278382 7.60774 0.160114 7.39454 0.0855971C7.18135 0.0110807 6.95493 -0.0180369 6.72982 0.000113515H5.37982C5.1419 -0.00398463 4.90685 0.0526303 4.69689 0.164612C4.48692 0.276593 4.30897 0.440245 4.17982 0.640113C4.01055 0.960382 3.87 1.29503 3.75982 1.64011H0.819824C0.710522 1.6373 0.601805 1.65693 0.500383 1.69777C0.398962 1.73862 0.306991 1.79982 0.230147 1.8776C0.153304 1.95538 0.0932203 2.04809 0.0536058 2.15C0.0139914 2.25191 -0.00431282 2.36085 -0.000176502 2.47011C-0.00155632 2.5764 0.0185277 2.68187 0.0588729 2.78022C0.0992181 2.87856 0.158995 2.96775 0.234623 3.04244C0.310251 3.11714 0.400176 3.1758 0.499011 3.21492C0.597847 3.25404 0.703561 3.27281 0.809824 3.27011H3.80982L3.81982 3.28011ZM14.6398 8.17011C14.4398 7.00011 13.9298 6.55011 12.8098 6.54011H11.5198C11.2117 6.54659 10.9127 6.64535 10.6613 6.82362C10.4099 7.0019 10.2178 7.25149 10.1098 7.54011C10.0498 7.73011 10.0198 7.93011 9.95982 8.15011H0.799824C0.654813 8.14375 0.511135 8.18018 0.38667 8.25486C0.262206 8.32954 0.162451 8.43917 0.0998235 8.57011C0.0194587 8.69732 -0.0238863 8.84439 -0.0253522 8.99485C-0.0268181 9.14531 0.013653 9.2932 0.091524 9.42195C0.169395 9.55069 0.281588 9.65521 0.415524 9.72377C0.549461 9.79233 0.699847 9.82223 0.849824 9.81011H9.99982C9.99654 10.0341 10.0397 10.2564 10.1267 10.4628C10.2137 10.6693 10.3425 10.8554 10.5051 11.0096C10.6677 11.1637 10.8605 11.2824 11.0713 11.3582C11.2821 11.4341 11.5063 11.4653 11.7298 11.4501H13.0998C13.3383 11.4571 13.5744 11.4018 13.7848 11.2895C13.9953 11.1773 14.1728 11.012 14.2998 10.8101C14.4715 10.491 14.6121 10.1561 14.7198 9.81011H19.1198C19.2344 9.82283 19.3504 9.81123 19.4603 9.77607C19.5701 9.74091 19.6712 9.68298 19.7572 9.60607C19.8431 9.52916 19.9118 9.43499 19.9589 9.32972C20.0059 9.22444 20.0302 9.11043 20.0302 8.99511C20.0302 8.8798 20.0059 8.76578 19.9589 8.66051C19.9118 8.55523 19.8431 8.46107 19.7572 8.38416C19.6712 8.30724 19.5701 8.24932 19.4603 8.21416C19.3504 8.179 19.2344 8.1674 19.1198 8.18011H14.6398V8.17011ZM3.82982 16.3501C3.94982 17.2701 4.35982 17.8401 5.09982 17.9301C5.7966 18.0251 6.50305 18.0251 7.19982 17.9301C8.00982 17.8301 8.37982 17.2001 8.47982 16.3501H19.1898C19.3452 16.3571 19.499 16.3157 19.6297 16.2315C19.7605 16.1473 19.8619 16.0245 19.9198 15.8801C19.9793 15.7488 20.0036 15.6042 19.9902 15.4606C19.9768 15.317 19.9262 15.1794 19.8435 15.0613C19.7607 14.9432 19.6486 14.8487 19.5182 14.7871C19.3878 14.7255 19.2436 14.699 19.0998 14.7101H8.47982C8.30982 13.5701 7.76982 13.0901 6.70982 13.0801H5.35982C5.00883 13.0907 4.67216 13.2217 4.40631 13.4511C4.14047 13.6805 3.96163 13.9944 3.89982 14.3401C3.89982 14.4601 3.89982 14.5801 3.81982 14.7201H0.799824C0.598577 14.717 0.403725 14.7908 0.255049 14.9265C0.106373 15.0621 0.0150856 15.2494 -0.000176502 15.4501C-0.0187512 15.6452 0.0323028 15.8406 0.143946 16.0016C0.25559 16.1627 0.420622 16.2791 0.609824 16.3301C0.719599 16.3401 0.830048 16.3401 0.939824 16.3301L3.82982 16.3501Z" fill="black"/>
</svg>
