<svg width="229" height="51" viewBox="0 0 229 51" fill="none" xmlns="http://www.w3.org/2000/svg">
<path d="M8 23.5C8 12.1782 17.1782 3 28.5 3H208.5C219.822 3 229 12.1782 229 23.5C229 34.8218 219.822 44 208.5 44H28.5C17.1782 44 8 34.8218 8 23.5Z" fill="#E0E0E0"/>
<g filter="url(#filter0_d_427_1726)">
<rect x="8" y="6" width="96" height="35" rx="17.5" fill="black"/>
<path d="M27.4917 20.26V23.2675H31.2867V24.82H27.4917V27.8875H32.3067V29.5H25.4667V18.655H32.3067V20.26H27.4917ZM40.6259 21.805L37.5734 29.5H35.8934L32.8409 21.805H34.3709C34.5109 21.805 34.6259 21.8375 34.7159 21.9025C34.8109 21.9675 34.8734 22.05 34.9034 22.15L36.3884 26.26C36.4684 26.5 36.5384 26.735 36.5984 26.965C36.6584 27.195 36.7109 27.425 36.7559 27.655C36.8059 27.425 36.8609 27.195 36.9209 26.965C36.9809 26.735 37.0534 26.5 37.1384 26.26L38.6534 22.15C38.6884 22.05 38.7509 21.9675 38.8409 21.9025C38.9309 21.8375 39.0384 21.805 39.1634 21.805H40.6259ZM46.4864 24.7675C46.4864 24.5275 46.4514 24.3025 46.3814 24.0925C46.3164 23.8775 46.2164 23.69 46.0814 23.53C45.9464 23.37 45.7739 23.245 45.5639 23.155C45.3589 23.06 45.1189 23.0125 44.8439 23.0125C44.3089 23.0125 43.8864 23.165 43.5764 23.47C43.2714 23.775 43.0764 24.2075 42.9914 24.7675H46.4864ZM42.9539 25.885C42.9839 26.28 43.0539 26.6225 43.1639 26.9125C43.2739 27.1975 43.4189 27.435 43.5989 27.625C43.7789 27.81 43.9914 27.95 44.2364 28.045C44.4864 28.135 44.7614 28.18 45.0614 28.18C45.3614 28.18 45.6189 28.145 45.8339 28.075C46.0539 28.005 46.2439 27.9275 46.4039 27.8425C46.5689 27.7575 46.7114 27.68 46.8314 27.61C46.9564 27.54 47.0764 27.505 47.1914 27.505C47.3464 27.505 47.4614 27.5625 47.5364 27.6775L48.0689 28.3525C47.8639 28.5925 47.6339 28.795 47.3789 28.96C47.1239 29.12 46.8564 29.25 46.5764 29.35C46.3014 29.445 46.0189 29.5125 45.7289 29.5525C45.4439 29.5925 45.1664 29.6125 44.8964 29.6125C44.3614 29.6125 43.8639 29.525 43.4039 29.35C42.9439 29.17 42.5439 28.9075 42.2039 28.5625C41.8639 28.2125 41.5964 27.7825 41.4014 27.2725C41.2064 26.7575 41.1089 26.1625 41.1089 25.4875C41.1089 24.9625 41.1939 24.47 41.3639 24.01C41.5339 23.545 41.7764 23.1425 42.0914 22.8025C42.4114 22.4575 42.7989 22.185 43.2539 21.985C43.7139 21.785 44.2314 21.685 44.8064 21.685C45.2914 21.685 45.7389 21.7625 46.1489 21.9175C46.5589 22.0725 46.9114 22.3 47.2064 22.6C47.5014 22.895 47.7314 23.26 47.8964 23.695C48.0664 24.125 48.1514 24.6175 48.1514 25.1725C48.1514 25.4525 48.1214 25.6425 48.0614 25.7425C48.0014 25.8375 47.8864 25.885 47.7164 25.885H42.9539ZM51.4391 23.14C51.6791 22.68 51.9641 22.32 52.2941 22.06C52.6241 21.795 53.0141 21.6625 53.4641 21.6625C53.8191 21.6625 54.1041 21.74 54.3191 21.895L54.1991 23.2825C54.1741 23.3725 54.1366 23.4375 54.0866 23.4775C54.0416 23.5125 53.9791 23.53 53.8991 23.53C53.8241 23.53 53.7116 23.5175 53.5616 23.4925C53.4166 23.4675 53.2741 23.455 53.1341 23.455C52.9291 23.455 52.7466 23.485 52.5866 23.545C52.4266 23.605 52.2816 23.6925 52.1516 23.8075C52.0266 23.9175 51.9141 24.0525 51.8141 24.2125C51.7191 24.3725 51.6291 24.555 51.5441 24.76V29.5H49.6916V21.805H50.7791C50.9691 21.805 51.1016 21.84 51.1766 21.91C51.2516 21.975 51.3016 22.095 51.3266 22.27L51.4391 23.14ZM62.4273 21.805L58.2348 31.615C58.1798 31.745 58.1073 31.8425 58.0173 31.9075C57.9323 31.9775 57.7998 32.0125 57.6198 32.0125H56.2398L57.6798 28.9225L54.5673 21.805H56.1948C56.3398 21.805 56.4523 21.84 56.5323 21.91C56.6173 21.98 56.6798 22.06 56.7198 22.15L58.3548 26.14C58.4098 26.275 58.4548 26.41 58.4898 26.545C58.5298 26.68 58.5673 26.8175 58.6023 26.9575C58.6473 26.8175 58.6923 26.68 58.7373 26.545C58.7823 26.405 58.8323 26.2675 58.8873 26.1325L60.4323 22.15C60.4723 22.05 60.5373 21.9675 60.6273 21.9025C60.7223 21.8375 60.8273 21.805 60.9423 21.805H62.4273ZM66.668 21.685C67.238 21.685 67.7555 21.7775 68.2205 21.9625C68.6905 22.1475 69.0905 22.41 69.4205 22.75C69.7555 23.09 70.013 23.505 70.193 23.995C70.373 24.485 70.463 25.0325 70.463 25.6375C70.463 26.2475 70.373 26.7975 70.193 27.2875C70.013 27.7775 69.7555 28.195 69.4205 28.54C69.0905 28.885 68.6905 29.15 68.2205 29.335C67.7555 29.52 67.238 29.6125 66.668 29.6125C66.093 29.6125 65.5705 29.52 65.1005 29.335C64.6305 29.15 64.228 28.885 63.893 28.54C63.563 28.195 63.3055 27.7775 63.1205 27.2875C62.9405 26.7975 62.8505 26.2475 62.8505 25.6375C62.8505 25.0325 62.9405 24.485 63.1205 23.995C63.3055 23.505 63.563 23.09 63.893 22.75C64.228 22.41 64.6305 22.1475 65.1005 21.9625C65.5705 21.7775 66.093 21.685 66.668 21.685ZM66.668 28.1875C67.308 28.1875 67.7805 27.9725 68.0855 27.5425C68.3955 27.1125 68.5505 26.4825 68.5505 25.6525C68.5505 24.8225 68.3955 24.19 68.0855 23.755C67.7805 23.32 67.308 23.1025 66.668 23.1025C66.018 23.1025 65.5355 23.3225 65.2205 23.7625C64.9105 24.1975 64.7555 24.8275 64.7555 25.6525C64.7555 26.4775 64.9105 27.1075 65.2205 27.5425C65.5355 27.9725 66.018 28.1875 66.668 28.1875ZM73.7588 22.75C73.9138 22.595 74.0763 22.4525 74.2463 22.3225C74.4213 22.1875 74.6038 22.075 74.7938 21.985C74.9888 21.89 75.1963 21.8175 75.4163 21.7675C75.6363 21.7125 75.8763 21.685 76.1363 21.685C76.5563 21.685 76.9288 21.7575 77.2538 21.9025C77.5788 22.0425 77.8488 22.2425 78.0638 22.5025C78.2838 22.7575 78.4488 23.065 78.5588 23.425C78.6738 23.78 78.7313 24.1725 78.7313 24.6025V29.5H76.8788V24.6025C76.8788 24.1325 76.7713 23.77 76.5563 23.515C76.3413 23.255 76.0138 23.125 75.5738 23.125C75.2538 23.125 74.9538 23.1975 74.6738 23.3425C74.3938 23.4875 74.1288 23.685 73.8788 23.935V29.5H72.0263V21.805H73.1588C73.3988 21.805 73.5563 21.9175 73.6313 22.1425L73.7588 22.75ZM85.6006 24.7675C85.6006 24.5275 85.5656 24.3025 85.4956 24.0925C85.4306 23.8775 85.3306 23.69 85.1956 23.53C85.0606 23.37 84.8881 23.245 84.6781 23.155C84.4731 23.06 84.2331 23.0125 83.9581 23.0125C83.4231 23.0125 83.0006 23.165 82.6906 23.47C82.3856 23.775 82.1906 24.2075 82.1056 24.7675H85.6006ZM82.0681 25.885C82.0981 26.28 82.1681 26.6225 82.2781 26.9125C82.3881 27.1975 82.5331 27.435 82.7131 27.625C82.8931 27.81 83.1056 27.95 83.3506 28.045C83.6006 28.135 83.8756 28.18 84.1756 28.18C84.4756 28.18 84.7331 28.145 84.9481 28.075C85.1681 28.005 85.3581 27.9275 85.5181 27.8425C85.6831 27.7575 85.8256 27.68 85.9456 27.61C86.0706 27.54 86.1906 27.505 86.3056 27.505C86.4606 27.505 86.5756 27.5625 86.6506 27.6775L87.1831 28.3525C86.9781 28.5925 86.7481 28.795 86.4931 28.96C86.2381 29.12 85.9706 29.25 85.6906 29.35C85.4156 29.445 85.1331 29.5125 84.8431 29.5525C84.5581 29.5925 84.2806 29.6125 84.0106 29.6125C83.4756 29.6125 82.9781 29.525 82.5181 29.35C82.0581 29.17 81.6581 28.9075 81.3181 28.5625C80.9781 28.2125 80.7106 27.7825 80.5156 27.2725C80.3206 26.7575 80.2231 26.1625 80.2231 25.4875C80.2231 24.9625 80.3081 24.47 80.4781 24.01C80.6481 23.545 80.8906 23.1425 81.2056 22.8025C81.5256 22.4575 81.9131 22.185 82.3681 21.985C82.8281 21.785 83.3456 21.685 83.9206 21.685C84.4056 21.685 84.8531 21.7625 85.2631 21.9175C85.6731 22.0725 86.0256 22.3 86.3206 22.6C86.6156 22.895 86.8456 23.26 87.0106 23.695C87.1806 24.125 87.2656 24.6175 87.2656 25.1725C87.2656 25.4525 87.2356 25.6425 87.1756 25.7425C87.1156 25.8375 87.0006 25.885 86.8306 25.885H82.0681Z" fill="white"/>
</g>
<path d="M126.478 18.655V29.5H124.453V24.76H119.36V29.5H117.335V18.655H119.36V23.32H124.453V18.655H126.478ZM135.234 21.805V29.5H134.102C133.857 29.5 133.702 29.3875 133.637 29.1625L133.509 28.5475C133.194 28.8675 132.847 29.1275 132.467 29.3275C132.087 29.5225 131.639 29.62 131.124 29.62C130.704 29.62 130.332 29.55 130.007 29.41C129.687 29.265 129.417 29.0625 129.197 28.8025C128.977 28.5425 128.809 28.235 128.694 27.88C128.584 27.52 128.529 27.125 128.529 26.695V21.805H130.382V26.695C130.382 27.165 130.489 27.53 130.704 27.79C130.924 28.045 131.252 28.1725 131.687 28.1725C132.007 28.1725 132.307 28.1025 132.587 27.9625C132.867 27.8175 133.132 27.62 133.382 27.37V21.805H135.234ZM139.073 27.505C139.283 27.76 139.511 27.94 139.756 28.045C140.006 28.15 140.268 28.2025 140.543 28.2025C140.828 28.2025 141.083 28.1525 141.308 28.0525C141.538 27.9475 141.733 27.7875 141.893 27.5725C142.053 27.3525 142.176 27.075 142.261 26.74C142.346 26.4 142.388 25.995 142.388 25.525C142.388 24.68 142.248 24.07 141.968 23.695C141.688 23.315 141.286 23.125 140.761 23.125C140.406 23.125 140.096 23.2075 139.831 23.3725C139.566 23.5325 139.313 23.76 139.073 24.055V27.505ZM139.073 22.75C139.383 22.425 139.726 22.1675 140.101 21.9775C140.481 21.7825 140.913 21.685 141.398 21.685C141.843 21.685 142.243 21.7725 142.598 21.9475C142.958 22.1225 143.263 22.375 143.513 22.705C143.768 23.03 143.963 23.425 144.098 23.89C144.233 24.355 144.301 24.8775 144.301 25.4575C144.301 26.0825 144.223 26.65 144.068 27.16C143.913 27.67 143.691 28.1075 143.401 28.4725C143.116 28.8325 142.771 29.1125 142.366 29.3125C141.961 29.5125 141.511 29.6125 141.016 29.6125C140.776 29.6125 140.558 29.5875 140.363 29.5375C140.168 29.4925 139.988 29.4275 139.823 29.3425C139.658 29.2575 139.506 29.155 139.366 29.035C139.231 28.91 139.101 28.7725 138.976 28.6225L138.893 29.14C138.863 29.27 138.811 29.3625 138.736 29.4175C138.666 29.4725 138.568 29.5 138.443 29.5H137.221V18.355H139.073V22.75ZM161.732 18.655V29.5H159.954V22.495C159.954 22.215 159.969 21.9125 159.999 21.5875L156.722 27.745C156.567 28.04 156.329 28.1875 156.009 28.1875H155.724C155.404 28.1875 155.167 28.04 155.012 27.745L151.697 21.565C151.712 21.73 151.724 21.8925 151.734 22.0525C151.744 22.2125 151.749 22.36 151.749 22.495V29.5H149.972V18.655H151.494C151.584 18.655 151.662 18.6575 151.727 18.6625C151.792 18.6675 151.849 18.68 151.899 18.7C151.954 18.72 152.002 18.7525 152.042 18.7975C152.087 18.8425 152.129 18.9025 152.169 18.9775L155.417 25C155.502 25.16 155.579 25.325 155.649 25.495C155.724 25.665 155.797 25.84 155.867 26.02C155.937 25.835 156.009 25.6575 156.084 25.4875C156.159 25.3125 156.239 25.145 156.324 24.985L159.527 18.9775C159.567 18.9025 159.609 18.8425 159.654 18.7975C159.699 18.7525 159.747 18.72 159.797 18.7C159.852 18.68 159.912 18.6675 159.977 18.6625C160.042 18.6575 160.119 18.655 160.209 18.655H161.732ZM168.732 24.7675C168.732 24.5275 168.697 24.3025 168.627 24.0925C168.562 23.8775 168.462 23.69 168.327 23.53C168.192 23.37 168.019 23.245 167.809 23.155C167.604 23.06 167.364 23.0125 167.089 23.0125C166.554 23.0125 166.132 23.165 165.822 23.47C165.517 23.775 165.322 24.2075 165.237 24.7675H168.732ZM165.199 25.885C165.229 26.28 165.299 26.6225 165.409 26.9125C165.519 27.1975 165.664 27.435 165.844 27.625C166.024 27.81 166.237 27.95 166.482 28.045C166.732 28.135 167.007 28.18 167.307 28.18C167.607 28.18 167.864 28.145 168.079 28.075C168.299 28.005 168.489 27.9275 168.649 27.8425C168.814 27.7575 168.957 27.68 169.077 27.61C169.202 27.54 169.322 27.505 169.437 27.505C169.592 27.505 169.707 27.5625 169.782 27.6775L170.314 28.3525C170.109 28.5925 169.879 28.795 169.624 28.96C169.369 29.12 169.102 29.25 168.822 29.35C168.547 29.445 168.264 29.5125 167.974 29.5525C167.689 29.5925 167.412 29.6125 167.142 29.6125C166.607 29.6125 166.109 29.525 165.649 29.35C165.189 29.17 164.789 28.9075 164.449 28.5625C164.109 28.2125 163.842 27.7825 163.647 27.2725C163.452 26.7575 163.354 26.1625 163.354 25.4875C163.354 24.9625 163.439 24.47 163.609 24.01C163.779 23.545 164.022 23.1425 164.337 22.8025C164.657 22.4575 165.044 22.185 165.499 21.985C165.959 21.785 166.477 21.685 167.052 21.685C167.537 21.685 167.984 21.7625 168.394 21.9175C168.804 22.0725 169.157 22.3 169.452 22.6C169.747 22.895 169.977 23.26 170.142 23.695C170.312 24.125 170.397 24.6175 170.397 25.1725C170.397 25.4525 170.367 25.6425 170.307 25.7425C170.247 25.8375 170.132 25.885 169.962 25.885H165.199ZM171.937 29.5V21.805H173.07C173.31 21.805 173.467 21.9175 173.542 22.1425L173.662 22.7125C173.797 22.5625 173.937 22.425 174.082 22.3C174.232 22.175 174.39 22.0675 174.555 21.9775C174.725 21.8875 174.905 21.8175 175.095 21.7675C175.29 21.7125 175.502 21.685 175.732 21.685C176.217 21.685 176.615 21.8175 176.925 22.0825C177.24 22.3425 177.475 22.69 177.63 23.125C177.75 22.87 177.9 22.6525 178.08 22.4725C178.26 22.2875 178.457 22.1375 178.672 22.0225C178.887 21.9075 179.115 21.8225 179.355 21.7675C179.6 21.7125 179.845 21.685 180.09 21.685C180.515 21.685 180.892 21.75 181.222 21.88C181.552 22.01 181.83 22.2 182.055 22.45C182.28 22.7 182.45 23.005 182.565 23.365C182.685 23.725 182.745 24.1375 182.745 24.6025V29.5H180.892V24.6025C180.892 24.1125 180.785 23.745 180.57 23.5C180.355 23.25 180.04 23.125 179.625 23.125C179.435 23.125 179.257 23.1575 179.092 23.2225C178.932 23.2875 178.79 23.3825 178.665 23.5075C178.545 23.6275 178.45 23.78 178.38 23.965C178.31 24.15 178.275 24.3625 178.275 24.6025V29.5H176.415V24.6025C176.415 24.0875 176.31 23.7125 176.1 23.4775C175.895 23.2425 175.592 23.125 175.192 23.125C174.922 23.125 174.67 23.1925 174.435 23.3275C174.205 23.4575 173.99 23.6375 173.79 23.8675V29.5H171.937ZM186.508 27.505C186.718 27.76 186.945 27.94 187.19 28.045C187.44 28.15 187.703 28.2025 187.978 28.2025C188.263 28.2025 188.518 28.1525 188.743 28.0525C188.973 27.9475 189.168 27.7875 189.328 27.5725C189.488 27.3525 189.61 27.075 189.695 26.74C189.78 26.4 189.823 25.995 189.823 25.525C189.823 24.68 189.683 24.07 189.403 23.695C189.123 23.315 188.72 23.125 188.195 23.125C187.84 23.125 187.53 23.2075 187.265 23.3725C187 23.5325 186.748 23.76 186.508 24.055V27.505ZM186.508 22.75C186.818 22.425 187.16 22.1675 187.535 21.9775C187.915 21.7825 188.348 21.685 188.833 21.685C189.278 21.685 189.678 21.7725 190.033 21.9475C190.393 22.1225 190.698 22.375 190.948 22.705C191.203 23.03 191.398 23.425 191.533 23.89C191.668 24.355 191.735 24.8775 191.735 25.4575C191.735 26.0825 191.658 26.65 191.503 27.16C191.348 27.67 191.125 28.1075 190.835 28.4725C190.55 28.8325 190.205 29.1125 189.8 29.3125C189.395 29.5125 188.945 29.6125 188.45 29.6125C188.21 29.6125 187.993 29.5875 187.798 29.5375C187.603 29.4925 187.423 29.4275 187.258 29.3425C187.093 29.2575 186.94 29.155 186.8 29.035C186.665 28.91 186.535 28.7725 186.41 28.6225L186.328 29.14C186.298 29.27 186.245 29.3625 186.17 29.4175C186.1 29.4725 186.003 29.5 185.878 29.5H184.655V18.355H186.508V22.75ZM198.274 24.7675C198.274 24.5275 198.239 24.3025 198.169 24.0925C198.104 23.8775 198.004 23.69 197.869 23.53C197.734 23.37 197.561 23.245 197.351 23.155C197.146 23.06 196.906 23.0125 196.631 23.0125C196.096 23.0125 195.674 23.165 195.364 23.47C195.059 23.775 194.864 24.2075 194.779 24.7675H198.274ZM194.741 25.885C194.771 26.28 194.841 26.6225 194.951 26.9125C195.061 27.1975 195.206 27.435 195.386 27.625C195.566 27.81 195.779 27.95 196.024 28.045C196.274 28.135 196.549 28.18 196.849 28.18C197.149 28.18 197.406 28.145 197.621 28.075C197.841 28.005 198.031 27.9275 198.191 27.8425C198.356 27.7575 198.499 27.68 198.619 27.61C198.744 27.54 198.864 27.505 198.979 27.505C199.134 27.505 199.249 27.5625 199.324 27.6775L199.856 28.3525C199.651 28.5925 199.421 28.795 199.166 28.96C198.911 29.12 198.644 29.25 198.364 29.35C198.089 29.445 197.806 29.5125 197.516 29.5525C197.231 29.5925 196.954 29.6125 196.684 29.6125C196.149 29.6125 195.651 29.525 195.191 29.35C194.731 29.17 194.331 28.9075 193.991 28.5625C193.651 28.2125 193.384 27.7825 193.189 27.2725C192.994 26.7575 192.896 26.1625 192.896 25.4875C192.896 24.9625 192.981 24.47 193.151 24.01C193.321 23.545 193.564 23.1425 193.879 22.8025C194.199 22.4575 194.586 22.185 195.041 21.985C195.501 21.785 196.019 21.685 196.594 21.685C197.079 21.685 197.526 21.7625 197.936 21.9175C198.346 22.0725 198.699 22.3 198.994 22.6C199.289 22.895 199.519 23.26 199.684 23.695C199.854 24.125 199.939 24.6175 199.939 25.1725C199.939 25.4525 199.909 25.6425 199.849 25.7425C199.789 25.8375 199.674 25.885 199.504 25.885H194.741ZM203.226 23.14C203.466 22.68 203.751 22.32 204.081 22.06C204.411 21.795 204.801 21.6625 205.251 21.6625C205.606 21.6625 205.891 21.74 206.106 21.895L205.986 23.2825C205.961 23.3725 205.924 23.4375 205.874 23.4775C205.829 23.5125 205.766 23.53 205.686 23.53C205.611 23.53 205.499 23.5175 205.349 23.4925C205.204 23.4675 205.061 23.455 204.921 23.455C204.716 23.455 204.534 23.485 204.374 23.545C204.214 23.605 204.069 23.6925 203.939 23.8075C203.814 23.9175 203.701 24.0525 203.601 24.2125C203.506 24.3725 203.416 24.555 203.331 24.76V29.5H201.479V21.805H202.566C202.756 21.805 202.889 21.84 202.964 21.91C203.039 21.975 203.089 22.095 203.114 22.27L203.226 23.14ZM211.89 23.305C211.84 23.385 211.788 23.4425 211.733 23.4775C211.678 23.5075 211.608 23.5225 211.523 23.5225C211.433 23.5225 211.335 23.4975 211.23 23.4475C211.13 23.3975 211.013 23.3425 210.878 23.2825C210.743 23.2175 210.588 23.16 210.413 23.11C210.243 23.06 210.04 23.035 209.805 23.035C209.44 23.035 209.153 23.1125 208.943 23.2675C208.738 23.4225 208.635 23.625 208.635 23.875C208.635 24.04 208.688 24.18 208.793 24.295C208.903 24.405 209.045 24.5025 209.22 24.5875C209.4 24.6725 209.603 24.75 209.828 24.82C210.053 24.885 210.28 24.9575 210.51 25.0375C210.745 25.1175 210.975 25.21 211.2 25.315C211.425 25.415 211.625 25.545 211.8 25.705C211.98 25.86 212.123 26.0475 212.228 26.2675C212.338 26.4875 212.393 26.7525 212.393 27.0625C212.393 27.4325 212.325 27.775 212.19 28.09C212.06 28.4 211.865 28.67 211.605 28.9C211.345 29.125 211.023 29.3025 210.638 29.4325C210.258 29.5575 209.818 29.62 209.318 29.62C209.053 29.62 208.793 29.595 208.538 29.545C208.288 29.5 208.045 29.435 207.81 29.35C207.58 29.265 207.365 29.165 207.165 29.05C206.97 28.935 206.798 28.81 206.648 28.675L207.075 27.97C207.13 27.885 207.195 27.82 207.27 27.775C207.345 27.73 207.44 27.7075 207.555 27.7075C207.67 27.7075 207.778 27.74 207.878 27.805C207.983 27.87 208.103 27.94 208.238 28.015C208.373 28.09 208.53 28.16 208.71 28.225C208.895 28.29 209.128 28.3225 209.408 28.3225C209.628 28.3225 209.815 28.2975 209.97 28.2475C210.13 28.1925 210.26 28.1225 210.36 28.0375C210.465 27.9525 210.54 27.855 210.585 27.745C210.635 27.63 210.66 27.5125 210.66 27.3925C210.66 27.2125 210.605 27.065 210.495 26.95C210.39 26.835 210.248 26.735 210.068 26.65C209.893 26.565 209.69 26.49 209.46 26.425C209.235 26.355 209.003 26.28 208.763 26.2C208.528 26.12 208.295 26.0275 208.065 25.9225C207.84 25.8125 207.638 25.675 207.458 25.51C207.283 25.345 207.14 25.1425 207.03 24.9025C206.925 24.6625 206.873 24.3725 206.873 24.0325C206.873 23.7175 206.935 23.4175 207.06 23.1325C207.185 22.8475 207.368 22.6 207.608 22.39C207.853 22.175 208.155 22.005 208.515 21.88C208.88 21.75 209.3 21.685 209.775 21.685C210.305 21.685 210.788 21.7725 211.223 21.9475C211.658 22.1225 212.02 22.3525 212.31 22.6375L211.89 23.305Z" fill="black" fill-opacity="0.6"/>
<defs>
<filter id="filter0_d_427_1726" x="0" y="0" width="112" height="51" filterUnits="userSpaceOnUse" color-interpolation-filters="sRGB">
<feFlood flood-opacity="0" result="BackgroundImageFix"/>
<feColorMatrix in="SourceAlpha" type="matrix" values="0 0 0 0 0 0 0 0 0 0 0 0 0 0 0 0 0 0 127 0" result="hardAlpha"/>
<feOffset dy="2"/>
<feGaussianBlur stdDeviation="4"/>
<feColorMatrix type="matrix" values="0 0 0 0 0.333333 0 0 0 0 0.333333 0 0 0 0 0.333333 0 0 0 0.4 0"/>
<feBlend mode="normal" in2="BackgroundImageFix" result="effect1_dropShadow_427_1726"/>
<feBlend mode="normal" in="SourceGraphic" in2="effect1_dropShadow_427_1726" result="shape"/>
</filter>
</defs>
</svg>
