<svg width="20" height="20" viewBox="0 0 20 20" fill="none" xmlns="http://www.w3.org/2000/svg">
<path d="M6.25 0.5C3.0795 0.5 0.5 3.0795 0.5 6.25V13.75C0.5 16.9205 3.0795 19.5 6.25 19.5H13.75C16.9205 19.5 19.5 16.9205 19.5 13.75V6.25C19.5 3.0795 16.9205 0.5 13.75 0.5H6.25ZM15 4C15.5525 4 16 4.4475 16 5C16 5.552 15.5525 6 15 6C14.4475 6 14 5.552 14 5C14 4.4475 14.4475 4 15 4ZM10 5C12.757 5 15 7.243 15 10C15 12.757 12.757 15 10 15C7.243 15 5 12.757 5 10C5 7.243 7.243 5 10 5ZM10 6.5C9.54037 6.5 9.08525 6.59053 8.66061 6.76642C8.23597 6.94231 7.85013 7.20012 7.52513 7.52513C7.20012 7.85013 6.94231 8.23597 6.76642 8.66061C6.59053 9.08525 6.5 9.54037 6.5 10C6.5 10.4596 6.59053 10.9148 6.76642 11.3394C6.94231 11.764 7.20012 12.1499 7.52513 12.4749C7.85013 12.7999 8.23597 13.0577 8.66061 13.2336C9.08525 13.4095 9.54037 13.5 10 13.5C10.4596 13.5 10.9148 13.4095 11.3394 13.2336C11.764 13.0577 12.1499 12.7999 12.4749 12.4749C12.7999 12.1499 13.0577 11.764 13.2336 11.3394C13.4095 10.9148 13.5 10.4596 13.5 10C13.5 9.54037 13.4095 9.08525 13.2336 8.66061C13.0577 8.23597 12.7999 7.85013 12.4749 7.52513C12.1499 7.20012 11.764 6.94231 11.3394 6.76642C10.9148 6.59053 10.4596 6.5 10 6.5Z" fill="black"/>
</svg>
