<svg width="18" height="18" viewBox="0 0 18 18" fill="none" xmlns="http://www.w3.org/2000/svg">
<path d="M8.10589 1.45462L6.07183 5.76359L1.51966 6.45643C1.33556 6.48459 1.16266 6.56596 1.02051 6.69137C0.878359 6.81677 0.77262 6.98121 0.715241 7.16609C0.657863 7.35097 0.651132 7.54893 0.69581 7.7376C0.740488 7.92627 0.834793 8.09812 0.968069 8.23375L4.25859 11.5858L3.47925 16.3208C3.44754 16.5126 3.46793 16.7098 3.53813 16.8901C3.60832 17.0704 3.72549 17.2265 3.87635 17.3408C4.02721 17.455 4.20571 17.5228 4.39159 17.5364C4.57747 17.5501 4.76328 17.509 4.92795 17.4179L8.9978 15.182L13.0676 17.4179C13.2324 17.5103 13.4188 17.5524 13.6054 17.5394C13.792 17.5263 13.9713 17.4587 14.1229 17.3443C14.2744 17.2299 14.3921 17.0732 14.4625 16.8922C14.5328 16.7112 14.553 16.5132 14.5207 16.3208L13.7413 11.5858L17.0319 8.23375C17.1651 8.09812 17.2594 7.92627 17.3041 7.7376C17.3488 7.54893 17.3421 7.35097 17.2847 7.16609C17.2273 6.98121 17.1216 6.81677 16.9794 6.69137C16.8373 6.56596 16.6644 6.48459 16.4803 6.45643L11.9281 5.76359L9.89489 1.45462C9.81228 1.28057 9.68476 1.13408 9.52671 1.03167C9.36867 0.929263 9.18638 0.875 9.00039 0.875C8.81441 0.875 8.63212 0.929263 8.47407 1.03167C8.31603 1.13408 8.18851 1.28057 8.10589 1.45462Z" fill="black"/>
</svg>
