<svg width="24" height="24" viewBox="0 0 24 24" fill="none" xmlns="http://www.w3.org/2000/svg">
<path d="M24 12C24 18.6274 18.6274 24 12 24C5.37258 24 0 18.6274 0 12C0 5.37258 5.37258 0 12 0C18.6274 0 24 5.37258 24 12Z" fill="white"/>
<path d="M12.6647 11.3353L12.6687 11.3353L17.935 11.3353V12.6647L12.6687 12.6647L12.6647 12.6647L6.06507 12.6647V11.3353L12.6647 11.3353Z" fill="black" fill-opacity="0.38"/>
<path d="M12 1C18.0751 1 23 5.92487 23 12H25C25 4.8203 19.1797 -1 12 -1V1ZM1 12C1 5.92487 5.92487 1 12 1V-1C4.8203 -1 -1 4.8203 -1 12H1ZM12 23C5.92487 23 1 18.0751 1 12H-1C-1 19.1797 4.8203 25 12 25V23ZM12 25C19.1797 25 25 19.1797 25 12H23C23 18.0751 18.0751 23 12 23V25Z" fill="black" fill-opacity="0.12"/>
</svg>
