<svg width="48" height="49" viewBox="0 0 48 49" fill="none" xmlns="http://www.w3.org/2000/svg">
<path d="M24 4.21301C12.954 4.21301 4 13.167 4 24.213C4 35.259 12.954 44.213 24 44.213C35.046 44.213 44 35.259 44 24.213C44 13.167 35.046 4.21301 24 4.21301Z" fill="url(#paint0_linear_639_2376)"/>
<path d="M26.7056 29.513H31.8816L32.6946 24.255H26.7056V21.381C26.7056 19.197 27.4196 17.26 29.4626 17.26H32.7456V12.672C32.1686 12.594 30.9486 12.424 28.6436 12.424C23.8296 12.424 21.0076 14.966 21.0076 20.758V24.256H16.0586V29.514H21.0066V43.966C21.9866 44.112 22.9796 44.212 23.9986 44.212C24.9196 44.212 25.8186 44.128 26.7056 44.008V29.513Z" fill="white"/>
<defs>
<linearGradient id="paint0_linear_639_2376" x1="9.993" y1="10.206" x2="40.615" y2="40.828" gradientUnits="userSpaceOnUse">
<stop stop-color="#2AA4F4"/>
<stop offset="1" stop-color="#007AD9"/>
</linearGradient>
</defs>
</svg>
