<svg width="162" height="53" viewBox="0 0 162 53" fill="none" xmlns="http://www.w3.org/2000/svg">
<rect y="0.328125" width="162" height="52" rx="26" fill="#1A1623"/>
<path d="M34.2928 30.5921C34.7088 30.5921 35.0794 30.5228 35.4048 30.3841C35.7354 30.2455 36.0128 30.0508 36.2368 29.8001C36.4661 29.5495 36.6394 29.2455 36.7568 28.8881C36.8794 28.5308 36.9408 28.1308 36.9408 27.6881V20.7601H39.0928V27.6881C39.0928 28.3761 38.9808 29.0135 38.7568 29.6001C38.5381 30.1815 38.2208 30.6855 37.8048 31.1121C37.3888 31.5335 36.8848 31.8641 36.2928 32.1041C35.7008 32.3388 35.0341 32.4561 34.2928 32.4561C33.5514 32.4561 32.8848 32.3388 32.2928 32.1041C31.7008 31.8641 31.1968 31.5335 30.7808 31.1121C30.3701 30.6855 30.0528 30.1815 29.8288 29.6001C29.6101 29.0135 29.5008 28.3761 29.5008 27.6881V20.7601H31.6528V27.6801C31.6528 28.1228 31.7114 28.5228 31.8288 28.8801C31.9514 29.2375 32.1248 29.5441 32.3488 29.8001C32.5728 30.0508 32.8474 30.2455 33.1727 30.3841C33.5034 30.5228 33.8768 30.5921 34.2928 30.5921ZM41.3154 35.0081V24.1201H42.5234C42.6514 24.1201 42.7607 24.1495 42.8514 24.2081C42.942 24.2668 43.0007 24.3575 43.0274 24.4801L43.1874 25.2401C43.518 24.8615 43.8967 24.5548 44.3234 24.3201C44.7554 24.0855 45.2594 23.9681 45.8354 23.9681C46.2834 23.9681 46.6914 24.0615 47.0594 24.2481C47.4327 24.4348 47.7527 24.7068 48.0194 25.0641C48.2914 25.4161 48.4994 25.8535 48.6434 26.3761C48.7927 26.8935 48.8674 27.4881 48.8674 28.1601C48.8674 28.7735 48.7847 29.3415 48.6194 29.8641C48.454 30.3868 48.2167 30.8401 47.9074 31.2241C47.6034 31.6081 47.2327 31.9095 46.7954 32.1281C46.3634 32.3415 45.878 32.4481 45.3394 32.4481C44.8754 32.4481 44.4807 32.3788 44.1554 32.2401C43.8354 32.0961 43.5474 31.8988 43.2914 31.6481V35.0081H41.3154ZM45.1554 25.5281C44.7447 25.5281 44.3927 25.6161 44.0994 25.7921C43.8114 25.9628 43.542 26.2055 43.2914 26.5201V30.2001C43.5154 30.4775 43.758 30.6721 44.0194 30.7841C44.286 30.8908 44.5714 30.9441 44.8754 30.9441C45.174 30.9441 45.4434 30.8881 45.6834 30.7761C45.9287 30.6641 46.134 30.4935 46.2994 30.2641C46.47 30.0348 46.6007 29.7468 46.6914 29.4001C46.782 29.0481 46.8274 28.6348 46.8274 28.1601C46.8274 27.6801 46.7874 27.2748 46.7074 26.9441C46.6327 26.6081 46.5234 26.3361 46.3794 26.1281C46.2354 25.9201 46.0594 25.7681 45.8514 25.6721C45.6487 25.5761 45.4167 25.5281 45.1554 25.5281ZM52.6162 20.4401V32.3281H50.6402V20.4401H52.6162ZM58.51 23.9921C59.1233 23.9921 59.678 24.0908 60.174 24.2881C60.6753 24.4855 61.102 24.7655 61.454 25.1281C61.806 25.4908 62.078 25.9335 62.27 26.4561C62.462 26.9788 62.558 27.5628 62.558 28.2081C62.558 28.8588 62.462 29.4455 62.27 29.9681C62.078 30.4908 61.806 30.9361 61.454 31.3041C61.102 31.6721 60.6753 31.9548 60.174 32.1521C59.678 32.3495 59.1233 32.4481 58.51 32.4481C57.8967 32.4481 57.3393 32.3495 56.838 32.1521C56.3367 31.9548 55.9073 31.6721 55.55 31.3041C55.198 30.9361 54.9233 30.4908 54.726 29.9681C54.534 29.4455 54.438 28.8588 54.438 28.2081C54.438 27.5628 54.534 26.9788 54.726 26.4561C54.9233 25.9335 55.198 25.4908 55.55 25.1281C55.9073 24.7655 56.3367 24.4855 56.838 24.2881C57.3393 24.0908 57.8967 23.9921 58.51 23.9921ZM58.51 30.9281C59.1927 30.9281 59.6967 30.6988 60.022 30.2401C60.3527 29.7815 60.518 29.1095 60.518 28.2241C60.518 27.3388 60.3527 26.6641 60.022 26.2001C59.6967 25.7361 59.1927 25.5041 58.51 25.5041C57.8167 25.5041 57.3047 25.7388 56.974 26.2081C56.6433 26.6721 56.478 27.3441 56.478 28.2241C56.478 29.1041 56.6433 29.7761 56.974 30.2401C57.3047 30.6988 57.8167 30.9281 58.51 30.9281ZM70.6817 32.3281H69.7937C69.6071 32.3281 69.4604 32.3015 69.3537 32.2481C69.2471 32.1895 69.1671 32.0748 69.1137 31.9041L68.9377 31.3201C68.7297 31.5068 68.5244 31.6721 68.3217 31.8161C68.1244 31.9548 67.9191 32.0721 67.7057 32.1681C67.4924 32.2641 67.2657 32.3361 67.0257 32.3841C66.7857 32.4321 66.5191 32.4561 66.2257 32.4561C65.8791 32.4561 65.5591 32.4108 65.2657 32.3201C64.9724 32.2241 64.7191 32.0828 64.5057 31.8961C64.2977 31.7095 64.1351 31.4775 64.0177 31.2001C63.9004 30.9228 63.8417 30.6001 63.8417 30.2321C63.8417 29.9228 63.9217 29.6188 64.0817 29.3201C64.2471 29.0161 64.5191 28.7441 64.8977 28.5041C65.2764 28.2588 65.7804 28.0561 66.4097 27.8961C67.0391 27.7361 67.8204 27.6455 68.7537 27.6241V27.1441C68.7537 26.5948 68.6364 26.1895 68.4017 25.9281C68.1724 25.6615 67.8364 25.5281 67.3937 25.5281C67.0737 25.5281 66.8071 25.5655 66.5937 25.6401C66.3804 25.7148 66.1937 25.8001 66.0337 25.8961C65.8791 25.9868 65.7351 26.0695 65.6017 26.1441C65.4684 26.2188 65.3217 26.2561 65.1617 26.2561C65.0284 26.2561 64.9137 26.2215 64.8177 26.1521C64.7217 26.0828 64.6444 25.9975 64.5857 25.8961L64.2257 25.2641C65.1697 24.4001 66.3084 23.9681 67.6417 23.9681C68.1217 23.9681 68.5484 24.0481 68.9217 24.2081C69.3004 24.3628 69.6204 24.5815 69.8817 24.8641C70.1431 25.1415 70.3404 25.4748 70.4737 25.8641C70.6124 26.2535 70.6817 26.6801 70.6817 27.1441V32.3281ZM66.8417 31.0961C67.0444 31.0961 67.2311 31.0775 67.4017 31.0401C67.5724 31.0028 67.7324 30.9468 67.8817 30.8721C68.0364 30.7975 68.1831 30.7068 68.3217 30.6001C68.4657 30.4881 68.6097 30.3575 68.7537 30.2081V28.8241C68.1777 28.8508 67.6951 28.9015 67.3057 28.9761C66.9217 29.0455 66.6124 29.1361 66.3777 29.2481C66.1431 29.3601 65.9751 29.4908 65.8737 29.6401C65.7777 29.7895 65.7297 29.9521 65.7297 30.1281C65.7297 30.4748 65.8311 30.7228 66.0337 30.8721C66.2417 31.0215 66.5111 31.0961 66.8417 31.0961ZM78.5508 32.3281C78.2948 32.3281 78.1268 32.2081 78.0468 31.9681L77.8868 31.1761C77.7161 31.3681 77.5374 31.5415 77.3508 31.6961C77.1641 31.8508 76.9614 31.9841 76.7428 32.0961C76.5294 32.2081 76.2974 32.2935 76.0468 32.3521C75.8014 32.4161 75.5348 32.4481 75.2468 32.4481C74.7988 32.4481 74.3881 32.3548 74.0148 32.1681C73.6414 31.9815 73.3188 31.7121 73.0468 31.3601C72.7801 31.0028 72.5721 30.5628 72.4228 30.0401C72.2788 29.5175 72.2068 28.9201 72.2068 28.2481C72.2068 27.6401 72.2894 27.0748 72.4548 26.5521C72.6201 26.0295 72.8574 25.5761 73.1668 25.1921C73.4761 24.8081 73.8468 24.5095 74.2788 24.2961C74.7108 24.0775 75.1961 23.9681 75.7348 23.9681C76.1934 23.9681 76.5854 24.0428 76.9108 24.1921C77.2361 24.3361 77.5268 24.5308 77.7828 24.7761V20.4401H79.7587V32.3281H78.5508ZM75.9188 30.8801C76.3294 30.8801 76.6788 30.7948 76.9668 30.6241C77.2548 30.4535 77.5268 30.2108 77.7828 29.8961V26.2161C77.5588 25.9441 77.3134 25.7521 77.0468 25.6401C76.7854 25.5281 76.5028 25.4721 76.1988 25.4721C75.9001 25.4721 75.6281 25.5281 75.3828 25.6401C75.1428 25.7521 74.9374 25.9228 74.7668 26.1521C74.6014 26.3761 74.4734 26.6641 74.3828 27.0161C74.2921 27.3628 74.2468 27.7735 74.2468 28.2481C74.2468 28.7281 74.2841 29.1361 74.3588 29.4721C74.4388 29.8028 74.5508 30.0748 74.6948 30.2881C74.8388 30.4961 75.0148 30.6481 75.2228 30.7441C75.4308 30.8348 75.6628 30.8801 75.9188 30.8801ZM85.6455 32.3281V25.6081L84.9335 25.4961C84.7788 25.4695 84.6535 25.4161 84.5575 25.3361C84.4668 25.2561 84.4215 25.1441 84.4215 25.0001V24.1921H85.6455V23.5841C85.6455 23.1148 85.7148 22.6935 85.8535 22.3201C85.9975 21.9468 86.2002 21.6295 86.4615 21.3681C86.7282 21.1068 87.0508 20.9068 87.4295 20.7681C87.8082 20.6295 88.2348 20.5601 88.7095 20.5601C89.0882 20.5601 89.4402 20.6108 89.7655 20.7121L89.7255 21.7041C89.7148 21.8588 89.6428 21.9548 89.5095 21.9921C89.3762 22.0295 89.2215 22.0481 89.0455 22.0481C88.8108 22.0481 88.6002 22.0748 88.4135 22.1281C88.2322 22.1761 88.0775 22.2641 87.9495 22.3921C87.8215 22.5148 87.7228 22.6801 87.6535 22.8881C87.5895 23.0908 87.5575 23.3441 87.5575 23.6481V24.1921H89.6935V25.6001H87.6215V32.3281H85.6455ZM93.1569 24.1201V32.3281H91.1809V24.1201H93.1569ZM93.4529 21.7281C93.4529 21.8988 93.4182 22.0588 93.3489 22.2081C93.2795 22.3575 93.1862 22.4881 93.0689 22.6001C92.9569 22.7121 92.8235 22.8028 92.6689 22.8721C92.5142 22.9361 92.3489 22.9681 92.1729 22.9681C92.0022 22.9681 91.8395 22.9361 91.6849 22.8721C91.5355 22.8028 91.4049 22.7121 91.2929 22.6001C91.1809 22.4881 91.0902 22.3575 91.0209 22.2081C90.9569 22.0588 90.9249 21.8988 90.9249 21.7281C90.9249 21.5521 90.9569 21.3868 91.0209 21.2321C91.0902 21.0775 91.1809 20.9441 91.2929 20.8321C91.4049 20.7201 91.5355 20.6321 91.6849 20.5681C91.8395 20.4988 92.0022 20.4641 92.1729 20.4641C92.3489 20.4641 92.5142 20.4988 92.6689 20.5681C92.8235 20.6321 92.9569 20.7201 93.0689 20.8321C93.1862 20.9441 93.2795 21.0775 93.3489 21.2321C93.4182 21.3868 93.4529 21.5521 93.4529 21.7281ZM97.6506 20.4401V32.3281H95.6746V20.4401H97.6506ZM103.432 23.9921C103.95 23.9921 104.424 24.0748 104.856 24.2401C105.294 24.4055 105.67 24.6481 105.984 24.9681C106.299 25.2828 106.544 25.6721 106.72 26.1361C106.896 26.5948 106.984 27.1201 106.984 27.7121C106.984 27.8615 106.976 27.9868 106.96 28.0881C106.95 28.1841 106.926 28.2615 106.888 28.3201C106.856 28.3735 106.811 28.4135 106.752 28.4401C106.694 28.4615 106.619 28.4721 106.528 28.4721H101.456C101.515 29.3148 101.742 29.9335 102.136 30.3281C102.531 30.7228 103.054 30.9201 103.704 30.9201C104.024 30.9201 104.299 30.8828 104.528 30.8081C104.763 30.7335 104.966 30.6508 105.136 30.5601C105.312 30.4695 105.464 30.3868 105.592 30.3121C105.726 30.2375 105.854 30.2001 105.976 30.2001C106.056 30.2001 106.126 30.2161 106.184 30.2481C106.243 30.2801 106.294 30.3255 106.336 30.3841L106.912 31.1041C106.694 31.3601 106.448 31.5761 106.176 31.7521C105.904 31.9228 105.619 32.0615 105.32 32.1681C105.027 32.2695 104.726 32.3415 104.416 32.3841C104.112 32.4268 103.816 32.4481 103.528 32.4481C102.958 32.4481 102.427 32.3548 101.936 32.1681C101.446 31.9761 101.019 31.6961 100.656 31.3281C100.294 30.9548 100.008 30.4961 99.8004 29.9521C99.5924 29.4028 99.4884 28.7681 99.4884 28.0481C99.4884 27.4881 99.579 26.9628 99.7604 26.4721C99.9417 25.9761 100.2 25.5468 100.536 25.1841C100.878 24.8161 101.291 24.5255 101.776 24.3121C102.267 24.0988 102.819 23.9921 103.432 23.9921ZM103.472 25.4081C102.896 25.4081 102.446 25.5708 102.12 25.8961C101.795 26.2215 101.587 26.6828 101.496 27.2801H105.208C105.208 27.0241 105.174 26.7841 105.104 26.5601C105.035 26.3308 104.928 26.1308 104.784 25.9601C104.64 25.7895 104.459 25.6561 104.24 25.5601C104.022 25.4588 103.766 25.4081 103.472 25.4081Z" fill="white"/>
<path d="M135.35 24.3681C134.67 20.9181 131.64 18.3281 128 18.3281C125.11 18.3281 122.6 19.9681 121.35 22.3681C118.34 22.6881 116 25.2381 116 28.3281C116 31.6381 118.69 34.3281 122 34.3281H135C137.76 34.3281 140 32.0881 140 29.3281C140 26.6881 137.95 24.5481 135.35 24.3681ZM130 27.3281V31.3281H126V27.3281H123L128 22.3281L133 27.3281H130Z" fill="white"/>
</svg>
