<svg width="18" height="20" viewBox="0 0 18 20" fill="none" xmlns="http://www.w3.org/2000/svg">
<path d="M17.5179 6.25H0.482143C0.215879 6.25 0 6.04012 0 5.78125V4.375C0 3.33945 0.863437 2.5 1.92857 2.5H3.85714V0.46875C3.85714 0.209883 4.07302 0 4.33929 0H5.94643C6.21269 0 6.42857 0.209883 6.42857 0.46875V2.5H11.5714V0.46875C11.5714 0.209883 11.7873 0 12.0536 0H13.6607C13.927 0 14.1429 0.209883 14.1429 0.46875V2.5H16.0714C17.1366 2.5 18 3.33945 18 4.375V5.78125C18 6.04012 17.7841 6.25 17.5179 6.25ZM0.482143 7.5H17.5179C17.7841 7.5 18 7.70988 18 7.96875V18.125C18 19.1605 17.1366 20 16.0714 20H1.92857C0.863437 20 0 19.1605 0 18.125V7.96875C0 7.70988 0.215879 7.5 0.482143 7.5ZM13.8735 11.2479L12.7417 10.1386C12.5542 9.95484 12.2489 9.95363 12.0599 10.136L7.79946 14.2447L5.95205 12.4341C5.76454 12.2503 5.45922 12.2491 5.27018 12.4314L4.12923 13.5318C3.94019 13.7141 3.93895 14.0109 4.1265 14.1947L7.44529 17.4474C7.6328 17.6312 7.93808 17.6324 8.12712 17.4501L13.8708 11.9108C14.0598 11.7285 14.0611 11.4317 13.8735 11.2479Z" fill="black" fill-opacity="0.38"/>
</svg>
