<svg width="25" height="25" viewBox="0 0 25 25" fill="none" xmlns="http://www.w3.org/2000/svg">
<g id="money_off">
<path id="Vector" d="M13.0005 7.61094C14.7805 7.61094 15.4405 8.46094 15.5005 9.71094H17.7105C17.6405 7.99094 16.5905 6.41094 14.5005 5.90094V3.71094H11.5005V5.87094C10.9705 5.99094 10.4705 6.17094 10.0205 6.41094L11.4905 7.88094C11.9005 7.71094 12.4005 7.61094 13.0005 7.61094ZM5.83055 4.77094L4.56055 6.04094L8.00055 9.48094C8.00055 11.5609 9.56055 12.6909 11.9105 13.3909L15.4205 16.9009C15.0805 17.3809 14.3705 17.8109 13.0005 17.8109C10.9405 17.8109 10.1305 16.8909 10.0205 15.7109H7.82055C7.94055 17.9009 9.58055 19.1309 11.5005 19.5409V21.7109H14.5005V19.5609C15.4605 19.3809 16.3205 19.0109 16.9505 18.4409L19.1705 20.6609L20.4405 19.3909L5.83055 4.77094Z" fill="#1A1623"/>
</g>
</svg>
