<svg width="24" height="24" viewBox="0 0 24 24" fill="none" xmlns="http://www.w3.org/2000/svg">
<path d="M12 2.00781C6.48 2.00781 2 6.48781 2 12.0078C2 17.5278 6.48 22.0078 12 22.0078C17.52 22.0078 22 17.5278 22 12.0078C22 6.48781 17.52 2.00781 12 2.00781ZM13.41 18.0978V20.0078H10.74V18.0778C9.03 17.7178 7.58 16.6178 7.47 14.6778H9.43C9.53 15.7278 10.25 16.5478 12.08 16.5478C14.04 16.5478 14.48 15.5678 14.48 14.9578C14.48 14.1278 14.04 13.3478 11.81 12.8178C9.33 12.2178 7.63 11.1978 7.63 9.14781C7.63 7.42781 9.02 6.30781 10.74 5.93781V4.00781H13.41V5.95781C15.27 6.40781 16.2 7.81781 16.26 9.34781H14.3C14.25 8.23781 13.66 7.47781 12.08 7.47781C10.58 7.47781 9.68 8.15781 9.68 9.11781C9.68 9.95781 10.33 10.5078 12.35 11.0278C14.37 11.5478 16.53 12.4178 16.53 14.9378C16.52 16.7678 15.15 17.7678 13.41 18.0978Z" fill="#7B7B7C"/>
</svg>
