<svg width="188" height="188" viewBox="0 0 188 188" fill="none" xmlns="http://www.w3.org/2000/svg">
<g id="taxi-no-messages 2">
<g id="Clip path group">
<mask id="mask0_5370_10443" style="mask-type:luminance" maskUnits="userSpaceOnUse" x="5" y="25" width="173" height="149">
<g id="a">
<path id="Vector" d="M5.78125 25.877H177.821V173.108H5.78125V25.877Z" fill="white"/>
</g>
</mask>
<g mask="url(#mask0_5370_10443)">
<g id="Group">
<path id="Vector_2" d="M118.357 173.08C81.4076 171.576 41.9505 165.976 18.4043 132.296C-10.8542 90.4803 14.3917 51.3393 56.719 32.3957C99.0463 13.452 133.293 37.9116 164.976 77.4426C196.825 117.141 164.92 174.947 118.357 173.08Z" fill="#6878B9"/>
</g>
</g>
</g>
<g id="Clip path group_2">
<mask id="mask1_5370_10443" style="mask-type:luminance" maskUnits="userSpaceOnUse" x="39" y="8" width="117" height="170">
<g id="b">
<path id="Vector_3" d="M39.3164 8.1748H155.88V177.098H39.3164V8.1748Z" fill="white"/>
</g>
</mask>
<g mask="url(#mask1_5370_10443)">
<g id="Group_2">
<g id="Layer 2">
<path id="Vector_4" d="M93.8897 17.7217C93.637 17.8724 90.6885 20.8649 90.6885 23.7094C90.6885 26.5539 91.2876 28.6024 93.0384 28.7994L94.7888 28.9957L94.0868 32.392L99.0852 35.2366L103.428 32.6357L101.182 26.0389C101.182 26.0389 102.427 26.488 103.176 26.1896C103.925 25.8912 104.327 24.7394 103.878 24.0366C103.428 23.3339 101.724 23.5875 101.724 23.5875L101.771 20.5937L99.1211 17.6933C99.1211 17.6933 95.77 16.2433 95.5736 16.2994C95.3771 16.3556 94.3752 16.6454 94.3752 16.6454L93.8897 17.7217ZM55.2672 36.7887C55.2672 36.7887 54.3218 34.3376 52.6648 33.7942C51.5442 33.4408 50.3897 33.2056 49.22 33.0925C49.22 33.0925 44.9235 32.1476 44.7268 32.6904C44.5304 33.2422 46.6272 34.1404 46.6272 34.1404C46.6272 34.1404 45.3821 34.842 44.9797 34.7862C44.5771 34.7393 40.1869 33.6355 39.9809 34.2911C39.7843 34.9369 44.2307 36.2369 44.2307 36.2369C44.2307 36.2369 48.6302 36.0405 48.8269 36.2838C49.0236 36.5364 50.3714 40.3815 50.5213 40.3815C50.6712 40.3815 52.7211 39.5302 53.4231 38.9315C54.1158 38.3418 55.2672 36.7887 55.2672 36.7887ZM139.898 45.1341C139.898 45.1341 141.349 47.4356 142.201 48.2309C142.715 48.7106 143.284 49.1282 143.895 49.4753C143.895 49.4753 146.142 46.1257 146.591 46.1813C147.04 46.228 150.289 47.0328 150.289 47.0328L155.437 46.7333C155.437 46.7333 155.24 45.7884 154.342 45.6387C153.443 45.4891 150.691 45.488 150.691 45.488L148.941 44.3373C148.941 44.3373 151.59 43.9911 151.337 43.5422C151.083 43.0933 148.388 42.9902 147.087 42.9433C147.087 42.9433 144.635 42.3445 143.839 42.7469C143.053 43.1319 139.898 45.1341 139.898 45.1341Z" fill="white"/>
<path id="Vector_5" d="M61.9607 71.527C59.6774 71.4613 57.402 69.5809 55.1835 65.9414C54.1511 64.2253 53.271 62.4222 52.5532 60.5526C52.5401 60.5181 52.534 60.4812 52.5353 60.4443C52.5366 60.4073 52.5453 60.371 52.5608 60.3374C52.5763 60.3039 52.5984 60.2737 52.6257 60.2488C52.653 60.2239 52.685 60.2046 52.7199 60.1922C52.7547 60.1797 52.7917 60.1744 52.8286 60.1764C52.8655 60.1784 52.9017 60.1877 52.935 60.2039C52.9683 60.22 52.998 60.2426 53.0224 60.2704C53.0469 60.2981 53.0655 60.3305 53.0773 60.3655C53.1148 60.4685 56.9714 70.8251 61.9607 70.9655C62.0352 70.9655 62.1067 70.9951 62.1594 71.0477C62.212 71.1004 62.2416 71.1718 62.2416 71.2462C62.2416 71.3207 62.212 71.3921 62.1594 71.4448C62.1067 71.4974 62.0352 71.527 61.9607 71.527ZM133.599 71.9759C133.56 71.9764 133.521 71.9683 133.485 71.9522C133.45 71.936 133.418 71.9122 133.393 71.8824C133.344 71.8276 133.318 71.7557 133.322 71.6821C133.325 71.6086 133.358 71.5394 133.412 71.4895C139 66.4934 142.754 58.9153 142.791 58.8404C142.824 58.7734 142.881 58.722 142.951 58.6974C143.022 58.6728 143.099 58.6771 143.166 58.7094C143.233 58.7417 143.284 58.7992 143.309 58.8694C143.333 58.9396 143.329 59.0167 143.297 59.0837C143.259 59.1586 139.459 66.8304 133.786 71.9012C133.762 71.9264 133.733 71.9462 133.701 71.9591C133.668 71.972 133.634 71.9777 133.599 71.9759Z" fill="#1A1A1A"/>
<path id="Vector_6" d="M98.6817 8.43184C99.7768 8.36725 101.911 9.30184 103.044 11.2573C104.176 13.2129 105.571 16.6181 105.609 18.8822C105.646 21.1462 104.841 23.4104 103.839 23.8124L102.641 23.1107C102.641 23.1107 102.604 20.8095 99.5153 17.5164C96.4169 14.2224 96.2857 15.6545 96.2857 15.6545L94.4511 15.5236C94.4511 15.5236 91.4556 15.355 91.5491 15.2241C91.6521 15.0932 90.9501 13.2594 92.4478 13.1939C93.4089 13.1796 94.3552 13.4322 95.1811 13.9238C95.1811 13.9238 94.9847 10.9958 96.2482 9.69497C97.5118 8.39417 98.6817 8.43184 98.6817 8.43184Z" fill="#1A1A1A"/>
<path id="Vector_7" d="M97.2224 13.6992C97.3705 13.6077 97.5353 13.5465 97.7072 13.5192C97.8792 13.4919 98.0549 13.499 98.224 13.5401C98.3934 13.6159 98.5393 13.7358 98.6463 13.8874C98.7534 14.0389 98.8176 14.2164 98.8324 14.4013C98.8604 14.7689 98.8126 15.1383 98.6919 15.4866C98.6598 15.6973 98.5536 15.8896 98.3925 16.0291C98.2684 16.0954 98.1267 16.1211 97.9873 16.1024C97.8478 16.0838 97.7178 16.0219 97.6155 15.9254C96.8943 15.3271 96.099 14.2891 97.2224 13.6992ZM93.6934 19.2839C93.4711 19.1205 93.2203 18.9999 92.9539 18.9285L92.3828 19.7143C92.5436 19.9468 92.7468 20.1468 92.9819 20.3038C93.5811 20.7154 94.2174 20.8276 94.4141 20.5471C94.6108 20.2665 94.2924 19.6962 93.6934 19.2839Z" fill="white"/>
<path id="Vector_8" d="M93.852 19.0601C93.5981 18.8814 93.3167 18.7455 93.0188 18.6578C92.9828 18.6468 92.945 18.6431 92.9075 18.647C92.8701 18.6509 92.8338 18.6622 92.8008 18.6804C92.7678 18.6985 92.7388 18.7231 92.7155 18.7526C92.6922 18.7821 92.675 18.816 92.665 18.8523C92.655 18.8885 92.6523 18.9264 92.6572 18.9637C92.6621 19.001 92.6745 19.037 92.6935 19.0694C92.7125 19.1019 92.7379 19.1302 92.768 19.1527C92.7982 19.1753 92.8325 19.1915 92.8691 19.2005C93.1035 19.2697 93.3249 19.3772 93.5244 19.5185C93.5336 19.528 93.5431 19.528 93.5524 19.5372C93.481 19.5305 93.4091 19.5407 93.3424 19.5668C93.2758 19.593 93.2162 19.6345 93.1685 19.6879C93.135 19.7457 93.1158 19.8107 93.1126 19.8774C93.1093 19.9441 93.1221 20.0106 93.1498 20.0714C93.1485 20.0714 93.1473 20.0712 93.1462 20.0707C93.145 20.0703 93.144 20.0696 93.1431 20.0687C93.1423 20.0679 93.1416 20.0668 93.1411 20.0657C93.1407 20.0646 93.1405 20.0633 93.1405 20.0621C92.9318 19.9219 92.7509 19.7442 92.6069 19.5381C92.5647 19.4761 92.4996 19.4333 92.4258 19.4193C92.3521 19.4053 92.2758 19.4211 92.2137 19.4633C92.1516 19.5055 92.1089 19.5706 92.0948 19.6443C92.0808 19.718 92.0966 19.7943 92.1388 19.8563C92.3197 20.1181 92.5484 20.3434 92.8129 20.5205C93.1618 20.7882 93.5817 20.9477 94.0204 20.979C94.1377 20.9868 94.255 20.9661 94.3626 20.9189C94.4701 20.8716 94.5647 20.7991 94.6382 20.7076C94.9379 20.2858 94.6104 19.5934 93.852 19.0601Z" fill="#1A1A1A"/>
<path id="Vector_9" d="M103.944 12.5198C104.693 14.2038 105.301 15.6631 105.583 17.4784C105.863 19.3028 105.723 21.2301 104.872 22.8674C104.755 23.124 104.583 23.351 104.366 23.5316C104.256 23.6202 104.123 23.6766 103.983 23.6948C103.843 23.7129 103.7 23.6921 103.571 23.6345C103.41 23.5252 103.276 23.3814 103.177 23.2136C102.185 21.698 101.193 20.1728 100.575 18.4796C100.755 18.5841 100.963 18.6311 101.171 18.6142C101.379 18.5972 101.576 18.5172 101.737 18.3849C101.898 18.2525 102.015 18.0741 102.072 17.8736C102.128 17.6731 102.122 17.4601 102.054 17.2631C103.533 17.5626 103.993 16.2622 104.02 15.8599C104.104 14.3255 103.87 13.2496 103.533 11.9023L103.944 12.5198ZM107.539 35.3293C107.539 35.3293 113.398 37.2286 117.265 40.7183C121.131 44.2172 124.959 51.5044 125.896 56.6605L126.195 56.9972L139.955 45.1809C139.955 45.1809 140.386 46.416 142.286 48.2402C143.073 48.998 145.113 50.2704 145.113 50.2704C145.113 50.2704 144.233 51.6084 143.578 52.4972C143.194 53.0212 144.542 53.1613 144.542 53.1613L139.01 61.2542C139.01 61.2542 133.113 68.8136 131.615 70.0113C130.117 71.2089 126.148 74.3055 122.853 72.7431C119.558 71.1807 115.926 66.5496 115.926 66.5496L113.249 78.1969L112.725 79.5815L116.516 103.158L126.279 161.98L122.75 161.512L114.85 160.623L107.96 141.341C107.96 141.341 103.963 129.824 102.362 124.033C100.762 118.241 98.1033 109.119 98.1033 109.119L98.4402 122.433L98.9738 159.126L91.2516 160.444L88.6493 160.978L84.5955 141.555L79.466 114.994C79.466 114.994 76.601 95.0193 76.601 89.8923C76.601 84.7653 77.2005 77.0466 77.2005 77.0466L79.2684 60.9358C79.2684 60.9358 71.0123 68.1959 66.8092 68.3925C62.6156 68.5888 60.6778 67.5223 55.8852 59.6074C52.9719 54.7765 50.497 49.6947 48.4902 44.4228C49.3324 44.2495 50.15 43.973 50.9243 43.5995L49.4734 40.7361L52.9744 39.1923L55.3521 36.8908L67.4182 52.3372C67.4182 52.3372 69.0189 47.7435 73.877 42.0832C78.7351 36.4229 86.3362 34.1589 91.5971 34.0935L94.059 32.5591L99.0565 35.2909L103.456 32.6902L107.539 35.3293Z" fill="#DB485A"/>
<path id="Vector_10" d="M99.1317 35.3477L93.2812 40.1192C93.2812 40.1192 94.8257 44.0111 95.8274 45.1618C96.829 46.3125 98.9723 49.0726 98.9723 49.0726C98.9723 49.0726 101.172 47.5102 102.567 45.4145C103.461 44.0541 104.274 42.642 105.001 41.1858L99.1317 35.3477Z" fill="#1A1A1A"/>
<path id="Vector_11" d="M112.742 79.5919C112.742 79.5919 110.954 79.7789 107.247 80.2655C87.7765 82.7915 77.1987 77.0469 77.1987 77.0469C77.1987 77.0469 76.5996 84.7746 76.5996 89.8923C76.5996 95.0193 79.4645 114.994 79.4645 114.994L84.5936 141.555L88.6562 160.996L91.2584 160.463L98.9812 159.144L98.4476 122.45L98.1105 109.137C98.1105 109.137 100.778 118.259 102.37 124.05C103.97 129.841 107.967 141.358 107.967 141.358L114.857 160.641L122.758 161.529L126.287 161.997L116.523 103.178L112.742 79.5919Z" fill="white"/>
<path id="Vector_12" d="M110.57 109.334C111.712 113.254 112.742 117.202 113.734 121.16C114.717 125.117 115.659 129.087 116.561 133.07C117.46 137.045 118.318 141.034 119.135 145.036C119.941 149.031 120.718 153.045 121.363 157.077C120.222 153.156 119.192 149.208 118.199 145.251C117.216 141.293 116.274 137.323 115.372 133.341C114.474 129.365 113.616 125.376 112.798 121.375C111.994 117.371 111.226 113.367 110.57 109.334Z" fill="#1A1A1A"/>
<path id="Vector_13" d="M56.9419 38.8936C56.9419 38.8936 54.9294 39.8477 58.0465 44.3667C69.2982 60.6924 71.7976 56.5478 71.7976 56.5478L56.9419 38.8936ZM121.063 60.1966C121.063 60.1966 123.113 62.2923 128.309 58.3629C144.12 46.397 139.833 45.6297 139.833 45.6297L121.063 60.1966Z" fill="#1A1A1A"/>
<path id="Vector_14" d="M107.425 35.1982L106.873 36.6764C106.873 36.6764 112.106 38.4914 117.967 44.264C123.555 49.7755 124.491 58.5969 124.491 58.5969L126.054 57.0628C126.054 57.0628 123.62 47.9408 120.157 43.7775C116.702 39.6234 110.936 36.1623 107.425 35.1982Z" fill="#1A1A1A"/>
<path id="Vector_15" d="M102.183 33.627L106.873 36.6771L107.537 35.3298L103.428 32.6446L102.183 33.627ZM91.7549 35.1334L94.9376 33.1312L94.0856 32.4014L91.5863 33.964L91.7549 35.1334ZM68.9335 53.8075C68.9335 53.8075 72.6964 46.2762 77.5266 42.1875C85.8198 35.1614 91.7457 35.1334 91.7457 35.1334L91.5772 34.1041C91.5772 34.1041 83.2086 34.1511 77.4518 38.8289C75.6544 40.2977 68.4559 47.4174 67.2578 52.1422L68.9335 53.8075ZM100.47 39.1657L101.453 37.3695L99.1499 34.9556L96.3324 37.4067L97.259 39.1282L95.883 45.5558L98.944 49.4946L101.705 46.9591L100.47 39.1657Z" fill="#1A1A1A"/>
<path id="Vector_16" d="M115.232 69.7871L117.479 78.4038L116.43 77.8423L113.332 77.6927L115.232 69.7871Z" fill="white"/>
<path id="Vector_17" d="M117.479 78.6842C117.432 78.6864 117.386 78.6733 117.348 78.647L116.355 78.1137L113.313 77.963C113.272 77.9618 113.231 77.9512 113.194 77.9321C113.157 77.913 113.124 77.8859 113.099 77.8527C113.074 77.8195 113.057 77.781 113.048 77.7402C113.04 77.6994 113.041 77.6572 113.051 77.6168L114.951 69.7113C114.966 69.6501 115.001 69.5957 115.05 69.5566C115.099 69.5176 115.16 69.4962 115.223 69.496C115.285 69.4944 115.345 69.5139 115.395 69.5513C115.444 69.5887 115.479 69.6418 115.494 69.7018L117.741 78.3277C117.756 78.3808 117.754 78.4371 117.735 78.489C117.717 78.541 117.683 78.5859 117.638 78.6177C117.618 78.6404 117.594 78.6582 117.566 78.6698C117.539 78.6813 117.509 78.6863 117.479 78.6842ZM113.688 77.4306L116.449 77.5617C116.493 77.561 116.535 77.5741 116.571 77.5992L117.048 77.861L115.251 70.947L113.688 77.4306ZM145.196 50.3831C145.145 50.3834 145.095 50.3694 145.051 50.3428C145.007 50.3162 144.972 50.278 144.948 50.2324C144.925 50.1868 144.915 50.1357 144.919 50.0847C144.923 50.0337 144.941 49.9848 144.971 49.9435C145.009 49.7656 144.653 49.1482 144.485 48.9703C144.437 48.9345 144.401 48.8847 144.382 48.8277C144.364 48.7708 144.364 48.7095 144.382 48.6524C144.393 48.6172 144.412 48.5847 144.436 48.5567C144.46 48.5288 144.489 48.5058 144.522 48.4893C144.556 48.4728 144.592 48.4629 144.628 48.4604C144.665 48.4579 144.702 48.4627 144.737 48.4745C144.971 48.5494 145.384 49.2791 145.477 49.6065C145.522 49.7136 145.54 49.8299 145.53 49.9455C145.521 50.0612 145.483 50.1727 145.421 50.2707C145.395 50.3056 145.361 50.334 145.322 50.3535C145.283 50.373 145.24 50.3831 145.196 50.3831ZM99.506 84.8311L98.6543 80.2186C98.6474 80.1825 98.6348 80.1478 98.6168 80.1157C98.5418 80.0036 91.099 68.6176 87.6553 56.8856C85.5958 49.8886 84.7904 44.433 84.4726 41.093C84.1263 37.4724 84.2667 35.4889 84.2667 35.4609C84.2701 35.4142 84.2616 35.3673 84.2419 35.3248C84.2222 35.2822 84.1921 35.2454 84.1543 35.2176C84.1263 35.1989 83.3585 34.6561 82.123 35.2176C80.9061 35.7696 80.7189 36.6771 80.7094 36.7247V36.7714C80.7094 36.8743 80.41 47.2874 84.772 61.106C87.0554 68.3379 90.8097 74.4757 93.5525 78.3393C95.2144 80.7156 97.0444 82.9698 99.0286 85.0847C99.0807 85.1372 99.1511 85.1675 99.2251 85.1691C99.2703 85.1688 99.3149 85.1592 99.3563 85.1409C99.4112 85.1122 99.4555 85.0666 99.4824 85.0107C99.5094 84.9549 99.5177 84.8919 99.506 84.8311Z" fill="#1A1A1A"/>
<path id="Vector_18" d="M131.1 171.653C131.181 171.651 131.263 171.645 131.343 171.634C131.567 171.593 131.775 171.493 131.948 171.345C132.12 171.197 132.251 171.007 132.326 170.792C132.386 170.649 132.415 170.496 132.412 170.341C132.408 170.187 132.373 170.034 132.307 169.894C132.13 169.501 131.708 169.118 131.053 168.762C131.656 168.777 132.247 168.596 132.738 168.247C132.983 168.042 133.164 167.77 133.258 167.465C133.353 167.159 133.357 166.833 133.272 166.525C132.944 165.271 131.54 164.953 130.95 164.879C128.76 164.589 125.287 165.158 124.313 165.337L123.312 161.922L126.251 162.268H126.289C126.327 162.268 126.365 162.261 126.4 162.247C126.435 162.232 126.467 162.211 126.494 162.184C126.525 162.152 126.547 162.113 126.56 162.071C126.574 162.029 126.577 161.984 126.569 161.941L113.052 79.5445C113.037 79.4753 112.996 79.4146 112.937 79.3747C112.878 79.3347 112.807 79.3184 112.737 79.3291C112.667 79.3398 112.603 79.3767 112.559 79.4324C112.515 79.488 112.494 79.5582 112.5 79.6289L125.961 161.66L118.06 160.725L95.688 88.6017C95.688 88.5922 95.6788 88.5829 95.6788 88.5737C95.6788 88.5644 95.6788 88.5642 95.6693 88.5549C95.6598 88.5457 95.66 88.5362 95.6506 88.5267C95.6405 88.5093 95.6279 88.4936 95.6131 88.48C95.6024 88.4685 95.5898 88.459 95.5758 88.452C95.5655 88.4422 95.5524 88.4356 95.5383 88.4333C95.5273 88.4258 95.5141 88.4225 95.5008 88.4238H95.4914C95.4821 88.4238 95.4634 88.4146 95.4541 88.4146H95.4071L86.8141 88.8824C86.7396 88.8849 86.6692 88.9168 86.6183 88.9712C86.5674 89.0256 86.5402 89.098 86.5427 89.1724C86.5451 89.2468 86.5771 89.3172 86.6315 89.3681C86.6859 89.419 86.7583 89.4462 86.8328 89.4437H86.8513L88.7984 89.3408C88.8131 90.9552 89.3852 92.5151 90.4179 93.7566C90.6613 94.0561 90.9234 94.3554 91.1761 94.6456C92.6839 96.3679 94.1056 98.0042 93.7035 100.474C93.5818 101.195 93.4133 101.924 93.2541 102.635C92.7206 104.928 92.1771 107.304 93.2824 109.632C93.7459 110.542 94.268 111.42 94.8456 112.261C96.3338 114.535 98.019 117.117 98.2342 120.869L98.3934 133.059C97.7568 132.236 96.568 130.73 95.2107 129.036C93.1607 126.482 91.9438 125.183 90.9887 125.125C90.8577 125.118 90.7266 125.138 90.604 125.185C90.4815 125.232 90.3703 125.304 90.2778 125.397C89.1452 126.529 90.4286 128.98 91.5136 130.252C91.7334 130.515 91.9613 130.771 92.1969 131.02C92.8802 131.768 93.2546 132.189 93.4045 133.106C93.4433 133.407 93.462 133.71 93.4605 134.014C93.4792 135.099 93.5075 136.446 95.0799 138.055C95.6417 138.635 96.1753 139.094 96.6339 139.496C97.7198 140.441 98.403 141.04 98.5155 142.181L98.7402 158.91L91.5604 160.266L91.0081 157.833C90.8956 157.365 90.7834 156.841 90.6524 156.271C90.8317 156.222 90.9999 156.139 91.1479 156.027C91.4401 155.805 91.6322 155.476 91.6823 155.112C91.7303 154.747 91.6329 154.377 91.4109 154.083L90.8853 153.39C90.0621 152.31 89.4811 151.066 89.1816 149.741L89.0599 149.171C88.966 148.769 88.9756 148.351 89.0879 147.954C89.1909 147.599 89.3033 147.505 89.3501 147.477C89.659 147.299 90.0708 147.655 90.6231 148.188C91.1567 148.702 91.8215 149.338 92.4205 148.814C93.1975 148.141 92.5422 146.419 90.2955 143.257C89.8182 142.583 89.1349 141.638 88.2642 140.46C87.2489 139.081 86.5462 137.497 86.2049 135.819C85.0161 130.028 84.0051 124.723 83.1907 120.055C83.1819 120.019 83.1854 119.981 83.2006 119.947C83.2159 119.913 83.242 119.885 83.2749 119.868C83.3058 119.848 83.3415 119.838 83.3779 119.838C83.4143 119.838 83.45 119.848 83.4808 119.868C84.4732 120.56 85.1003 120.317 85.4467 119.989C86.1674 119.316 85.5029 117.678 84.8663 116.088C84.52 115.218 84.0799 114.142 84.1923 113.814C84.3048 113.487 84.4077 113.487 84.8009 113.524C85.2749 113.602 85.7605 113.494 86.1579 113.225C87.1408 112.523 86.5888 110.671 84.2389 106.854C84.0424 106.536 83.8552 106.218 83.6678 105.909C81.582 102.357 80.4202 98.3396 80.2887 94.2234C79.9516 83.6607 81.1217 78.6928 81.1404 78.6362C81.157 78.5693 81.1479 78.4986 81.115 78.438C81.0822 78.3775 81.0278 78.3313 80.9627 78.3087L77.5946 77.094C77.6032 77.0213 77.5838 76.9479 77.5404 76.8889C77.497 76.8298 77.4327 76.7895 77.3607 76.776C77.3244 76.7701 77.2873 76.7715 77.2515 76.7802C77.2158 76.7888 77.1821 76.8044 77.1525 76.8262C77.1228 76.848 77.0979 76.8754 77.079 76.9069C77.0601 76.9385 77.0477 76.9735 77.0425 77.0098V77.0286C77.0113 77.0518 76.9851 77.0813 76.9658 77.115C76.9464 77.1488 76.9343 77.1862 76.9301 77.2249C76.9301 77.2531 76.8654 78.1139 76.7896 79.4424C76.6866 80.6481 76.5837 82.2959 76.5369 84.3262C76.4527 86.2065 76.3965 88.1799 76.3965 89.8833C76.3965 90.9686 76.5275 92.737 76.7334 94.8419C76.9518 98.4717 77.3078 102.092 77.8005 105.695C80.1689 123.181 88.3596 160.763 88.4438 161.146C88.4565 161.209 88.4904 161.266 88.5398 161.307C88.5892 161.348 88.6511 161.37 88.7153 161.371C88.7345 161.372 88.7538 161.369 88.7715 161.362L91.1492 160.913C91.2989 162.278 91.4861 164.412 91.4206 165.132C91.012 164.417 90.4868 163.775 89.8666 163.233C88.9119 162.429 87.8823 162.008 87.2363 162.167C87.1064 162.197 86.985 162.256 86.8814 162.34C86.7777 162.424 86.6943 162.53 86.6376 162.651C86.5808 162.771 86.5521 162.903 86.5537 163.037C86.5552 163.17 86.5869 163.301 86.6465 163.42C86.8334 163.744 87.093 164.019 87.4047 164.225C86.1691 163.832 85.2987 163.748 84.7651 163.972C84.6279 164.026 84.505 164.11 84.4059 164.219C84.3068 164.327 84.2343 164.458 84.1941 164.599C83.9974 165.291 84.2221 165.74 84.4562 165.993C84.9516 166.536 86.0007 166.807 87.5639 166.807C87.7698 166.807 87.9947 166.798 88.2192 166.788C86.6747 167.397 84.5684 168.173 81.8446 169.099C79.5886 169.866 79.5613 170.793 79.5979 171.055C79.6625 171.448 80.0097 171.701 80.4966 171.701H80.7212C83.1924 171.729 85.3079 171.729 87.0586 171.729C88.8182 171.729 90.213 171.719 91.2521 171.71C100.107 171.626 100.435 171.279 100.603 171.102C101.118 170.55 100.763 168.828 100.117 166.049C99.8547 164.908 99.602 163.832 99.527 163.14C99.4624 162.485 99.3304 159.21 99.3304 159.126L99.1057 142.426C99.1135 142.399 99.1167 142.37 99.1152 142.342L99.0402 137.926L98.8155 121.086C98.8155 121.067 98.825 121.048 98.825 121.021L98.7501 112.096C99.6675 115.267 101.146 120.403 102.175 124.118C103.757 129.853 107.735 141.332 107.773 141.445L108.194 142.614C111.695 152.841 114.559 160.428 114.662 160.727C115.168 162.355 117.714 170.401 118.875 171.149C119.446 171.524 122.432 173.133 125.39 174.536C128.956 176.239 131.287 177.1 132.345 177.1C132.445 177.101 132.546 177.092 132.644 177.071C132.73 177.055 132.81 177.021 132.881 176.971C132.952 176.921 133.012 176.856 133.056 176.781C133.318 176.304 133.084 175.247 129.49 171.065C129.96 171.41 130.518 171.614 131.1 171.653ZM89.8655 166.077C89.3495 166.143 88.8313 166.19 88.3118 166.217C86.4957 166.311 85.2508 166.096 84.8006 165.609C84.7014 165.492 84.6359 165.35 84.6111 165.198C84.5864 165.046 84.6034 164.891 84.6602 164.748C84.676 164.688 84.7065 164.632 84.749 164.587C84.7915 164.541 84.8446 164.506 84.9036 164.486C85.0629 164.431 85.2307 164.406 85.399 164.411C85.9139 164.411 86.8218 164.58 88.4038 165.225C89.0403 165.478 89.6301 165.758 90.0887 165.983C90.0247 166.011 89.9498 166.049 89.8655 166.077ZM89.4069 164.711C87.6471 163.953 87.1977 163.429 87.076 163.186C87.0528 163.149 87.0389 163.106 87.0357 163.062C87.0325 163.018 87.0399 162.974 87.0575 162.933C87.0778 162.881 87.1104 162.833 87.1528 162.796C87.1951 162.759 87.2458 162.732 87.3007 162.718C87.3593 162.707 87.4189 162.7 87.4786 162.699C87.9654 162.699 88.7329 163.074 89.4349 163.663C89.95 164.113 90.3922 164.64 90.7455 165.225C90.3804 165.104 89.903 164.917 89.4069 164.711ZM91.8314 162.924C91.7566 162.035 91.6722 161.175 91.6254 160.819L98.7124 159.481C98.7406 160.229 98.8248 162.054 98.881 162.896L91.8314 162.924ZM116.46 164.599C116.044 163.394 115.644 162.184 115.262 160.969L122.685 161.848L123.789 165.618L116.46 164.599ZM124.847 165.815C126.157 165.6 129.022 165.198 130.857 165.441C132.242 165.628 132.617 166.292 132.71 166.676C132.771 166.874 132.773 167.085 132.716 167.284C132.66 167.483 132.547 167.661 132.392 167.798C131.232 168.66 129.107 167.995 127.524 167.275C126.6 166.849 125.705 166.361 124.847 165.815ZM126.532 167.827C127.348 168.007 128.154 168.229 128.948 168.491C131.092 169.192 131.653 169.819 131.794 170.128C131.83 170.197 131.849 170.274 131.851 170.351C131.853 170.429 131.836 170.507 131.803 170.577C131.767 170.703 131.696 170.816 131.598 170.904C131.5 170.991 131.38 171.05 131.251 171.072C131.198 171.08 131.145 171.083 131.092 171.082C130.128 171.082 128.546 169.819 127.31 168.658C127.037 168.379 126.775 168.089 126.532 167.827Z" fill="#1A1A1A"/>
<path id="Vector_19" d="M94.4898 69.0945C95.1205 69.0945 95.6318 68.5834 95.6318 67.953C95.6318 67.3226 95.1205 66.8115 94.4898 66.8115C93.859 66.8115 93.3477 67.3226 93.3477 67.953C93.3477 68.5834 93.859 69.0945 94.4898 69.0945Z" fill="#1A1A1A"/>
<path id="Vector_20" d="M94.4887 69.3747C94.2072 69.375 93.932 69.2918 93.6978 69.1357C93.4636 68.9795 93.281 68.7575 93.1731 68.4977C93.0652 68.2378 93.0369 67.9518 93.0916 67.6758C93.1464 67.3999 93.2818 67.1463 93.4808 66.9473C93.6797 66.7483 93.9333 66.6127 94.2094 66.5577C94.4854 66.5027 94.7716 66.5308 95.0317 66.6384C95.2918 66.746 95.5141 66.9283 95.6705 67.1622C95.8269 67.3961 95.9104 67.6712 95.9104 67.9525C95.9106 68.1392 95.874 68.3241 95.8026 68.4967C95.7312 68.6692 95.6265 68.826 95.4945 68.9581C95.3625 69.0902 95.2057 69.195 95.0331 69.2664C94.8605 69.3379 94.6755 69.3747 94.4887 69.3747ZM94.4887 67.0926C94.3183 67.0926 94.1517 67.1431 94.01 67.2378C93.8683 67.3324 93.7579 67.4669 93.6927 67.6242C93.6275 67.7816 93.6104 67.9547 93.6437 68.1218C93.6769 68.2888 93.759 68.4423 93.8795 68.5627C94 68.6832 94.1535 68.7652 94.3206 68.7984C94.4878 68.8316 94.661 68.8146 94.8185 68.7494C94.9759 68.6842 95.1105 68.5739 95.2052 68.4322C95.2998 68.2906 95.3504 68.1241 95.3504 67.9538C95.3509 67.8405 95.3289 67.7283 95.2858 67.6235C95.2427 67.5188 95.1792 67.4236 95.0991 67.3435C95.019 67.2633 94.9239 67.1998 94.8191 67.1566C94.7143 67.1134 94.6021 67.0914 94.4887 67.0918V67.0926Z" fill="#1A1A1A"/>
<path id="Vector_21" d="M94.7319 62.5271C95.3627 62.5271 95.874 62.016 95.874 61.3856C95.874 60.7552 95.3627 60.2441 94.7319 60.2441C94.1012 60.2441 93.5898 60.7552 93.5898 61.3856C93.5898 62.016 94.1012 62.5271 94.7319 62.5271Z" fill="#1A1A1A"/>
<path id="Vector_22" d="M94.7318 62.8078C94.4503 62.8078 94.1752 62.7244 93.9412 62.5682C93.7071 62.4119 93.5247 62.1898 93.417 61.9299C93.3092 61.6701 93.281 61.3841 93.3359 61.1082C93.3908 60.8323 93.5263 60.5789 93.7253 60.3799C93.9243 60.181 94.1779 60.0455 94.4539 59.9906C94.7299 59.9357 95.0161 59.9639 95.2761 60.0715C95.5361 60.1792 95.7584 60.3615 95.9147 60.5954C96.0711 60.8292 96.1546 61.1042 96.1546 61.3855C96.1547 61.5723 96.1181 61.7573 96.0466 61.9299C95.9752 62.1026 95.8704 62.2594 95.7382 62.3915C95.6061 62.5236 95.4492 62.6284 95.2765 62.6998C95.1038 62.7712 94.9187 62.8079 94.7318 62.8078ZM94.7318 60.5256C94.5614 60.5256 94.3948 60.5762 94.2531 60.6708C94.1114 60.7654 94.001 60.8999 93.9358 61.0573C93.8705 61.2146 93.8535 61.3878 93.8867 61.5548C93.92 61.7219 94.002 61.8753 94.1225 61.9958C94.243 62.1162 94.3966 62.1982 94.5637 62.2314C94.7308 62.2647 94.9041 62.2476 95.0615 62.1824C95.219 62.1173 95.3535 62.0069 95.4482 61.8653C95.5429 61.7236 95.5934 61.5571 95.5934 61.3868C95.5939 61.2735 95.572 61.1613 95.5288 61.0566C95.4857 60.9518 95.4223 60.8566 95.3422 60.7765C95.2621 60.6964 95.1669 60.6329 95.0622 60.5897C94.9574 60.5465 94.8451 60.5244 94.7318 60.5248V60.5256ZM135.573 50.2148C135.38 50.2148 135.192 50.2719 135.032 50.3788C134.872 50.4858 134.747 50.6378 134.673 50.8156C134.6 50.9934 134.58 51.1891 134.618 51.3779C134.655 51.5666 134.748 51.74 134.884 51.8761C135.021 52.0122 135.194 52.1049 135.383 52.1424C135.572 52.1799 135.768 52.1606 135.946 52.0869C136.123 52.0132 136.276 51.8885 136.382 51.7284C136.489 51.5684 136.546 51.3802 136.546 51.1877C136.545 50.9301 136.442 50.6834 136.26 50.5012C136.077 50.319 135.831 50.2161 135.573 50.2148ZM137.651 48.4746C137.458 48.4746 137.27 48.5316 137.11 48.6385C136.95 48.7454 136.825 48.8974 136.751 49.0752C136.678 49.2531 136.658 49.4487 136.696 49.6375C136.733 49.8263 136.826 49.9997 136.962 50.1358C137.099 50.2719 137.272 50.3646 137.461 50.4022C137.65 50.4397 137.846 50.4204 138.024 50.3467C138.201 50.2731 138.354 50.1483 138.461 49.9882C138.567 49.8282 138.625 49.64 138.625 49.4475C138.623 49.1899 138.52 48.9433 138.338 48.7611C138.156 48.579 137.909 48.476 137.651 48.4746Z" fill="white"/>
<path id="Vector_23" d="M105.152 53.6348L105.558 51.1322L112.044 52.1831L111.638 54.6856L105.152 53.6348Z" fill="#1A1A1A"/>
<path id="Vector_24" d="M58.8148 43.4412C58.6228 43.428 58.4312 43.4719 58.264 43.5673C58.0969 43.6628 57.9618 43.8055 57.8757 43.9776C57.7896 44.1496 57.7564 44.3433 57.7802 44.5342C57.8041 44.7251 57.8839 44.9047 58.0096 45.0503C58.0923 45.148 58.1938 45.228 58.3079 45.2859C58.4221 45.3437 58.5467 45.3781 58.6744 45.387H58.7491C58.9823 45.3866 59.2077 45.3038 59.3857 45.1532C59.4834 45.0706 59.5635 44.9693 59.6214 44.8552C59.6793 44.7411 59.7138 44.6166 59.7228 44.489C59.7376 44.2307 59.651 43.9767 59.4815 43.781C59.312 43.5854 59.0728 43.4635 58.8148 43.4412ZM57.2234 41.2424C57.0961 41.2329 56.9682 41.2487 56.847 41.2887C56.7258 41.3287 56.6137 41.3923 56.5171 41.4758C56.4206 41.5592 56.3415 41.6609 56.2843 41.775C56.2272 41.8891 56.1932 42.0134 56.1843 42.1406C56.1653 42.3991 56.2495 42.6545 56.4184 42.8511C56.5011 42.9487 56.6025 43.0288 56.7166 43.0866C56.8308 43.1444 56.9553 43.1788 57.0829 43.1878H57.1579C57.391 43.1873 57.6165 43.1045 57.7944 42.954C57.8921 42.8713 57.9722 42.77 58.0301 42.6559C58.0879 42.5417 58.1224 42.4172 58.1313 42.2896C58.1471 42.0311 58.0608 41.7766 57.8911 41.5809C57.7214 41.3851 57.4817 41.2636 57.2234 41.2424ZM93.8896 24.2244C93.8172 24.2238 93.7475 24.1972 93.6931 24.1494C92.9349 23.4103 92.8787 22.7554 93.0753 22.3812C93.1586 22.2315 93.2892 22.1135 93.4467 22.0458C93.6042 21.9781 93.7797 21.9645 93.9458 22.0071C93.9943 22.0236 94.0461 22.028 94.0967 22.0198C94.1473 22.0116 94.1951 21.9911 94.2359 21.9601C94.4794 21.773 94.5543 21.2398 94.5636 21.0714C94.5689 20.9994 94.6022 20.9324 94.6564 20.8846C94.7106 20.8368 94.7813 20.8121 94.8534 20.8158C94.9256 20.8194 94.9934 20.8512 95.0424 20.9042C95.0915 20.9571 95.1179 21.0272 95.1159 21.0994C95.1159 21.193 95.0597 22.035 94.5636 22.4092C94.4564 22.4892 94.3327 22.5443 94.2015 22.5703C94.0703 22.5964 93.935 22.5929 93.8053 22.5599C93.76 22.5423 93.7099 22.541 93.6638 22.5564C93.6176 22.5718 93.5783 22.6028 93.5527 22.6441C93.4497 22.8312 93.5619 23.2616 94.0675 23.7481C94.1204 23.7992 94.1511 23.8691 94.1528 23.9426C94.1546 24.0162 94.1274 24.0874 94.077 24.141C94.0534 24.1674 94.0245 24.1884 93.9922 24.2028C93.9599 24.2171 93.9249 24.2245 93.8896 24.2244Z" fill="#1A1A1A"/>
<path id="Vector_25" d="M98.3082 22.5142C98.5038 22.2348 98.1818 21.672 97.5889 21.2571C96.9959 20.8423 96.3566 20.7324 96.1609 21.0118C95.9653 21.2911 96.2873 21.8539 96.8802 22.2688C97.4732 22.6837 98.1125 22.7935 98.3082 22.5142Z" fill="white"/>
<path id="Vector_26" d="M98.4858 21.792C98.2952 21.4879 98.0433 21.2267 97.7463 21.0249C97.4536 20.8122 97.1183 20.6654 96.7634 20.5943C96.2486 20.5007 96.0147 20.716 95.921 20.8469C95.8273 20.9778 95.715 21.268 95.9679 21.7263C96.1586 22.0305 96.4104 22.2917 96.7074 22.4934C97.0563 22.7612 97.4762 22.9207 97.915 22.952C98.0322 22.9596 98.1495 22.9389 98.257 22.8917C98.3645 22.8445 98.4591 22.7721 98.5328 22.6807C98.6358 22.5406 98.748 22.2506 98.4858 21.792ZM96.4634 21.4458C96.3697 21.2869 96.3697 21.184 96.3884 21.1659C96.433 21.1369 96.4861 21.1237 96.5392 21.1285C96.5861 21.1275 96.633 21.1306 96.6794 21.1377C96.9509 21.1936 97.2066 21.3086 97.4284 21.4747C97.4377 21.4839 97.4471 21.4839 97.4564 21.4934C97.3851 21.4866 97.3132 21.4968 97.2466 21.523C97.1799 21.5491 97.1204 21.5906 97.0728 21.6441C97.0391 21.7019 97.0199 21.7669 97.0166 21.8336C97.0134 21.9004 97.0262 21.967 97.054 22.0278C97.0528 22.0278 97.0515 22.0276 97.0504 22.0271C97.0492 22.0266 97.0481 22.0259 97.0473 22.025C97.0464 22.0242 97.0457 22.0231 97.0452 22.0219C97.0447 22.0208 97.0445 22.0195 97.0445 22.0183C96.8091 21.875 96.6101 21.679 96.4634 21.4458ZM98.9352 20.9967C98.8901 20.9964 98.8455 20.9869 98.8042 20.9687C97.4657 20.2858 97.2128 18.7512 97.2035 18.6866C97.1951 18.6492 97.1944 18.6104 97.2017 18.5726C97.2089 18.5349 97.2238 18.4991 97.2455 18.4674C97.2671 18.4357 97.2951 18.4087 97.3276 18.3883C97.3601 18.3678 97.3965 18.3543 97.4345 18.3485C97.4725 18.3427 97.5113 18.3448 97.5484 18.3546C97.5855 18.3645 97.6203 18.3818 97.6504 18.4056C97.6805 18.4295 97.7055 18.4592 97.7236 18.4931C97.7417 18.5269 97.7527 18.5642 97.7558 18.6024C97.7558 18.6212 97.9805 19.9215 99.0569 20.4641C99.1119 20.4933 99.1557 20.5398 99.1816 20.5964C99.2075 20.653 99.2141 20.7166 99.2002 20.7773C99.1864 20.838 99.1529 20.8924 99.105 20.9322C99.0571 20.972 98.9974 20.9949 98.9352 20.9974V20.9967ZM94.3765 18.8356C94.0226 18.8352 93.6714 18.7751 93.3376 18.6578C93.3025 18.646 93.2701 18.6274 93.2424 18.6029C93.2146 18.5785 93.192 18.5488 93.1758 18.5155C93.1597 18.4823 93.1503 18.4461 93.1483 18.4092C93.1463 18.3723 93.1517 18.3353 93.1641 18.3005C93.1765 18.2657 93.1958 18.2337 93.2208 18.2064C93.2457 18.1791 93.2759 18.1571 93.3095 18.1416C93.343 18.1261 93.3794 18.1174 93.4163 18.1161C93.4533 18.1148 93.4902 18.1209 93.5248 18.134C94.0881 18.3399 94.7072 18.3332 95.2659 18.1152C95.3338 18.0864 95.4103 18.0853 95.4791 18.1121C95.5478 18.1388 95.6034 18.1914 95.6339 18.2585C95.6644 18.3256 95.6675 18.402 95.6424 18.4714C95.6174 18.5408 95.5662 18.5976 95.4998 18.6298C95.142 18.7696 94.7607 18.8394 94.3765 18.8356ZM94.0863 26.5915C94.0381 26.5913 93.9907 26.5793 93.9483 26.5564C93.9059 26.5336 93.8697 26.5007 93.8429 26.4606C93.506 25.9179 93.1409 25.6092 92.7853 25.5624C92.6635 25.5508 92.5406 25.5647 92.4245 25.6034C92.3084 25.6421 92.2017 25.7046 92.1113 25.787C92.0854 25.8128 92.0548 25.8333 92.0211 25.8472C91.9873 25.8612 91.9512 25.8684 91.9147 25.8684C91.8782 25.8684 91.842 25.8612 91.8083 25.8472C91.7746 25.8333 91.7439 25.8128 91.7181 25.787C91.6923 25.7612 91.6718 25.7306 91.6579 25.6969C91.6439 25.6631 91.6367 25.627 91.6367 25.5905C91.6367 25.554 91.6439 25.5179 91.6579 25.4842C91.6718 25.4505 91.6923 25.4199 91.7181 25.3941C91.8699 25.2555 92.0492 25.1505 92.2444 25.086C92.4396 25.0215 92.6462 24.999 92.8508 25.0199C93.3936 25.0845 93.8897 25.4783 94.3203 26.1706C94.3398 26.2018 94.353 26.2366 94.3589 26.2729C94.3648 26.3092 94.3633 26.3464 94.3546 26.3821C94.3459 26.4179 94.3301 26.4515 94.3081 26.481C94.2862 26.5106 94.2585 26.5354 94.2268 26.5541C94.1831 26.5763 94.1353 26.5891 94.0863 26.5915Z" fill="#1A1A1A"/>
<path id="Vector_27" d="M105.684 17.2353C105.113 14.1852 103.204 10.2092 100.995 8.82442C100.55 8.51256 100.041 8.30454 99.5058 8.21576C98.9701 8.12698 98.4213 8.15971 97.9 8.31152C97.3787 8.46334 96.8982 8.73035 96.4941 9.09281C96.0899 9.45527 95.7725 9.90391 95.5653 10.4055C95.0972 11.3879 94.9288 12.7912 94.8633 13.4648C93.6744 12.9128 92.5799 12.7352 91.8865 13.0719C90.9411 13.5305 91.1658 14.756 91.3155 15.2895C91.0853 15.7759 91.0039 16.3194 91.0816 16.8518C91.2125 18.0682 92.1112 18.5359 92.8048 18.667C92.1182 19.4637 91.5506 20.3557 91.1199 21.3151C90.5268 22.6012 90.2907 24.0231 90.4364 25.4317C90.6331 27.0315 91.3913 28.3039 92.4677 28.8185C93.0369 29.0791 93.6579 29.207 94.2838 29.1927H94.3868L93.7128 32.5045C93.6981 32.5765 93.7125 32.6513 93.7528 32.7127C93.7932 32.7741 93.8563 32.8169 93.9282 32.832C93.9469 32.832 93.9657 32.8414 93.9844 32.8414C94.0485 32.8407 94.1105 32.8181 94.1599 32.7772C94.2093 32.7363 94.2432 32.6797 94.2558 32.6169L94.3588 32.1023C94.3683 32.0836 94.3683 32.0649 94.3775 32.0556L94.4805 31.6438C94.7989 30.755 95.7068 30.3247 96.6617 29.8663C97.1183 29.6701 97.5542 29.4287 97.9628 29.1459C98.4832 28.7959 98.8667 28.277 99.0487 27.677V27.5836C99.0501 27.5703 99.0467 27.557 99.0392 27.5461C99.0392 27.5366 99.0392 27.5366 99.0299 27.5274C99.0276 27.5133 99.0211 27.5002 99.0112 27.4899V27.4798C99.0042 27.4658 98.9947 27.4532 98.9832 27.4425L98.9737 27.4331L98.9457 27.4051L98.9362 27.3956L98.927 27.3863C98.9175 27.3769 98.9082 27.3769 98.899 27.3676C98.8977 27.3676 98.8965 27.3674 98.8953 27.367C98.8942 27.3665 98.8932 27.3658 98.8923 27.365C98.8914 27.3641 98.8907 27.3631 98.8902 27.362C98.8897 27.3608 98.8895 27.3596 98.8895 27.3584C98.8707 27.3489 98.8615 27.3489 98.8427 27.3396H98.8328C98.8236 27.3396 98.8048 27.3302 98.7956 27.3302H98.7299C98.7111 27.3302 98.7019 27.3396 98.6831 27.3396H98.6739C98.6597 27.3419 98.6466 27.3484 98.6364 27.3584H98.6269C98.5896 27.3769 94.9294 29.3698 92.6922 28.3033C91.803 27.8822 91.1477 26.7502 90.9793 25.3561C90.6609 22.708 92.0651 19.7895 94.7517 17.4979C95.5192 18.1903 96.4646 17.9931 97.0544 17.6943C97.4288 18.3587 98.215 18.5363 98.7581 18.527C98.9051 18.9777 99.1946 19.3684 99.5832 19.6403C99.9717 19.9121 100.438 20.0503 100.912 20.0341C100.956 20.0356 101 20.0325 101.043 20.0248C101.165 20.1932 101.305 20.3803 101.446 20.5861C100.852 21.0872 100.473 21.7973 100.388 22.5696C100.304 23.5332 100.697 24.0665 101.052 24.2444C101.139 24.2876 101.235 24.3097 101.332 24.3089C101.449 24.312 101.562 24.2719 101.651 24.1966C101.652 24.1966 101.653 24.1964 101.654 24.1959C101.656 24.1955 101.657 24.1948 101.657 24.1939C101.658 24.1931 101.659 24.192 101.659 24.1909C101.66 24.1897 101.66 24.1885 101.66 24.1873C101.841 24.0278 102.054 23.9106 102.286 23.8442C102.518 23.7778 102.761 23.764 102.999 23.8037C103.157 23.8355 103.308 23.9003 103.44 23.9937C103.572 24.0872 103.683 24.2074 103.766 24.3464C103.849 24.5134 103.893 24.6965 103.896 24.8825C103.899 25.0686 103.861 25.2531 103.785 25.4229C103.695 25.5898 103.567 25.7328 103.41 25.8402C103.254 25.9476 103.074 26.0162 102.886 26.0403C101.773 26.2649 101.379 25.7223 101.351 25.6849C101.351 25.6754 101.342 25.6754 101.342 25.6662C101.332 25.6569 101.332 25.6474 101.323 25.6382L101.304 25.6194L101.286 25.6007C101.276 25.5912 101.267 25.5912 101.257 25.582C101.25 25.581 101.244 25.5776 101.239 25.5725C101.229 25.5725 101.22 25.5632 101.211 25.5632C101.201 25.5632 101.192 25.554 101.183 25.554H101.07C101.065 25.5534 101.06 25.5539 101.055 25.5555C101.05 25.5571 101.046 25.5597 101.042 25.5632H101.024C101.014 25.5632 101.005 25.5725 100.996 25.5725C100.986 25.5725 100.977 25.582 100.967 25.582C100.958 25.582 100.958 25.5912 100.949 25.5912C100.939 25.6007 100.93 25.6007 100.921 25.61L100.902 25.6287L100.883 25.6474C100.874 25.6569 100.874 25.6662 100.864 25.6754C100.863 25.6825 100.86 25.6891 100.855 25.6941C100.855 25.7036 100.846 25.7129 100.846 25.7223C100.846 25.7318 100.836 25.7411 100.836 25.7503V25.8627C100.836 25.8678 100.836 25.8729 100.838 25.8777C100.839 25.8826 100.842 25.887 100.846 25.8907C100.846 25.9 100.846 25.9 100.855 25.9094L103.158 32.655C103.177 32.7092 103.213 32.7562 103.259 32.7897C103.306 32.8231 103.362 32.8414 103.42 32.8421C103.452 32.8394 103.483 32.8331 103.513 32.8234C103.549 32.8118 103.581 32.7935 103.609 32.7693C103.637 32.7452 103.66 32.7157 103.676 32.6827C103.693 32.6496 103.703 32.6136 103.705 32.5768C103.708 32.5399 103.703 32.5029 103.691 32.4679L101.66 26.5174C101.893 26.5941 102.136 26.632 102.381 26.6298C102.592 26.6291 102.802 26.6075 103.008 26.5652C103.282 26.5269 103.543 26.4226 103.768 26.2614C103.993 26.1002 104.176 25.8867 104.301 25.6395C104.413 25.3903 104.47 25.1192 104.465 24.8457C104.46 24.5723 104.394 24.3033 104.272 24.0583C104.241 24.0001 104.207 23.9438 104.169 23.8898C105.591 23.1108 106.246 20.2666 105.684 17.2353ZM95.257 15.3652C94.9389 15.047 94.1337 14.3361 93.1603 14.3079C92.6583 14.2761 92.1621 14.4293 91.7655 14.7385C91.7009 14.3079 91.7187 13.7843 92.1306 13.5785C92.8139 13.2416 94.5268 13.672 96.2587 14.9443C96.2928 14.9992 96.3462 15.0393 96.4084 15.0567C96.4276 15.0753 96.4494 15.091 96.473 15.1034C96.0573 15.1327 95.6479 15.2208 95.257 15.3652ZM98.0358 15.7478C97.6575 15.3592 97.2507 14.9993 96.8188 14.6713C96.8282 14.6339 96.847 14.5966 96.8562 14.5684C96.9735 14.2729 97.1838 14.0236 97.4553 13.858C97.5492 13.7949 97.6569 13.7552 97.7693 13.7422C97.8817 13.7292 97.9956 13.7433 98.1015 13.7833C98.2031 13.8343 98.2914 13.9081 98.3596 13.999C98.4278 14.0899 98.4741 14.1953 98.4946 14.3071C98.5566 14.6189 98.5207 14.9422 98.3917 15.2328C98.3083 15.4263 98.1873 15.6014 98.0358 15.7478ZM98.4391 16.1403C98.6398 15.9376 98.8017 15.6998 98.9164 15.4387C98.9655 15.3197 99.0062 15.1974 99.0381 15.0727C99.7121 15.4936 101.444 16.6912 102.427 18.6091C103.504 20.6955 103.391 22.0053 103.157 22.6781C102.811 21.5459 102.015 20.3671 101.463 19.6373C101.454 19.6106 101.441 19.5855 101.425 19.5626C101.397 19.5157 100.667 18.5053 100.189 17.944C99.6504 17.3013 99.0654 16.6985 98.4391 16.1403ZM103.747 23.5313C103.66 23.4705 103.566 23.4202 103.467 23.3817C103.832 22.7735 104.393 21.1924 102.933 18.3576C102.564 17.6478 102.098 16.9928 101.548 16.4116C101.743 15.7517 102.127 15.1631 102.652 14.7181C102.682 14.696 102.707 14.6683 102.725 14.6366C102.744 14.6048 102.756 14.5698 102.762 14.5333C102.767 14.4968 102.765 14.4597 102.756 14.424C102.747 14.3883 102.73 14.3547 102.708 14.3253C102.686 14.2958 102.659 14.271 102.627 14.2522C102.595 14.2334 102.56 14.2211 102.523 14.2159C102.487 14.2107 102.45 14.2127 102.414 14.2218C102.378 14.231 102.345 14.2471 102.315 14.2692C101.767 14.716 101.347 15.3003 101.098 15.9625C100.491 15.3846 99.8189 14.8789 99.0952 14.4554C99.0895 14.3574 99.0739 14.2602 99.0484 14.1654C99.0094 13.969 98.9247 13.7846 98.8012 13.6269C98.6778 13.4692 98.519 13.3428 98.3376 13.2577C98.1486 13.1784 97.9422 13.1494 97.7386 13.1736C97.3922 12.1912 97.7853 11.0779 97.7853 11.0592C97.7982 11.0248 97.804 10.9882 97.8024 10.9516C97.8009 10.9149 97.792 10.879 97.7763 10.8458C97.7606 10.8127 97.7384 10.783 97.711 10.7586C97.6836 10.7342 97.6516 10.7155 97.6168 10.7037C97.5826 10.6898 97.5458 10.6832 97.5088 10.6843C97.4718 10.6853 97.4355 10.6941 97.4021 10.7099C97.3686 10.7257 97.3389 10.7483 97.3146 10.7762C97.2904 10.8041 97.2722 10.8368 97.2612 10.8721C97.2425 10.9283 96.8024 12.1912 97.205 13.3606C97.1955 13.3606 97.1955 13.3701 97.1862 13.3701C96.8143 13.5935 96.5252 13.9317 96.3625 14.3338C96.0546 14.126 95.7392 13.9294 95.4171 13.7443C95.4546 13.2765 95.595 11.6775 96.0816 10.657C96.2656 10.2337 96.5378 9.85457 96.88 9.5448C97.2222 9.23502 97.6266 9.00176 98.0662 8.86059C98.9179 8.60805 99.8261 8.76693 100.706 9.31895C102.569 10.4792 104.525 14.0063 105.143 17.3556C105.417 18.7288 105.398 20.1444 105.087 21.5097C104.795 22.5494 104.318 23.288 103.747 23.5317V23.5313Z" fill="#1A1A1A"/>
<path id="Vector_28" d="M100.443 38.875H97.4097C97.3352 38.875 97.2638 38.9046 97.2112 38.9572C97.1585 39.0098 97.1289 39.0812 97.1289 39.1556C97.1289 39.2301 97.1585 39.3014 97.2112 39.3541C97.2638 39.4067 97.3352 39.4363 97.4097 39.4363H100.443C100.517 39.4363 100.589 39.4067 100.641 39.3541C100.694 39.3014 100.723 39.2301 100.723 39.1556C100.723 39.0812 100.694 39.0098 100.641 38.9572C100.589 38.9046 100.517 38.875 100.443 38.875Z" fill="white"/>
<path id="Vector_29" d="M155.241 45.7707C154.745 45.4433 153.191 45.3778 151.496 45.3311C151.159 45.3216 150.897 45.3124 150.757 45.3029C150.532 45.2842 150.027 44.9287 149.54 44.5451C150.392 44.4516 151.45 44.2458 151.627 43.7873C151.66 43.6931 151.664 43.5913 151.639 43.4948C151.614 43.3982 151.561 43.3112 151.487 43.2447C150.879 42.6085 147.49 42.6085 146.47 42.6178H146.432C145.326 42.3146 144.153 42.357 143.072 42.7394C141.424 43.3382 139.917 44.8062 139.776 44.9475L126.212 56.558C125.997 55.7722 125.501 54.032 124.743 51.9736L124.592 51.4872C124.578 51.4433 124.552 51.4043 124.517 51.3748C123.515 48.7554 122.121 45.752 120.379 43.6096C116.336 38.6323 111.487 36.6021 111.328 36.5366L107.557 34.946L103.578 32.364C103.532 32.3364 103.478 32.3219 103.424 32.3219C103.37 32.3219 103.316 32.3364 103.269 32.364L99.1131 35.0218L94.1143 32.3091C94.0711 32.2855 94.0223 32.2739 93.973 32.2755C93.9238 32.2772 93.8759 32.292 93.8343 32.3184L91.4941 33.7031C87.6535 33.8858 83.9008 34.9146 80.5044 36.7157C77.5205 38.3007 74.8574 40.4263 72.6508 42.984C71.2694 44.5939 70.0321 46.3221 68.9533 48.1484C68.9258 48.1716 68.9034 48.2003 68.8876 48.2326L68.7941 48.4292C68.1769 49.4786 67.6267 50.566 67.1467 51.6849L57.1769 38.7352C57.1674 38.7259 57.1674 38.7165 57.1582 38.7072L55.6324 36.7226C55.1001 35.3293 54.0553 34.1918 52.7117 33.5427C51.7885 33.0754 50.7594 32.8561 49.7257 32.9066C49.5103 32.8691 48.4527 32.682 47.3481 32.5416C44.7644 32.2049 44.4743 32.42 44.3338 32.5229C44.2886 32.5532 44.2507 32.5934 44.2232 32.6404C44.1956 32.6874 44.179 32.7401 44.1747 32.7944C44.1279 33.1778 44.5023 33.5335 45.3822 33.9264C45.5882 34.0198 45.7848 34.0948 45.9625 34.1697C45.429 34.4222 44.8487 34.6186 44.3338 34.5531C44.0717 34.5157 43.6973 34.4409 43.2667 34.3473C41.5068 33.9824 40.1217 33.7393 39.5692 34.1509C39.4967 34.2049 39.4366 34.2737 39.3929 34.3527C39.3491 34.4318 39.3228 34.5193 39.3157 34.6093C39.3098 34.6704 39.3252 34.7316 39.3593 34.7826C39.3934 34.8336 39.4442 34.8713 39.5029 34.8892L44.099 36.489C44.1324 36.4997 44.167 36.506 44.202 36.5078C46.1209 36.4234 48.2732 36.4234 48.6577 36.5637C48.8262 36.8257 49.3598 38.0889 49.8278 39.2764C48.9291 40.109 48.8449 40.4364 48.9016 40.661C48.918 40.7337 48.9573 40.7993 49.0138 40.8481L49.4257 41.6246C49.173 41.8866 47.9279 43.2525 47.9654 44.0945C47.9712 44.2602 48.0341 44.4188 48.1433 44.5436C48.3493 44.9927 50.0155 48.576 52.0188 52.6082C53.9564 56.5003 55.5663 59.5316 56.8394 61.6648L56.9051 61.7864C56.9156 61.8138 56.9354 61.8367 56.9611 61.851C57.5229 62.7867 58.0282 63.5445 58.4496 64.115C60.1625 66.4167 61.6697 67.7263 63.3451 68.372C64.1135 68.6642 64.9289 68.8133 65.751 68.8116C67.1458 68.8116 68.6716 68.4095 70.3377 67.5954C73.4362 66.0884 76.6277 63.5163 78.8464 61.5423L76.974 77.0167C76.9677 77.0697 76.9767 77.1235 76.9999 77.1716C77.0232 77.2197 77.0597 77.2601 77.1052 77.2882C77.2175 77.3527 79.9602 78.9722 85.7453 80.1135C88.6283 80.6842 92.6067 81.18 97.6709 81.18C102.737 81.154 107.793 80.7159 112.788 79.8702C112.804 79.868 112.82 79.8649 112.835 79.8609C112.845 79.8609 112.845 79.8517 112.854 79.8517C112.863 79.8517 112.873 79.8422 112.882 79.8329C112.891 79.8329 112.891 79.8234 112.901 79.8234C112.91 79.8142 112.92 79.8142 112.929 79.8047C112.938 79.8047 112.938 79.7955 112.948 79.7955C112.957 79.786 112.966 79.7767 112.966 79.7673L112.976 79.758C112.986 79.7477 112.992 79.7347 112.994 79.7205V79.7113C113.004 79.6926 113.004 79.6831 113.013 79.6644L116.177 67.2775C117.244 68.5692 120.455 72.2359 123.123 73.1715C123.799 73.4151 124.511 73.5448 125.229 73.5552C127.588 73.5552 129.722 72.0583 132.596 69.4198C134.122 68.0166 136.659 64.9011 140.122 60.1577C142.631 56.724 144.746 53.6367 144.877 53.4496C145.048 53.2598 145.138 53.0119 145.13 52.7572C145.111 52.2519 144.746 51.7748 144.531 51.5503L145.43 50.2684C145.464 50.2234 145.484 50.1697 145.489 50.1135C145.494 50.0573 145.483 50.0008 145.458 49.9505C145.514 49.7913 145.505 49.4172 144.83 48.4628C145.514 47.4244 146.188 46.5251 146.431 46.4605C146.675 46.4231 148.107 46.7226 149.923 47.1997C150.035 47.231 150.152 47.2436 150.269 47.2371L155.605 47.0405C155.665 47.0391 155.723 47.0183 155.77 46.9812C155.817 46.9441 155.851 46.8927 155.867 46.8347C155.877 46.7811 155.99 46.276 155.241 45.7707ZM151.075 43.6096C150.841 43.778 149.924 43.9651 149.007 44.0305C148.984 44.0312 148.962 44.0377 148.943 44.0493C148.512 43.7031 148.109 43.3756 147.829 43.198L147.819 43.1885C149.343 43.226 150.785 43.3752 151.075 43.6096ZM107.604 35.573L110.889 36.9575C110.187 39.5679 109.054 43.4318 108.652 43.9651C108.315 44.4142 107.144 44.4047 106.369 44.4047C106.062 44.387 105.754 44.4058 105.451 44.4609C105.011 44.592 104.956 45.2 105.274 46.4911C105.308 46.6325 105.297 46.7813 105.241 46.9158C105.186 47.0504 105.089 47.1638 104.965 47.2397C103.684 48.0177 102.262 48.5329 100.78 48.7554C100.415 48.8021 100.097 48.8301 99.8349 48.8395C101.875 47.2864 103.777 44.648 105.498 40.9813C106.315 39.2253 107.018 37.4188 107.604 35.573ZM103.429 32.9345L107.098 35.3204C106.513 37.1779 105.803 38.9939 104.973 40.7561L99.5814 35.3953L103.429 32.9345ZM104.711 41.2894C103.344 44.0775 101.425 47.0993 99.0196 48.717C97.1947 46.6982 95.6518 44.4417 94.4329 42.0089C94.1349 41.4211 93.8601 40.8219 93.6092 40.2125L99.1131 35.7226L104.711 41.2894ZM93.9928 32.8689L98.6359 35.3857L93.3938 39.67C92.6859 37.8794 92.1801 36.0154 91.8859 34.1126L93.9928 32.8689ZM88.5074 34.5811C89.4463 34.4233 90.3932 34.317 91.3437 34.2629C91.7878 37.0476 92.6626 39.7463 93.9368 42.2621C95.1373 44.6451 96.6378 46.8648 98.4018 48.8673C95.3408 49.0826 91.0256 46.6593 90.7447 46.1729C90.6699 45.9389 91.1847 44.9005 91.4654 44.3485C91.9148 43.4411 92.1677 42.917 92.1117 42.5896C92.1018 42.5324 92.0801 42.478 92.0478 42.4297C92.0156 42.3815 91.9735 42.3406 91.9245 42.3097C91.6156 42.1039 91.0258 42.235 90.0241 42.4875C89.5287 42.6092 88.7978 42.787 88.5546 42.7495C88.2828 42.1502 88.3211 38.2204 88.5074 34.5811ZM52.2156 39.9701C53.4311 39.2993 54.5054 38.4001 55.3796 37.322L56.5779 38.8751C55.1575 40.327 53.5672 41.6023 51.8413 42.6735C51.5041 42.8888 51.195 43.0664 50.915 43.2256L49.6984 40.9424C50.1656 40.8963 50.9613 40.6625 52.2156 39.9701ZM44.8112 32.9533C45.0546 32.9158 45.7006 32.9066 47.3293 33.1124C47.5727 33.1404 47.8161 33.177 48.0501 33.2153C47.8161 33.2799 47.6289 33.3557 47.4978 33.4024C47.2212 33.5154 46.9523 33.6465 46.6928 33.7946C46.674 33.8041 46.6648 33.8134 46.646 33.8228C45.8316 33.5615 45.0456 33.1778 44.8112 32.9533ZM46.4214 35.8909C45.4385 35.9004 44.465 35.9379 44.2309 35.9471L40.1215 34.5157C40.7581 34.4035 42.2756 34.7122 43.145 34.8993C43.5851 34.993 43.9687 35.0677 44.2496 35.1146C45.195 35.2455 46.1687 34.7215 46.9549 34.2913C47.1883 34.1533 47.4324 34.0344 47.685 33.9357C48.3238 33.6885 48.9958 33.5371 49.679 33.4866C49.7197 33.4928 49.7612 33.4896 49.8005 33.4773C50.7252 33.4342 51.6451 33.6342 52.4683 34.0573C53.6436 34.6368 54.5707 35.6198 55.0801 36.8266C54.2272 37.9122 53.1678 38.8184 51.963 39.493C51.5619 39.7204 51.146 39.9205 50.7179 40.0917L50.4277 39.2779C50.2498 38.8288 49.3699 36.5553 49.0892 36.2091C48.9675 36.05 48.8178 35.8724 46.4214 35.8909ZM141.377 57.4467C141.327 57.4587 141.282 57.4847 141.246 57.5217C141.209 57.5591 137.886 61.0393 134.984 62.4519C134.095 62.8917 133.233 63.2659 132.475 63.5929C130.341 64.5284 128.796 65.202 128.356 66.3997C128.141 66.9797 128.291 67.3352 128.459 67.5408C128.75 67.887 129.311 68.0181 130.004 67.8964C130.236 67.8541 130.467 67.8073 130.697 67.7561C131.474 67.5877 131.783 67.5408 131.923 67.7935C131.96 67.8642 131.979 67.9429 131.979 68.0227C131.979 68.1025 131.96 68.1812 131.923 68.2519C131.707 68.7759 130.931 69.3283 129.929 69.6364C129.611 69.7396 129.283 69.8237 128.965 69.9163C127.561 70.3092 126.222 70.6741 126.138 71.7314C126.113 71.9335 126.143 72.1385 126.226 72.3247C126.308 72.5109 126.439 72.6712 126.606 72.7885C125.522 73.0835 124.373 73.0312 123.32 72.6389C120.288 71.5816 116.309 66.539 116.272 66.4921C116.262 66.4733 114.961 64.9204 113.95 63.5731C112.48 61.6355 111.545 61.5709 111.282 61.5896C111.136 61.6029 110.995 61.656 110.876 61.7433C110.757 61.8306 110.665 61.9487 110.608 62.0848C110.159 63.0017 111.255 64.5454 112.312 66.0331C112.799 66.7254 113.473 67.6704 113.445 67.9322C113.417 68.1475 113.351 68.5124 113.267 68.9427C112.921 70.7015 112.658 72.2079 113.051 72.9003C113.249 73.3043 113.554 73.647 113.931 73.8919L112.536 79.3651C100.03 81.414 91.1563 80.6187 85.9144 79.5989C81.5709 78.7476 78.6596 77.5321 77.5737 76.9232L78.52 69.1135C78.7969 69.2811 79.1136 69.3715 79.4372 69.3755H79.5122C80.757 69.3755 81.2533 67.5791 81.637 64.6881C81.8709 62.6669 81.946 60.6304 81.8617 58.5975C81.8631 58.5813 81.8599 58.5651 81.8524 58.5508V58.5415C81.8524 58.532 81.8429 58.5133 81.8429 58.504C81.8429 58.4948 81.8429 58.4946 81.8337 58.4853C81.8244 58.4761 81.8244 58.4666 81.8149 58.4479C81.8149 58.4466 81.8147 58.4454 81.8143 58.4443C81.8138 58.4431 81.8131 58.4421 81.8123 58.4412C81.8114 58.4404 81.8104 58.4397 81.8092 58.4392C81.8081 58.4388 81.8069 58.4386 81.8057 58.4386C81.7962 58.4291 81.7869 58.4104 81.7774 58.4011L81.7682 58.3917L81.74 58.3637L81.7307 58.3544C81.7179 58.3426 81.7013 58.336 81.6839 58.3357H81.6745C81.6635 58.3281 81.6502 58.3248 81.637 58.3262H81.5724C81.5562 58.3248 81.5399 58.328 81.5256 58.3357C81.5069 58.3357 81.4976 58.3449 81.4881 58.3449C81.4869 58.3449 81.4857 58.3451 81.4846 58.3456C81.4834 58.346 81.4824 58.3467 81.4815 58.3476C81.4807 58.3485 81.48 58.3495 81.4795 58.3506C81.4791 58.3518 81.4788 58.353 81.4789 58.3542C81.4694 58.3637 81.4601 58.3637 81.4414 58.3729C81.4401 58.3729 81.4389 58.3731 81.4377 58.3736C81.4366 58.3741 81.4355 58.3748 81.4346 58.3756C81.4337 58.3765 81.433 58.3776 81.4326 58.3787C81.4321 58.3799 81.4319 58.3812 81.4319 58.3824C81.4227 58.3917 81.4039 58.4011 81.3947 58.4104L80.3648 59.3648C78.4834 61.1797 74.1867 65.0998 70.0773 67.102C64.7604 69.6842 61.7556 67.6445 58.8819 63.7899C58.5168 63.3036 58.1049 62.6766 57.665 61.9563C58.0471 61.9336 58.4073 61.7703 58.676 61.4979C58.8051 61.3617 58.8977 61.195 58.9451 61.0135C58.9926 60.8319 58.9934 60.6413 58.9474 60.4593C58.7882 59.8135 58.1329 59.1964 57.5059 58.5975C56.9628 58.0829 56.2983 57.4467 56.4575 57.1755C56.4693 57.1544 56.4854 57.1361 56.5047 57.1216C56.524 57.1071 56.5462 57.0968 56.5697 57.0913C56.991 56.9976 58.0207 57.69 58.704 58.1484C59.0833 58.4355 59.4948 58.6773 59.9303 58.869C60.1561 58.9201 60.3914 58.9117 60.6129 58.8444C60.8345 58.7771 61.0347 58.6534 61.1939 58.4853C61.3789 58.3228 61.5178 58.1144 61.5967 57.8812C61.6756 57.648 61.6916 57.3981 61.6432 57.1567C61.352 55.9967 59.5264 54.8934 56.7556 53.2087C54.0035 51.5339 51.2047 49.513 51.1765 49.4945C51.145 49.4733 51.1102 49.4574 51.0735 49.4475C50.0159 47.2677 49.1922 45.5077 48.827 44.7229C49.6415 44.6105 50.9333 43.9089 52.0004 43.254C53.7938 42.1541 55.4471 40.841 56.9243 39.3434L67.0525 52.4978C67.0799 52.5334 67.1151 52.5622 67.1555 52.582C67.3989 52.9562 67.9043 53.714 68.4848 54.4718C69.6361 55.9595 70.5161 56.6893 71.1619 56.7079H71.2086C71.3974 56.7245 71.5871 56.6877 71.756 56.6017C71.9248 56.5157 72.0661 56.384 72.1635 56.2215C72.5379 55.5571 72.0989 54.4438 71.8266 54.0135C71.7329 53.8638 71.602 53.7047 71.4708 53.5269C71.0214 52.9562 70.4599 52.2453 70.6938 51.4967L70.7125 51.4321C70.9092 50.8239 71.2931 49.5806 69.5237 48.2979C70.5693 46.5548 71.7593 44.9024 73.081 43.358C75.2389 40.8489 77.849 38.767 80.7756 37.2206C83.0268 36.0292 85.4436 35.181 87.9459 34.704C87.9084 35.3869 87.8429 36.9861 87.8147 38.5959C87.7399 43.04 88.0394 43.1709 88.2828 43.2738C88.6199 43.4142 89.209 43.2832 90.1551 43.0492C90.595 42.9463 91.2877 42.7693 91.5591 42.7874C91.3985 43.2453 91.2013 43.6895 90.9693 44.1158C90.3983 45.2665 90.0614 45.9964 90.2298 46.408C90.5482 47.1658 94.8728 49.4581 98.0554 49.4581C98.262 49.4601 98.4686 49.4476 98.6734 49.4206L98.5226 50.9737C98.5121 50.9974 98.5057 51.0226 98.5039 51.0484L98.4479 51.6472C98.3572 52.3432 98.1615 53.0215 97.8674 53.6589C97.6286 54.1644 97.4707 54.7043 97.3995 55.2587C97.335 56.0641 97.3664 56.8743 97.493 57.6724C97.6238 58.5643 97.6739 59.4661 97.6427 60.367L97.5492 61.3586C97.487 61.9496 97.3647 62.5327 97.1841 63.0988C97.066 63.4114 96.938 63.7202 96.8002 64.0246C96.5996 64.4283 96.4788 64.8669 96.4446 65.3164C96.4176 65.7836 96.4714 66.252 96.6038 66.7009C96.7947 67.4019 96.8768 68.128 96.8472 68.8538C96.7493 69.4297 96.5924 69.994 96.3791 70.5379C96.0795 71.2677 96.1544 72.1284 96.2199 73.0353C96.2796 73.6039 96.3012 74.1758 96.2845 74.7473L96.2283 75.3555C96.2268 75.387 96.23 75.4186 96.2378 75.4491L95.7135 80.735C95.7082 80.8091 95.7318 80.8824 95.7792 80.9396C95.8266 80.9967 95.8943 81.0334 95.9681 81.042H95.9961C96.0652 81.04 96.1313 81.0135 96.1826 80.9673C96.234 80.921 96.2671 80.858 96.2761 80.7895L98.0078 62.6861L98.1295 61.423V61.4137C98.139 61.3855 98.1483 61.3575 98.1575 61.3201C98.167 61.1892 98.1857 61.0675 98.195 60.9459L98.7193 55.1732L99.2621 49.4101C99.3651 49.4195 99.4963 49.4195 99.6553 49.4195C100.704 49.4195 102.847 49.2042 105.281 47.7448C105.508 47.6087 105.685 47.4034 105.786 47.1592C105.887 46.915 105.907 46.6448 105.843 46.3884C105.609 45.4342 105.656 45.1068 105.674 45.0226C105.914 44.9951 106.155 44.9888 106.395 45.0039C107.331 45.0039 108.623 45.0039 109.128 44.3395C109.69 43.6004 111.057 38.642 111.441 37.2197C114.748 38.8301 117.662 41.1454 119.978 44.0028C121.681 46.0984 123.058 49.111 123.984 51.5062C122.982 52.1983 122.608 53.8731 122.851 55.1642C123.01 55.9782 122.43 56.577 121.822 57.2224C121.52 57.5176 121.25 57.8438 121.017 58.1955C120.614 58.8597 120.549 59.5519 120.848 60.0012C120.965 60.1614 121.121 60.2892 121.301 60.3726C121.481 60.4561 121.68 60.4924 121.878 60.4783C121.994 60.4774 122.11 60.4681 122.224 60.4503C123.563 60.2445 125.959 57.6623 126.277 57.3161L138.184 47.1183C138.409 47.6233 139.111 49.0456 140.712 50.8043C142.2 52.4405 143.604 53.1807 144.231 53.4427C143.792 54.0225 142.725 55.5569 141.377 57.4467ZM143.316 52.2823C142.499 51.7492 141.756 51.1106 141.107 50.3832C139.272 48.3622 138.654 46.7811 138.617 46.6877L139.89 45.6024C140.566 46.7303 141.405 47.7519 142.38 48.6337C143.531 49.7102 144.262 50.1408 144.711 50.299L143.316 52.2823ZM150.242 46.6692C150.182 46.6727 150.122 46.6664 150.064 46.6504C148.576 46.2668 146.713 45.8177 146.31 45.9113C145.664 46.0517 144.401 48.0445 143.774 49.0923C143.494 48.877 143.156 48.5971 142.763 48.2311C141.255 46.8184 140.544 45.6489 140.32 45.228C140.731 44.8443 141.976 43.7498 143.268 43.282C143.965 43.036 144.707 42.9446 145.442 43.014C146.178 43.0835 146.889 43.3121 147.527 43.6841C147.902 43.9374 148.262 44.2123 148.604 44.5074C149.587 45.3122 150.261 45.836 150.729 45.8734C150.88 45.8829 151.151 45.8922 151.497 45.9014C152.414 45.9296 154.549 45.9858 154.942 46.2476C155.049 46.3152 155.144 46.4007 155.222 46.5004L150.242 46.6692Z" fill="#1A1A1A"/>
<path id="Vector_30" d="M98.5332 79.8913L100.883 92.0259C100.883 92.0259 103.682 99.9127 103.981 99.9127C104.281 99.9127 109.776 102.907 109.776 102.907L118.472 102.504L120.073 102.102C120.073 102.102 121.767 101.55 121.617 98.5095C121.467 95.4594 119.567 87.2264 119.567 87.2264L122.619 86.7773C122.619 86.7773 121.421 82.8852 120.016 81.1366C119.01 79.9312 117.888 78.8278 116.665 77.8426C116.665 77.8426 109.916 77.7397 106.874 78.245C103.831 78.7406 98.5332 79.8913 98.5332 79.8913Z" fill="#1A1A1A"/>
<path id="Vector_31" d="M121.616 98.5087C121.588 97.8725 121.476 97.0016 121.326 96.0294C119.426 94.2145 116.402 93.9242 113.819 93.1014C112.677 92.7365 111.422 92.0723 111.188 90.8936C110.982 89.8924 111.638 88.8726 112.508 88.3301C113.379 87.7875 114.418 87.6196 115.429 87.4598C114.167 87.4188 112.936 87.0656 111.845 86.4321C110.753 85.7986 109.836 84.9045 109.176 83.8298C108.449 82.6226 108.208 81.1847 108.502 79.8068C108.633 79.2361 108.96 78.6094 109.157 77.9824C108.295 78.0386 107.509 78.1228 106.874 78.2257C103.822 78.7209 98.5332 79.8723 98.5332 79.8723L100.883 92.0068C100.883 92.0068 103.681 99.8932 103.981 99.8932C104.281 99.8932 109.775 102.887 109.775 102.887L118.472 102.485L120.072 102.083C120.062 102.111 121.766 101.559 121.616 98.5087Z" fill="#F77D52"/>
<path id="Vector_32" d="M108.137 86.9736C107.907 86.9588 107.687 86.8762 107.503 86.7363C107.32 86.5965 107.182 86.4055 107.107 86.1875C107.002 85.922 106.989 85.6288 107.07 85.355C107.109 85.2227 107.177 85.101 107.269 84.9989C107.361 84.8967 107.476 84.817 107.604 84.7655C107.734 84.7192 107.873 84.7028 108.011 84.7173C108.149 84.7319 108.281 84.7771 108.399 84.8497C108.645 84.998 108.834 85.2259 108.933 85.4956C109.157 86.0945 108.933 86.7307 108.427 86.927C108.334 86.9577 108.236 86.9734 108.137 86.9736ZM107.922 85.2613C107.887 85.2631 107.852 85.2694 107.819 85.2801C107.769 85.3039 107.725 85.3379 107.69 85.3798C107.654 85.4217 107.628 85.4706 107.613 85.5233C107.567 85.6777 107.576 85.8435 107.641 85.9912C107.753 86.2904 108.034 86.4775 108.249 86.3933C108.465 86.3092 108.54 85.9912 108.427 85.6917C108.374 85.5412 108.272 85.4127 108.137 85.3268C108.072 85.2885 107.998 85.2661 107.922 85.2613ZM119.529 85.7197C119.299 85.7049 119.079 85.6224 118.895 85.4826C118.712 85.3428 118.574 85.1518 118.499 84.9339C118.275 84.3351 118.499 83.6989 119.005 83.5024C119.511 83.3058 120.11 83.6335 120.334 84.2322C120.559 84.831 120.334 85.4671 119.829 85.6637C119.733 85.7012 119.632 85.7201 119.529 85.7197ZM119.314 84.0169C119.279 84.0178 119.244 84.0241 119.211 84.0357C118.996 84.1198 118.921 84.438 119.033 84.7375C119.145 85.037 119.426 85.2239 119.642 85.1397C119.857 85.0555 119.932 84.7375 119.819 84.438C119.783 84.3276 119.716 84.2297 119.627 84.1553C119.538 84.0808 119.429 84.0329 119.314 84.0169Z" fill="#1A1A1A"/>
<path id="Vector_33" d="M122.965 86.8236C122.373 84.812 121.47 82.9053 120.289 81.1728C119.532 80.078 118.649 79.0761 117.658 78.1877C117.156 77.7542 116.514 77.518 115.851 77.5235C114.232 77.5423 111.049 77.6077 107.876 77.8885C104.599 78.1884 101.372 78.8988 98.2717 80.0029C98.2704 80.0028 98.2692 80.003 98.2681 80.0035C98.2669 80.0039 98.2659 80.0046 98.265 80.0055C98.2641 80.0063 98.2634 80.0074 98.2629 80.0085C98.2624 80.0097 98.2622 80.0109 98.2622 80.0121C98.2529 80.0216 98.2342 80.0216 98.2249 80.0308C98.2157 80.0401 98.2062 80.0403 98.2062 80.0496C98.1967 80.059 98.1875 80.059 98.1875 80.0683C98.178 80.0776 98.178 80.087 98.1687 80.087L98.15 80.1058C98.1407 80.115 98.1407 80.1245 98.1312 80.1338C98.1312 80.1432 98.122 80.1432 98.122 80.1525C98.122 80.1617 98.1125 80.1712 98.1125 80.1805C98.1125 80.1897 98.1032 80.1992 98.1032 80.2087C98.1032 80.2274 98.0938 80.2367 98.0938 80.2554V80.3116C98.1032 80.349 98.6648 83.8013 99.5915 87.8804C100.743 92.9325 101.913 96.6747 103.074 99.0231C103.083 99.0511 103.102 99.0699 103.111 99.0981L103.167 99.2102C103.185 99.2527 103.207 99.2934 103.232 99.3319C103.243 99.3578 103.255 99.3828 103.27 99.4068C103.307 99.4703 103.342 99.5359 103.373 99.6031C103.447 99.7435 103.522 99.8746 103.597 100.006C103.606 100.024 103.625 100.043 103.634 100.062C103.7 100.174 103.766 100.286 103.84 100.398C103.85 100.408 103.85 100.417 103.859 100.426C106.003 103.795 108.568 104.347 110.412 104.347C110.872 104.342 111.331 104.314 111.788 104.262C111.863 104.253 111.928 104.253 111.994 104.244L112.144 104.234C113.632 104.103 117.535 103.748 119.838 102.578H119.847C119.912 102.548 119.974 102.513 120.035 102.475C120.044 102.466 120.053 102.466 120.063 102.457H120.072C120.524 102.219 120.923 101.891 121.242 101.493C122.038 100.417 122.019 97.6571 121.195 93.3161C120.709 90.7527 120.072 88.3575 119.838 87.4968L122.74 87.188C122.781 87.1832 122.821 87.1699 122.856 87.149C122.891 87.128 122.922 87.0999 122.946 87.0664C122.968 87.0301 122.98 86.9893 122.984 86.9472C122.987 86.9051 122.981 86.8628 122.965 86.8236ZM120.794 101.147C120.613 101.381 120.395 101.584 120.147 101.746C120.07 101.341 119.851 100.976 119.53 100.717C118.968 100.268 118.013 99.9405 114.868 100.53C112.528 100.97 110.815 100.25 109.766 98.3687C109.478 97.8004 109.221 97.2163 108.999 96.6192C108.306 94.8695 107.529 92.8862 105.928 92.8862H105.864C104.843 92.9237 104.553 93.7282 104.319 94.3737C104.113 94.9352 103.973 95.2813 103.598 95.3281H103.542C102.587 95.3281 101.38 92.1938 100.977 91.1367C99.7324 86.4027 98.8899 81.5844 98.7027 80.4616C99.0866 80.3682 99.8915 80.2558 100.35 80.7329L104.731 89.8269C104.755 89.8736 104.791 89.913 104.836 89.9409C104.88 89.9689 104.931 89.9844 104.984 89.9858H105.012L119.54 88.5545C119.839 89.7052 120.279 91.5014 120.644 93.4008C121.636 98.6212 121.271 100.492 120.794 101.147ZM119.511 86.9547C119.471 86.9436 119.428 86.9469 119.39 86.9639C119.38 86.9639 119.371 86.9734 119.361 86.9734L105.657 88.4329C105.021 87.3288 101.408 81.1166 100.78 80.3962C100.61 80.2139 100.402 80.0702 100.172 79.9751C102.701 79.211 105.301 78.7033 107.932 78.4596C111.087 78.1797 114.25 78.1134 115.861 78.0936C116.387 78.0842 116.897 78.271 117.293 78.6174C118.253 79.4709 119.105 80.4387 119.83 81.4991C120.904 83.0897 121.745 84.8255 122.328 86.6541L119.511 86.9547Z" fill="#1A1A1A"/>
</g>
</g>
</g>
</g>
<g id="Clip path group_3">
<mask id="mask2_5370_10443" style="mask-type:luminance" maskUnits="userSpaceOnUse" x="15" y="90" width="49" height="82">
<g id="c">
<path id="Vector_34" d="M15.5039 90.0811H63.3759V171.488H15.5039V90.0811Z" fill="white"/>
</g>
</mask>
<g mask="url(#mask2_5370_10443)">
<g id="Group_3">
<g id="Layer 2_2">
<path id="Vector_35" d="M35.0469 115.25H38.6262V158.904H35.0469V115.25Z" fill="#449399"/>
<path id="Vector_36" d="M39.4569 110.555H35.2437C35.207 110.554 35.1704 110.561 35.1364 110.575C35.1023 110.589 35.0713 110.609 35.0453 110.635C35.0193 110.661 34.9988 110.692 34.985 110.726C34.9712 110.761 34.9643 110.797 34.9649 110.834V171.03C34.9643 171.066 34.9712 171.103 34.985 171.137C34.9988 171.171 35.0193 171.202 35.0453 171.228C35.0713 171.254 35.1023 171.275 35.1364 171.289C35.1704 171.303 35.207 171.309 35.2437 171.309H37.8351C37.8719 171.309 37.9084 171.303 37.9425 171.289C37.9765 171.275 38.0075 171.254 38.0335 171.228C38.0595 171.202 38.08 171.171 38.0938 171.137C38.1077 171.103 38.1145 171.066 38.1139 171.03V168.426H39.1485V171.022C39.1485 171.096 39.1779 171.167 39.2304 171.22C39.2829 171.272 39.354 171.302 39.4282 171.302C39.5024 171.302 39.5735 171.272 39.626 171.22C39.6784 171.167 39.7079 171.096 39.7079 171.022V153.47L39.745 110.825C39.7389 110.752 39.7061 110.684 39.6529 110.634C39.5996 110.584 39.5298 110.556 39.4569 110.555ZM37.5554 170.75H35.5234V166.989H37.5554V170.75ZM37.5554 154.945L35.5234 156.961V120.376L37.5554 118.958V154.945Z" fill="#1A1A1A"/>
<path id="Vector_37" d="M42.1131 166.279C40.9107 167.978 40.5473 169.332 40.4727 170.265H45.357C45.357 170.265 45.2824 168.66 46.3544 166.316C48.3118 162.031 54.6783 158.409 54.6783 158.409C46.457 159.931 44.0893 163.497 42.1131 166.279Z" fill="#449399"/>
<path id="Vector_38" d="M45.9254 110.844H18.3809V99.1087C18.3807 97.9599 18.6065 96.8223 19.0454 95.7609C19.4843 94.6995 20.1276 93.735 20.9386 92.9227C21.7497 92.1103 22.7125 91.4659 23.7723 91.0262C24.832 90.5866 25.9678 90.3603 27.1149 90.3604H54.6221" fill="white"/>
<path id="Vector_39" d="M54.7992 90.3796V90.3701H27.292C26.0985 90.3696 24.9176 90.6147 23.8225 91.09C22.7274 91.5654 21.7414 92.2609 20.9257 93.1335H48.0039C46.4832 94.7538 45.6366 96.8939 45.6365 99.1176V103.151C44.9093 103.188 41.8892 103.319 40.0996 102.992C38.0582 102.618 38.431 101.022 36.9117 100.975C35.3924 100.929 33.1562 101.769 31.3654 102.142C29.5745 102.516 29.3062 101.47 28.6249 100.873C27.6091 99.9765 25.3626 100.621 22.7805 101.573C21.3337 102.099 19.9205 102.713 18.5488 103.412V108.145H45.6272V110.852H63.086V99.1176C63.0946 96.8724 62.2377 94.7106 60.6939 93.0827C59.15 91.4547 57.0384 90.4864 54.7992 90.3796ZM22.706 157.409C22.706 157.409 32.7272 160.397 34.777 169.705L30.4613 169.769C30.4613 169.769 29.8647 165.914 27.7395 162.46C25.7914 159.278 22.706 157.409 22.706 157.409ZM49.9709 156.28C49.9709 156.28 37.5642 159.865 36.1099 171.161L41.4145 170.9C41.4145 170.9 41.0603 168.323 43.2043 164.319C45.1236 160.733 49.9709 156.28 49.9709 156.28Z" fill="#449399"/>
<path id="Vector_40" d="M50.2128 156.141C50.1824 156.087 50.1346 156.044 50.0771 156.021C50.0196 155.997 49.9557 155.994 49.8959 156.011C47.587 156.757 45.4055 157.853 43.4269 159.259C40.3883 161.397 36.5944 165.197 35.8301 171.125C35.8252 171.166 35.8293 171.207 35.8422 171.246C35.8551 171.284 35.8764 171.32 35.9046 171.349C35.9582 171.406 36.0318 171.439 36.1096 171.443H36.1191L41.4228 171.18C41.4623 171.178 41.5011 171.168 41.5365 171.151C41.5719 171.133 41.6031 171.108 41.6279 171.077C41.6625 171.03 41.6846 170.976 41.6922 170.918V170.862C41.6922 170.843 41.5058 169.303 42.4001 166.802C42.4095 166.774 42.4187 166.755 42.4281 166.727L42.512 166.503C42.529 166.459 42.5477 166.415 42.568 166.372C42.5888 166.311 42.6136 166.252 42.6424 166.195C42.6705 166.139 42.689 166.073 42.7171 166.018C42.7357 165.971 42.7544 165.924 42.7814 165.867C42.8093 165.803 42.8458 165.727 42.8747 165.652C42.8932 165.606 42.9118 165.568 42.9305 165.522C42.9678 165.447 43.0052 165.363 43.0425 165.288L43.0985 165.176C43.1356 165.092 43.1823 165.008 43.2289 164.915C43.2483 164.883 43.2639 164.848 43.2754 164.812C43.3398 164.691 43.3966 164.569 43.4713 164.448C43.5177 164.364 43.5644 164.28 43.6111 164.196C43.6203 164.177 43.6298 164.168 43.639 164.149C43.6855 164.065 43.7323 163.991 43.7789 163.906C43.7881 163.888 43.8067 163.86 43.8162 163.842C43.8627 163.767 43.9093 163.683 43.9663 163.609C43.985 163.59 43.9942 163.562 44.0129 163.544C44.0502 163.488 44.0875 163.432 44.1248 163.367C44.1435 163.329 44.1714 163.302 44.1892 163.264C44.2265 163.2 44.2731 163.143 44.3104 163.077C44.3383 163.031 44.3747 162.984 44.4035 162.937C44.4212 162.917 44.4368 162.896 44.4502 162.873C44.5146 162.779 44.5899 162.677 44.6553 162.584V162.574C46.855 159.54 50.1362 156.506 50.1735 156.469C50.2161 156.427 50.2432 156.371 50.2503 156.312C50.2574 156.252 50.2442 156.192 50.2128 156.141ZM39.1111 164.245C40.3841 162.486 41.9478 160.958 43.7347 159.726C44.4991 159.191 45.2926 158.698 46.1115 158.251C45.8673 158.448 45.628 158.65 45.3938 158.858C43.4455 160.632 40.8915 163.899 39.8104 169.454L39.3814 170.705L36.4265 170.855C36.7883 168.47 37.7083 166.205 39.1111 164.244V164.245Z" fill="#1A1A1A"/>
<path id="Vector_41" d="M29.1758 154.581C29.1758 154.581 33.1571 156.924 35.7939 162.255C38.5157 167.754 37.9379 170.424 37.9379 170.424L34.8062 170.228C34.8062 170.228 34.3214 164.71 33.4173 162.106C32.4395 159.375 31.0052 156.83 29.1758 154.581Z" fill="#449399"/>
<path id="Vector_42" d="M51.0528 170.947C51.0247 170.947 47.9674 170.769 45.9633 169.966C44.6954 169.462 43.1948 168.977 41.6382 169.182C41.2373 169.238 40.8739 169.294 40.5196 169.35C39.2705 169.556 38.2825 169.714 36.8285 169.416C36.3565 169.308 35.8925 169.167 35.4396 168.996C33.976 168.482 32.3079 167.913 29.5951 168.865C29.1569 169.014 28.7281 169.21 28.2714 169.406C26.8452 170.032 25.2326 170.732 22.427 170.928C22.3538 170.932 22.2851 170.964 22.2357 171.019C22.1862 171.073 22.1598 171.144 22.1623 171.217C22.1647 171.291 22.1957 171.36 22.2487 171.411C22.3017 171.461 22.3724 171.489 22.4456 171.488H51.0341C51.1066 171.488 51.1763 171.46 51.2283 171.41C51.2804 171.359 51.3107 171.29 51.313 171.218C51.3104 171.148 51.2825 171.082 51.2345 171.032C51.1865 170.982 51.1218 170.952 51.0528 170.947Z" fill="#1A1A1A"/>
<path id="Vector_43" d="M54.9399 158.306C54.9178 158.243 54.8734 158.19 54.815 158.157C54.7566 158.125 54.6882 158.115 54.6228 158.129C46.4575 159.641 43.9873 163.133 42.0019 165.934L41.8713 166.111C40.5944 167.913 40.2494 169.35 40.1842 170.237C40.1801 170.277 40.1846 170.316 40.1974 170.353C40.2103 170.39 40.2312 170.424 40.2587 170.452C40.3123 170.509 40.3859 170.542 40.4637 170.546H45.3481C45.3673 170.547 45.3865 170.544 45.4041 170.536C45.4135 170.536 45.4135 170.536 45.4227 170.527C45.4322 170.527 45.4414 170.518 45.4601 170.518C45.4671 170.517 45.4737 170.513 45.4787 170.508C45.488 170.508 45.4974 170.499 45.5066 170.49C45.5158 170.48 45.5253 170.48 45.5253 170.471L45.5439 170.452C45.5532 170.443 45.5532 170.434 45.5626 170.424C45.5626 170.415 45.5718 170.415 45.5718 170.406C45.5813 170.396 45.5813 170.387 45.5905 170.378C45.5905 170.368 45.5999 170.368 45.5999 170.359C45.5999 170.35 45.6091 170.331 45.6091 170.322V170.247C45.6091 170.247 45.6091 170.144 45.6186 169.958C45.7183 168.729 46.0438 167.529 46.5787 166.419C46.6165 166.329 46.6601 166.242 46.7091 166.158C46.7183 166.13 46.737 166.111 46.7464 166.083C46.793 165.999 46.8303 165.915 46.8768 165.831C46.8976 165.801 46.9163 165.77 46.9328 165.738C46.9607 165.682 46.9972 165.635 47.0261 165.579C47.1287 165.411 47.2312 165.243 47.3429 165.085V165.076C49.7668 161.519 54.7254 158.671 54.7814 158.634C54.8145 158.625 54.8452 158.609 54.8716 158.586C54.898 158.564 54.9193 158.537 54.9343 158.506C54.9493 158.475 54.9576 158.441 54.9585 158.407C54.9595 158.372 54.9531 158.338 54.9399 158.306ZM42.3376 166.438L42.4682 166.26C44.1087 163.945 46.0933 161.144 51.5377 159.455C49.6643 160.454 47.0634 162.218 45.3577 164.981C44.4322 166.544 43.7294 168.228 43.2698 169.985H40.7816C40.902 169.155 41.2748 167.941 42.3376 166.438ZM35.0575 169.64C33.9762 164.748 30.6952 161.611 28.1317 159.837C26.4873 158.69 24.6892 157.781 22.7907 157.139C22.725 157.12 22.6549 157.126 22.5932 157.155C22.5315 157.184 22.4825 157.235 22.4552 157.298C22.4279 157.36 22.4242 157.431 22.4447 157.496C22.4653 157.561 22.5087 157.616 22.567 157.652C22.5949 157.671 25.615 159.519 27.5165 162.609C29.5858 165.97 30.1918 169.779 30.201 169.816C30.201 169.826 30.201 169.835 30.2104 169.835C30.2104 169.844 30.2104 169.844 30.2197 169.854C30.2198 169.861 30.2216 169.868 30.2248 169.875C30.228 169.881 30.2327 169.887 30.2383 169.891V169.9C30.2478 169.919 30.257 169.929 30.2664 169.947L30.2756 169.956L30.3035 169.984C30.313 169.994 30.3222 169.994 30.3316 170.003L30.3409 170.013C30.3776 170.035 30.4192 170.047 30.462 170.05H30.4807L32.0466 170.022C32.0558 170.059 32.0744 170.086 32.0837 170.124C32.1862 170.395 32.2608 170.601 32.4483 170.601C32.4862 170.598 32.5237 170.592 32.5603 170.582C32.672 170.545 32.7932 170.442 32.728 170.162C32.7186 170.124 32.7094 170.078 32.6907 170.013L34.7973 169.984C34.8384 169.984 34.8789 169.975 34.916 169.957C34.9531 169.939 34.9858 169.914 35.0118 169.882C35.0542 169.809 35.0703 169.723 35.0575 169.64ZM32.5034 169.453C32.4101 169.164 32.2984 168.8 32.1585 168.352C31.2575 165.489 29.6997 162.877 27.6098 160.725C26.9717 160.074 26.2831 159.475 25.5507 158.933C26.3366 159.342 27.096 159.8 27.8243 160.305C30.2385 161.976 33.3155 164.908 34.4239 169.426L32.5034 169.453Z" fill="#1A1A1A"/>
<path id="Vector_44" d="M36.0446 162.134C33.3975 156.784 29.4824 154.441 29.3147 154.338C29.2579 154.304 29.1907 154.292 29.1255 154.304C29.0603 154.316 29.0017 154.351 28.9606 154.403C28.9195 154.455 28.8972 154.519 28.8972 154.585C28.8972 154.652 28.9195 154.716 28.9606 154.768C30.7629 156.99 32.1749 159.503 33.1364 162.199C33.7982 164.095 34.2364 167.605 34.4234 169.295C34.4176 169.319 34.4144 169.344 34.414 169.369C34.405 169.408 34.4045 169.448 34.4125 169.486C34.4206 169.525 34.4371 169.562 34.4607 169.593C34.5073 169.995 34.5251 170.247 34.5251 170.256C34.5301 170.323 34.5595 170.386 34.6076 170.432C34.6558 170.479 34.7193 170.506 34.7861 170.508L37.9178 170.704H37.9365C38.0004 170.703 38.062 170.681 38.1112 170.64C38.1604 170.599 38.1941 170.543 38.2068 170.48C38.2259 170.377 38.776 167.66 36.0446 162.134ZM37.6853 170.134L36.2591 170.041C36.343 169.528 36.3235 168.174 35.5133 164.617C34.8421 161.667 33.0618 158.848 31.7289 157.046C33.2762 158.607 34.5634 160.407 35.5414 162.376C36.9208 165.159 37.4148 167.184 37.6006 168.389C37.6934 168.966 37.7218 169.551 37.6853 170.134ZM36.9116 94.6739C36.8875 94.6453 36.8575 94.6222 36.8237 94.6061C36.79 94.59 36.7532 94.5813 36.7158 94.5806L17.2716 93.2736C17.2041 93.2674 17.1368 93.2871 17.0832 93.3286C17.0296 93.3702 16.9938 93.4306 16.9829 93.4977L15.5099 101.032C15.4996 101.071 15.4993 101.112 15.509 101.151C15.5188 101.19 15.5383 101.226 15.5657 101.256C15.6185 101.315 15.6918 101.351 15.7708 101.358L19.7045 101.509H19.7137C19.7541 101.508 19.7939 101.499 19.8303 101.482C19.8668 101.465 19.8991 101.439 19.9248 101.408C19.9506 101.377 19.9692 101.341 19.9794 101.302C19.9896 101.263 19.9912 101.222 19.984 101.182L19.2291 96.4569L36.4176 98.3045C36.4544 98.3082 36.4915 98.3043 36.5267 98.2933C36.562 98.2822 36.5946 98.2641 36.6227 98.24C36.6796 98.1894 36.7161 98.1196 36.7252 98.0439L36.9768 94.8605C36.9788 94.8266 36.9741 94.7927 36.9629 94.7606C36.9517 94.7286 36.9343 94.6991 36.9116 94.6739Z" fill="#1A1A1A"/>
<path id="Vector_45" d="M35.6041 96.4107C35.6293 95.9835 35.3039 95.6167 34.8774 95.5914C34.4508 95.5662 34.0846 95.892 34.0594 96.3192C34.0341 96.7464 34.3595 97.1133 34.786 97.1385C35.2126 97.1638 35.5788 96.838 35.6041 96.4107Z" fill="#449399"/>
<path id="Vector_46" d="M54.7891 101.209C54.1568 101.209 53.5386 101.021 53.0128 100.67C52.487 100.318 52.0772 99.8175 51.8352 99.2324C51.5932 98.6473 51.5299 98.0034 51.6532 97.3822C51.7766 96.761 52.0811 96.1905 52.5283 95.7426C52.9754 95.2948 53.5451 94.9898 54.1654 94.8662C54.7856 94.7427 55.4285 94.8061 56.0127 95.0484C56.5969 95.2908 57.0963 95.7013 57.4476 96.2279C57.7989 96.7545 57.9865 97.3736 57.9865 98.007C57.9851 98.8558 57.6478 99.6695 57.0485 100.27C56.4492 100.87 55.6367 101.208 54.7891 101.209ZM54.7891 95.3744C54.2673 95.3744 53.7572 95.5294 53.3233 95.8197C52.8895 96.1101 52.5513 96.5228 52.3516 97.0056C52.1519 97.4885 52.0997 98.0198 52.2015 98.5323C52.3033 99.0449 52.5546 99.5158 52.9235 99.8853C53.2925 100.255 53.7626 100.507 54.2744 100.608C54.7862 100.71 55.3167 100.658 55.7988 100.458C56.2809 100.258 56.6929 99.9194 56.9828 99.4849C57.2727 99.0503 57.4275 98.5395 57.4275 98.0168C57.4267 97.3163 57.1485 96.6446 56.6538 96.1492C56.1592 95.6539 55.4886 95.3752 54.7891 95.3744Z" fill="white"/>
<path id="Vector_47" d="M54.7898 96.6533C55.5723 96.6533 56.2066 96.0181 56.2066 95.2344C56.2066 94.4507 55.5723 93.8154 54.7898 93.8154C54.0074 93.8154 53.373 94.4507 53.373 95.2344C53.373 96.0181 54.0074 96.6533 54.7898 96.6533Z" fill="#1A1A1A"/>
<path id="Vector_48" d="M54.6685 90.0903C54.65 90.0903 54.6314 90.0811 54.6127 90.0811H27.1055C24.716 90.0844 22.4252 91.0366 20.7356 92.7289C19.0459 94.4212 18.0952 96.7154 18.0918 99.1087V110.844C18.0913 110.88 18.0981 110.917 18.1119 110.951C18.1258 110.985 18.1463 111.016 18.1723 111.042C18.1983 111.068 18.2292 111.089 18.2633 111.103C18.2974 111.117 18.3339 111.123 18.3707 111.123H48.4607C48.4607 111.142 48.4512 111.169 48.4512 111.187C48.4511 111.256 48.4646 111.324 48.4908 111.388C48.517 111.451 48.5555 111.509 48.604 111.557C48.6525 111.606 48.71 111.644 48.7734 111.671C48.8368 111.697 48.9047 111.71 48.9733 111.71H51.5552C51.6238 111.71 51.6918 111.697 51.7551 111.671C51.8185 111.644 51.8761 111.606 51.9246 111.557C51.9731 111.509 52.0116 111.451 52.0378 111.388C52.064 111.324 52.0774 111.256 52.0773 111.187C52.0794 111.165 52.0762 111.143 52.0679 111.123H56.4769C56.4769 111.142 56.4677 111.169 56.4677 111.187C56.4676 111.256 56.481 111.324 56.5072 111.388C56.5334 111.451 56.5718 111.509 56.6203 111.557C56.6688 111.606 56.7264 111.644 56.7897 111.671C56.8531 111.697 56.921 111.71 56.9896 111.71H59.5715C59.6401 111.71 59.7081 111.697 59.7715 111.671C59.8348 111.644 59.8924 111.606 59.941 111.557C59.9895 111.509 60.0279 111.451 60.0541 111.388C60.0803 111.324 60.0937 111.256 60.0936 111.187C60.0957 111.165 60.0925 111.143 60.0842 111.123H63.0951C63.1319 111.123 63.1684 111.117 63.2025 111.103C63.2366 111.089 63.2676 111.068 63.2936 111.042C63.3196 111.016 63.3401 110.985 63.3539 110.951C63.3677 110.917 63.3745 110.88 63.374 110.844V99.1087C63.3732 96.7685 62.465 94.52 60.8409 92.8375C59.2168 91.155 57.0037 90.1701 54.6685 90.0903ZM27.1055 90.6506H51.2477C49.5221 91.2928 48.0339 92.4481 46.9826 93.9616C45.9313 95.475 45.3672 97.2742 45.3659 99.1179V108.071H18.6605V99.1179C18.6613 96.8741 19.551 94.7222 21.1343 93.1347C22.7176 91.5472 24.8652 90.6538 27.1055 90.6506ZM62.8248 110.564H45.9253V99.1087C45.9197 97.9931 46.1342 96.8875 46.5566 95.8552C46.9789 94.823 47.6008 93.8845 48.3864 93.0937C49.172 92.3028 50.1059 91.6753 51.1344 91.2471C52.163 90.8189 53.2658 90.5985 54.3797 90.5985C55.4935 90.5985 56.5964 90.8189 57.6249 91.2471C58.6534 91.6753 59.5873 92.3028 60.3729 93.0937C61.1586 93.8845 61.7804 94.823 62.2028 95.8552C62.6251 96.8875 62.8397 97.9931 62.8341 99.1087V110.564H62.8248Z" fill="#1A1A1A"/>
</g>
</g>
</g>
</g>
</g>
</svg>
