<svg width="24" height="24" viewBox="0 0 24 24" fill="none" xmlns="http://www.w3.org/2000/svg">
<path d="M14.7419 1.08325C14.8404 1.08308 14.9381 1.10233 15.0292 1.13991C15.1203 1.17748 15.2031 1.23265 15.2729 1.30225L22.6979 8.72725C22.8385 8.8679 22.9175 9.05863 22.9175 9.2575C22.9175 9.45638 22.8385 9.64711 22.6979 9.78775C21.9779 10.5078 21.0899 10.6698 20.4434 10.6698C20.1779 10.6698 19.9409 10.6428 19.7534 10.6113L15.0524 15.3123C15.1761 15.8109 15.2564 16.3193 15.2924 16.8318C15.3614 17.8848 15.2444 19.3623 14.2124 20.3943C14.0717 20.5349 13.881 20.6138 13.6821 20.6138C13.4833 20.6138 13.2925 20.5349 13.1519 20.3943L8.90838 16.1523L4.13538 20.9253C3.84288 21.2178 2.30688 22.2783 2.01438 21.9858C1.72188 21.6933 2.78238 20.1558 3.07488 19.8648L7.84788 15.0918L3.60588 10.8483C3.46528 10.7076 3.38629 10.5169 3.38629 10.318C3.38629 10.1191 3.46528 9.9284 3.60588 9.78775C4.63788 8.75575 6.11538 8.63725 7.16838 8.70775C7.68087 8.74366 8.18928 8.82396 8.68788 8.94775L13.3889 4.24825C13.3496 4.01983 13.3296 3.78852 13.3289 3.55675C13.3289 2.91175 13.4909 2.02375 14.2124 1.30225C14.3529 1.16205 14.5434 1.0833 14.7419 1.08325Z" fill="black"/>
</svg>
