<svg width="24" height="24" viewBox="0 0 24 24" fill="none" xmlns="http://www.w3.org/2000/svg">
<path d="M19.1401 12.9442C19.1761 12.6442 19.2001 12.3322 19.2001 12.0082C19.2001 11.6842 19.1761 11.3722 19.1281 11.0722L21.1561 9.4882C21.3361 9.3442 21.3841 9.0802 21.2761 8.8762L19.3561 5.5522C19.2361 5.3362 18.9841 5.2642 18.7681 5.3362L16.3801 6.2962C15.8761 5.9122 15.3481 5.6002 14.7601 5.3602L14.4001 2.8162C14.3641 2.5762 14.1601 2.4082 13.9201 2.4082H10.0801C9.84011 2.4082 9.64811 2.5762 9.61211 2.8162L9.25211 5.3602C8.66411 5.6002 8.12411 5.9242 7.63211 6.2962L5.24411 5.3362C5.02811 5.2522 4.77611 5.3362 4.65611 5.5522L2.73611 8.8762C2.61611 9.0922 2.66411 9.3442 2.85611 9.4882L4.88411 11.0722C4.83611 11.3722 4.80011 11.6962 4.80011 12.0082C4.80011 12.3202 4.82411 12.6442 4.87211 12.9442L2.84411 14.5282C2.66411 14.6722 2.61611 14.9362 2.72411 15.1402L4.64411 18.4642C4.76411 18.6802 5.01611 18.7522 5.23211 18.6802L7.62011 17.7202C8.12411 18.1042 8.65211 18.4162 9.24011 18.6562L9.60011 21.2002C9.64811 21.4402 9.84011 21.6082 10.0801 21.6082H13.9201C14.1601 21.6082 14.3641 21.4402 14.3881 21.2002L14.7481 18.6562C15.3361 18.4162 15.8761 18.0922 16.3681 17.7202L18.7561 18.6802C18.9721 18.7642 19.2241 18.6802 19.3441 18.4642L21.2641 15.1402C21.3841 14.9242 21.3361 14.6722 21.1441 14.5282L19.1401 12.9442ZM12.0001 15.6082C10.0201 15.6082 8.40011 13.9882 8.40011 12.0082C8.40011 10.0282 10.0201 8.4082 12.0001 8.4082C13.9801 8.4082 15.6001 10.0282 15.6001 12.0082C15.6001 13.9882 13.9801 15.6082 12.0001 15.6082Z" fill="#7B7B7C"/>
</svg>
