<svg width="24" height="24" viewBox="0 0 24 24" fill="none" xmlns="http://www.w3.org/2000/svg">
<path d="M2.73529 21.0093H21.2653C22.0353 21.0093 22.5153 20.1793 22.1353 19.5093L12.8653 3.50934C12.4753 2.83934 11.5153 2.83934 11.1353 3.50934L1.86529 19.5093C1.48529 20.1793 1.96529 21.0093 2.73529 21.0093ZM13.0053 18.0093H11.0053V16.0093H13.0053V18.0093ZM12.0053 14.0093C11.4553 14.0093 11.0053 13.5593 11.0053 13.0093V11.0093C11.0053 10.4593 11.4553 10.0093 12.0053 10.0093C12.5553 10.0093 13.0053 10.4593 13.0053 11.0093V13.0093C13.0053 13.5593 12.5553 14.0093 12.0053 14.0093Z" fill="#7B7B7C"/>
</svg>
