<svg width="24" height="24" viewBox="0 0 24 24" fill="none" xmlns="http://www.w3.org/2000/svg">
<path d="M4.10526 3.00781L2 5.11308L3.48026 7.33347C3.87079 7.91979 4.52875 8.27097 5.23191 8.27097H5.77467L8.62418 11.1205L10.1127 9.63199L7.26316 6.78248V6.23972C7.26316 5.53656 6.91197 4.8786 6.32566 4.48808L4.10526 3.00781ZM17.7895 3.00781C15.4642 3.00781 13.5789 4.89308 13.5789 7.21834C13.5789 7.83545 13.7187 8.4172 13.9572 8.94531L3.36102 19.5415C2.94944 19.9531 2.94944 20.6195 3.36102 21.03L3.9778 21.6468C4.38832 22.0584 5.0547 22.0584 5.46628 21.6468L11.6094 15.5037L17.6373 21.5317C18.2015 22.0959 19.1147 22.0969 19.6789 21.5317L20.5238 20.6867C21.0881 20.1235 21.0881 19.2094 20.5238 18.6451L14.4959 12.6172L16.0625 11.0506C16.5906 11.2891 17.1724 11.4289 17.7895 11.4289C20.1147 11.4289 22 9.5436 22 7.21834C22 6.6015 21.8607 6.01873 21.6217 5.49137L18.8421 8.27097L16.7368 6.16571L19.5164 3.3861C18.9891 3.14715 18.4063 3.00781 17.7895 3.00781Z" fill="#7B7B7C"/>
</svg>
