<svg width="24" height="24" viewBox="0 0 24 24" fill="none" xmlns="http://www.w3.org/2000/svg">
<path d="M8.36364 6.00781C7.64032 6.00781 6.94663 6.29515 6.43516 6.80661C5.9237 7.31808 5.63636 8.01177 5.63636 8.73509C5.63636 9.4584 5.9237 10.1521 6.43516 10.6636C6.94663 11.175 7.64032 11.4624 8.36364 11.4624C9.08695 11.4624 9.78065 11.175 10.2921 10.6636C10.8036 10.1521 11.0909 9.4584 11.0909 8.73509C11.0909 8.01177 10.8036 7.31808 10.2921 6.80661C9.78065 6.29515 9.08695 6.00781 8.36364 6.00781ZM15.6364 6.00781C14.913 6.00781 14.2194 6.29515 13.7079 6.80661C13.1964 7.31808 12.9091 8.01177 12.9091 8.73509C12.9091 9.4584 13.1964 10.1521 13.7079 10.6636C14.2194 11.175 14.913 11.4624 15.6364 11.4624C16.3597 11.4624 17.0534 11.175 17.5648 10.6636C18.0763 10.1521 18.3636 9.4584 18.3636 8.73509C18.3636 8.01177 18.0763 7.31808 17.5648 6.80661C17.0534 6.29515 16.3597 6.00781 15.6364 6.00781ZM8.36364 13.2805C5.63636 13.2805 2 14.6115 2 16.4624V18.7351H14.7273V16.4624C14.7273 14.6115 11.0909 13.2805 8.36364 13.2805ZM15.6364 13.2805C15.3482 13.2805 15.0486 13.2985 14.7468 13.3267C15.8214 14.1131 16.5455 15.1524 16.5455 16.4624V18.7351H22V16.4624C22 14.6115 18.3636 13.2805 15.6364 13.2805Z" fill="#7B7B7C"/>
</svg>
