<svg width="55" height="18" viewBox="0 0 55 18" fill="none" xmlns="http://www.w3.org/2000/svg">
<path id="Vector" d="M40.1712 1.64117C38.9168 1.17214 37.5911 0.936585 36.2562 0.94556C31.9362 0.94556 28.8874 3.18261 28.8649 6.38798C28.8379 8.7452 31.0339 10.0717 32.6922 10.8621C34.3954 11.6709 34.9647 12.1794 34.9602 12.9073C34.9489 14.0097 33.5989 14.5088 32.3457 14.5088C30.6222 14.5088 29.6772 14.2616 28.2259 13.6422L27.6882 13.3857L27.0784 17.0787C28.1269 17.5293 30.0169 17.9153 31.9722 17.9453C36.5644 17.9453 39.5659 15.7244 39.6019 12.3088C39.6379 10.4299 38.4544 9.00403 35.9547 7.83004C34.4382 7.06741 33.4932 6.55668 33.4932 5.78249C33.4932 5.09844 34.3009 4.36816 35.9884 4.36816C37.1107 4.34052 38.226 4.55547 39.2622 4.99906L39.6672 5.18625L40.2769 1.61806L40.1712 1.64117ZM51.3829 1.2483H48.0079C46.9572 1.2483 46.1719 1.5418 45.7107 2.61411L39.2194 17.7142H43.8117L44.7297 15.2414L50.3322 15.2461C50.4694 15.8238 50.8722 17.7142 50.8722 17.7142H54.9199L51.3829 1.2483ZM22.6549 1.10964H27.0267L24.2929 17.5848H19.9189L22.6549 1.10502V1.10964ZM11.5422 10.1896L11.9967 12.4775L16.2739 1.2483H20.9067L14.0194 17.6911H9.39792L5.61792 3.76499C5.55696 3.53549 5.4118 3.33919 5.21292 3.21728C3.85341 2.49194 2.41134 1.9431 0.919922 1.5834L0.976172 1.23675H8.02092C8.97492 1.27372 9.74442 1.5834 10.0077 2.63259L11.5422 10.1965V10.1896ZM45.9852 11.8697L47.7289 7.26154C47.7064 7.30776 48.0889 6.3094 48.3094 5.69005L48.6087 7.11132L49.6189 11.8651H45.9852V11.8697Z" fill="#1A1623"/>
</svg>
