<svg width="181" height="45" viewBox="0 0 181 45" fill="none" xmlns="http://www.w3.org/2000/svg">
<g clip-path="url(#clip0_2150_32534)">
<path d="M77.0319 19.212C77.9138 17.7405 79.3424 17.0412 81.267 17.0412C83.368 17.0412 85.0149 17.9854 85.8549 19.5275C86.3652 18.7495 87.0616 18.1114 87.8809 17.671C88.7002 17.2307 89.6164 17.0021 90.5463 17.0059C94.3626 17.0059 96.8494 19.5275 96.8494 24.3632V32.2831C96.8494 33.4391 96.2894 33.9642 95.0989 33.9642C93.979 33.9642 93.419 33.4391 93.419 32.2831V24.0125C93.419 21.7711 92.1227 20.4033 90.1958 20.4033C88.3064 20.4033 86.9748 21.8748 86.9748 24.0125V32.2831C86.9748 33.3685 86.3443 33.9642 85.2596 33.9642C84.1397 33.9642 83.5797 33.4391 83.5797 32.2831V24.0125C83.5797 21.7711 82.2569 20.4033 80.3565 20.4033C78.3966 20.4033 77.1355 21.8417 77.1355 24.0125V32.2831C77.1355 33.3685 76.505 33.9642 75.4556 33.9642C74.3687 33.9642 73.7734 33.3685 73.7734 32.2831V19.212C73.7734 18.1972 74.1592 17.4251 75.3167 17.4251C76.2955 17.4273 76.8555 17.917 77.0319 19.212Z" fill="#1A1623"/>
<path d="M102.795 25.941C103.179 28.7075 104.779 30.6643 107.974 30.6643C109.349 30.6894 110.685 30.2028 111.722 29.2987C111.907 29.1062 112.131 28.9538 112.377 28.851C112.624 28.7481 112.89 28.697 113.157 28.7009C113.579 28.7073 113.982 28.8803 114.277 29.1824C114.572 29.4845 114.736 29.891 114.733 30.3135C114.733 31.9262 111.896 33.958 107.87 33.958C106.749 33.9618 105.638 33.7431 104.601 33.3144C103.565 32.8857 102.624 32.2557 101.833 31.4607C101.041 30.6657 100.415 29.7215 99.9908 28.6828C99.5665 27.6441 99.3522 26.5315 99.3603 25.4094C99.3603 20.5383 103.143 16.8232 107.87 16.8232C112.771 16.8232 115.853 20.6089 115.853 23.6621C115.853 25.1336 114.943 25.941 113.298 25.941H102.795ZM112.496 23.3467C112.112 21.3149 110.291 20.0552 107.91 20.0552C105.633 20.0552 103.602 21.3149 102.972 23.3467H112.496Z" fill="#1A1623"/>
<path d="M121.621 19.4929C122.282 18.0921 123.863 17.1104 125.649 17.1104C127.434 17.1104 129.815 18.0921 129.815 19.8084C129.815 20.7548 129.185 21.527 128.204 21.527C127.737 21.5266 127.288 21.3511 126.945 21.035C126.398 20.5694 125.701 20.3199 124.983 20.3335C122.811 20.3335 121.656 21.9108 121.656 23.9779V31.6177C121.656 33.1619 121.341 33.965 119.976 33.965C118.68 33.965 118.365 33.1575 118.365 31.5382V19.3187C118.365 18.2311 118.821 17.5317 119.835 17.5317C121.061 17.5317 121.376 18.1274 121.621 19.4929Z" fill="#1A1623"/>
<path d="M134.502 25.9413C134.888 28.7077 136.487 30.6711 139.686 30.6711C141.061 30.6963 142.396 30.2097 143.433 29.3056C143.619 29.1131 143.842 28.9608 144.089 28.858C144.336 28.7552 144.601 28.704 144.869 28.7077C145.291 28.7135 145.694 28.8864 145.989 29.1886C146.285 29.4908 146.449 29.8977 146.445 30.3204C146.445 31.933 143.61 33.9648 139.582 33.9648C138.461 33.9687 137.35 33.7499 136.313 33.3212C135.277 32.8925 134.336 32.2624 133.545 31.4674C132.754 30.6723 132.128 29.7281 131.704 28.6895C131.28 27.6508 131.066 26.5382 131.074 25.4162C131.074 20.5451 134.855 16.8301 139.582 16.8301C144.485 16.8301 147.565 20.6157 147.565 23.669C147.565 25.1405 146.654 25.9479 145.01 25.9479L134.502 25.9413ZM144.203 23.3469C143.817 21.3151 141.998 20.0554 139.615 20.0554C137.34 20.0554 135.307 21.3151 134.679 23.3469H144.203Z" fill="#1A1623"/>
<path d="M153.471 27.1343V32.1091C153.471 33.371 152.911 33.9666 151.791 33.9666C150.636 33.9666 150.076 33.371 150.076 32.1091V11.2504C150.076 9.98851 150.636 9.32227 151.791 9.32227C152.911 9.32227 153.471 9.9841 153.471 11.2504V22.5677L158.828 17.8378C159.171 17.5146 159.619 17.3278 160.089 17.3128C161.035 17.3128 161.769 17.9746 161.769 18.8879C161.76 19.1571 161.69 19.4205 161.562 19.6578C161.435 19.895 161.254 20.0996 161.035 20.2557L155.537 24.776L161.981 30.9067C162.541 31.4318 162.715 31.8885 162.715 32.3429C162.712 32.7634 162.547 33.1664 162.253 33.4671C161.96 33.7679 161.561 33.943 161.141 33.9556C160.72 33.9556 160.259 33.7791 159.739 33.2937L153.471 27.1343Z" fill="#1A1623"/>
<path d="M178.855 17.0769C179.94 17.0769 180.502 17.6725 180.502 18.8969V31.7673C180.502 33.1704 180.152 33.8697 178.926 33.8697C177.874 33.8697 177.35 33.0645 177.176 31.3834C176.333 32.9277 174.129 33.9756 171.884 33.9756C167.228 33.9756 163.972 30.2252 163.972 25.427C163.972 20.5559 167.193 16.8408 171.884 16.8408C174.162 16.8408 176.366 17.7872 177.242 19.5036C177.312 18.266 177.627 17.0769 178.855 17.0769ZM167.371 25.4159C167.371 28.3236 169.402 30.6003 172.237 30.6003C175.072 30.6003 177.105 28.3236 177.105 25.4159C177.105 22.612 175.074 20.2294 172.237 20.2294C169.4 20.2294 167.369 22.612 167.369 25.4159H167.371Z" fill="#1A1623"/>
<path d="M48.2946 44.9601C52.9506 44.9601 56.7251 41.1832 56.7251 36.524C56.7251 31.8649 52.9506 28.0879 48.2946 28.0879C43.6385 28.0879 39.864 31.8649 39.864 36.524C39.864 41.1832 43.6385 44.9601 48.2946 44.9601Z" fill="#1A1623"/>
<path d="M36.806 24.377C36.6869 24.7167 36.584 25.0638 36.4973 25.4182C36.5216 25.3521 36.5458 25.2881 36.5679 25.2219C36.623 25.0013 36.6847 24.8071 36.7508 24.602C36.7707 24.527 36.7905 24.452 36.806 24.377Z" fill="#1A1623"/>
<path d="M28.6577 14.0654C28.8429 14.0765 29.0281 14.0853 29.2155 14.0875C29.0303 14.0743 28.8451 14.0654 28.6577 14.0654Z" fill="#1A1623"/>
<path d="M20.1543 22.502C20.1556 24.4819 20.8526 26.3983 22.1233 27.916C23.394 29.4336 25.1576 30.4557 27.1055 30.8036C29.0533 31.1515 31.0613 30.8029 32.7783 29.8188C34.4952 28.8348 35.8116 27.2779 36.4973 25.4207C36.5825 25.0662 36.6854 24.7191 36.8059 24.3794C37.5763 22.1787 39.0109 20.2719 40.9114 18.9226C42.8119 17.5734 45.0844 16.8483 47.4147 16.8478H47.6219C47.8071 16.8478 47.9901 16.8588 48.1731 16.8698H48.2568C49.8064 16.8697 51.3259 16.4424 52.6487 15.6348C53.9714 14.8271 55.0462 13.6704 55.755 12.2916C56.4639 10.9128 56.7793 9.36517 56.6668 7.81869C56.5543 6.27222 56.0181 4.78668 55.1171 3.52515C54.2162 2.26362 52.9853 1.27489 51.5596 0.66751C50.1339 0.0601275 48.5685 -0.142422 47.0353 0.0820992C45.5021 0.30662 44.0603 0.94953 42.8683 1.94025C41.6763 2.93096 40.7802 4.23117 40.2782 5.69814C40.2209 5.91875 40.1548 6.13936 40.082 6.35997C39.3402 8.60678 37.9093 10.5623 35.9928 11.9486C34.0763 13.3348 31.7719 14.0811 29.4072 14.0813H29.2154C29.028 14.0813 28.8428 14.0813 28.6576 14.0593H28.5848C27.4772 14.0595 26.3806 14.2782 25.3574 14.7026C24.3343 15.1271 23.4047 15.7491 22.6219 16.5331C21.839 17.3171 21.2181 18.2478 20.7947 19.2719C20.3713 20.2961 20.1537 21.3937 20.1543 22.502Z" fill="#1A1623"/>
<path d="M48.1732 16.8717C47.9902 16.8717 47.8073 16.8518 47.6221 16.8496C47.805 16.8628 47.988 16.8717 48.1732 16.8717Z" fill="#1A1623"/>
<path d="M40.082 6.37374C40.1548 6.15313 40.2209 5.93252 40.2782 5.71191C40.2792 5.71627 40.2792 5.72079 40.2782 5.72515C40.2231 5.93473 40.1614 6.1421 40.0953 6.34507C40.0902 6.3543 40.0858 6.36388 40.082 6.37374Z" fill="#1A1623"/>
<path d="M20.3813 24.377C20.5004 24.7167 20.6033 25.0638 20.69 25.4182C20.6657 25.3521 20.6437 25.2881 20.6217 25.2219C20.5643 25.0013 20.5048 24.8071 20.4365 24.602C20.4166 24.527 20.399 24.452 20.3813 24.377Z" fill="#1A1623"/>
<path d="M28.5299 14.0654C28.347 14.0765 28.1596 14.0853 27.9744 14.0875C28.1574 14.0743 28.3425 14.0654 28.5299 14.0654Z" fill="#1A1623"/>
<path d="M37.0353 22.502C37.034 24.4819 36.3371 26.3983 35.0663 27.916C33.7956 29.4336 32.032 30.4557 30.0842 30.8036C28.1363 31.1515 26.1283 30.8029 24.4114 29.8188C22.6944 28.8348 21.378 27.2779 20.6923 25.4207C20.6071 25.0662 20.5042 24.7191 20.3837 24.3794C19.6132 22.1783 18.1783 20.2713 16.2773 18.922C14.3764 17.5727 12.1034 16.8479 9.77275 16.8478H9.56551C9.38032 16.8478 9.19734 16.8588 9.01656 16.8698H8.93058C7.38078 16.87 5.8609 16.4428 4.53786 15.6352C3.21482 14.8275 2.1398 13.6706 1.43085 12.2916C0.721905 10.9125 0.406458 9.36461 0.519154 7.81789C0.631849 6.27117 1.16833 4.78544 2.06967 3.52387C2.97102 2.26229 4.20237 1.27368 5.62849 0.66659C7.0546 0.0595023 8.62033 -0.142575 10.1537 0.0825515C11.6871 0.307678 13.1288 0.9513 14.3206 1.94273C15.5123 2.93417 16.408 4.23506 16.9092 5.70255C16.9687 5.92316 17.0348 6.14377 17.1076 6.36438C17.8493 8.61084 19.2799 10.5661 21.1959 11.9523C23.112 13.3385 25.4159 14.085 27.7802 14.0857H27.9743C28.1594 14.0857 28.3468 14.0857 28.5298 14.0637H28.6026C29.71 14.0637 30.8065 14.2819 31.8296 14.706C32.8528 15.1301 33.7824 15.7516 34.5654 16.5352C35.3485 17.3188 35.9696 18.249 36.3934 19.2728C36.8172 20.2966 37.0353 21.3939 37.0353 22.502Z" fill="#1A1623"/>
<path d="M9.0166 16.8717C9.19738 16.8717 9.38037 16.8518 9.56556 16.8496C9.38478 16.8628 9.20179 16.8717 9.0166 16.8717Z" fill="#1A1623"/>
<path d="M17.1076 6.37374C17.0348 6.15313 16.9687 5.93252 16.9092 5.71191C16.9092 5.71191 16.9092 5.71191 16.9092 5.72515C16.9643 5.93473 17.026 6.1421 17.0944 6.34507C17.101 6.34948 17.1054 6.36051 17.1076 6.37374Z" fill="#1A1623"/>
<path d="M14.9847 30.6646C16.1442 31.852 16.9279 33.3554 17.2374 34.9864C17.547 36.6175 17.3688 38.3037 16.725 39.8339C16.0813 41.364 15.0006 42.6701 13.6185 43.5884C12.2363 44.5068 10.6141 44.9967 8.95497 44.9967C7.29585 44.9967 5.67361 44.5068 4.29145 43.5884C2.90929 42.6701 1.82866 41.364 1.18491 39.8339C0.541156 38.3037 0.362909 36.6175 0.672491 34.9864C0.982073 33.3554 1.76572 31.852 2.92528 30.6646C3.01934 30.5763 3.11194 30.4859 3.20306 30.3932C5.27594 28.2911 6.43585 25.4552 6.43066 22.502C6.43453 19.5454 5.27136 16.7069 3.19424 14.6042L2.92528 14.3394C1.76497 13.1519 0.980667 11.6481 0.670641 10.0165C0.360615 8.38488 0.538649 6.698 1.18244 5.16718C1.82623 3.63637 2.90714 2.3297 4.28976 1.41088C5.67238 0.492064 7.29522 0.00195313 8.95497 0.00195312C10.6147 0.00195313 12.2376 0.492064 13.6202 1.41088C15.0028 2.3297 16.0837 3.63637 16.7275 5.16718C17.3713 6.698 17.5493 8.38488 17.2393 10.0165C16.9293 11.6481 16.145 13.1519 14.9847 14.3394L14.7047 14.6042C12.6319 16.7092 11.47 19.5457 11.47 22.5009C11.47 25.4561 12.6319 28.2926 14.7047 30.3976C14.7973 30.4903 14.8877 30.5807 14.9825 30.669L14.9847 30.6646Z" fill="#1A1623"/>
</g>
<defs>
<clipPath id="clip0_2150_32534">
<rect width="180" height="45" fill="white" transform="translate(0.5)"/>
</clipPath>
</defs>
</svg>
