<svg width="46" height="38" viewBox="0 0 46 38" fill="none" xmlns="http://www.w3.org/2000/svg">
<g clip-path="url(#clip0_1187_6185)">
<path d="M38.2635 36.9726C41.9909 36.9726 45.0124 33.951 45.0124 30.2237C45.0124 26.4963 41.9909 23.4748 38.2635 23.4748C34.5362 23.4748 31.5146 26.4963 31.5146 30.2237C31.5146 33.951 34.5362 36.9726 38.2635 36.9726Z" fill="black"/>
<path d="M29.0664 20.5058C28.9711 20.7776 28.8888 21.0552 28.8193 21.3388C28.8387 21.2858 28.8582 21.2347 28.8758 21.1817C28.9199 21.0052 28.9693 20.8499 29.0223 20.6858C29.0382 20.6258 29.0541 20.5658 29.0664 20.5058Z" fill="black"/>
<path d="M22.5439 12.2567C22.6922 12.2656 22.8404 12.2726 22.9905 12.2744C22.8422 12.2638 22.694 12.2567 22.5439 12.2567Z" fill="black"/>
<path d="M15.7363 19.0058C15.7374 20.5897 16.2953 22.1228 17.3126 23.3369C18.3298 24.551 19.7416 25.3688 21.3009 25.647C22.8602 25.9253 24.4677 25.6465 25.8422 24.8592C27.2166 24.072 28.2705 22.8265 28.8194 21.3407C28.8876 21.0571 28.97 20.7795 29.0665 20.5077C29.6831 18.7471 30.8316 17.2217 32.353 16.1423C33.8744 15.0629 35.6936 14.4828 37.5591 14.4824H37.725C37.8732 14.4824 38.0197 14.4912 38.1662 14.5H38.2332C39.4737 14.4999 40.6901 14.1581 41.749 13.512C42.8079 12.8659 43.6683 11.9405 44.2358 10.8374C44.8032 9.73437 45.0558 8.49629 44.9657 7.25911C44.8756 6.02194 44.4464 4.8335 43.7251 3.82428C43.0039 2.81505 42.0185 2.02407 40.8772 1.53816C39.7359 1.05226 38.4827 0.890219 37.2553 1.06984C36.028 1.24945 34.8738 1.76378 33.9196 2.55635C32.9654 3.34893 32.248 4.3891 31.8461 5.56267C31.8003 5.73916 31.7473 5.91564 31.6891 6.09213C31.0952 7.88958 29.9497 9.45404 28.4155 10.563C26.8813 11.672 25.0365 12.269 23.1435 12.2692H22.99C22.84 12.2692 22.6917 12.2692 22.5435 12.2516H22.4852C21.5986 12.2518 20.7206 12.4267 19.9016 12.7663C19.0825 13.1058 18.3384 13.6034 17.7117 14.2307C17.085 14.8579 16.5879 15.6024 16.249 16.4217C15.9101 17.241 15.7359 18.1191 15.7363 19.0058Z" fill="black"/>
<path d="M38.1668 14.5017C38.0203 14.5017 37.8738 14.4858 37.7256 14.484C37.8721 14.4946 38.0185 14.5017 38.1668 14.5017Z" fill="black"/>
<path d="M31.6895 6.10261C31.7477 5.92613 31.8006 5.74964 31.8465 5.57315C31.8473 5.57664 31.8473 5.58025 31.8465 5.58374C31.8024 5.7514 31.753 5.9173 31.7 6.07967C31.696 6.08706 31.6924 6.09472 31.6895 6.10261Z" fill="black"/>
<path d="M15.918 20.5058C16.0133 20.7776 16.0956 21.0552 16.1651 21.3388C16.1456 21.2858 16.128 21.2347 16.1103 21.1817C16.0645 21.0052 16.0168 20.8499 15.9621 20.6858C15.9462 20.6258 15.9321 20.5658 15.918 20.5058Z" fill="black"/>
<path d="M22.4408 12.2567C22.2944 12.2656 22.1443 12.2726 21.9961 12.2744C22.1426 12.2638 22.2908 12.2567 22.4408 12.2567Z" fill="black"/>
<path d="M29.2501 19.0058C29.2491 20.5897 28.6912 22.1228 27.6739 23.3369C26.6566 24.551 25.2448 25.3688 23.6855 25.647C22.1262 25.9253 20.5187 25.6465 19.1443 24.8592C17.7698 24.072 16.716 22.8265 16.1671 21.3407C16.0989 21.0571 16.0165 20.7795 15.92 20.5077C15.3032 18.7468 14.1545 17.2212 12.6327 16.1418C11.111 15.0623 9.29138 14.4825 7.42565 14.4824H7.25975C7.1115 14.4824 6.96502 14.4912 6.8203 14.5H6.75147C5.51081 14.5002 4.2941 14.1584 3.23497 13.5123C2.17584 12.8662 1.31525 11.9406 0.747715 10.8374C0.180182 9.73416 -0.0723425 8.49585 0.0178738 7.25847C0.10809 6.02109 0.537558 4.83251 1.25911 3.82325C1.98066 2.81399 2.96639 2.0231 4.10804 1.53743C5.2497 1.05176 6.50311 0.890097 7.73063 1.0702C8.95815 1.2503 10.1123 1.7652 11.0663 2.55834C12.0203 3.35149 12.7373 4.39221 13.1386 5.5662C13.1862 5.74269 13.2392 5.91917 13.2974 6.09566C13.8912 7.89283 15.0364 9.45708 16.5702 10.566C18.1041 11.675 19.9485 12.2722 21.8412 12.2727H21.9965C22.1447 12.2727 22.2948 12.2727 22.4412 12.2551H22.4995C23.386 12.2551 24.2638 12.4297 25.0828 12.769C25.9019 13.1082 26.6461 13.6055 27.2729 14.2323C27.8998 14.8592 28.397 15.6034 28.7363 16.4224C29.0755 17.2414 29.2501 18.1192 29.2501 19.0058Z" fill="black"/>
<path d="M6.82031 14.5017C6.96503 14.5017 7.11152 14.4858 7.25977 14.484C7.11505 14.4946 6.96856 14.5017 6.82031 14.5017Z" fill="black"/>
<path d="M13.2975 6.10261C13.2393 5.92613 13.1863 5.74964 13.1387 5.57315C13.1387 5.57315 13.1387 5.57315 13.1387 5.58374C13.1828 5.7514 13.2322 5.9173 13.2869 6.07967C13.2922 6.0832 13.2957 6.09203 13.2975 6.10261Z" fill="black"/>
<path d="M11.5981 25.5356C12.5264 26.4856 13.1537 27.6883 13.4015 28.9931C13.6494 30.298 13.5067 31.6469 12.9913 32.871C12.476 34.0952 11.6109 35.14 10.5045 35.8747C9.39799 36.6094 8.09935 37.0013 6.77117 37.0013C5.443 37.0013 4.14435 36.6094 3.03789 35.8747C1.93143 35.14 1.06635 34.0952 0.551011 32.871C0.0356695 31.6469 -0.107023 30.298 0.140806 28.9931C0.388636 27.6883 1.01597 26.4856 1.94423 25.5356C2.01953 25.465 2.09366 25.3927 2.1666 25.3185C3.82601 23.6368 4.75455 21.3681 4.75039 19.0056C4.75349 16.6403 3.82233 14.3695 2.15954 12.6873L1.94423 12.4755C1.01536 11.5255 0.38751 10.3224 0.139325 9.01715C-0.10886 7.71186 0.033662 6.36236 0.549034 5.13771C1.06441 3.91306 1.92971 2.86772 3.03654 2.13267C4.14337 1.39761 5.4425 1.00552 6.77117 1.00552C8.09985 1.00552 9.39898 1.39761 10.5058 2.13267C11.6126 2.86772 12.4779 3.91306 12.9933 5.13771C13.5087 6.36236 13.6512 7.71186 13.403 9.01715C13.1548 10.3224 12.527 11.5255 11.5981 12.4755L11.374 12.6873C9.71467 14.3713 8.78453 16.6405 8.78453 19.0047C8.78453 21.3688 9.71467 23.6381 11.374 25.3221C11.4481 25.3962 11.5205 25.4686 11.5964 25.5392L11.5981 25.5356Z" fill="black"/>
</g>
<defs>
<clipPath id="clip0_1187_6185">
<rect width="45.0124" height="36.0026" fill="white" transform="translate(0 0.998688)"/>
</clipPath>
</defs>
</svg>
