<svg width="144" height="36" viewBox="0 0 144 36" fill="currentColor" xmlns="http://www.w3.org/2000/svg">
<g id="Vector group">
<path id="Vector" d="M61.2254 15.3704C61.9309 14.1932 63.0738 13.6337 64.6135 13.6337C66.2943 13.6337 67.6118 14.3891 68.2838 15.6228C68.6921 15.0004 69.2492 14.4899 69.9046 14.1376C70.56 13.7853 71.293 13.6024 72.037 13.6055C75.09 13.6055 77.0794 15.6228 77.0794 19.4914V25.8273C77.0794 26.7521 76.6314 27.1721 75.679 27.1721C74.7831 27.1721 74.3351 26.7521 74.3351 25.8273V19.2108C74.3351 17.4176 73.298 16.3234 71.7565 16.3234C70.245 16.3234 69.1798 17.5006 69.1798 19.2108V25.8273C69.1798 26.6956 68.6753 27.1721 67.8076 27.1721C66.9116 27.1721 66.4636 26.7521 66.4636 25.8273V19.2108C66.4636 17.4176 65.4054 16.3234 63.8851 16.3234C62.3172 16.3234 61.3083 17.4741 61.3083 19.2108V25.8273C61.3083 26.6956 60.8039 27.1721 59.9644 27.1721C59.0949 27.1721 58.6187 26.6956 58.6187 25.8273V15.3704C58.6187 14.5585 58.9273 13.9408 59.8533 13.9408C60.6363 13.9426 61.0843 14.3344 61.2254 15.3704Z" fill="#1A1623"/>
<path id="Vector_2" d="M81.8364 20.7537C82.1433 22.9669 83.4238 24.5323 85.9794 24.5323C87.0796 24.5524 88.148 24.1631 88.9777 23.4399C89.1262 23.2858 89.3048 23.1639 89.5023 23.0816C89.6998 22.9994 89.912 22.9585 90.1259 22.9616C90.4636 22.9667 90.7857 23.1052 91.0219 23.3468C91.2581 23.5884 91.3893 23.9137 91.387 24.2517C91.387 25.5418 89.117 27.1673 85.8965 27.1673C84.9994 27.1703 84.1106 26.9953 83.2815 26.6524C82.4524 26.3095 81.6995 25.8054 81.0664 25.1694C80.4332 24.5334 79.9324 23.7781 79.5929 22.9471C79.2535 22.1162 79.082 21.2261 79.0886 20.3284C79.0886 16.4315 82.1151 13.4595 85.8965 13.4595C89.8172 13.4595 92.2829 16.488 92.2829 18.9306C92.2829 20.1078 91.5545 20.7537 90.2388 20.7537H81.8364ZM89.5968 18.6782C89.2899 17.0528 87.8331 16.045 85.9282 16.045C84.1063 16.045 82.4819 17.0528 81.9775 18.6782H89.5968Z" fill="#1A1623"/>
<path id="Vector_3" d="M96.8965 15.595C97.4256 14.4743 98.6902 13.689 100.119 13.689C101.547 13.689 103.452 14.4743 103.452 15.8474C103.452 16.6045 102.948 17.2223 102.163 17.2223C101.79 17.222 101.43 17.0815 101.156 16.8287C100.719 16.4562 100.16 16.2566 99.5862 16.2675C97.8489 16.2675 96.9247 17.5293 96.9247 19.183V25.2948C96.9247 26.5302 96.6725 27.1726 95.5808 27.1726C94.5437 27.1726 94.2915 26.5267 94.2915 25.2313V15.4556C94.2915 14.5855 94.6566 14.0261 95.4679 14.0261C96.4485 14.0261 96.7007 14.5026 96.8965 15.595Z" fill="#1A1623"/>
<path id="Vector_4" d="M107.202 20.7533C107.51 22.9665 108.789 24.5372 111.348 24.5372C112.448 24.5573 113.517 24.168 114.347 23.4447C114.495 23.2908 114.674 23.1689 114.871 23.0867C115.069 23.0044 115.281 22.9635 115.495 22.9665C115.833 22.9711 116.155 23.1094 116.391 23.3512C116.628 23.5929 116.759 23.9184 116.756 24.2566C116.756 25.5467 114.488 27.1722 111.265 27.1722C110.368 27.1752 109.48 27.0002 108.651 26.6573C107.822 26.3143 107.069 25.8102 106.436 25.1742C105.803 24.5382 105.302 23.7828 104.963 22.9519C104.624 22.1209 104.452 21.2309 104.459 20.3333C104.459 16.4364 107.484 13.4644 111.265 13.4644C115.188 13.4644 117.652 16.4929 117.652 18.9355C117.652 20.1127 116.923 20.7586 115.608 20.7586L107.202 20.7533ZM114.962 18.6778C114.653 17.0524 113.198 16.0446 111.292 16.0446C109.472 16.0446 107.846 17.0524 107.343 18.6778H114.962Z" fill="#1A1623"/>
<path id="Vector_5" d="M122.377 21.7086V25.6884C122.377 26.6979 121.929 27.1745 121.033 27.1745C120.109 27.1745 119.661 26.6979 119.661 25.6884V9.00149C119.661 7.99198 120.109 7.45898 121.033 7.45898C121.929 7.45898 122.377 7.98845 122.377 9.00149V18.0553L126.663 14.2714C126.937 14.0128 127.296 13.8634 127.672 13.8514C128.429 13.8514 129.016 14.3808 129.016 15.1115C129.009 15.3268 128.952 15.5376 128.85 15.7274C128.748 15.9172 128.604 16.0809 128.429 16.2057L124.03 19.822L129.185 24.7266C129.633 25.1466 129.772 25.5119 129.772 25.8755C129.77 26.2119 129.638 26.5343 129.403 26.7749C129.168 27.0155 128.849 27.1556 128.513 27.1656C128.176 27.1656 127.808 27.0244 127.391 26.6362L122.377 21.7086Z" fill="#1A1623"/>
<path id="Vector_6" d="M142.685 13.6625C143.552 13.6625 144.002 14.139 144.002 15.1185V25.4148C144.002 26.5373 143.722 27.0967 142.741 27.0967C141.9 27.0967 141.48 26.4526 141.341 25.1077C140.667 26.3431 138.903 27.1814 137.108 27.1814C133.383 27.1814 130.778 24.1812 130.778 20.3425C130.778 16.4457 133.355 13.4736 137.108 13.4736C138.93 13.4736 140.693 14.2308 141.394 15.6038C141.45 14.6137 141.702 13.6625 142.685 13.6625ZM133.497 20.3337C133.497 22.6598 135.122 24.4812 137.39 24.4812C139.658 24.4812 141.284 22.6598 141.284 20.3337C141.284 18.0906 139.66 16.1845 137.39 16.1845C135.12 16.1845 133.496 18.0906 133.496 20.3337H133.497Z" fill="#1A1623"/>
<path id="Vector_7" d="M38.2356 35.969C41.9605 35.969 44.9801 32.9474 44.9801 29.2201C44.9801 25.4928 41.9605 22.4712 38.2356 22.4712C34.5108 22.4712 31.4912 25.4928 31.4912 29.2201C31.4912 32.9474 34.5108 35.969 38.2356 35.969Z" fill="#1A1623"/>
<path id="Vector_8" d="M29.0448 19.502C28.9495 19.7737 28.8672 20.0514 28.7979 20.335C28.8173 20.282 28.8367 20.2308 28.8543 20.1779C28.8984 20.0014 28.9478 19.8461 29.0007 19.682C29.0166 19.622 29.0324 19.562 29.0448 19.502Z" fill="#1A1623"/>
<path id="Vector_9" d="M22.5264 11.2534C22.6745 11.2622 22.8227 11.2693 22.9726 11.2711C22.8244 11.2605 22.6763 11.2534 22.5264 11.2534Z" fill="#1A1623"/>
<path id="Vector_10" d="M15.7236 18.0022C15.7247 19.5861 16.2822 21.1193 17.2988 22.3334C18.3154 23.5475 19.7263 24.3652 21.2846 24.6435C22.8428 24.9218 24.4493 24.6429 25.8228 23.8556C27.1963 23.0684 28.2495 21.8229 28.798 20.3371C28.8662 20.0536 28.9485 19.7759 29.0449 19.5041C29.6612 17.7435 30.8089 16.2181 32.3293 15.1387C33.8497 14.0593 35.6677 13.4793 37.5319 13.4788H37.6977C37.8459 13.4788 37.9923 13.4876 38.1386 13.4964H38.2057C39.4453 13.4964 40.6609 13.1545 41.7191 12.5084C42.7773 11.8623 43.6372 10.9369 44.2042 9.83385C44.7713 8.7308 45.0237 7.49272 44.9336 6.25554C44.8436 5.01837 44.4147 3.82993 43.6939 2.82071C42.9731 1.81148 41.9884 1.0205 40.8479 0.534594C39.7073 0.0486879 38.455 -0.113352 37.2284 0.0662653C36.0018 0.245882 34.8485 0.76021 33.8949 1.55278C32.9413 2.34536 32.2243 3.38553 31.8228 4.5591C31.7769 4.73559 31.724 4.91207 31.6658 5.08856C31.0723 6.88601 29.9276 8.45047 28.3944 9.55944C26.8613 10.6684 25.0177 11.2654 23.1259 11.2656H22.9725C22.8226 11.2656 22.6744 11.2656 22.5263 11.248H22.4681C21.582 11.2482 20.7046 11.4231 19.8861 11.7627C19.0676 12.1023 18.324 12.5999 17.6977 13.2271C17.0714 13.8543 16.5747 14.5988 16.236 15.4181C15.8973 16.2375 15.7232 17.1155 15.7236 18.0022Z" fill="#1A1623"/>
<path id="Vector_11" d="M38.1387 13.4981C37.9923 13.4981 37.8459 13.4822 37.6978 13.4805C37.8441 13.4911 37.9905 13.4981 38.1387 13.4981Z" fill="#1A1623"/>
<path id="Vector_12" d="M31.666 5.09929C31.7242 4.9228 31.7771 4.74631 31.823 4.56982C31.8238 4.57331 31.8238 4.57693 31.823 4.58041C31.7789 4.74808 31.7295 4.91398 31.6766 5.07635C31.6725 5.08373 31.669 5.0914 31.666 5.09929Z" fill="#1A1623"/>
<path id="Vector_13" d="M15.9053 19.502C16.0005 19.7737 16.0828 20.0514 16.1522 20.335C16.1328 20.282 16.1152 20.2308 16.0975 20.1779C16.0517 20.0014 16.004 19.8461 15.9494 19.682C15.9335 19.622 15.9194 19.562 15.9053 19.502Z" fill="#1A1623"/>
<path id="Vector_14" d="M22.424 11.2534C22.2776 11.2622 22.1276 11.2693 21.9795 11.2711C22.1259 11.2605 22.274 11.2534 22.424 11.2534Z" fill="#1A1623"/>
<path id="Vector_15" d="M29.2284 18.0022C29.2273 19.5861 28.6697 21.1193 27.6532 22.3334C26.6366 23.5475 25.2257 24.3652 23.6674 24.6435C22.1092 24.9218 20.5027 24.6429 19.1292 23.8556C17.7556 23.0684 16.7025 21.8229 16.154 20.3371C16.0858 20.0536 16.0035 19.7759 15.907 19.5041C15.2907 17.7433 14.1427 16.2176 12.6219 15.1382C11.1012 14.0588 9.28279 13.4789 7.4183 13.4788H7.25251C7.10436 13.4788 6.95797 13.4876 6.81335 13.4964H6.74456C5.50472 13.4966 4.28882 13.1548 3.23039 12.5087C2.17195 11.8626 1.31194 10.9371 0.744779 9.83383C0.177621 8.73059 -0.0747361 7.49228 0.0154206 6.2549C0.105577 5.01752 0.534761 3.82894 1.25584 2.81968C1.97691 1.81042 2.96199 1.01953 4.10289 0.533858C5.24378 0.0481878 6.49636 -0.113474 7.72307 0.0666272C8.94978 0.246728 10.1032 0.761626 11.0566 1.55477C12.0099 2.34792 12.7265 3.38863 13.1274 4.56263C13.1751 4.73912 13.228 4.9156 13.2862 5.09209C13.8796 6.88926 15.024 8.4535 16.5568 9.56245C18.0897 10.6714 19.9328 11.2686 21.8243 11.2692H21.9795C22.1277 11.2692 22.2776 11.2692 22.424 11.2515H22.4822C23.3681 11.2515 24.2453 11.4261 25.0638 11.7654C25.8823 12.1046 26.626 12.6019 27.2524 13.2287C27.8789 13.8556 28.3758 14.5998 28.7148 15.4188C29.0539 16.2378 29.2284 17.1157 29.2284 18.0022Z" fill="#1A1623"/>
<path id="Vector_16" d="M6.81348 13.4981C6.9581 13.4981 7.10449 13.4822 7.25264 13.4805C7.10802 13.4911 6.96163 13.4981 6.81348 13.4981Z" fill="#1A1623"/>
<path id="Vector_17" d="M13.2862 5.09929C13.228 4.9228 13.1751 4.74631 13.1274 4.56982C13.1274 4.56982 13.1274 4.56982 13.1274 4.58041C13.1715 4.74808 13.2209 4.91398 13.2756 5.07635C13.2809 5.07988 13.2844 5.0887 13.2862 5.09929Z" fill="#1A1623"/>
<path id="Vector_18" d="M11.5875 24.532C12.5152 25.482 13.1421 26.6847 13.3898 27.9895C13.6374 29.2944 13.4948 30.6434 12.9798 31.8675C12.4648 33.0916 11.6003 34.1364 10.4946 34.8712C9.38886 35.6059 8.09107 35.9977 6.76378 35.9977C5.43648 35.9977 4.13869 35.6059 3.03297 34.8712C1.92724 34.1364 1.06273 33.0916 0.547731 31.8675C0.0327298 30.6434 -0.109868 29.2944 0.137797 27.9895C0.385463 26.6847 1.01238 25.482 1.94003 24.532C2.01528 24.4615 2.08935 24.3891 2.16225 24.315C3.82056 22.6333 4.74849 20.3646 4.74433 18.002C4.74743 15.6367 3.81689 13.3659 2.1552 11.6837L1.94003 11.4719C1.01178 10.5219 0.384338 9.31887 0.136317 8.01358C-0.111704 6.70829 0.0307236 5.35879 0.545755 4.13414C1.06079 2.90949 1.92552 1.86415 3.03162 1.1291C4.13771 0.394042 5.43598 0.00195313 6.76378 0.00195312C8.09157 0.00195313 9.38985 0.394042 10.4959 1.1291C11.602 1.86415 12.4668 2.90949 12.9818 4.13414C13.4968 5.35879 13.6393 6.70829 13.3912 8.01358C13.1432 9.31887 12.5158 10.5219 11.5875 11.4719L11.3635 11.6837C9.70533 13.3677 8.77581 15.637 8.77581 18.0011C8.77581 20.3653 9.70533 22.6345 11.3635 24.3185C11.4376 24.3926 11.5099 24.465 11.5858 24.5356L11.5875 24.532Z" fill="#1A1623"/>
</g>
</svg>
