<svg width="144" height="36" viewBox="0 0 144 36" fill="currentColor" xmlns="http://www.w3.org/2000/svg">
<g id="Vector group">
<path id="Vector" d="M61.224 15.3704C61.9294 14.1932 63.0723 13.6337 64.612 13.6337C66.2929 13.6337 67.6104 14.3891 68.2823 15.6228C68.6906 15.0004 69.2477 14.4899 69.9031 14.1376C70.5586 13.7853 71.2915 13.6024 72.0355 13.6055C75.0885 13.6055 77.078 15.6228 77.078 19.4914V25.8273C77.078 26.7521 76.63 27.1721 75.6776 27.1721C74.7816 27.1721 74.3336 26.7521 74.3336 25.8273V19.2108C74.3336 17.4176 73.2966 16.3234 71.7551 16.3234C70.2436 16.3234 69.1783 17.5006 69.1783 19.2108V25.8273C69.1783 26.6956 68.6739 27.1721 67.8061 27.1721C66.9102 27.1721 66.4622 26.7521 66.4622 25.8273V19.2108C66.4622 17.4176 65.404 16.3234 63.8836 16.3234C62.3157 16.3234 61.3068 17.4741 61.3068 19.2108V25.8273C61.3068 26.6956 60.8024 27.1721 59.9629 27.1721C59.0934 27.1721 58.6172 26.6956 58.6172 25.8273V15.3704C58.6172 14.5585 58.9258 13.9408 59.8518 13.9408C60.6349 13.9426 61.0829 14.3344 61.224 15.3704Z" fill="white"/>
<path id="Vector_2" d="M81.834 20.7552C82.1409 22.9683 83.4213 24.5338 85.977 24.5338C87.0771 24.5539 88.1456 24.1646 88.9753 23.4413C89.1238 23.2873 89.3023 23.1654 89.4998 23.0831C89.6973 23.0008 89.9096 22.96 90.1234 22.963C90.4612 22.9682 90.7833 23.1066 91.0195 23.3483C91.2557 23.5899 91.3869 23.9152 91.3845 24.2532C91.3845 25.5433 89.1146 27.1688 85.8941 27.1688C84.9969 27.1718 84.1081 26.9968 83.279 26.6539C82.4499 26.3109 81.6971 25.8069 81.0639 25.1709C80.4308 24.5349 79.93 23.7795 79.5905 22.9486C79.251 22.1176 79.0796 21.2275 79.0861 20.3298C79.0861 16.433 82.1126 13.4609 85.8941 13.4609C89.8148 13.4609 92.2805 16.4895 92.2805 18.9321C92.2805 20.1092 91.5521 20.7552 90.2363 20.7552H81.834ZM89.5943 18.6797C89.2874 17.0542 87.8306 16.0465 85.9258 16.0465C84.1039 16.0465 82.4795 17.0542 81.9751 18.6797H89.5943Z" fill="white"/>
<path id="Vector_3" d="M96.8941 15.5975C97.4232 14.4768 98.6878 13.6914 100.116 13.6914C101.545 13.6914 103.45 14.4768 103.45 15.8499C103.45 16.607 102.945 17.2247 102.161 17.2247C101.787 17.2244 101.428 17.084 101.153 16.8311C100.716 16.4586 100.158 16.259 99.5837 16.2699C97.8465 16.2699 96.9223 17.5318 96.9223 19.1855V25.2973C96.9223 26.5327 96.6701 27.1751 95.5783 27.1751C94.5413 27.1751 94.2891 26.5291 94.2891 25.2337V15.4581C94.2891 14.588 94.6541 14.0285 95.4655 14.0285C96.4461 14.0285 96.6983 14.505 96.8941 15.5975Z" fill="white"/>
<path id="Vector_4" d="M107.2 20.7538C107.508 22.967 108.787 24.5377 111.346 24.5377C112.446 24.5578 113.515 24.1685 114.345 23.4452C114.493 23.2913 114.672 23.1694 114.869 23.0872C115.067 23.0049 115.279 22.964 115.493 22.967C115.831 22.9716 116.153 23.1099 116.389 23.3517C116.626 23.5934 116.757 23.9189 116.754 24.2571C116.754 25.5472 114.486 27.1727 111.263 27.1727C110.366 27.1757 109.478 27.0007 108.649 26.6578C107.82 26.3148 107.067 25.8107 106.434 25.1747C105.801 24.5386 105.3 23.7833 104.961 22.9523C104.622 22.1214 104.45 21.2314 104.457 20.3338C104.457 16.4369 107.482 13.4648 111.263 13.4648C115.186 13.4648 117.65 16.4934 117.65 18.936C117.65 20.1131 116.921 20.7591 115.606 20.7591L107.2 20.7538ZM114.96 18.6783C114.651 17.0528 113.196 16.0451 111.29 16.0451C109.47 16.0451 107.844 17.0528 107.341 18.6783H114.96Z" fill="white"/>
<path id="Vector_5" d="M122.376 21.7106V25.6904C122.376 26.6999 121.928 27.1764 121.032 27.1764C120.108 27.1764 119.66 26.6999 119.66 25.6904V9.00344C119.66 7.99393 120.108 7.46094 121.032 7.46094C121.928 7.46094 122.376 7.9904 122.376 9.00344V18.0573L126.662 14.2734C126.936 14.0148 127.295 13.8654 127.671 13.8533C128.428 13.8533 129.015 14.3828 129.015 15.1135C129.008 15.3288 128.951 15.5395 128.849 15.7293C128.747 15.9191 128.603 16.0828 128.428 16.2077L124.029 19.8239L129.184 24.7285C129.632 25.1486 129.771 25.5139 129.771 25.8775C129.769 26.2138 129.637 26.5362 129.402 26.7768C129.167 27.0175 128.848 27.1575 128.512 27.1676C128.175 27.1676 127.807 27.0264 127.39 26.6381L122.376 21.7106Z" fill="white"/>
<path id="Vector_6" d="M142.684 13.6615C143.552 13.6615 144.002 14.138 144.002 15.1175V25.4138C144.002 26.5363 143.721 27.0958 142.741 27.0958C141.899 27.0958 141.48 26.4516 141.34 25.1067C140.666 26.3422 138.903 27.1805 137.107 27.1805C133.382 27.1805 130.777 24.1802 130.777 20.3416C130.777 16.4447 133.354 13.4727 137.107 13.4727C138.929 13.4727 140.693 14.2298 141.393 15.6029C141.45 14.6128 141.702 13.6615 142.684 13.6615ZM133.497 20.3327C133.497 22.6589 135.121 24.4802 137.389 24.4802C139.658 24.4802 141.284 22.6589 141.284 20.3327C141.284 18.0896 139.659 16.1835 137.389 16.1835C135.12 16.1835 133.495 18.0896 133.495 20.3327H133.497Z" fill="white"/>
<path id="Vector_7" d="M38.2327 35.9705C41.9576 35.9705 44.9771 32.9489 44.9771 29.2216C44.9771 25.4942 41.9576 22.4727 38.2327 22.4727C34.5079 22.4727 31.4883 25.4942 31.4883 29.2216C31.4883 32.9489 34.5079 35.9705 38.2327 35.9705Z" fill="white"/>
<path id="Vector_8" d="M29.0438 19.5039C28.9486 19.7757 28.8662 20.0534 28.7969 20.3369C28.8163 20.284 28.8357 20.2328 28.8533 20.1799C28.8974 20.0034 28.9468 19.8481 28.9997 19.6839C29.0156 19.6239 29.0314 19.5639 29.0438 19.5039Z" fill="white"/>
<path id="Vector_9" d="M22.5234 11.2539C22.6716 11.2627 22.8197 11.2698 22.9697 11.2716C22.8215 11.261 22.6734 11.2539 22.5234 11.2539Z" fill="white"/>
<path id="Vector_10" d="M15.7227 18.0032C15.7237 19.5871 16.2813 21.1202 17.2979 22.3343C18.3145 23.5484 19.7253 24.3662 21.2836 24.6444C22.8419 24.9227 24.4483 24.6439 25.8218 23.8566C27.1954 23.0694 28.2485 21.8239 28.797 20.3381C28.8652 20.0545 28.9476 19.7769 29.044 19.5051C29.6602 17.7445 30.8079 16.2191 32.3284 15.1397C33.8488 14.0603 35.6668 13.4802 37.531 13.4798H37.6967C37.8449 13.4798 37.9913 13.4886 38.1377 13.4974H38.2047C39.4443 13.4973 40.66 13.1555 41.7182 12.5094C42.7764 11.8633 43.6362 10.9379 44.2033 9.83483C44.7703 8.73177 45.0227 7.4937 44.9327 6.25652C44.8426 5.01934 44.4137 3.8309 43.6929 2.82168C42.9722 1.81246 41.9874 1.02148 40.8469 0.535571C39.7063 0.0496645 38.454 -0.112375 37.2274 0.0672419C36.0009 0.246859 34.8475 0.761186 33.8939 1.55376C32.9403 2.34633 32.2234 3.3865 31.8218 4.56007C31.776 4.73656 31.723 4.91305 31.6648 5.08954C31.0713 6.88699 29.9266 8.45144 28.3934 9.56042C26.8603 10.6694 25.0167 11.2664 23.125 11.2666H22.9715C22.8216 11.2666 22.6734 11.2666 22.5253 11.249H22.4671C21.581 11.2492 20.7037 11.4241 19.8852 11.7637C19.0666 12.1033 18.323 12.6009 17.6967 13.2281C17.0704 13.8553 16.5737 14.5998 16.235 15.4191C15.8963 16.2384 15.7222 17.1165 15.7227 18.0032Z" fill="white"/>
<path id="Vector_11" d="M38.1362 13.4981C37.9898 13.4981 37.8435 13.4822 37.6953 13.4805C37.8417 13.4911 37.9881 13.4981 38.1362 13.4981Z" fill="white"/>
<path id="Vector_12" d="M31.6641 5.09978C31.7223 4.92329 31.7752 4.7468 31.821 4.57031C31.8218 4.5738 31.8218 4.57741 31.821 4.5809C31.7769 4.74857 31.7276 4.91446 31.6746 5.07683C31.6706 5.08422 31.667 5.09189 31.6641 5.09978Z" fill="white"/>
<path id="Vector_13" d="M15.9023 19.5039C15.9976 19.7757 16.0799 20.0534 16.1493 20.3369C16.1299 20.284 16.1122 20.2328 16.0946 20.1799C16.0487 20.0034 16.0011 19.8481 15.9464 19.6839C15.9306 19.6239 15.9165 19.5639 15.9023 19.5039Z" fill="white"/>
<path id="Vector_14" d="M22.421 11.2539C22.2746 11.2627 22.1247 11.2698 21.9766 11.2716C22.123 11.261 22.2711 11.2539 22.421 11.2539Z" fill="white"/>
<path id="Vector_15" d="M29.2269 18.0032C29.2259 19.5871 28.6683 21.1202 27.6517 22.3343C26.6351 23.5484 25.2242 24.3662 23.666 24.6444C22.1077 24.9227 20.5013 24.6439 19.1277 23.8566C17.7542 23.0694 16.701 21.8239 16.1525 20.3381C16.0843 20.0545 16.002 19.7769 15.9056 19.5051C15.2892 17.7442 14.1412 16.2186 12.6205 15.1392C11.0997 14.0597 9.28133 13.4799 7.41683 13.4798H7.25104C7.10289 13.4798 6.9565 13.4886 6.81188 13.4974H6.7431C5.50325 13.4976 4.28735 13.1558 3.22892 12.5097C2.17049 11.8636 1.31047 10.9381 0.743314 9.83481C0.176157 8.73156 -0.0762009 7.49325 0.0139557 6.25588C0.104112 5.0185 0.533296 3.82991 1.25437 2.82066C1.97545 1.8114 2.96053 1.02051 4.10142 0.534835C5.24232 0.0491644 6.4949 -0.112497 7.72161 0.0676037C8.94831 0.247705 10.1017 0.762602 11.0551 1.55575C12.0085 2.3489 12.725 3.38961 13.126 4.5636C13.1736 4.74009 13.2265 4.91658 13.2847 5.09307C13.8781 6.89023 15.0226 8.45448 16.5554 9.56343C18.0882 10.6724 19.9314 11.2696 21.8228 11.2701H21.978C22.1262 11.2701 22.2761 11.2701 22.4225 11.2525H22.4807C23.3666 11.2525 24.2439 11.4271 25.0624 11.7664C25.8808 12.1056 26.6245 12.6029 27.251 13.2297C27.8774 13.8566 28.3743 14.6008 28.7134 15.4198C29.0524 16.2388 29.2269 17.1166 29.2269 18.0032Z" fill="white"/>
<path id="Vector_16" d="M6.8125 13.4981C6.95712 13.4981 7.10351 13.4822 7.25166 13.4805C7.10704 13.4911 6.96065 13.4981 6.8125 13.4981Z" fill="white"/>
<path id="Vector_17" d="M13.2837 5.09978C13.2255 4.92329 13.1726 4.7468 13.125 4.57031C13.125 4.57031 13.125 4.57031 13.125 4.5809C13.1691 4.74857 13.2185 4.91446 13.2732 5.07683C13.2784 5.08036 13.282 5.08919 13.2837 5.09978Z" fill="white"/>
<path id="Vector_18" d="M11.5856 24.534C12.5132 25.4839 13.1401 26.6867 13.3878 27.9915C13.6355 29.2963 13.4929 30.6453 12.9779 31.8694C12.4629 33.0936 11.5984 34.1384 10.4926 34.8731C9.38691 35.6078 8.08912 35.9997 6.76183 35.9997C5.43453 35.9997 4.13674 35.6078 3.03101 34.8731C1.92529 34.1384 1.06078 33.0936 0.545778 31.8694C0.0307767 30.6453 -0.111822 29.2963 0.135844 27.9915C0.38351 26.6867 1.01043 25.4839 1.93807 24.534C2.01333 24.4634 2.0874 24.391 2.1603 24.3169C3.81861 22.6352 4.74653 20.3665 4.74238 18.004C4.74548 15.6387 3.81494 13.3679 2.15325 11.6857L1.93807 11.4739C1.00982 10.5239 0.382385 9.32082 0.134364 8.01553C-0.113657 6.71024 0.0287705 5.36074 0.543802 4.13609C1.05883 2.91144 1.92357 1.86611 3.02966 1.13105C4.13576 0.395995 5.43403 0.00390625 6.76183 0.00390625C8.08962 0.00390625 9.38789 0.395995 10.494 1.13105C11.6001 1.86611 12.4648 2.91144 12.9798 4.13609C13.4949 5.36074 13.6373 6.71024 13.3893 8.01553C13.1413 9.32082 12.5138 10.5239 11.5856 11.4739L11.3616 11.6857C9.70338 13.3697 8.77385 15.6389 8.77385 18.0031C8.77385 20.3672 9.70338 22.6364 11.3616 24.3204C11.4357 24.3946 11.508 24.4669 11.5838 24.5375L11.5856 24.534Z" fill="white"/>
</g>
</svg>
