<svg viewBox="0 0 28 29" fill="currentColor" xmlns="http://www.w3.org/2000/svg">
  <path d="M7.46771 16.8329C9.52958 16.8329 11.201 15.1614 11.201 13.0995C11.201 11.0377 9.52958 9.36621 7.46771 9.36621C5.40584 9.36621 3.73438 11.0377 3.73438 13.0995C3.73438 15.1614 5.40584 16.8329 7.46771 16.8329Z" />
  <path d="M14.0003 26.6334V24.3001C14.0003 20.5667 10.3019 18.2334 7.46693 18.2334C4.63193 18.2334 0.933594 20.5667 0.933594 24.3001V26.6334H14.0003Z" />
  <path d="M24.7345 2.83301H13.0678C12.037 2.83301 11.2012 3.66881 11.2012 4.69967V8.93421C12.344 9.95901 13.0678 11.443 13.0678 13.0997C13.0678 13.9061 12.8938 14.67 12.5876 15.363C12.7416 15.4041 12.9012 15.433 13.0678 15.433H16.8012V17.05C16.8012 17.4457 17.1222 17.7663 17.5175 17.7663C17.6589 17.7663 17.7975 17.7243 17.9151 17.6459L21.2345 15.433H24.7345C25.7654 15.433 26.6012 14.5972 26.6012 13.5663V4.69967C26.6012 3.66881 25.7654 2.83301 24.7345 2.83301Z" />
</svg>
