<svg viewBox="0 0 28 29" fill="currentColor" xmlns="http://www.w3.org/2000/svg">
  <path fill-rule="evenodd" clip-rule="evenodd" d="M7.87565 5.16634C7.87565 4.36092 8.52856 3.70801 9.33398 3.70801H23.334C24.1395 3.70801 24.7923 4.36092 24.7923 5.16634V12.1663C24.7923 12.9718 24.1395 13.6247 23.334 13.6247H22.1673C21.6841 13.6247 21.2923 14.0164 21.2923 14.4997C21.2923 14.9829 21.6841 15.3747 22.1673 15.3747H23.334C25.1059 15.3747 26.5423 13.9383 26.5423 12.1663V5.16634C26.5423 3.39443 25.1059 1.95801 23.334 1.95801H9.33398C7.56207 1.95801 6.12565 3.39443 6.12565 5.16634V6.91634C6.12565 7.39959 6.51741 7.79134 7.00065 7.79134C7.4839 7.79134 7.87565 7.39959 7.87565 6.91634V5.16634ZM8.16732 12.1663C8.16732 13.455 7.12265 14.4997 5.83398 14.4997C4.54532 14.4997 3.50065 13.455 3.50065 12.1663C3.50065 10.8777 4.54532 9.83301 5.83398 9.83301C7.12265 9.83301 8.16732 10.8777 8.16732 12.1663ZM20.57 11.4729C20.8314 11.0664 20.7137 10.5251 20.3072 10.2638C19.9007 10.0024 19.3593 10.1201 19.0979 10.5266L14.5588 17.5875C14.0933 17.4336 13.5644 17.4818 13.1173 17.7663L9.33398 19.7497V19.1663C9.33398 17.2333 7.76698 15.6663 5.83398 15.6663C3.90099 15.6663 2.33398 17.2333 2.33398 19.1663V26.1663H9.33398V23.4597C9.64128 23.4138 9.94467 23.3054 10.2256 23.1299L14.9238 20.631C15.4868 20.2792 15.7725 19.6499 15.712 19.0298L20.57 11.4729ZM10.7923 7.49967C10.7923 7.01643 11.1841 6.62467 11.6673 6.62467H21.0007C21.4839 6.62467 21.8757 7.01643 21.8757 7.49967C21.8757 7.98292 21.4839 8.37467 21.0007 8.37467H11.6673C11.1841 8.37467 10.7923 7.98292 10.7923 7.49967ZM11.6673 10.1247C11.1841 10.1247 10.7923 10.5164 10.7923 10.9997C10.7923 11.4829 11.1841 11.8747 11.6673 11.8747H16.334C16.8172 11.8747 17.209 11.4829 17.209 10.9997C17.209 10.5164 16.8172 10.1247 16.334 10.1247H11.6673Z" />
</svg>
