<svg viewBox="0 0 29 29" fill="currentColor" xmlns="http://www.w3.org/2000/svg">
  <path d="M20.2422 18.7378V18.1909C20.2435 16.8723 19.7886 15.5938 18.9548 14.5723C18.4938 15.3422 17.841 15.9795 17.0603 16.422C16.2795 16.8644 15.3974 17.097 14.5 17.097C13.6026 17.097 12.7205 16.8644 11.9397 16.422C11.159 15.9795 10.5062 15.3422 10.0452 14.5723C9.21138 15.5938 8.75656 16.8723 8.75782 18.1909V18.7378C8.75782 19.2455 8.95947 19.7323 9.31843 20.0913C9.67739 20.4502 10.1642 20.6519 10.6719 20.6519H18.3281C18.8358 20.6519 19.3226 20.4502 19.6816 20.0913C20.0405 19.7323 20.2422 19.2455 20.2422 18.7378Z" />
  <path d="M14.5 15.457C16.4632 15.457 18.0547 13.8655 18.0547 11.9023C18.0547 9.93914 16.4632 8.34766 14.5 8.34766C12.5368 8.34766 10.9453 9.93914 10.9453 11.9023C10.9453 13.8655 12.5368 15.457 14.5 15.457Z" />
  <path d="M3.50781 9.85183C3.61554 9.85183 3.72221 9.83061 3.82173 9.78938C3.92126 9.74816 4.01169 9.68773 4.08786 9.61156C4.16403 9.53539 4.22446 9.44496 4.26568 9.34543C4.30691 9.24591 4.32812 9.13924 4.32812 9.03151V6.78933C4.32885 6.13687 4.58836 5.51134 5.04972 5.04998C5.51107 4.58862 6.1366 4.32911 6.78906 4.32839H13.6135L12.826 5.11534C12.6721 5.26923 12.5857 5.47795 12.5857 5.69558C12.5857 5.91321 12.6721 6.12192 12.826 6.27581C12.9799 6.4297 13.1886 6.51615 13.4062 6.51615C13.6239 6.51615 13.8326 6.4297 13.9865 6.27581L16.174 4.08831C16.2502 4.01213 16.3107 3.92168 16.3519 3.82212C16.3932 3.72256 16.4144 3.61584 16.4144 3.50808C16.4144 3.40031 16.3932 3.29359 16.3519 3.19403C16.3107 3.09447 16.2502 3.00402 16.174 2.92784L13.9865 0.740341C13.9103 0.664143 13.8198 0.6037 13.7203 0.562463C13.6207 0.521225 13.514 0.5 13.4062 0.5C13.1886 0.5 12.9799 0.586453 12.826 0.740341C12.6721 0.894229 12.5857 1.10295 12.5857 1.32058C12.5857 1.53821 12.6721 1.74692 12.826 1.90081L13.6135 2.68776H6.78906C5.70162 2.68892 4.65904 3.12142 3.8901 3.89036C3.12116 4.6593 2.68866 5.70188 2.6875 6.78933V9.03151C2.6875 9.24907 2.77393 9.45772 2.92776 9.61156C3.0816 9.7654 3.29025 9.85183 3.50781 9.85183Z" />
  <path d="M25.4926 19.1484C25.275 19.1484 25.0663 19.2349 24.9125 19.3887C24.7587 19.5425 24.6722 19.7512 24.6722 19.9687V22.2109C24.6715 22.8634 24.412 23.4889 23.9507 23.9503C23.4893 24.4116 22.8638 24.6712 22.2113 24.6719H15.3869L16.1744 23.8849C16.3282 23.731 16.4147 23.5223 16.4147 23.3047C16.4147 23.0871 16.3282 22.8783 16.1744 22.7245C16.0205 22.5706 15.8118 22.4841 15.5941 22.4841C15.3765 22.4841 15.1678 22.5706 15.0139 22.7245L12.8264 24.912C12.7502 24.9881 12.6897 25.0786 12.6484 25.1781C12.6072 25.2777 12.5859 25.3844 12.5859 25.4922C12.5859 25.6 12.6072 25.7067 12.6484 25.8062C12.6897 25.9058 12.7502 25.9962 12.8264 26.0724L15.0139 28.2599C15.1678 28.4138 15.3765 28.5003 15.5941 28.5003C15.8118 28.5003 16.0205 28.4138 16.1744 28.2599C16.3282 28.106 16.4147 27.8973 16.4147 27.6797C16.4147 27.4621 16.3282 27.2533 16.1744 27.0995L15.3869 26.3125H22.2113C23.2988 26.3113 24.3413 25.8788 25.1103 25.1099C25.8792 24.341 26.3117 23.2984 26.3129 22.2109V19.9687C26.3129 19.7512 26.2264 19.5425 26.0726 19.3887C25.9188 19.2349 25.7101 19.1484 25.4926 19.1484Z" />
  <path d="M28.2599 12.826C28.1837 12.7498 28.0933 12.6893 27.9937 12.6481C27.8942 12.6068 27.7875 12.5856 27.6797 12.5856C27.5719 12.5856 27.4652 12.6068 27.3656 12.6481C27.2661 12.6893 27.1756 12.7498 27.0995 12.826L26.3125 13.6135V6.78906C26.3113 5.70162 25.8788 4.65904 25.1099 3.8901C24.341 3.12116 23.2984 2.68866 22.2109 2.6875H19.9687C19.7512 2.6875 19.5425 2.77393 19.3887 2.92776C19.2349 3.0816 19.1484 3.29025 19.1484 3.50781C19.1484 3.72537 19.2349 3.93402 19.3887 4.08786C19.5425 4.2417 19.7512 4.32812 19.9687 4.32812H22.2109C22.8634 4.32885 23.4889 4.58836 23.9503 5.04972C24.4116 5.51107 24.6712 6.1366 24.6719 6.78906V13.6135L23.8849 12.826C23.731 12.6721 23.5223 12.5857 23.3047 12.5857C23.0871 12.5857 22.8783 12.6721 22.7245 12.826C22.5706 12.9799 22.4841 13.1886 22.4841 13.4062C22.4841 13.6239 22.5706 13.8326 22.7245 13.9865L24.912 16.174C24.9881 16.2502 25.0786 16.3107 25.1781 16.3519C25.2777 16.3932 25.3844 16.4144 25.4922 16.4144C25.6 16.4144 25.7067 16.3932 25.8062 16.3519C25.9058 16.3107 25.9962 16.2502 26.0724 16.174L28.2599 13.9865C28.3361 13.9103 28.3966 13.8199 28.4379 13.7203C28.4791 13.6207 28.5004 13.514 28.5004 13.4062C28.5004 13.2985 28.4791 13.1918 28.4379 13.0922C28.3966 12.9926 28.3361 12.9022 28.2599 12.826Z" />
  <path d="M9.03151 24.6722H6.78933C6.13687 24.6715 5.51134 24.412 5.04998 23.9507C4.58862 23.4893 4.32911 22.8638 4.32839 22.2113V15.3869L5.11534 16.1744C5.19154 16.2506 5.282 16.311 5.38156 16.3522C5.48111 16.3935 5.58782 16.4147 5.69558 16.4147C5.80334 16.4147 5.91004 16.3935 6.0096 16.3522C6.10915 16.311 6.19961 16.2506 6.27581 16.1744C6.35201 16.0982 6.41245 16.0077 6.45369 15.9081C6.49493 15.8086 6.51615 15.7019 6.51615 15.5941C6.51615 15.4864 6.49493 15.3797 6.45369 15.2801C6.41245 15.1805 6.35201 15.0901 6.27581 15.0139L4.08831 12.8264C4.01213 12.7502 3.92168 12.6897 3.82212 12.6484C3.72256 12.6072 3.61584 12.5859 3.50808 12.5859C3.40031 12.5859 3.29359 12.6072 3.19403 12.6484C3.09447 12.6897 3.00402 12.7502 2.92784 12.8264L0.740341 15.0139C0.586453 15.1678 0.5 15.3765 0.5 15.5941C0.5 15.8118 0.586453 16.0205 0.740341 16.1744C0.894229 16.3282 1.10295 16.4147 1.32058 16.4147C1.53821 16.4147 1.74692 16.3282 1.90081 16.1744L2.68776 15.3869V22.2113C2.68892 23.2988 3.12142 24.3413 3.89036 25.1103C4.6593 25.8792 5.70188 26.3117 6.78933 26.3129H9.03151C9.24907 26.3129 9.45772 26.2264 9.61156 26.0726C9.7654 25.9188 9.85183 25.7101 9.85183 25.4926C9.85183 25.275 9.7654 25.0663 9.61156 24.9125C9.45772 24.7587 9.24907 24.6722 9.03151 24.6722Z" />
</svg>
