<svg viewBox="0 0 28 29" fill="currentColor" xmlns="http://www.w3.org/2000/svg">
  <path d="M24.5 20.1875V27.625H8.75V25.4375C8.75 25.196 8.946 25 9.1875 25H14V22.8125C14 22.571 14.196 22.375 14.4375 22.375H19.25V20.1875C19.25 19.946 19.446 19.75 19.6875 19.75H24.0625C24.304 19.75 24.5 19.946 24.5 20.1875Z" />
  <path d="M10.9375 7.9375C10.9375 9.14587 9.95837 10.125 8.75 10.125C7.54162 10.125 6.5625 9.14587 6.5625 7.9375C6.5625 6.72912 7.54162 5.75 8.75 5.75C9.95837 5.75 10.9375 6.72912 10.9375 7.9375Z" />
  <path d="M8.3415 20.664L6.96338 25.2525C6.84963 25.6305 6.50225 25.8747 6.12513 25.8747C6.042 25.8747 5.958 25.8624 5.87313 25.8379C5.41113 25.6988 5.14863 25.2105 5.28688 24.7477L6.75863 19.8477L8.3415 20.664Z" />
  <path d="M21 3.5625C21 4.77087 20.0209 5.75 18.8125 5.75C17.6041 5.75 16.625 4.77087 16.625 3.5625C16.625 2.35412 17.6041 1.375 18.8125 1.375C20.0209 1.375 21 2.35412 21 3.5625Z" />
  <path d="M23.9015 2.2953C23.4404 2.14218 22.9469 2.3898 22.7946 2.8483L22.015 5.18805L19.8599 6.6248H17.0625C16.8639 6.6248 16.6714 6.69218 16.5156 6.81643L14.3281 8.56643C14.1207 8.73268 14 8.9838 14 9.2498V11.8748C14 12.3587 14.392 12.7498 14.875 12.7498C15.358 12.7498 15.75 12.3587 15.75 11.8748V9.66981L16.625 8.96981V20.6248C16.625 21.1087 17.017 21.4998 17.5 21.4998C17.983 21.4998 18.375 21.1087 18.375 20.6248V14.4998H19.7628L21 15.7371V17.9998C21 18.4837 21.392 18.8748 21.875 18.8748C22.358 18.8748 22.75 18.4837 22.75 17.9998V15.3748C22.75 15.1421 22.6581 14.9198 22.4936 14.7562L21 13.2626V7.96793L23.2356 6.4778C23.3975 6.37018 23.5191 6.21093 23.5804 6.0263L24.4554 3.4013C24.6085 2.9428 24.36 2.44755 23.9015 2.2953Z" />
  <path d="M11.3748 19.3123V23.2498C11.3748 23.7337 10.9837 24.1248 10.4998 24.1248C10.0159 24.1248 9.62481 23.7337 9.62481 23.2498V19.846L6.40219 18.187C5.74069 17.8467 5.36619 17.123 5.47119 16.3854L5.97081 12.9712C5.38719 13.133 4.91556 13.5705 4.74844 14.1655L4.34244 15.6102C4.23306 15.9978 3.88306 16.2498 3.50069 16.2498C3.42281 16.2498 3.34231 16.2393 3.26356 16.2174C2.79806 16.087 2.52681 15.6032 2.65806 15.1385L3.06406 13.6939C3.44381 12.3438 4.58744 11.3533 5.97781 11.1713L13.1248 10.2324V11.9973L10.1551 12.3875L9.27044 17.6962L10.9014 18.5353C11.1919 18.684 11.3748 18.9842 11.3748 19.3123Z" />
</svg>
