<svg viewBox="0 0 28 29" fill="currentColor" xmlns="http://www.w3.org/2000/svg">
  <path d="M14.0009 17.3828C12.8351 17.3828 11.856 18.1947 11.5977 19.2826C13.1063 20.0438 14.895 20.0442 16.4043 19.2826C16.1458 18.1947 15.1667 17.3828 14.0009 17.3828Z" />
  <path d="M13.9994 9.14746C11.0478 9.14746 8.64648 11.5488 8.64648 14.5004C8.64648 15.9679 9.24019 17.2992 10.1999 18.2672C10.5291 17.4817 11.0953 16.8198 11.8081 16.3698C11.3777 15.866 11.1171 15.2132 11.1171 14.5004C11.1171 12.911 12.4101 11.618 13.9994 11.618C15.5887 11.618 16.8818 12.911 16.8818 14.5004C16.8818 15.2132 16.621 15.866 16.1907 16.3698C16.9036 16.8198 17.4698 17.4817 17.7989 18.2672C18.7586 17.2993 19.3524 15.9679 19.3524 14.5004C19.3524 11.5488 16.9511 9.14746 13.9994 9.14746Z" />
  <path d="M14.0009 15.7352C14.6832 15.7352 15.2362 15.1822 15.2362 14.4999C15.2362 13.8177 14.6832 13.2646 14.0009 13.2646C13.3187 13.2646 12.7656 13.8177 12.7656 14.4999C12.7656 15.1822 13.3187 15.7352 14.0009 15.7352Z" />
  <path d="M28 16.8447V12.1553L24.2903 11.537C24.0687 10.766 23.7609 10.0238 23.3707 9.31995L25.5575 6.25845L22.2416 2.94253L19.1801 5.12933C18.4763 4.7392 17.7339 4.43131 16.963 4.20973L16.3447 0.5H11.6553L11.037 4.20973C10.2661 4.43131 9.52373 4.73925 8.81995 5.12933L5.75845 2.94253L2.44253 6.25845L4.62933 9.31995C4.2392 10.0238 3.93125 10.7661 3.70973 11.537L0 12.1553V16.8447L3.70973 17.463C3.93131 18.2339 4.2392 18.9763 4.62933 19.6801L2.44253 22.7416L5.75845 26.0575L8.81995 23.8707C9.52384 24.2609 10.266 24.5687 11.037 24.7903L11.6553 28.5H16.3447L16.963 24.7903C17.7339 24.5687 18.4763 24.2608 19.1801 23.8707L22.2416 26.0575L25.5575 22.7416L23.3707 19.6801C23.7608 18.9763 24.0687 18.2339 24.2903 17.463L28 16.8447ZM14 21.5C10.1402 21.5 7 18.3598 7 14.5C7 10.6402 10.1402 7.5 14 7.5C17.8598 7.5 21 10.6402 21 14.5C21 18.3598 17.8598 21.5 14 21.5Z" />
</svg>
