<svg width="25" height="24" viewBox="0 0 25 24" fill="none" xmlns="http://www.w3.org/2000/svg">
<path d="M8.50055 5.09902L11.0005 6.49902L9.60055 3.99902L11.0005 1.49902L8.50055 2.89902L6.00055 1.49902L7.40055 3.99902L6.00055 6.49902L8.50055 5.09902ZM20.5005 14.899L18.0005 13.499L19.4005 15.999L18.0005 18.499L20.5005 17.099L23.0005 18.499L21.6005 15.999L23.0005 13.499L20.5005 14.899ZM23.0005 1.49902L20.5005 2.89902L18.0005 1.49902L19.4005 3.99902L18.0005 6.49902L20.5005 5.09902L23.0005 6.49902L21.6005 3.99902L23.0005 1.49902ZM15.3705 6.78902C14.9805 6.39902 14.3505 6.39902 13.9605 6.78902L2.29055 18.459C1.90055 18.849 1.90055 19.479 2.29055 19.869L4.63055 22.209C5.02055 22.599 5.65055 22.599 6.04055 22.209L17.7005 10.549C18.0905 10.159 18.0905 9.52902 17.7005 9.13902L15.3705 6.78902ZM14.3405 12.279L12.2205 10.159L14.6605 7.71902L16.7805 9.83902L14.3405 12.279Z" fill="black"/>
</svg>
