<svg width="319" height="256" viewBox="0 0 319 256" fill="none" xmlns="http://www.w3.org/2000/svg">
<path d="M165.657 255.104C249.484 255.104 317.44 246.703 317.44 236.34C317.44 225.976 249.484 217.575 165.657 217.575C81.8298 217.575 13.8743 225.977 13.8743 236.34C13.8743 246.703 81.8298 255.104 165.657 255.104Z" fill="#1B1B1B"/>
<g clip-path="url(#clip0_721_46010)">
<path d="M277.916 58.6509L206.405 40.6008C207.082 34.304 205.916 27.9463 203.048 22.2974C200.179 16.6486 195.732 11.9509 190.244 8.77319C184.756 5.59549 178.463 4.07408 172.127 4.39318C165.79 4.71227 159.683 6.85818 154.543 10.5711C154.477 10.6085 154.416 10.6521 154.359 10.7011C154.321 10.7281 154.284 10.7595 154.241 10.7865C148.543 14.9884 144.368 20.9263 142.347 27.7043C142.198 28.1949 142.061 28.6892 141.937 29.1866C141.624 30.4272 141.388 31.6859 141.231 32.9556C141.226 32.9762 141.223 32.9973 141.222 33.0185C141.105 33.8803 141.034 34.7421 140.992 35.5972V35.6197C140.639 43.3628 143.049 50.9801 147.792 57.1173C152.535 63.2544 159.305 67.5137 166.897 69.1381C174.49 70.7624 182.414 69.6464 189.26 65.9885C196.106 62.3306 201.431 56.3678 204.288 49.1603C281.064 68.545 276.021 67.3329 276.837 67.3329C277.913 67.3319 278.952 66.9385 279.758 66.2267C280.564 65.5149 281.083 64.5337 281.215 63.4675C281.348 62.4012 281.086 61.3233 280.478 60.4363C279.871 59.5493 278.96 58.9143 277.916 58.6505V58.6509Z" fill="#5577CA"/>
<path d="M157.239 13.8278C157.151 13.8982 157.059 13.9642 156.964 14.0253C151.956 17.6478 148.266 22.7994 146.451 28.7012C146.438 28.7517 146.423 28.8017 146.406 28.8511C145.691 30.8126 141.861 29.6807 142.347 27.7042C144.368 20.9266 148.543 14.9891 154.241 10.7875C154.282 10.7606 154.323 10.7291 154.359 10.7021C154.416 10.6531 154.477 10.6096 154.543 10.5721C156.609 9.21382 159.313 12.1252 157.239 13.8278ZM145.452 33.1983C145.325 34.0979 145.244 35.0035 145.209 35.9114H145.205C145.038 37.9689 141.024 37.653 140.992 35.6195V35.5971C141.033 34.7435 141.105 33.881 141.222 33.0184C141.223 32.9972 141.226 32.976 141.231 32.9555C141.73 30.8621 145.688 31.7966 145.452 33.1983Z" fill="white"/>
<path d="M173.731 70.4229C169.223 70.419 164.763 69.5033 160.619 67.7311C156.476 65.9589 152.736 63.3669 149.624 60.1117C146.512 56.8565 144.093 53.0055 142.513 48.7913C140.933 44.5771 140.225 40.0871 140.432 35.5922C140.477 34.642 140.552 33.79 140.663 32.9664C140.666 32.9319 140.671 32.8976 140.677 32.8637C140.838 31.5789 141.076 30.305 141.393 29.0494C141.528 28.5124 141.664 28.0193 141.809 27.5405C143.854 20.6413 148.103 14.5987 153.908 10.3338C153.954 10.3024 153.975 10.2859 153.996 10.2705C154.072 10.2071 154.152 10.1498 154.237 10.0989C159.324 6.43006 165.345 4.26759 171.608 3.85974C177.871 3.45189 184.123 4.81518 189.645 7.79312C195.167 10.7711 199.736 15.2429 202.827 20.6954C205.918 26.1479 207.407 32.36 207.121 38.6186C207.121 38.6688 207.118 38.7434 207.113 38.818L207.108 38.9094C207.086 39.3317 207.055 39.7535 207.013 40.1744L211.278 41.2501C233.536 46.8691 255.795 52.4873 278.054 58.1045C278.688 58.2644 279.285 58.5475 279.809 58.9374C280.334 59.3274 280.776 59.8168 281.111 60.3775C281.446 60.9382 281.667 61.5592 281.761 62.2052C281.856 62.8512 281.822 63.5094 281.661 64.1423C281.39 65.2147 280.768 66.166 279.894 66.8456C279.02 67.5253 277.944 67.8944 276.836 67.8945C276.408 67.9608 276.407 67.9608 246.073 60.2927C236.269 57.8145 223.285 54.5322 206.079 50.1873L204.624 49.8234C202.088 55.9186 197.801 61.1276 192.303 64.7936C186.805 68.4596 180.342 70.4184 173.731 70.4229ZM141.784 33.0653C141.784 33.0747 141.784 33.084 141.781 33.0934C141.669 33.9329 141.593 34.7769 141.555 35.623C141.203 43.2347 143.567 50.7244 148.227 56.7599C152.887 62.7954 159.54 66.9854 167.004 68.5846C174.467 70.1839 182.257 69.0886 188.988 65.4937C195.719 61.8989 200.954 56.0374 203.762 48.9519C203.817 48.8192 203.919 48.712 204.05 48.6516C204.18 48.5911 204.328 48.582 204.465 48.6259L206.352 49.0977C223.561 53.4441 236.545 56.726 246.349 59.2043C272.296 65.7614 276.284 66.7712 276.664 66.7865C276.72 66.7749 276.778 66.7699 276.835 66.7715C277.693 66.7713 278.526 66.4855 279.202 65.9593C279.879 65.4332 280.36 64.6969 280.57 63.8669C280.82 62.8781 280.667 61.8305 280.144 60.9544C279.621 60.0783 278.77 59.4455 277.78 59.1953C275.727 58.6759 266.337 56.3064 254.56 53.3343C240.651 49.8238 223.413 45.4736 211.004 42.3405L206.269 41.1456C206.137 41.112 206.021 41.0312 205.943 40.9184C205.866 40.8055 205.832 40.6684 205.849 40.5326C205.85 40.5176 205.853 40.5007 205.854 40.4846C205.854 40.4685 205.856 40.4396 205.857 40.4277C205.918 39.8712 205.959 39.3572 205.985 38.8562L205.991 38.7494C205.994 38.6973 205.998 38.6456 205.998 38.5924C206.279 32.5404 204.843 26.5321 201.855 21.2582C198.868 15.9844 194.45 11.6591 189.11 8.77962C183.77 5.90016 177.724 4.58342 171.668 4.98078C165.612 5.37814 159.791 7.47347 154.874 11.0259C154.857 11.0375 154.841 11.0484 154.823 11.0581C154.788 11.0787 154.755 11.1022 154.724 11.1286C154.708 11.1418 154.691 11.1544 154.674 11.166C154.636 11.1949 154.595 11.2256 154.553 11.2526C148.955 15.373 144.859 21.2061 142.888 27.8642C142.742 28.3473 142.607 28.8338 142.485 29.3233C142.177 30.541 141.946 31.7764 141.791 33.0226C141.789 33.0369 141.787 33.0512 141.784 33.0653ZM141.786 33.02V33.0616C141.784 33.0533 141.786 33.0376 141.786 33.02Z" fill="#1A1A1A"/>
<path d="M211.14 41.7956C209.715 42.5729 208.513 43.7029 207.651 45.0771C206.789 46.4513 206.295 48.0236 206.217 49.6431C205.582 49.4862 204.943 49.3243 204.295 49.1628C205.386 46.3788 206.099 43.4613 206.415 40.4883C206.414 40.5259 206.411 40.5634 206.406 40.6007L211.14 41.7956Z" fill="#1B1B1B"/>
<path d="M206.217 50.205C206.171 50.205 206.126 50.1996 206.081 50.1889L204.159 49.7078C204.081 49.6884 204.009 49.6528 203.946 49.6033C203.883 49.5538 203.832 49.4915 203.795 49.4206C203.758 49.3497 203.737 49.2718 203.733 49.1921C203.729 49.1124 203.742 49.0328 203.771 48.9584C204.843 46.2209 205.544 43.3526 205.855 40.4296C205.867 40.3192 205.911 40.2146 205.982 40.1291C206.053 40.0436 206.147 39.981 206.254 39.9492C206.361 39.9175 206.474 39.918 206.581 39.9507C206.687 39.9834 206.781 40.0468 206.852 40.1329L211.278 41.2498C211.388 41.2777 211.487 41.3383 211.563 41.4235C211.638 41.5088 211.685 41.6147 211.699 41.7274C211.712 41.8401 211.691 41.9543 211.639 42.0549C211.586 42.1556 211.504 42.2379 211.404 42.2911C210.07 43.0232 208.945 44.0827 208.136 45.3696C207.327 46.6564 206.86 48.128 206.78 49.6452C206.779 49.7938 206.719 49.9359 206.614 50.0407C206.508 50.1455 206.366 50.2043 206.217 50.2043V50.205ZM205.046 48.7711L205.693 48.9325C205.857 47.5667 206.3 46.2488 206.993 45.0598C207.687 43.8707 208.616 42.8355 209.724 42.0176L206.887 41.3016C206.557 43.8527 205.94 46.3584 205.046 48.7711Z" fill="#1B1B1B"/>
<path d="M201.522 44.0151C199.967 50.2401 196.356 55.7608 191.273 59.6866C186.189 63.6125 179.929 65.7148 173.502 65.6544H173.498C166.023 65.5753 158.877 62.5783 153.589 57.305C148.3 52.0317 145.291 44.9013 145.204 37.4404C145.117 29.9795 147.959 22.7811 153.123 17.3864C158.287 11.9917 165.362 8.82941 172.832 8.57668C172.94 8.57219 173.044 8.57219 173.152 8.56806H173.156C177.55 8.47776 181.906 9.39888 185.886 11.26C189.866 13.1211 193.364 15.8722 196.107 19.3C198.85 22.7278 200.765 26.7402 201.704 31.026C202.643 35.3119 202.581 39.7561 201.522 44.014V44.0151Z" fill="#FECE2F"/>
<path d="M201.522 44.0151C199.967 50.2401 196.356 55.7608 191.273 59.6866C186.189 63.6125 179.929 65.7148 173.502 65.6544H173.498C168.608 65.602 163.812 64.3048 159.565 61.8853C161.393 62.2846 163.257 62.4938 165.128 62.5096H165.132C171.804 62.5718 178.271 60.213 183.332 55.8719C188.392 51.5308 191.7 45.5029 192.642 38.9092C193.583 32.3155 192.094 25.6049 188.45 20.0255C184.806 14.4461 179.256 10.3776 172.832 8.57668C172.94 8.57219 173.044 8.57219 173.152 8.56806H173.156C177.55 8.47776 181.906 9.39888 185.886 11.26C189.866 13.1211 193.364 15.8722 196.107 19.3C198.85 22.7278 200.765 26.7402 201.704 31.026C202.643 35.3119 202.581 39.7561 201.522 44.014V44.0151Z" fill="white"/>
<path d="M173.818 66.2179H173.497C165.867 66.1493 158.569 63.0988 153.166 57.7208C147.764 52.3428 144.688 45.0655 144.599 37.4501C144.51 29.8346 147.414 22.4875 152.688 16.9847C157.963 11.4818 165.188 8.26159 172.814 8.01466L173.129 8.00604C177.611 7.9113 182.055 8.84866 186.115 10.7454C190.176 12.6421 193.744 15.4472 196.543 18.9431C199.342 22.4389 201.297 26.5314 202.255 30.9032C203.214 35.2749 203.15 39.8083 202.07 44.1515C200.517 50.4566 196.888 56.0588 191.766 60.0599C186.643 64.0611 180.323 66.2297 173.818 66.2179ZM173.765 9.12263C173.565 9.12263 173.366 9.12475 173.169 9.129L172.856 9.13761C165.53 9.38048 158.59 12.478 153.524 17.7664C148.458 23.0549 145.668 30.1137 145.752 37.4305C145.837 44.7473 148.789 51.74 153.976 56.9105C159.163 62.0811 166.172 65.0181 173.502 65.0924H173.812C181.207 65.0261 188.277 62.0454 193.482 56.7994C198.686 51.5535 201.602 44.4673 201.596 37.0844C201.59 29.7016 198.662 22.6203 193.449 17.3829C188.236 12.1456 181.161 9.17659 173.765 9.12263Z" fill="#1A1A1A"/>
<path d="M173.818 66.2181H173.497C173.423 66.2185 173.349 66.2044 173.281 66.1765C173.212 66.1486 173.15 66.1076 173.098 66.0556C172.991 65.9508 172.931 65.8082 172.93 65.6591C172.93 65.51 172.988 65.3668 173.093 65.2608C173.198 65.1548 173.341 65.0949 173.491 65.0941C180.846 64.9318 187.844 61.8896 192.973 56.6238C198.102 51.3581 200.951 44.2907 200.907 36.9465C200.863 29.6022 197.928 22.5697 192.736 17.3659C187.543 12.1622 180.51 9.20447 173.153 9.13071C173.003 9.13175 172.86 9.07353 172.753 8.96887C172.647 8.8642 172.587 8.72166 172.586 8.5726C172.585 8.42354 172.643 8.28017 172.748 8.17403C172.853 8.06789 172.995 8.00767 173.145 8.00663C177.625 7.9148 182.067 8.85427 186.125 10.7522C190.184 12.6501 193.749 15.4555 196.546 18.9509C199.343 22.4462 201.296 26.5376 202.254 30.9078C203.211 35.278 203.148 39.8097 202.068 44.1514C200.515 50.4562 196.887 56.0582 191.765 60.0594C186.642 64.0606 180.322 66.2294 173.818 66.2181Z" fill="#1A1A1A"/>
</g>
<path d="M164.001 57.0606C167.764 55.7275 169.673 51.4187 168.266 47.4367C166.858 43.4547 162.667 41.3073 158.904 42.6404C155.141 43.9735 153.231 48.2823 154.639 52.2643C156.046 56.2464 160.238 58.3937 164.001 57.0606Z" fill="#1B1B1B"/>
<path d="M161.712 58.0056C160.029 57.9741 158.397 57.4234 157.037 56.4286C155.678 55.4339 154.659 54.0435 154.118 52.4473C153.389 50.4261 153.464 48.2015 154.327 46.2339C154.736 45.2815 155.337 44.4241 156.093 43.7156C156.848 43.007 157.742 42.4627 158.718 42.1168C159.694 41.7708 160.731 41.6309 161.764 41.7056C162.797 41.7803 163.803 42.0682 164.719 42.551C166.627 43.5367 168.083 45.219 168.786 47.2497C169.515 49.2709 169.44 51.4956 168.576 53.4631C168.166 54.4142 167.564 55.2705 166.808 55.9786C166.053 56.6867 165.16 57.2314 164.185 57.5787C163.391 57.8609 162.555 58.0052 161.712 58.0056ZM161.204 42.7952C160.483 42.7954 159.767 42.9188 159.087 43.1602C158.254 43.4577 157.49 43.924 156.845 44.5299C156.199 45.1359 155.685 45.8685 155.335 46.6821C154.586 48.3916 154.522 50.3239 155.157 52.079C156.461 55.7678 160.344 57.7688 163.815 56.539C164.649 56.2414 165.412 55.7751 166.057 55.1692C166.703 54.5632 167.217 53.8306 167.567 53.0171C168.316 51.3076 168.38 49.3753 167.745 47.6202C167.136 45.8558 165.872 44.3936 164.216 43.5362C163.285 43.053 162.253 42.7989 161.204 42.7948V42.7952Z" fill="#1B1B1B"/>
<path d="M170.898 97.5955C165.274 86.3258 162.637 70.7055 166.446 49.7178L165.959 49.7973L166.013 49.7491C178.522 46.5903 173.031 32.3621 165.437 39.7784V34.5347L159.032 35.3781L139.581 54.1045C139.696 56.4932 139.793 58.8333 139.859 61.1473C140.118 67.9221 139.938 74.7066 139.321 81.4581C139.255 82.1472 139.18 82.8315 139.1 83.5205C138.205 91.069 136.531 98.5044 134.107 105.708L175.655 107.135L170.898 97.5955Z" fill="white"/>
<path d="M175.658 107.685H175.639L134.091 106.259C134.005 106.256 133.921 106.233 133.846 106.192C133.77 106.151 133.706 106.092 133.657 106.022C133.608 105.951 133.576 105.87 133.564 105.785C133.552 105.7 133.559 105.614 133.586 105.532C135.996 98.3634 137.66 90.9649 138.553 83.4542C138.632 82.7707 138.706 82.0897 138.774 81.4043C139.374 75.3861 139.538 69.1436 139.309 61.162C139.24 58.8171 139.147 56.473 139.032 54.1299C139.028 54.0512 139.041 53.9725 139.07 53.8993C139.099 53.8261 139.144 53.7599 139.2 53.7052L158.652 34.9788C158.737 34.8971 158.845 34.8447 158.962 34.8293L165.367 33.9859C165.445 33.9754 165.524 33.9817 165.599 34.0044C165.675 34.0271 165.744 34.0657 165.804 34.1176C165.863 34.1694 165.91 34.2334 165.943 34.3051C165.975 34.3769 165.992 34.4548 165.992 34.5335V38.5652C167.862 37.1186 169.786 36.7278 171.392 37.5038C173.158 38.3575 174.188 40.4969 173.951 42.8274C173.615 46.142 171.018 48.8059 166.948 50.0628C163.585 68.7911 165.081 84.699 171.394 97.3487L176.153 106.887C176.195 106.972 176.215 107.065 176.211 107.159C176.206 107.253 176.178 107.345 176.129 107.425C176.079 107.505 176.01 107.571 175.928 107.617C175.846 107.663 175.753 107.687 175.659 107.687L175.658 107.685ZM134.864 105.181L174.751 106.549L170.405 97.8433C164.035 85.0787 162.48 69.0928 165.781 50.321C165.69 50.2893 165.609 50.2343 165.545 50.1615C165.482 50.0887 165.439 50.0006 165.421 49.9059C165.402 49.8113 165.408 49.7134 165.439 49.6221C165.47 49.5307 165.524 49.449 165.597 49.3852L165.651 49.3373C165.717 49.2786 165.796 49.2368 165.881 49.2154C169.938 48.1912 172.544 45.7616 172.853 42.7166C173.043 40.8464 172.264 39.1519 170.912 38.4996C169.478 37.8069 167.624 38.4183 165.825 40.1754C165.747 40.2512 165.649 40.3024 165.542 40.3226C165.436 40.3428 165.326 40.331 165.226 40.2888C165.126 40.2466 165.04 40.1758 164.98 40.0852C164.92 39.9947 164.888 39.8885 164.888 39.7798V35.1633L159.287 35.8999L140.147 54.3265C140.268 56.8707 140.356 59.0981 140.414 61.1292C140.644 69.1598 140.478 75.4461 139.873 81.5107C139.807 82.2009 139.731 82.8889 139.652 83.5813C138.78 90.9227 137.176 98.1582 134.864 105.18V105.181Z" fill="#1A1A1A"/>
<path d="M152.505 71.529C146.626 76.277 142.849 74.6388 139.335 81.4857C139.331 81.4768 139.326 81.4636 139.322 81.4547C139.939 74.7031 140.119 67.9185 139.86 61.1436L155.897 63.4708C156.74 64.8533 156.299 68.4655 152.505 71.529Z" fill="#1B1B1B"/>
<path d="M139.337 82.0366H139.332C139.23 82.0356 139.13 82.0062 139.043 81.9515C138.956 81.8969 138.887 81.8192 138.842 81.7272C138.834 81.7097 138.826 81.692 138.819 81.6742C138.776 81.5891 138.761 81.4928 138.775 81.3987C139.375 75.3823 139.54 69.1398 139.31 61.1582C139.308 61.0776 139.323 60.9975 139.355 60.9235C139.387 60.8495 139.435 60.7833 139.495 60.7297C139.555 60.6761 139.626 60.6363 139.703 60.6131C139.78 60.5899 139.862 60.5839 139.941 60.5955L155.978 62.9223C156.059 62.9338 156.135 62.9629 156.203 63.0074C156.271 63.052 156.328 63.111 156.37 63.1801C157.348 64.7844 156.906 68.6831 152.854 71.9557C150.993 73.4306 148.935 74.6365 146.739 75.5381C144.031 76.7535 141.892 77.7136 139.828 81.7349C139.782 81.8256 139.712 81.9017 139.625 81.9549C139.538 82.0081 139.439 82.0364 139.337 82.0366ZM140.432 61.7832C140.629 67.5768 140.513 73.3769 140.084 79.158C141.975 76.4673 144.003 75.5565 146.287 74.5316C148.396 73.6668 150.373 72.5108 152.161 71.0973C155.563 68.3498 156.029 65.2252 155.535 63.9742L140.432 61.7832ZM133.575 20.2979C123.399 12.1049 114.094 23.0947 121.677 30.553C132.243 40.9446 143.923 28.6283 133.575 20.2979Z" fill="#1B1B1B"/>
<path d="M130.081 35.0878C127.134 35.0878 124.043 33.6552 121.289 30.9472C117.183 26.9089 117.882 22.1778 120.269 19.4908C122.918 16.5109 128.318 15.3571 133.92 19.8675C137.121 22.443 138.614 25.7252 138.019 28.8718C137.745 30.2323 137.105 31.4922 136.17 32.5168C135.235 33.5413 134.038 34.2918 132.71 34.6879C131.859 34.9544 130.973 35.0892 130.081 35.0878ZM126.337 17.9366C125.351 17.922 124.373 18.1187 123.469 18.5134C122.565 18.9081 121.756 19.4917 121.095 20.2251C119.044 22.5336 118.473 26.6271 122.064 30.1594C125.353 33.393 129.113 34.6591 132.381 33.6338C133.519 33.2973 134.544 32.6572 135.347 31.7823C136.149 30.9073 136.699 29.8303 136.937 28.6667C137.452 25.9336 136.102 23.0403 133.231 20.7286C130.767 18.7461 128.397 17.9366 126.337 17.9366Z" fill="#1B1B1B"/>
<path d="M141.801 72.5378C130.317 72.6236 124.841 62.3313 123.713 52.3448C122.53 41.8817 123.048 30.8367 129.121 22.1214C136.822 11.0727 157.189 11.2569 161.937 29.4375C165.974 44.8891 158.758 72.4114 141.801 72.5378Z" fill="white"/>
<path d="M173.095 28.6049C172.662 31.6912 171.626 36.4421 169.346 37.6785C168.18 37.7554 167.018 38.418 166.113 39.1711C163.413 40.3438 161.281 38.7745 161.244 36.2348C161.239 35.8683 161.235 35.4798 161.226 35.0868C161.16 32.3931 160.653 29.3997 154.928 30.5388C137.532 34.0051 122.854 26.3134 117.53 15.8308C112.383 5.68881 121.782 -5.12933 133.232 4.0363C142.291 -0.984232 152.362 0.147522 158.845 3.27651C171.422 9.34998 174.372 19.5074 173.095 28.6049Z" fill="#1B1B1B"/>
<path d="M164.345 40.1232C163.648 40.1306 162.963 39.934 162.375 39.5575C161.841 39.1894 161.407 38.6932 161.113 38.1143C160.819 37.5354 160.674 36.8921 160.692 36.2429V36.1402C160.688 35.8058 160.684 35.4544 160.676 35.0994C160.639 33.6789 160.477 32.258 159.524 31.4942C158.658 30.7996 157.148 30.6604 155.036 31.0806C146.749 32.732 138.605 31.9862 131.484 28.9232C124.946 26.1109 119.816 21.5504 117.039 16.0813C114.42 10.9215 115.278 5.12907 119.124 1.99529C122.913 -1.09245 128.187 -0.569849 133.287 3.37822C142.711 -1.68761 152.769 -0.267852 159.085 2.78012C173.91 9.93709 174.569 22.0803 173.642 28.6816C173.136 32.2846 172.026 36.8539 169.609 38.1643C169.54 38.2023 169.462 38.2246 169.383 38.2299C168.294 38.3773 167.277 38.8541 166.466 39.5962C166.426 39.6296 166.381 39.6571 166.333 39.678C165.708 39.961 165.031 40.1126 164.345 40.1232ZM157.172 29.7375C158.463 29.7375 159.468 30.0347 160.214 30.632C161.519 31.6784 161.738 33.385 161.779 35.0736C161.787 35.4338 161.791 35.7888 161.796 36.1273V36.2286C161.777 36.6949 161.875 37.1585 162.081 37.5774C162.286 37.9963 162.593 38.3574 162.973 38.628C163.734 39.1211 164.744 39.1436 165.822 38.6943C166.623 38.0398 167.827 37.2705 169.177 37.1386C170.681 36.2238 171.906 33.0999 172.547 28.5284C173.43 22.2255 172.797 10.6295 158.604 3.7756C152.465 0.812343 142.647 -0.54812 133.499 4.52102C133.403 4.574 133.294 4.59735 133.185 4.5881C133.076 4.57886 132.972 4.53744 132.887 4.46909C128.133 0.663554 123.248 0.0595582 119.819 2.85267C116.38 5.65499 115.641 10.8891 118.022 15.5811C123.006 25.3968 137.246 33.501 154.82 29.9986C155.593 29.8357 156.38 29.7486 157.17 29.7386L157.172 29.7375Z" fill="#1B1B1B"/>
<path d="M141.656 73.0895C129.751 73.0895 124.298 62.4216 123.165 52.4056C121.678 39.2613 123.479 29.2512 128.67 21.804C132.664 16.0742 140.192 13.0906 147.403 14.3797C154.852 15.7118 160.345 21.1488 162.473 29.2954C162.503 29.4348 162.479 29.5807 162.404 29.7025C162.33 29.8242 162.211 29.9124 162.073 29.9486C161.936 29.9847 161.789 29.966 161.664 29.8963C161.54 29.8267 161.447 29.7115 161.406 29.5749C159.391 21.8626 154.216 16.7205 147.209 15.4676C140.413 14.2526 133.327 17.0527 129.575 22.436C124.544 29.6545 122.806 39.4142 124.262 52.2811C125.341 61.8217 130.479 71.9846 141.658 71.9846H141.797C147.131 71.9448 151.91 69.0269 155.623 63.546C155.663 63.4847 155.715 63.432 155.775 63.391C155.836 63.3499 155.904 63.3214 155.976 63.307C156.048 63.2926 156.122 63.2927 156.193 63.3072C156.265 63.3217 156.333 63.3503 156.394 63.3914C156.454 63.4325 156.506 63.4853 156.546 63.5467C156.586 63.608 156.614 63.6767 156.627 63.7488C156.64 63.8209 156.639 63.8949 156.623 63.9664C156.608 64.038 156.578 64.1058 156.536 64.1658C152.611 69.9612 147.517 73.0468 141.805 73.0895H141.656Z" fill="#1A1A1A"/>
<path d="M135.894 52.0351C135.789 52.0351 135.687 52.0057 135.599 51.9501C133.576 50.6728 132.568 49.5171 132.331 48.2023C131.971 46.1988 133.475 44.2248 135.753 41.2354C136.27 40.5598 136.782 39.8799 137.289 39.1958C137.376 39.0793 137.506 39.0021 137.65 38.9809C137.794 38.9598 137.94 38.9965 138.058 39.083C138.175 39.1695 138.253 39.2988 138.275 39.4428C138.298 39.5868 138.262 39.7338 138.177 39.8517C137.633 40.5883 137.114 41.2704 136.632 41.9057C134.532 44.6612 133.144 46.4817 133.419 48.0068C133.594 48.9765 134.474 49.9326 136.19 51.015C136.291 51.0788 136.369 51.1739 136.412 51.2859C136.454 51.3979 136.46 51.5208 136.426 51.636C136.393 51.7512 136.323 51.8524 136.228 51.9244C136.132 51.9964 136.015 52.0353 135.895 52.0351H135.894Z" fill="#1A1A1A"/>
<path d="M136.535 39.5175C136.76 37.9134 133.907 36.1859 130.163 35.6591C126.418 35.1322 123.2 36.0055 122.975 37.6096C122.749 39.2138 125.602 40.9412 129.347 41.4681C133.092 41.9949 136.31 41.1216 136.535 39.5175Z" fill="white"/>
<path d="M131.485 42.1759C130.743 42.1744 130.002 42.1212 129.267 42.0168C125.091 41.4275 122.149 39.5021 122.425 37.5343C122.7 35.5665 126.059 34.5254 130.236 35.1132C131.952 35.3223 133.611 35.8658 135.119 36.713C136.524 37.5634 137.219 38.5872 137.078 39.596C136.936 40.6047 135.986 41.3966 134.401 41.8267C133.448 42.0697 132.468 42.187 131.485 42.1759ZM128.051 36.0622C125.489 36.0622 123.643 36.7988 123.518 37.6886C123.362 38.8012 125.853 40.421 129.421 40.9229C130.981 41.1752 132.575 41.1201 134.113 40.7605C135.212 40.4626 135.911 39.9698 135.985 39.4424C136.059 38.915 135.522 38.2484 134.551 37.6584C133.17 36.8887 131.653 36.3959 130.085 36.2077C129.411 36.112 128.731 36.0632 128.051 36.0619L128.051 36.0622Z" fill="#1A1A1A"/>
<path d="M131.889 40.3108C133.032 40.3108 133.96 39.3826 133.96 38.2377C133.96 37.0927 133.032 36.1646 131.889 36.1646C130.745 36.1646 129.818 37.0927 129.818 38.2377C129.818 39.3826 130.745 40.3108 131.889 40.3108Z" fill="#1B1B1B"/>
<path d="M131.897 40.8663C131.275 40.8677 130.672 40.6472 130.196 40.2443C129.721 39.8414 129.405 39.2824 129.304 38.6672C129.202 38.0521 129.323 37.421 129.644 36.8869C129.966 36.3527 130.466 35.9504 131.056 35.7519C131.647 35.5534 132.288 35.5716 132.866 35.8034C133.445 36.0351 133.921 36.4653 134.212 37.0168C134.502 37.5683 134.587 38.2053 134.451 38.8137C134.315 39.4221 133.967 39.9622 133.47 40.3374C133.017 40.6796 132.465 40.8652 131.897 40.8663ZM131.891 36.7197C131.497 36.7202 131.119 36.8735 130.836 37.1475C130.554 37.4215 130.388 37.7946 130.375 38.1884C130.361 38.5821 130.501 38.9657 130.765 39.2582C131.028 39.5508 131.395 39.7295 131.788 39.7567C132.18 39.7839 132.568 39.6575 132.869 39.404C133.171 39.1506 133.362 38.79 133.403 38.3982C133.444 38.0063 133.331 37.6139 133.089 37.3036C132.846 36.9932 132.493 36.7892 132.103 36.7345C132.033 36.7246 131.962 36.7197 131.891 36.7197Z" fill="#1B1B1B"/>
<path d="M156.079 40.789C156.304 39.1849 153.451 37.4574 149.706 36.9305C145.962 36.4037 142.744 37.277 142.518 38.8811C142.293 40.4853 145.146 42.2127 148.891 42.7396C152.635 43.2664 155.853 42.3931 156.079 40.789Z" fill="white"/>
<path d="M151.07 43.4508C150.316 43.4488 149.562 43.3943 148.815 43.2876C144.639 42.6984 141.697 40.7729 141.973 38.8052C142.248 36.8374 145.607 35.7966 149.784 36.384C153.96 36.9714 156.902 38.8987 156.626 40.8665C156.402 42.4641 154.146 43.4508 151.07 43.4508ZM147.601 37.3327C145.039 37.3327 143.193 38.0693 143.067 38.9587C142.911 40.0717 145.402 41.6915 148.97 42.1934C152.538 42.6954 155.378 41.8251 155.534 40.7125C155.691 39.5999 153.199 37.9802 149.632 37.4782C148.959 37.3825 148.281 37.3339 147.601 37.3327Z" fill="#1A1A1A"/>
<path d="M151.437 41.5818C152.581 41.5818 153.508 40.6536 153.508 39.5086C153.508 38.3637 152.581 37.4355 151.437 37.4355C150.293 37.4355 149.366 38.3637 149.366 39.5086C149.366 40.6536 150.293 41.5818 151.437 41.5818Z" fill="#1B1B1B"/>
<path d="M151.444 42.1379C151.32 42.1378 151.196 42.1291 151.073 42.1118C150.403 42.0162 149.797 41.6641 149.381 41.1297C148.965 40.5952 148.773 39.9201 148.844 39.2465C148.916 38.5729 149.246 37.9534 149.765 37.5184C150.283 37.0835 150.951 36.867 151.626 36.9147C152.301 36.9623 152.931 37.2703 153.383 37.7739C153.836 38.2774 154.076 38.9371 154.052 39.6141C154.029 40.2911 153.744 40.9325 153.257 41.4033C152.771 41.874 152.12 42.1374 151.444 42.1379ZM151.438 37.991C151.146 37.9911 150.861 38.0751 150.616 38.2331C150.371 38.391 150.176 38.6162 150.056 38.8818C149.935 39.1473 149.893 39.442 149.935 39.7307C149.977 40.0194 150.101 40.29 150.292 40.51C150.484 40.7301 150.734 40.8904 151.014 40.9719C151.294 41.0533 151.591 41.0524 151.871 40.9694C152.15 40.8863 152.4 40.7245 152.59 40.5033C152.78 40.2821 152.902 40.0109 152.943 39.7219C152.998 39.3227 152.893 38.9177 152.651 38.596C152.408 38.2742 152.048 38.0621 151.649 38.0061C151.579 37.9962 151.508 37.9911 151.438 37.991Z" fill="#1B1B1B"/>
<path d="M232.434 40.48C231.115 41.5749 230.07 42.4139 228.509 43.9239C227.4 44.9929 226.326 46.0974 225.289 47.2355C217.412 46.9924 217.641 44.1887 219.824 43.8841C224.142 43.2309 228.373 42.0889 232.434 40.48Z" fill="white"/>
<path d="M225.287 47.7864H225.27C218.798 47.5868 218.003 45.7763 217.961 45.0073C217.916 44.1761 218.651 43.4888 219.746 43.3356C224.02 42.6899 228.207 41.5596 232.225 39.9665C232.347 39.9171 232.483 39.9131 232.608 39.955C232.733 39.997 232.838 40.0823 232.906 40.1954C232.973 40.3086 232.998 40.4422 232.976 40.5721C232.954 40.702 232.886 40.8197 232.785 40.9038L232.363 41.2533C231.238 42.1844 230.266 42.9887 228.89 44.3201C227.75 45.4224 226.675 46.5298 225.695 47.606C225.644 47.6628 225.581 47.7082 225.51 47.7393C225.44 47.7704 225.364 47.7864 225.287 47.7864ZM229.686 42.0757C226.497 43.1399 223.223 43.9275 219.9 44.4298C219.37 44.5035 219.054 44.7558 219.064 44.9473C219.085 45.3413 220.238 46.4871 225.053 46.6731C226.045 45.593 227.069 44.5431 228.124 43.5249C228.702 42.9651 229.21 42.4981 229.686 42.0757Z" fill="#1A1A1A"/>
<path d="M248.356 38.5283C242.891 37.9303 237.361 38.6385 232.222 40.5947C229.965 42.4539 227.885 44.5178 226.008 46.7603C222.413 51.1138 220.428 53.5423 225.201 57.9563C225.565 58.2597 226.023 58.4253 226.497 58.4244H226.502C227.834 59.5871 229.588 60.8157 231.106 59.9741V59.9716C232.756 61.511 234.752 62.8133 236.42 61.4241C240.109 64.8359 242.535 63.0446 245.944 59.3127L243.874 58.7872H243.885C247.196 57.9968 253.376 55.0033 255.51 52.4599C289.08 71.137 302.195 106.911 269.955 114.709C228.923 124.63 215.016 97.5548 169.472 91.9163C162.507 91.0512 140.86 91.1701 138.624 91.3558C105.817 94.1595 68.9575 108.334 27.1006 136.248C-17.5835 166.047 -9.62198 193.741 81.2416 214.794C83.0192 215.204 87.0197 216.167 90.9759 216.935C92.1138 224.937 93.0181 231.072 93.7899 236.35L227.551 215.072C228.096 201.952 228.292 187.932 228.217 175.13C258.646 169.477 282.509 157.916 302.598 140.905C350.772 100.128 277.684 41.9769 248.356 38.5283ZM58.7342 184.084C45.3247 171.783 55.6852 177.248 75.724 172.074C78.9835 171.235 81.9119 170.462 84.642 169.712C85.9005 179.878 87.2282 190.035 88.6251 200.183C79.7068 199.362 65.5751 190.358 58.7342 184.084Z" fill="white"/>
<path d="M234.883 62.5821C234.002 62.5821 233.026 62.1718 231.913 61.3465C230.184 60.0637 229.338 58.9754 229.165 57.8179C228.912 56.1109 230.142 54.4536 232.004 51.9452C232.469 51.3228 232.928 50.6967 233.382 50.0669C233.467 49.9478 233.596 49.8676 233.74 49.8438C233.885 49.82 234.033 49.8546 234.152 49.94C234.271 50.0254 234.351 50.1546 234.375 50.2992C234.398 50.4438 234.364 50.592 234.279 50.711C233.785 51.3997 233.319 52.0273 232.89 52.6051C231.193 54.8922 230.071 56.4033 230.256 57.657C230.382 58.5011 231.095 59.3658 232.57 60.46C234.503 61.8938 235.424 61.5376 236.069 61.0003C236.182 60.9066 236.327 60.8614 236.472 60.8748C236.618 60.8882 236.753 60.9589 236.846 61.0716C236.94 61.1842 236.985 61.3294 236.972 61.4753C236.958 61.6212 236.888 61.7559 236.775 61.8496C236.253 62.3143 235.581 62.5744 234.883 62.5821Z" fill="#1A1A1A"/>
<path d="M230.025 60.8117C229.149 60.8117 228.18 60.404 227.062 59.5768C225.333 58.2941 224.487 57.2062 224.314 56.0486C224.061 54.342 225.291 52.6847 227.152 50.1766C227.578 49.6032 228.04 48.9804 228.529 48.2983C228.615 48.1793 228.744 48.099 228.888 48.0752C229.033 48.0514 229.18 48.086 229.299 48.1715C229.418 48.2569 229.499 48.3861 229.522 48.5307C229.546 48.6753 229.512 48.8234 229.426 48.9425C228.932 49.6312 228.467 50.2587 228.038 50.8366C226.341 53.1233 225.22 54.634 225.406 55.8877C225.531 56.7318 226.244 57.5962 227.718 58.6896C229.451 59.9716 230.297 59.7904 230.841 59.4892C230.904 59.454 230.974 59.4318 231.046 59.4236C231.118 59.4154 231.191 59.4215 231.261 59.4416C231.33 59.4616 231.395 59.4952 231.452 59.5404C231.509 59.5856 231.556 59.6415 231.591 59.705C231.626 59.7685 231.649 59.8383 231.657 59.9103C231.665 59.9824 231.659 60.0554 231.639 60.1252C231.619 60.1949 231.585 60.26 231.54 60.3168C231.495 60.3735 231.439 60.4208 231.376 60.4559C230.964 60.689 230.499 60.8116 230.025 60.8117ZM240.057 63.8055C239.201 63.7947 238.367 63.5317 237.659 63.0494C235.731 61.8054 234.746 60.6261 234.56 59.3385C234.274 57.3498 235.885 55.4796 238.118 52.8902C238.165 52.8344 238.223 52.7885 238.288 52.7552C238.352 52.7219 238.423 52.7018 238.496 52.696C238.569 52.6903 238.642 52.6991 238.711 52.7218C238.781 52.7446 238.845 52.7808 238.9 52.8286C238.955 52.8763 239 52.9345 239.033 52.9998C239.066 53.0651 239.085 53.1363 239.09 53.2091C239.095 53.282 239.085 53.3551 239.062 53.4243C239.038 53.4934 239.002 53.5572 238.953 53.612C236.989 55.891 235.438 57.6912 235.653 59.1806C235.789 60.1285 236.617 61.0629 238.257 62.121C240.572 63.6159 242.734 61.91 244.908 59.6166L241.135 58.6591C240.979 58.7873 240.832 58.925 240.693 59.0712C240.644 59.1256 240.584 59.1696 240.518 59.2006C240.451 59.2317 240.379 59.2492 240.306 59.2521C240.233 59.2549 240.16 59.2432 240.091 59.2174C240.022 59.1917 239.959 59.1525 239.906 59.1021C239.853 59.0517 239.81 58.9912 239.78 58.9241C239.75 58.857 239.734 58.7846 239.733 58.7112C239.731 58.6378 239.744 58.5648 239.771 58.4965C239.798 58.4283 239.839 58.3661 239.89 58.3136C240.131 58.06 240.393 57.8268 240.673 57.6164C240.739 57.5663 240.815 57.5317 240.896 57.5152C240.977 57.4987 241.061 57.5007 241.142 57.521L246.082 58.7751C246.174 58.7986 246.259 58.8457 246.328 58.9117C246.397 58.9778 246.447 59.0606 246.474 59.1521C246.502 59.2436 246.505 59.3406 246.484 59.4337C246.462 59.5268 246.417 59.6128 246.353 59.6833C244.777 61.4061 242.585 63.8055 240.057 63.8055Z" fill="#1A1A1A"/>
<path d="M225.993 58.5979C225.373 58.5895 224.781 58.3383 224.344 57.8982C219.811 53.3965 222.108 50.6152 225.584 46.4053C227.48 44.1362 229.583 42.0494 231.867 40.172C231.915 40.1307 231.97 40.0982 232.03 40.0759C237.251 38.0871 242.869 37.3676 248.422 37.9766C251.659 38.3571 255.407 39.382 259.565 41.0224C259.7 41.0767 259.809 41.1824 259.866 41.3164C259.924 41.4505 259.926 41.6019 259.873 41.7377C259.819 41.8735 259.715 41.9825 259.581 42.0411C259.447 42.0997 259.296 42.103 259.16 42.0503C255.091 40.4445 251.435 39.4432 248.294 39.0738C242.948 38.488 237.539 39.1738 232.507 41.0754C230.301 42.8942 228.268 44.9137 226.434 47.108C223.019 51.2443 221.304 53.321 225.122 57.1119C225.353 57.3454 225.665 57.4806 225.994 57.4893C226.14 57.4893 226.28 57.5476 226.384 57.6512C226.487 57.7548 226.545 57.8953 226.545 58.0418C226.545 58.1883 226.487 58.3288 226.384 58.4324C226.28 58.536 226.14 58.5942 225.994 58.5942L225.993 58.5979ZM243.885 59.3396C243.749 59.3399 243.619 59.2903 243.517 59.2003C243.416 59.1103 243.351 58.9862 243.336 58.8515C243.32 58.7169 243.354 58.5811 243.432 58.4701C243.51 58.3591 243.625 58.2806 243.757 58.2495C246.866 57.5078 252.994 54.6009 255.088 52.1042C255.171 52.006 255.284 51.9396 255.41 51.9164C255.536 51.8931 255.667 51.9145 255.779 51.9768C258.26 53.3569 260.674 54.8564 263.011 56.4699C263.073 56.5097 263.128 56.5617 263.17 56.6229C263.212 56.6841 263.241 56.7532 263.256 56.826C263.271 56.8989 263.271 56.974 263.257 57.0469C263.242 57.1198 263.212 57.189 263.17 57.2502C263.128 57.3115 263.074 57.3636 263.011 57.4035C262.949 57.4433 262.878 57.47 262.805 57.4821C262.732 57.4941 262.657 57.4912 262.585 57.4736C262.513 57.4559 262.445 57.4238 262.385 57.3792C260.198 55.8696 257.943 54.4612 255.628 53.1583C253.1 55.8136 247.095 58.5898 244.014 59.3249C243.971 59.3349 243.928 59.3398 243.885 59.3396ZM124.321 31.624C124.197 31.624 124.077 31.5825 123.98 31.5061C123.883 31.4297 123.814 31.3229 123.785 31.2027C123.755 31.0825 123.767 30.956 123.818 30.8433C123.869 30.7307 123.957 30.6384 124.066 30.5814C125.433 29.8706 128.82 29.3045 130.538 29.5023C130.61 29.5105 130.68 29.5329 130.743 29.5681C130.806 29.6033 130.862 29.6506 130.907 29.7075C130.953 29.7643 130.986 29.8294 131.006 29.8992C131.026 29.9689 131.032 30.0419 131.024 30.114C131.015 30.1861 130.993 30.2558 130.958 30.3193C130.923 30.3827 130.875 30.4386 130.819 30.4838C130.762 30.5289 130.697 30.5624 130.627 30.5824C130.558 30.6024 130.485 30.6084 130.413 30.6001C128.791 30.416 125.649 31.0031 124.575 31.5617C124.496 31.6027 124.409 31.624 124.321 31.624Z" fill="#1A1A1A"/>
<path d="M303.921 139.755C283.098 158.489 256.229 169.925 228.221 175.127C228.294 187.932 228.098 201.951 227.555 215.069L93.7934 236.347C93.0289 231.165 92.2746 225.981 91.5305 220.796L91.5441 220.8C89.1223 204.163 86.7141 186.466 84.6455 169.709C81.9154 170.46 78.987 171.232 75.7275 172.071C55.6898 177.246 45.3293 171.78 58.7377 184.082C63.1042 188.086 70.4347 193.199 77.4871 196.586C76.3231 196.061 73.8355 200.105 71.8636 204.49C69.8744 208.918 68.4102 213.691 69.3619 214.477C69.3881 214.499 69.4162 214.518 69.4458 214.535C58.3356 211.62 48.6715 208.552 40.3827 205.351C13.4801 194.958 1.04216 183.159 0.645209 170.746C0.629024 170.373 0.626079 169.999 0.636379 169.625C1.09918 168.451 -2.01462 156.683 24.0392 138.346C56.4502 115.545 98.967 94.7432 138.628 91.3524C140.864 91.1683 162.511 91.0478 169.476 91.9129C203.583 96.152 223.228 115.121 250.411 115.496C259.519 115.624 270.392 114.577 278.053 108.943C278.304 108.759 278.556 108.568 278.798 108.374C278.803 108.366 278.811 108.36 278.82 108.356C279.726 107.634 280.576 106.843 281.361 105.99C284.588 102.492 286.38 97.906 286.38 93.1449C286.349 89.797 285.698 86.484 284.461 83.3734C279.517 70.6306 266.025 60.7044 256.348 56.8322L256.353 56.819C260.573 58.1791 266.197 43.6434 262.474 40.7954C300.286 58.3157 340.591 106.895 303.921 139.755Z" fill="white"/>
<path d="M157.826 91.2874C156.688 96.0976 156.148 100.497 156.274 104.689C145.395 103.281 135.771 98.7106 130.315 92.3009C132.819 89.3295 136.36 85.6437 139.102 83.519C141.961 88.0299 152.189 91.6516 157.827 91.2874C161.834 90.7545 164.941 87.564 166.113 83.519C169.58 86.1114 173.588 90.0665 175.657 92.8368C173.541 96.2958 169.731 99.6534 166.1 102.062C164.576 98.3471 161.872 93.6352 157.827 91.2889L157.826 91.2874Z" fill="white"/>
<path d="M141.739 86.1947C140.87 87.0333 139.362 89.0953 137.968 91.4137C136.904 93.1324 136.005 94.9478 135.282 96.8357C122.822 98.5578 106.648 102.802 89.8043 108.736C80.8021 111.906 71.6104 115.562 62.691 119.571C35.0324 132.014 10.0197 147.892 1.55568 163.439L1.55127 163.443C3.2362 158.043 8.35279 149.384 24.037 138.346C35.3207 130.408 47.1055 123.209 59.3174 116.794C73.3921 109.415 88.278 103.035 103.292 98.4528C112.133 95.7167 121.17 93.6633 130.325 92.3109C130.325 92.3065 130.32 92.302 130.316 92.2976C132.821 89.3263 136.358 85.6393 139.102 83.5154C139.812 84.5603 140.706 85.4679 141.739 86.1947ZM281.371 105.976C274.469 117.156 256.689 119.24 245.944 118.273C218.466 115.791 203.708 100.779 173.362 95.8733H173.358C172.721 94.5467 171.949 93.2891 171.056 92.1201C169.327 89.8473 167.311 87.8082 165.058 86.0536C165.505 85.25 165.858 84.3982 166.112 83.5146C169.579 86.1067 173.588 90.0628 175.657 92.8324C175.653 92.8423 175.647 92.8512 175.639 92.8589C206.038 98.4267 224.907 115.144 250.409 115.497C259.517 115.625 270.389 114.578 278.05 108.944C278.301 108.76 278.553 108.569 278.796 108.375C278.801 108.367 278.809 108.361 278.818 108.357C279.724 107.635 280.573 106.844 281.358 105.991L281.371 105.976Z" fill="#AB3B78"/>
<path d="M93.7921 236.901C93.6596 236.901 93.5316 236.854 93.4313 236.767C93.3311 236.68 93.2654 236.56 93.2461 236.429C92.4815 231.246 91.727 226.062 90.9829 220.876C90.9775 220.838 90.9761 220.798 90.9788 220.76C88.4713 203.527 86.1227 186.138 84.1751 170.412C81.7389 171.078 79.0773 171.781 75.8634 172.608C69.3488 174.291 63.8669 174.855 59.8643 175.265C56.3374 175.627 53.5513 175.913 53.2754 176.747C52.9226 177.813 56.0265 180.848 59.109 183.676C63.0668 187.306 70.3579 192.552 77.7242 196.09C77.855 196.153 77.9559 196.265 78.0048 196.401C78.0538 196.538 78.0469 196.689 77.9857 196.821C77.9244 196.952 77.8138 197.055 77.6778 197.105C77.5417 197.156 77.3912 197.151 77.2588 197.091C76.7654 197.032 74.8337 199.227 72.3659 204.718C69.9915 210.004 69.2918 213.594 69.7171 214.056C69.8334 214.122 69.9218 214.228 69.9658 214.354C70.0098 214.481 70.0064 214.619 69.9563 214.743C69.9061 214.867 69.8126 214.969 69.6932 215.029C69.5737 215.09 69.4364 215.104 69.3069 215.071C58.3611 212.2 48.5631 209.105 40.1863 205.868C14.0026 195.753 0.513629 183.943 0.0923966 170.766C0.075486 170.382 0.0724182 169.998 0.0831994 169.614C0.0847379 169.548 0.0978162 169.484 0.121828 169.423C0.143226 169.212 0.153051 169 0.151259 168.787C0.162655 166.918 0.457505 165.061 1.02573 163.28C3.52259 155.278 11.1581 146.737 23.7204 137.896C39.6479 126.672 56.5835 116.955 74.3083 108.87C93.8918 100.032 112.712 94.2785 130.247 91.7657C130.32 91.7536 130.394 91.7562 130.465 91.7733C130.537 91.7903 130.604 91.8215 130.664 91.865C130.723 91.9084 130.773 91.9633 130.811 92.0264C130.848 92.0895 130.873 92.1595 130.884 92.2324C130.894 92.3052 130.89 92.3794 130.871 92.4506C130.853 92.5217 130.82 92.5885 130.775 92.6469C130.731 92.7052 130.675 92.7541 130.611 92.7905C130.547 92.827 130.477 92.8503 130.404 92.8591C97.887 97.5194 59.2337 114.264 24.355 138.8C8.96145 149.634 3.74442 158.272 2.07899 163.61C1.54282 165.292 1.26484 167.045 1.25456 168.811C1.26312 169.114 1.2397 169.418 1.18466 169.717C1.17693 170.095 1.18024 170.417 1.19459 170.723C1.59927 183.423 14.8524 194.898 40.5818 204.838C49.7346 208.301 59.067 211.268 68.5384 213.727C68.3566 211.216 70.5618 206.044 71.3586 204.266C72.2501 202.223 73.3075 200.258 74.5202 198.389C74.9592 197.698 75.4877 197.069 76.0918 196.518C69.024 192.955 62.1739 187.987 58.3633 184.491C53.2453 179.796 51.7542 177.83 52.2273 176.4C52.7276 174.887 55.2227 174.632 59.7514 174.166C63.719 173.759 69.1531 173.201 75.5878 171.539C79.0688 170.643 81.9001 169.893 84.4977 169.179C84.5741 169.158 84.6541 169.154 84.7323 169.166C84.8104 169.179 84.885 169.209 84.9508 169.253C85.0166 169.297 85.0722 169.355 85.1137 169.422C85.1553 169.49 85.1818 169.565 85.1916 169.644C87.1568 185.564 89.5418 203.227 92.0884 220.723C92.094 220.763 92.0955 220.803 92.0928 220.842C92.9757 227.009 93.6313 231.464 94.2563 235.717L227.021 214.597C227.523 202.257 227.746 188.622 227.667 175.132C227.667 175.003 227.711 174.877 227.794 174.777C227.876 174.678 227.991 174.61 228.119 174.586C258.013 169.034 284.097 156.848 303.55 139.346C314.748 129.312 319.391 117.289 317.35 103.612C313.569 78.2796 287.934 53.8016 263.958 42.1158C264.854 44.9998 263.471 49.8185 261.885 52.8544C260.766 54.9952 259.539 56.4386 258.333 57.0823C268.302 61.5946 280.367 71.302 284.974 83.176C286.234 86.3501 286.897 89.7301 286.93 93.1456C286.935 98.0398 285.095 102.756 281.779 106.352L281.749 106.383C280.949 107.25 280.085 108.055 279.162 108.791L279.149 108.801L279.141 108.808C278.89 109.007 278.636 109.202 278.378 109.391C272.045 114.048 262.89 116.223 250.401 116.051C236.404 115.857 224.305 110.736 211.495 105.314C200.595 100.7 189.323 95.9284 175.54 93.4042C175.397 93.3778 175.269 93.2953 175.186 93.1747C175.103 93.0541 175.071 92.9054 175.097 92.7613C175.123 92.6172 175.206 92.4895 175.326 92.4062C175.447 92.3229 175.595 92.291 175.739 92.3173C189.641 94.8637 200.969 99.6585 211.925 104.296C224.632 109.675 236.635 114.755 250.417 114.946C262.654 115.119 271.592 113.01 277.724 108.501C277.97 108.321 278.212 108.136 278.451 107.946L278.473 107.927C279.357 107.222 280.186 106.451 280.952 105.619L280.981 105.588C284.101 102.2 285.831 97.7583 285.826 93.1497C285.794 89.8699 285.156 86.6244 283.945 83.5767C279.179 71.2928 266.191 61.3688 256.141 57.3479C256.01 57.2954 255.904 57.1946 255.845 57.0663C255.785 56.938 255.778 56.7919 255.823 56.6581C255.869 56.519 255.968 56.4034 256.098 56.3358C256.228 56.2682 256.379 56.254 256.519 56.296C257.726 56.6827 259.448 55.133 260.907 52.3421C263.029 48.2795 264.007 42.6675 262.137 41.237C262.029 41.1544 261.956 41.0348 261.93 40.9013C261.905 40.7677 261.93 40.6296 262 40.5132C262.07 40.3968 262.181 40.3104 262.311 40.2705C262.44 40.2305 262.58 40.2399 262.703 40.2968C275.742 46.3367 288.502 55.688 298.633 66.624C309.794 78.6718 316.643 91.4058 318.441 103.449C320.54 117.518 315.778 129.871 304.287 140.168C284.782 157.717 258.679 169.959 228.773 175.587C228.847 189.108 228.614 202.758 228.104 215.093C228.099 215.221 228.05 215.343 227.965 215.438C227.88 215.533 227.765 215.596 227.639 215.616L93.8785 236.895C93.8499 236.899 93.821 236.901 93.7921 236.901Z" fill="#1A1A1A"/>
<path d="M71.8638 212.518C70.9286 213.834 70.1218 214.602 69.6145 214.581C69.6077 214.577 69.6001 214.576 69.5924 214.576C69.5483 214.563 69.4997 214.55 69.46 214.539C69.4583 214.538 69.4562 214.537 69.4539 214.536C69.4516 214.535 69.4492 214.535 69.4468 214.535C69.0233 214.314 68.988 213.325 69.2794 211.855C70.1307 212.077 70.9952 212.298 71.8638 212.518Z" fill="#1B1B1B"/>
<path d="M69.6404 215.134H69.5885C69.5555 215.132 69.5228 215.128 69.4906 215.12C69.4712 215.117 69.4519 215.112 69.4329 215.107C69.4017 215.097 69.3701 215.089 69.3383 215.081C69.3169 215.076 69.2958 215.07 69.2751 215.063C69.2456 215.053 69.217 215.041 69.1897 215.026C68.5076 214.67 68.3634 213.629 68.7357 211.748C68.7504 211.674 68.7799 211.604 68.8225 211.542C68.8652 211.481 68.92 211.428 68.9836 211.388C69.0473 211.348 69.1184 211.321 69.1927 211.31C69.267 211.298 69.3428 211.302 69.4156 211.321C70.2662 211.542 71.1296 211.763 71.9974 211.984C72.0844 212.006 72.1646 212.049 72.2313 212.109C72.2979 212.169 72.3489 212.245 72.3798 212.329C72.4107 212.413 72.4206 212.504 72.4086 212.593C72.3967 212.682 72.3633 212.767 72.3112 212.84C70.8761 214.858 70.1021 215.134 69.6404 215.134ZM69.7176 212.54C69.6041 213.023 69.5999 213.525 69.7051 214.009C69.8795 213.936 70.2853 213.646 70.9228 212.849C70.5194 212.746 70.1178 212.644 69.718 212.54H69.7176ZM40.383 205.352C13.4782 194.959 1.04026 183.16 0.643311 170.748C0.691501 170.923 0.725336 171.102 0.74448 171.282C1.82092 181.067 18.1187 191.723 12.8388 180.995C7.47131 170.088 18.1919 167.066 26.0556 183.854C28.9784 190.095 32.3406 196.256 40.383 205.352Z" fill="#1B1B1B"/>
<path d="M40.3812 205.907C40.3133 205.907 40.2459 205.894 40.1825 205.87C14.0003 195.755 0.51131 183.945 0.0900776 170.768C0.0861667 170.633 0.131421 170.502 0.217346 170.398C0.303271 170.295 0.423961 170.227 0.556763 170.206C0.689566 170.185 0.825351 170.214 0.938634 170.286C1.05192 170.358 1.13491 170.47 1.17204 170.599C1.22896 170.803 1.26883 171.012 1.29123 171.223C1.96594 177.357 8.8013 183.787 12.1024 184.802C12.6502 184.97 13.0644 184.968 13.2104 184.797C13.3035 184.687 13.7001 184 12.3419 181.241C10.6418 177.787 10.3667 174.773 11.5873 172.971C11.948 172.447 12.4457 172.034 13.0258 171.775C13.6058 171.516 14.246 171.422 14.8759 171.503C17.8885 171.741 22.5382 175.049 26.5534 183.622C29.2022 189.279 32.4856 195.589 40.7943 204.988C40.8648 205.068 40.9107 205.166 40.9266 205.271C40.9426 205.376 40.9279 205.484 40.8842 205.581C40.8406 205.678 40.7699 205.76 40.6807 205.818C40.5915 205.876 40.4875 205.907 40.3812 205.907ZM2.99088 178.234C7.27567 187.639 19.1625 196.28 38.4866 204.016C31.1593 195.435 28.0753 189.472 25.5542 184.091C21.7355 175.939 17.3687 172.808 14.7905 172.606C14.3552 172.541 13.9105 172.599 13.5063 172.773C13.1021 172.948 12.7543 173.231 12.5019 173.592C11.5248 175.034 11.8356 177.712 13.333 180.754C14.5102 183.143 14.7442 184.7 14.0518 185.514C13.7306 185.892 13.0762 186.258 11.7797 185.859C9.44069 185.14 5.61502 182.092 2.99088 178.234Z" fill="#1B1B1B"/>
<path d="M166.101 102.609C165.992 102.61 165.885 102.577 165.794 102.516C165.703 102.455 165.632 102.369 165.591 102.267C164.424 99.4249 161.835 94.285 157.608 91.8013C157.591 91.7913 157.575 91.7804 157.559 91.7685C157.462 91.7074 157.385 91.6185 157.339 91.5135C157.294 91.4084 157.28 91.292 157.301 91.1792C157.321 91.0673 157.376 90.9645 157.458 90.8852C157.539 90.806 157.643 90.7543 157.756 90.7373C160.558 90.369 163.045 88.5644 164.578 85.7897C165.005 85.0218 165.342 84.2081 165.586 83.3641C165.61 83.2784 165.656 83.2001 165.717 83.1357C165.779 83.0713 165.856 83.0229 165.94 82.9945C166.025 82.9661 166.115 82.9587 166.203 82.9727C166.291 82.9868 166.374 83.022 166.445 83.0754C169.874 85.6387 173.935 89.604 176.102 92.5036C176.163 92.5857 176.201 92.6833 176.21 92.7854C176.219 92.8875 176.199 92.9902 176.153 93.0818C176.14 93.1074 176.125 93.132 176.108 93.1555C175.423 94.2508 174.644 95.2837 173.778 96.2425C173.765 96.2575 173.751 96.2718 173.736 96.2852C171.56 98.6586 169.098 100.752 166.406 102.518C166.316 102.578 166.21 102.61 166.101 102.609ZM159.243 91.5523C162.83 94.1605 165.139 98.4415 166.349 101.224C168.765 99.5842 170.98 97.6658 172.949 95.5081C172.963 95.4934 172.977 95.479 172.992 95.4654C173.722 94.6499 174.39 93.7797 174.988 92.8623C172.965 90.243 169.492 86.8382 166.399 84.4285C166.167 85.0832 165.88 85.7174 165.542 86.3244C164.085 88.9625 161.836 90.8128 159.243 91.5523Z" fill="#1A1A1A"/>
<path d="M156.275 105.238C156.252 105.239 156.228 105.237 156.205 105.234C148.111 104.187 140.569 101.364 134.961 97.2863C133.102 95.9519 131.406 94.4036 129.907 92.6731C129.821 92.5719 129.773 92.4438 129.771 92.3108C129.769 92.1778 129.813 92.0482 129.896 91.9443C132.131 89.2926 135.796 85.3806 138.766 83.0814C138.827 83.0343 138.897 83.0005 138.971 82.982C139.046 82.9635 139.123 82.9608 139.199 82.9741C139.275 82.9874 139.347 83.0163 139.411 83.0591C139.474 83.1019 139.529 83.1575 139.57 83.2225C140.234 84.198 141.068 85.0463 142.031 85.7268C142.046 85.7357 142.06 85.7449 142.074 85.7548C145.581 88.3509 151.647 90.4921 156.19 90.7382C156.222 90.7383 156.255 90.7402 156.287 90.7437C156.606 90.7558 156.913 90.7599 157.205 90.7599C157.4 90.7558 157.596 90.7473 157.791 90.7345C157.878 90.7287 157.966 90.7439 158.047 90.779C158.127 90.8141 158.198 90.8679 158.254 90.936C158.31 91.0042 158.348 91.0846 158.367 91.1707C158.385 91.2568 158.382 91.346 158.359 91.4309L158.355 91.4482C157.207 96.3096 156.706 100.635 156.826 104.67C156.828 104.744 156.815 104.817 156.788 104.886C156.762 104.955 156.721 105.018 156.67 105.071C156.618 105.124 156.557 105.166 156.489 105.195C156.421 105.224 156.348 105.239 156.274 105.239L156.275 105.238ZM131.048 92.2971C132.416 93.8229 133.946 95.196 135.609 96.3925C140.923 100.257 148.04 102.966 155.71 104.053C155.699 99.9484 156.175 95.857 157.127 91.8647C156.83 91.8647 156.53 91.8592 156.219 91.8471C156.202 91.8471 156.186 91.8449 156.17 91.843H156.145C151.352 91.5871 145.186 89.4152 141.459 86.6737C141.443 86.6646 141.428 86.6547 141.414 86.6439C140.499 85.9874 139.681 85.2044 138.986 84.3181C136.305 86.4881 133.145 89.8443 131.048 92.2971ZM104.759 128.185C104.111 132.83 98.8049 134.941 91.4434 129.732C85.7411 125.696 81.6649 120 77.2278 120.932C72.5189 121.916 66.8718 121.863 62.6963 119.576C61.3997 118.882 60.253 117.938 59.322 116.799C73.3967 109.421 88.2825 103.041 103.296 98.4582L99.3968 100.03C97.046 100.966 87.5762 104.344 89.8081 108.742C89.9334 108.995 90.0857 109.233 90.2625 109.453C93.7148 113.861 105.562 122.471 104.759 128.185ZM58.9953 212.18C58.9001 212.18 58.8065 212.155 58.7236 212.108C58.6407 212.061 58.5713 211.994 58.5222 211.912C57.3004 209.882 59.2488 204.06 61.288 199.692C63.1219 195.764 65.8104 191.328 67.8555 190.658C67.9246 190.635 67.9978 190.625 68.0706 190.63C68.1435 190.635 68.2146 190.654 68.28 190.687C68.3453 190.719 68.4035 190.765 68.4512 190.82C68.499 190.875 68.5352 190.94 68.5579 191.009C68.5806 191.079 68.5894 191.152 68.5836 191.225C68.5778 191.298 68.5576 191.369 68.5242 191.434C68.4908 191.499 68.4448 191.557 68.3889 191.604C68.3331 191.651 68.2684 191.686 68.1988 191.708C66.8328 192.155 64.4022 195.63 62.2879 200.16C59.8705 205.338 58.6826 210.041 59.4673 211.342C59.5177 211.426 59.545 211.521 59.5464 211.619C59.5478 211.717 59.5232 211.813 59.4752 211.899C59.4272 211.984 59.3575 212.055 59.2732 212.104C59.1889 212.153 59.093 212.179 58.9953 212.18ZM54.1384 180.063C54.06 180.063 53.9825 180.046 53.9111 180.014C53.8396 179.982 53.7759 179.934 53.7242 179.875C47.3049 172.583 47.6883 167.406 49.0583 162.897C49.1009 162.757 49.1974 162.639 49.3265 162.57C49.4557 162.501 49.6069 162.487 49.747 162.529C49.887 162.572 50.0044 162.668 50.0734 162.798C50.1423 162.927 50.1571 163.078 50.1145 163.219C48.8372 167.421 48.4906 172.259 54.5519 179.145C54.6222 179.224 54.6679 179.323 54.6837 179.428C54.6995 179.533 54.6847 179.64 54.6411 179.737C54.5974 179.834 54.5268 179.916 54.4376 179.974C54.3485 180.032 54.2446 180.062 54.1384 180.062V180.063Z" fill="#1A1A1A"/>
<path d="M294.634 108.4C294.484 115.8 290.011 116.318 288.313 111.821C285.875 105.362 282.341 105.803 278.817 108.359C279.724 107.637 280.573 106.846 281.358 105.993C284.585 102.495 286.377 97.9091 286.377 93.1479C286.346 89.8001 285.695 86.4871 284.459 83.3765H284.463C290.038 91.0557 294.828 98.5264 294.634 108.4Z" fill="#1B1B1B"/>
<path d="M291.36 115.245C289.922 115.245 288.558 114.026 287.797 112.014C286.783 109.326 285.519 107.74 284.043 107.297C282.699 106.894 281.096 107.386 279.142 108.804C279.025 108.889 278.88 108.924 278.738 108.903C278.595 108.882 278.467 108.806 278.379 108.691C278.292 108.577 278.253 108.432 278.271 108.289C278.288 108.146 278.361 108.016 278.473 107.926C279.357 107.221 280.186 106.449 280.951 105.617C284.089 102.225 285.83 97.7709 285.826 93.1479C285.794 89.8682 285.156 86.6226 283.945 83.575C283.912 83.4913 283.901 83.4008 283.911 83.3116C283.921 83.2223 283.953 83.1369 284.003 83.0627C284.056 82.9933 284.124 82.9369 284.202 82.8976C284.28 82.8583 284.366 82.8373 284.453 82.836C284.54 82.8347 284.627 82.8533 284.706 82.8902C284.785 82.9272 284.855 82.9816 284.91 83.0494C290.438 90.6638 295.384 98.3335 295.186 108.408C295.093 113.005 293.373 114.935 291.795 115.207C291.651 115.232 291.506 115.244 291.36 115.245ZM283.098 106.055C283.525 106.054 283.95 106.116 284.359 106.239C286.209 106.794 287.671 108.555 288.83 111.624C289.471 113.32 290.559 114.302 291.608 114.119C292.7 113.931 294.003 112.316 294.082 108.386C294.249 99.9108 290.597 93.1295 286.076 86.5946C286.629 88.7343 286.916 90.9344 286.929 93.1446C286.936 97.9685 285.148 102.622 281.915 106.199C282.302 106.105 282.699 106.057 283.098 106.055ZM107.155 201.214C116.713 207.378 99.8029 215.348 90.8007 210.217C90.5347 210.062 90.2576 209.926 89.9714 209.812C88.0441 196.191 86.2797 182.948 84.6433 169.711C80.5811 170.841 89.9814 168.429 99.8923 164.994C104.904 170.121 112.148 175.023 119.007 178.498C135.494 186.846 97.8534 195.214 107.155 201.214Z" fill="#1B1B1B"/>
<path d="M97.6508 212.379C95.1017 212.379 92.5839 211.868 90.5293 210.697C90.2867 210.555 90.0339 210.431 89.7729 210.325C89.6816 210.29 89.6015 210.231 89.5406 210.154C89.4798 210.077 89.4405 209.985 89.4267 209.888C87.4846 196.164 85.7673 183.253 84.1795 170.442C84.0662 170.467 83.9702 170.487 83.8881 170.501L83.8738 170.506V170.503C83.4901 170.567 83.4209 170.503 83.3069 170.401C83.2335 170.335 83.1793 170.25 83.1498 170.155C83.1204 170.061 83.1168 169.96 83.1395 169.864C83.2175 169.533 83.2175 169.533 84.4985 169.178C84.5557 169.162 84.615 169.155 84.6743 169.158C87.1583 168.471 93.4271 166.65 99.7143 164.471C99.8132 164.437 99.9197 164.431 100.021 164.455C100.123 164.479 100.216 164.531 100.289 164.606C104.95 169.374 111.864 174.256 119.259 178.004C122.235 179.511 123.718 181.129 123.792 182.95C123.931 186.4 118.854 189.51 113.945 192.518C110.152 194.841 106.23 197.244 106.209 199.083C106.202 199.658 106.61 200.203 107.457 200.75C111.629 203.44 110.565 206.231 109.914 207.305C108.115 210.277 102.82 212.379 97.6508 212.379ZM90.477 209.425C90.6702 209.514 90.8714 209.619 91.0789 209.738C97.1218 213.182 106.788 210.338 108.97 206.734C110.3 204.538 108.556 202.773 106.859 201.678C105.684 200.92 105.093 200.043 105.105 199.07C105.134 196.62 108.95 194.282 113.369 191.575C117.788 188.868 122.802 185.797 122.689 182.994C122.633 181.628 121.312 180.28 118.761 178.988C111.391 175.254 104.483 170.398 99.7463 165.628C95.5178 167.085 91.5016 168.319 88.8499 169.105C87.183 169.599 86.0443 169.935 85.2578 170.157C86.8368 182.916 88.5452 195.77 90.4759 209.426L90.477 209.425ZM292.947 148.463C272.728 162.974 250.657 170.96 228.22 175.128C228.163 164.994 227.96 155.09 227.162 145.955C226.319 136.399 234.325 135.852 242.401 146.718C252.704 160.579 261.044 159.594 273.24 156.821C282.352 154.75 287.548 152.154 292.942 148.458L292.947 148.463Z" fill="#1B1B1B"/>
<path d="M228.221 175.683C228.075 175.683 227.935 175.625 227.831 175.523C227.728 175.42 227.669 175.28 227.669 175.134C227.618 166.125 227.452 155.619 226.612 146.006C226.265 142.071 227.396 139.308 229.714 138.424C233.179 137.104 238.209 140.155 242.844 146.392C252.997 160.05 260.962 159.049 273.118 156.285C282.373 154.182 287.445 151.558 292.631 148.006C292.737 147.933 292.865 147.899 292.993 147.911C293.122 147.923 293.242 147.98 293.333 148.071C293.39 148.128 293.434 148.196 293.461 148.272C293.489 148.348 293.501 148.428 293.495 148.509C293.488 148.589 293.465 148.666 293.426 148.736C293.387 148.806 293.333 148.867 293.268 148.914C274.678 162.255 253.434 171.008 228.321 175.673C228.288 175.679 228.254 175.683 228.221 175.683ZM231.379 139.24C230.945 139.234 230.514 139.307 230.107 139.456C228.284 140.151 227.411 142.503 227.712 145.909C228.535 155.328 228.713 165.584 228.768 174.466C248.998 170.641 266.688 164.132 282.49 154.672C279.515 155.784 276.464 156.683 273.362 157.363C260.727 160.236 252.308 160.975 241.958 147.051C237.631 141.228 233.817 139.239 231.379 139.239V139.24Z" fill="#1B1B1B"/>
<path d="M180.258 140.921C188.643 139.106 197.957 138.749 205.794 140.001L205.406 132.614C197.57 131.359 188.256 131.717 179.871 133.535L180.258 140.921Z" fill="#AB3B78"/>
<path d="M171.745 215.215H171.74C171.668 215.214 171.596 215.199 171.529 215.171C171.463 215.143 171.402 215.102 171.351 215.05C171.301 214.998 171.26 214.937 171.233 214.87C171.206 214.802 171.192 214.731 171.193 214.658C171.239 208.742 171.2 202.854 171.078 197.158V197.117C171.078 197.087 171.075 197.057 171.075 197.027C170.744 181.032 169.788 165.431 168.242 150.669C168.221 150.418 168.195 150.166 168.164 149.915C166.801 137.084 164.991 124.997 162.785 113.979C161.166 105.896 159.319 98.3152 157.297 91.4463C157.282 91.3956 157.274 91.343 157.274 91.2901C157.273 91.1532 157.322 91.0207 157.412 90.9181C157.503 90.8155 157.628 90.7502 157.764 90.7349C157.9 90.7196 158.037 90.7553 158.148 90.8352C158.259 90.915 158.336 91.0333 158.365 91.1671C160.392 98.0585 162.243 105.66 163.867 113.762C166.08 124.811 167.894 136.934 169.26 149.789C169.291 150.039 169.318 150.302 169.341 150.563C170.89 165.345 171.845 180.976 172.179 197.014V197.054C172.179 197.085 172.182 197.115 172.182 197.145C172.305 202.984 172.343 208.825 172.297 214.665C172.296 214.811 172.237 214.951 172.134 215.054C172.03 215.157 171.891 215.215 171.745 215.215Z" fill="#1A1A1A"/>
<path d="M168.713 149.845C167.879 142.56 164.938 138.312 164.201 131.323C163.764 127.15 164.889 122.204 163.328 113.868C165.639 125.41 167.408 137.557 168.713 149.845Z" fill="#1B1B1B"/>
<path d="M168.712 150.4C168.576 150.4 168.446 150.35 168.345 150.26C168.244 150.17 168.179 150.046 168.164 149.911C167.754 146.324 166.809 143.439 165.896 140.648C164.976 137.84 164.026 134.936 163.651 131.383C163.522 129.736 163.5 128.082 163.584 126.431C163.671 123.244 163.778 119.278 162.784 113.973C162.77 113.902 162.771 113.828 162.785 113.757C162.8 113.686 162.828 113.619 162.869 113.558C162.909 113.498 162.961 113.447 163.022 113.407C163.082 113.367 163.15 113.339 163.221 113.325C163.292 113.311 163.365 113.312 163.436 113.326C163.507 113.341 163.575 113.369 163.635 113.409C163.695 113.45 163.747 113.502 163.787 113.563C163.827 113.623 163.854 113.691 163.868 113.762C166.081 124.811 167.895 136.933 169.261 149.789C169.276 149.935 169.234 150.08 169.142 150.194C169.051 150.308 168.918 150.381 168.773 150.397C168.752 150.399 168.732 150.4 168.712 150.4ZM164.731 124.581C164.721 125.237 164.704 125.862 164.688 126.46C164.605 128.062 164.626 129.667 164.749 131.266C165.111 134.702 166 137.423 166.944 140.303L167.105 140.793C166.399 135.215 165.608 129.811 164.731 124.581ZM171.628 197.027C171.345 188.713 169.114 184.858 168.574 177.392C168.018 169.603 169.981 163.633 168.79 150.612C170.423 166.185 171.315 181.975 171.628 197.027Z" fill="#1B1B1B"/>
<path d="M171.626 197.58C171.483 197.58 171.345 197.524 171.242 197.425C171.139 197.325 171.079 197.189 171.074 197.046C170.923 192.601 170.197 189.395 169.495 186.294C168.767 183.384 168.275 180.42 168.023 177.431C167.787 174.12 167.995 171.212 168.236 167.844C168.56 163.309 168.927 158.17 168.24 150.662C168.229 150.518 168.275 150.376 168.368 150.265C168.461 150.154 168.593 150.084 168.737 150.07C168.88 150.056 169.024 150.099 169.136 150.189C169.249 150.28 169.321 150.411 169.339 150.554C170.889 165.348 171.844 180.98 172.178 197.016C172.181 197.162 172.126 197.303 172.025 197.408C171.925 197.514 171.787 197.576 171.641 197.579L171.626 197.58ZM169.536 164.986C169.475 165.965 169.409 166.944 169.337 167.923C169.099 171.248 168.896 174.12 169.125 177.351C169.371 180.284 169.855 183.193 170.572 186.048L170.782 186.979C170.509 179.641 170.094 172.309 169.536 164.987V164.986Z" fill="#1B1B1B"/>
<path d="M265.326 61.7638C265.067 61.7636 264.809 61.7226 264.563 61.6423C264.492 61.6213 264.427 61.5864 264.37 61.5397C264.313 61.493 264.266 61.4355 264.232 61.3704C264.198 61.3053 264.177 61.234 264.17 61.1607C264.164 61.0874 264.172 61.0136 264.195 60.9435C264.217 60.8735 264.254 60.8086 264.301 60.7528C264.349 60.697 264.408 60.6513 264.474 60.6185C264.539 60.5856 264.611 60.5663 264.684 60.5615C264.758 60.5567 264.831 60.5667 264.901 60.5908C266.359 61.0604 268.46 58.7961 270.014 55.0856C271.795 50.8341 271.99 46.7501 270.468 45.5837C270.355 45.4934 270.283 45.3627 270.265 45.2196C270.248 45.0764 270.287 44.9322 270.375 44.8176C270.462 44.703 270.591 44.6272 270.733 44.6064C270.876 44.5855 271.021 44.6213 271.138 44.7061C273.438 46.4658 272.696 51.5412 271.032 55.5117C269.716 58.6591 267.586 61.7638 265.326 61.7638Z" fill="#1A1A1A"/>
<path d="M263.585 43.3534C262.814 42.9956 262.05 42.6557 261.296 42.3336C260.656 42.0585 260.012 41.7935 259.364 41.5388C260.26 40.7264 261.151 40.3466 261.909 40.5363H261.914C261.953 40.5496 261.998 40.5628 262.042 40.5761C262.178 40.6246 262.307 40.6915 262.425 40.775C263.056 41.2165 263.444 42.1391 263.585 43.3534Z" fill="#1B1B1B"/>
<path d="M263.584 43.9052C263.504 43.9052 263.425 43.8879 263.352 43.8544C262.599 43.5052 261.841 43.1673 261.078 42.8409C260.369 42.5345 259.68 42.2582 259.16 42.052C259.073 42.0175 258.996 41.9613 258.936 41.8887C258.877 41.8161 258.837 41.7295 258.82 41.6372C258.803 41.5448 258.81 41.4497 258.84 41.3608C258.871 41.2719 258.923 41.1921 258.992 41.1291C260.051 40.1682 261.095 39.7763 262.014 39.9933C262.039 39.9979 262.064 40.0042 262.088 40.012L262.185 40.0426C262.194 40.0448 262.216 40.0518 262.225 40.0551C262.408 40.1203 262.581 40.2103 262.74 40.3225C263.485 40.8436 263.966 41.8693 264.131 43.2891C264.14 43.3665 264.132 43.4449 264.109 43.5191C264.085 43.5934 264.046 43.6619 263.995 43.7201C263.943 43.7783 263.879 43.8248 263.808 43.8567C263.738 43.8887 263.661 43.9052 263.583 43.9052H263.584ZM260.47 41.3876C260.801 41.5228 261.154 41.6704 261.514 41.8259C261.949 42.0119 262.39 42.2052 262.833 42.4037C262.725 41.943 262.471 41.5299 262.108 41.227C262.03 41.1721 261.945 41.1281 261.856 41.0963C261.829 41.0885 261.802 41.0804 261.775 41.072C261.315 41.0014 260.847 41.1148 260.47 41.3876ZM227.556 253.255C200.997 256 188.668 256 164.389 256C125.655 256 106.668 253.804 93.7917 252.706C94.008 248.789 93.6139 240.25 93.7917 236.348C107.477 227.623 133.708 219.539 164.389 215.529C189.058 212.306 211.623 212.362 227.556 215.07C227.638 218.329 227.528 249.984 227.556 253.255Z" fill="white"/>
<path d="M93.2028 248.626C93.1277 248.626 93.0534 248.611 92.9843 248.582C92.9153 248.552 92.8531 248.508 92.8014 248.454C92.7497 248.399 92.7098 248.335 92.6839 248.264C92.658 248.194 92.6468 248.118 92.651 248.043C92.8717 244.017 93.0722 240.074 93.2422 236.321C93.246 236.233 93.2711 236.146 93.3155 236.069C93.3598 235.992 93.422 235.927 93.4968 235.879C107.67 226.844 134.807 218.835 164.319 214.979C188.033 211.88 211.114 211.714 227.647 214.523C227.773 214.544 227.888 214.609 227.972 214.705C228.056 214.802 228.103 214.925 228.107 215.053C228.192 218.382 228.248 221.68 228.274 224.856C228.275 224.936 228.259 225.016 228.226 225.089C228.193 225.162 228.145 225.227 228.084 225.28C228.024 225.332 227.953 225.371 227.876 225.393C227.799 225.416 227.718 225.421 227.639 225.409C211.125 222.874 189.345 223.137 166.31 226.148C134.681 230.28 106.792 238.854 93.5269 248.521C93.4327 248.59 93.3192 248.626 93.2028 248.626ZM94.3322 236.659C94.1814 239.974 94.0081 243.431 93.8172 246.962C107.565 237.465 135.091 229.111 166.168 225.052C189.007 222.066 210.633 221.774 227.166 224.219C227.14 221.395 227.089 218.48 227.016 215.538C210.62 212.825 187.86 213.019 164.463 216.075C135.269 219.89 108.444 227.768 94.3322 236.659Z" fill="#1B1B1B"/>
<path d="M181.344 215.122L159.622 217.634C158.024 217.819 156.879 219.265 157.064 220.864L157.197 222.016C157.381 223.615 158.826 224.761 160.423 224.577L182.145 222.065C183.742 221.88 184.888 220.434 184.703 218.835L184.57 217.683C184.386 216.084 182.941 214.937 181.344 215.122Z" fill="#481140"/>
<path d="M110.683 206.199C115.041 208.517 119.985 211.29 122.548 213.229C126.257 216.037 125.196 216.964 118.317 215.357C114.219 214.394 109.359 212.602 106.889 211.63C111.825 213.869 119.076 217.944 120.677 219.3C122.674 220.994 118.334 221.393 114.414 220.307C111.172 219.41 106.026 217.353 103.369 216.24C105.195 218.611 107.563 221.817 109.681 224.731C112.711 228.904 109.822 230.153 106.492 227.036C105.134 225.764 100.511 221.137 97.3133 217.936C92.7795 217.494 85.4534 215.776 82.0828 214.989L84.9497 199.482C86.2154 199.842 87.5118 200.083 88.8221 200.202C92.8358 198.272 97.7986 196.93 102.517 196.254C111.25 199.191 126.595 204.467 124.729 206.94C123.699 208.31 116.302 207.361 110.683 206.199Z" fill="white"/>
<path d="M109.808 229.338C108.772 229.338 107.433 228.673 106.119 227.443C104.773 226.182 100.352 221.758 97.0662 218.469C92.5471 218.001 85.509 216.359 82.1009 215.564L81.9622 215.532C81.9408 215.527 81.9196 215.52 81.8989 215.513C77.6842 214.545 73.483 213.519 69.2965 212.436C69.2232 212.421 69.1538 212.391 69.0924 212.348C69.0311 212.305 68.979 212.251 68.9395 212.187C68.9 212.123 68.8738 212.052 68.8625 211.978C68.8512 211.904 68.8551 211.829 68.8739 211.756C68.8927 211.684 68.926 211.616 68.9719 211.557C69.0177 211.497 69.0751 211.448 69.1405 211.412C69.206 211.376 69.2781 211.353 69.3525 211.346C69.427 211.338 69.5022 211.346 69.5735 211.368C73.7718 212.454 77.9849 213.483 82.2116 214.453C82.2341 214.458 82.2562 214.464 82.2778 214.472L82.3514 214.489C85.7864 215.291 92.9341 216.957 97.3704 217.39C97.4978 217.403 97.6169 217.459 97.7074 217.55C100.828 220.674 105.523 225.373 106.873 226.637C108.543 228.2 109.88 228.435 110.257 228.101C110.548 227.844 110.517 226.822 109.238 225.06C107.827 223.118 105.132 219.433 102.936 216.582C102.861 216.485 102.821 216.367 102.821 216.245C102.821 216.123 102.861 216.005 102.935 215.908C103.009 215.811 103.113 215.742 103.231 215.711C103.349 215.679 103.474 215.688 103.586 215.735C104.767 216.23 110.848 218.751 114.564 219.779C117.676 220.641 120.198 220.392 120.614 220.042C120.536 219.921 120.438 219.814 120.324 219.726C118.842 218.472 111.683 214.414 106.665 212.139C106.532 212.081 106.427 211.973 106.374 211.838C106.32 211.703 106.322 211.552 106.378 211.418C106.435 211.285 106.541 211.178 106.676 211.123C106.81 211.067 106.96 211.067 107.094 211.122C109.061 211.895 114.105 213.805 118.447 214.825C122.774 215.835 123.847 215.607 124.087 215.5C124.021 215.332 123.708 214.803 122.218 213.675C120.118 212.087 116.151 209.738 110.427 206.693C110.31 206.63 110.219 206.528 110.171 206.404C110.124 206.28 110.122 206.143 110.167 206.018C110.212 205.893 110.301 205.788 110.416 205.723C110.532 205.658 110.667 205.637 110.797 205.664C118.494 207.255 123.704 207.395 124.293 206.614C124.317 206.588 124.332 206.555 124.337 206.52C124.342 206.486 124.337 206.45 124.323 206.418C123.555 203.933 107.838 198.632 102.47 196.827C97.5345 197.545 92.7785 198.921 89.065 200.707C88.9771 200.75 88.8794 200.768 88.7821 200.76C87.4378 200.637 86.1077 200.391 84.8089 200.023C84.793 200.018 84.7773 200.013 84.7618 200.008C81.9322 199.185 79.1862 198.097 76.5601 196.759C76.4289 196.694 76.3288 196.58 76.2819 196.441C76.235 196.302 76.2451 196.15 76.3099 196.019C76.3748 195.888 76.4892 195.787 76.6279 195.74C76.7665 195.693 76.9182 195.704 77.0494 195.768C79.6264 197.083 82.3222 198.15 85.1006 198.955C85.1168 198.96 85.133 198.964 85.1485 198.97C86.3188 199.299 87.5155 199.526 88.7251 199.647C92.5511 197.83 97.4138 196.435 102.444 195.715C102.53 195.703 102.617 195.711 102.698 195.739C113.989 199.535 124.551 203.417 125.378 206.093C125.444 206.293 125.461 206.505 125.425 206.713C125.39 206.92 125.304 207.115 125.175 207.281C124.058 208.761 118.226 208.096 114.052 207.397C118.182 209.669 121.146 211.48 122.884 212.795C124.811 214.254 125.479 215.205 125.119 215.975C124.78 216.698 123.707 217.19 118.196 215.901C117.013 215.623 115.78 215.281 114.571 214.914C117.517 216.533 120.112 218.101 121.037 218.885C121.911 219.626 121.778 220.234 121.622 220.531C120.882 221.93 116.798 221.546 114.271 220.846C111.505 220.081 107.477 218.513 105.047 217.531C106.952 220.052 108.973 222.818 110.132 224.412C112.238 227.312 111.433 228.537 110.989 228.93C110.66 229.209 110.239 229.354 109.808 229.338Z" fill="#1A1A1A"/>
<path d="M107.16 212.297C107.087 212.297 107.016 212.282 106.949 212.254C106.173 211.933 104.019 210.996 103.449 210.711C103.318 210.645 103.219 210.53 103.172 210.391C103.126 210.252 103.137 210.101 103.202 209.969C103.268 209.838 103.382 209.739 103.521 209.692C103.66 209.646 103.812 209.657 103.943 209.722C104.484 209.993 106.628 210.925 107.371 211.232C107.489 211.281 107.586 211.369 107.647 211.482C107.707 211.595 107.726 211.725 107.701 211.85C107.676 211.976 107.609 212.089 107.51 212.17C107.411 212.251 107.287 212.295 107.16 212.295V212.297ZM110.687 206.751H110.682C110.592 206.751 110.504 206.728 110.425 206.686C108.303 205.557 106.415 204.587 105.203 203.971C105.134 203.941 105.073 203.897 105.022 203.842C104.971 203.787 104.931 203.722 104.906 203.652C104.881 203.581 104.87 203.506 104.875 203.431C104.88 203.356 104.899 203.283 104.933 203.216C104.967 203.149 105.014 203.09 105.071 203.042C105.129 202.994 105.195 202.958 105.267 202.936C105.339 202.915 105.414 202.908 105.489 202.917C105.563 202.925 105.635 202.949 105.7 202.986C107.45 203.875 109.191 204.781 110.924 205.702C111.036 205.757 111.126 205.848 111.18 205.96C111.233 206.072 111.248 206.2 111.22 206.321C111.193 206.443 111.125 206.551 111.028 206.629C110.931 206.707 110.81 206.75 110.686 206.751L110.687 206.751Z" fill="#1A1A1A"/>
<path d="M143.939 59.7883C144.595 59.409 144.55 58.1012 143.839 56.8673C143.127 55.6334 142.018 54.9406 141.362 55.32C140.706 55.6993 140.75 57.0071 141.462 58.241C142.174 59.4749 143.283 60.1677 143.939 59.7883Z" fill="#1B1B1B"/>
<path d="M143.538 60.4448C142.682 60.4448 141.685 59.7222 140.989 58.5164C140.618 57.8977 140.399 57.1988 140.353 56.4783C140.326 55.7126 140.589 55.1311 141.091 54.8409C141.593 54.5506 142.228 54.6136 142.877 55.0195C143.477 55.4199 143.972 55.9585 144.322 56.5902C145.214 58.137 145.17 59.717 144.22 60.2661C144.013 60.3851 143.777 60.4468 143.538 60.4448ZM141.772 55.7675C141.727 55.7657 141.682 55.7759 141.642 55.7969C141.517 55.8706 141.443 56.1214 141.454 56.4396C141.496 56.9788 141.664 57.5006 141.944 57.9632C142.553 59.0187 143.384 59.4732 143.667 59.3082C143.949 59.1432 143.973 58.1974 143.365 57.1419C143.104 56.668 142.736 56.2617 142.291 55.9557C142.138 55.8493 141.959 55.7847 141.773 55.7682L141.772 55.7675ZM259.76 55.1101C258.578 56.4923 257.334 57.181 256.346 56.8322C255.336 56.479 254.799 55.1145 254.754 53.2336C255.025 52.9926 255.278 52.733 255.513 52.4565C256.162 52.8341 256.806 53.2212 257.445 53.6178C258.226 54.0999 258.998 54.5974 259.76 55.1101Z" fill="#1B1B1B"/>
<path d="M256.884 57.4748C256.639 57.4754 256.394 57.4339 256.162 57.3521C254.951 56.9282 254.254 55.4698 254.202 53.2453C254.2 53.1654 254.215 53.086 254.247 53.0126C254.279 52.9392 254.326 52.8736 254.386 52.8203C254.637 52.5965 254.873 52.3554 255.091 52.0988C255.174 51.9997 255.29 51.9333 255.418 51.9113C255.546 51.8893 255.678 51.9131 255.79 51.9784C256.41 52.3416 257.075 52.7349 257.735 53.1481C258.582 53.6722 259.346 54.1642 260.067 54.6511C260.132 54.6947 260.186 54.7514 260.227 54.8175C260.268 54.8837 260.295 54.9578 260.305 55.035C260.316 55.1121 260.31 55.1906 260.288 55.2653C260.266 55.34 260.228 55.4092 260.177 55.4683C259.053 56.7857 257.909 57.4748 256.884 57.4748ZM255.314 53.4667C255.391 55.0135 255.838 56.0683 256.528 56.3095C257.144 56.5264 258.014 56.1195 258.917 55.2105C258.366 54.847 257.784 54.4762 257.154 54.0865C256.648 53.7707 256.137 53.4618 255.622 53.1599C255.523 53.2645 255.42 53.3671 255.314 53.4678V53.4667Z" fill="#1B1B1B"/>
<g clip-path="url(#clip1_721_46010)">
<path d="M278.163 59.3872L206.651 41.3372C207.329 35.0404 206.163 28.6826 203.294 23.0338C200.426 17.3849 195.979 12.6872 190.491 9.50952C185.003 6.33182 178.71 4.81041 172.373 5.1295C166.037 5.4486 159.929 7.59451 154.79 11.3074C154.724 11.3449 154.663 11.3884 154.605 11.4374C154.568 11.4644 154.53 11.4959 154.488 11.5229C148.79 15.7247 144.615 21.6626 142.594 28.4406C142.445 28.9312 142.308 29.4255 142.184 29.9229C141.871 31.1635 141.635 32.4222 141.478 33.6919C141.473 33.7125 141.47 33.7336 141.469 33.7549C141.352 34.6167 141.281 35.4785 141.239 36.3335V36.356C140.886 44.0992 143.295 51.7164 148.039 57.8536C152.782 63.9907 159.551 68.2501 167.144 69.8744C174.737 71.4987 182.661 70.3827 189.507 66.7248C196.353 63.0669 201.678 57.1042 204.535 49.8966C281.311 69.2814 276.268 68.0692 277.083 68.0692C278.16 68.0682 279.199 67.6748 280.005 66.9631C280.811 66.2513 281.329 65.2701 281.462 64.2038C281.595 63.1375 281.333 62.0596 280.725 61.1726C280.118 60.2856 279.207 59.6506 278.163 59.3868V59.3872Z" fill="#5577CA"/>
<path d="M157.486 14.5641C157.397 14.6346 157.306 14.7005 157.211 14.7616C152.203 18.3841 148.513 23.5358 146.698 29.4375C146.685 29.488 146.67 29.538 146.653 29.5874C145.938 31.5489 142.108 30.417 142.594 28.4405C144.615 21.6629 148.79 15.7254 154.488 11.5239C154.529 11.4969 154.569 11.4654 154.605 11.4384C154.663 11.3894 154.724 11.3459 154.79 11.3084C156.855 9.95015 159.56 12.8615 157.486 14.5641ZM145.699 33.9346C145.572 34.8342 145.49 35.7398 145.456 36.6478H145.452C145.285 38.7052 141.271 38.3893 141.239 36.3559V36.3334C141.28 35.4798 141.352 34.6173 141.469 33.7548C141.47 33.7335 141.473 33.7124 141.478 33.6918C141.977 31.5984 145.934 32.5329 145.699 33.9346Z" fill="white"/>
<path d="M173.977 71.1593C169.47 71.1553 165.01 70.2396 160.866 68.4674C156.723 66.6952 152.982 64.1033 149.87 60.8481C146.758 57.5928 144.34 53.7419 142.76 49.5277C141.18 45.3134 140.472 40.8234 140.679 36.3286C140.723 35.3783 140.799 34.5263 140.91 33.7027C140.913 33.6682 140.917 33.6339 140.924 33.6001C141.084 32.3152 141.323 31.0414 141.639 29.7857C141.775 29.2488 141.911 28.7557 142.056 28.2768C144.101 21.3776 148.35 15.3351 154.155 11.0702C154.201 11.0387 154.222 11.0222 154.243 11.0068C154.318 10.9435 154.399 10.8861 154.483 10.8352C159.571 7.16638 165.592 5.00392 171.855 4.59607C178.118 4.18822 184.369 5.55151 189.891 8.52945C195.414 11.5074 199.982 15.9793 203.074 21.4318C206.165 26.8843 207.653 33.0964 207.368 39.355C207.368 39.4052 207.365 39.4797 207.36 39.5543L207.355 39.6457C207.333 40.068 207.301 40.4898 207.26 40.9107L211.525 41.9864C233.783 47.6055 256.042 53.2236 278.301 58.8409C278.935 59.0007 279.531 59.2838 280.056 59.6738C280.58 60.0638 281.023 60.5531 281.358 61.1138C281.693 61.6745 281.914 62.2956 282.008 62.9415C282.103 63.5875 282.069 64.2458 281.908 64.8787C281.637 65.951 281.015 66.9023 280.141 67.582C279.267 68.2616 278.191 68.6307 277.083 68.6308C276.655 68.6972 276.654 68.6972 246.32 61.0291C236.516 58.5508 223.532 55.2685 206.326 50.9236L204.871 50.5598C202.335 56.6549 198.048 61.8639 192.55 65.5299C187.052 69.1959 180.589 71.1547 173.977 71.1593ZM142.031 33.8016C142.031 33.811 142.031 33.8204 142.028 33.8297C141.915 34.6692 141.84 35.5132 141.802 36.3593C141.45 43.971 143.814 51.4607 148.474 57.4962C153.134 63.5317 159.787 67.7217 167.251 69.321C174.714 70.9202 182.504 69.8249 189.235 66.2301C195.965 62.6352 201.2 56.7737 204.009 49.6882C204.063 49.5556 204.166 49.4483 204.296 49.3879C204.427 49.3275 204.575 49.3183 204.712 49.3623L206.599 49.834C223.808 54.1804 236.792 57.4624 246.596 59.9406C272.543 66.4977 276.531 67.5075 276.911 67.5229C276.967 67.5113 277.025 67.5062 277.082 67.5079C277.94 67.5076 278.773 67.2218 279.449 66.6957C280.125 66.1695 280.607 65.4332 280.816 64.6033C281.067 63.6145 280.914 62.5668 280.391 61.6907C279.868 60.8146 279.017 60.1818 278.027 59.9316C275.973 59.4123 266.583 57.0427 254.807 54.0706C240.898 50.5602 223.66 46.21 211.251 43.0768L206.516 41.8819C206.383 41.8483 206.267 41.7676 206.19 41.6547C206.112 41.5419 206.079 41.4047 206.095 41.2689C206.097 41.2539 206.1 41.237 206.1 41.2209C206.101 41.2048 206.103 41.176 206.104 41.164C206.165 40.6076 206.206 40.0935 206.232 39.5925L206.238 39.4857C206.241 39.4336 206.244 39.3819 206.244 39.3287C206.525 33.2767 205.09 27.2684 202.102 21.9945C199.115 16.7207 194.697 12.3954 189.357 9.51594C184.017 6.63648 177.971 5.31974 171.915 5.71711C165.858 6.11447 160.037 8.2098 155.121 11.7622C155.104 11.7738 155.087 11.7847 155.07 11.7944C155.035 11.815 155.002 11.8386 154.971 11.8649C154.955 11.8782 154.938 11.8907 154.921 11.9023C154.883 11.9312 154.841 11.9619 154.8 11.9889C149.202 16.1093 145.106 21.9424 143.134 28.6005C142.989 29.0837 142.854 29.5701 142.731 30.0596C142.424 31.2773 142.193 32.5128 142.038 33.7589C142.036 33.7733 142.034 33.7875 142.031 33.8016ZM142.033 33.7563V33.7979C142.031 33.7897 142.033 33.7739 142.033 33.7563Z" fill="#1A1A1A"/>
<path d="M211.387 42.5319C209.961 43.3092 208.76 44.4392 207.898 45.8134C207.036 47.1876 206.542 48.7599 206.464 50.3795C205.829 50.2225 205.19 50.0606 204.542 49.8991C205.633 47.1151 206.346 44.1976 206.661 41.2246C206.661 41.2622 206.658 41.2998 206.652 41.337L211.387 42.5319Z" fill="#1B1B1B"/>
<path d="M206.464 50.9413C206.418 50.9414 206.372 50.936 206.328 50.9252L204.406 50.4441C204.328 50.4248 204.255 50.3892 204.193 50.3396C204.13 50.2901 204.079 50.2279 204.042 50.157C204.005 50.0861 203.984 50.0082 203.98 49.9285C203.976 49.8488 203.988 49.7691 204.017 49.6947C205.09 46.9572 205.791 44.0889 206.102 41.166C206.113 41.0555 206.157 40.9509 206.228 40.8654C206.299 40.7799 206.394 40.7173 206.501 40.6856C206.608 40.6538 206.721 40.6543 206.828 40.687C206.934 40.7197 207.028 40.7831 207.098 40.8692L211.525 41.9862C211.635 42.0141 211.734 42.0746 211.809 42.1598C211.884 42.2451 211.932 42.351 211.946 42.4637C211.959 42.5765 211.938 42.6906 211.886 42.7913C211.833 42.8919 211.751 42.9742 211.651 43.0274C210.317 43.7595 209.192 44.8191 208.383 46.1059C207.574 47.3928 207.107 48.8644 207.027 50.3815C207.026 50.5301 206.966 50.6723 206.861 50.777C206.755 50.8818 206.613 50.9406 206.464 50.9406V50.9413ZM205.293 49.5074L205.939 49.6689C206.104 48.303 206.547 46.9851 207.24 45.7961C207.933 44.607 208.863 43.5718 209.971 42.7539L207.134 42.0379C206.804 44.589 206.186 47.0948 205.293 49.5074Z" fill="#1B1B1B"/>
<path d="M201.769 44.7514C200.214 50.9765 196.603 56.4971 191.52 60.423C186.436 64.3489 180.176 66.4511 173.749 66.3907H173.745C166.27 66.3116 159.124 63.3146 153.836 58.0413C148.547 52.768 145.537 45.6376 145.45 38.1767C145.363 30.7158 148.206 23.5174 153.37 18.1227C158.534 12.728 165.609 9.56574 173.079 9.31301C173.187 9.30851 173.29 9.30851 173.399 9.30439H173.403C177.797 9.21409 182.153 10.1352 186.133 11.9963C190.113 13.8574 193.61 16.6085 196.354 20.0363C199.097 23.4641 201.012 27.4765 201.951 31.7624C202.89 36.0482 202.828 40.4924 201.769 44.7503V44.7514Z" fill="white"/>
<path d="M201.769 44.7514C200.214 50.9765 196.603 56.4971 191.52 60.423C186.436 64.3489 180.176 66.4511 173.749 66.3907H173.745C168.855 66.3384 164.059 65.0411 159.812 62.6217C161.639 63.0209 163.504 63.2301 165.374 63.2459H165.378C172.051 63.3081 178.518 60.9493 183.578 56.6082C188.639 52.2671 191.947 46.2392 192.889 39.6455C193.83 33.0519 192.34 26.3413 188.697 20.7618C185.053 15.1824 179.503 11.1139 173.079 9.31301C173.187 9.30851 173.291 9.30851 173.399 9.30439H173.403C177.797 9.21409 182.153 10.1352 186.133 11.9963C190.113 13.8574 193.61 16.6085 196.354 20.0363C199.097 23.4641 201.012 27.4765 201.951 31.7624C202.89 36.0482 202.828 40.4924 201.769 44.7503V44.7514Z" fill="#AAD9D1"/>
<path d="M174.065 66.9542H173.743C166.114 66.8856 158.815 63.8351 153.413 58.4571C148.011 53.0791 144.935 45.8019 144.846 38.1864C144.756 30.571 147.661 23.2238 152.935 17.721C158.21 12.2182 165.435 8.99792 173.061 8.75099L173.376 8.74237C177.858 8.64763 182.302 9.58498 186.362 11.4817C190.423 13.3784 193.991 16.1836 196.79 19.6794C199.589 23.1752 201.544 27.2678 202.502 31.6395C203.461 36.0112 203.397 40.5446 202.316 44.8878C200.764 51.1929 197.135 56.7951 192.012 60.7963C186.89 64.7974 180.57 66.966 174.065 66.9542ZM174.012 9.85895C173.812 9.85895 173.613 9.86108 173.415 9.86532L173.103 9.87394C165.777 10.1168 158.837 13.2143 153.771 18.5028C148.704 23.7913 145.915 30.85 145.999 38.1668C146.084 45.4836 149.036 52.4763 154.223 57.6469C159.41 62.8174 166.419 65.7544 173.749 65.8287H174.058C181.454 65.7625 188.524 62.7817 193.728 57.5357C198.933 52.2898 201.849 45.2036 201.843 37.8208C201.837 30.4379 198.909 23.3566 193.696 18.1193C188.483 12.8819 181.408 9.91292 174.012 9.85895Z" fill="#1A1A1A"/>
<path d="M174.065 66.9545H173.743C173.669 66.9549 173.596 66.9407 173.528 66.9128C173.459 66.885 173.397 66.8439 173.344 66.792C173.238 66.6871 173.178 66.5445 173.177 66.3954C173.177 66.2464 173.235 66.1031 173.34 65.9971C173.445 65.8912 173.588 65.8312 173.737 65.8304C181.093 65.6681 188.09 62.626 193.219 57.3602C198.348 52.0944 201.198 45.0271 201.154 37.6828C201.109 30.3385 198.175 23.306 192.982 18.1023C187.79 12.8986 180.757 9.9408 173.4 9.86703C173.25 9.86808 173.107 9.80986 173 9.7052C172.894 9.60053 172.834 9.45799 172.833 9.30893C172.831 9.15987 172.89 9.0165 172.995 8.91035C173.1 8.80421 173.242 8.744 173.392 8.74296C177.872 8.65113 182.314 9.59059 186.372 11.4885C190.43 13.3864 193.996 16.1918 196.793 19.6872C199.59 23.1825 201.543 27.2739 202.501 31.6441C203.458 36.0144 203.394 40.546 202.315 44.8877C200.762 51.1925 197.134 56.7945 192.011 60.7958C186.889 64.797 180.569 66.9658 174.065 66.9545Z" fill="#1A1A1A"/>
</g>
<g clip-path="url(#clip2_721_46010)">
<path d="M279.174 64.0623C278.938 64.9867 278.399 65.8067 277.641 66.3928C276.884 66.9789 275.952 67.2977 274.991 67.2988C274.723 67.2988 275.106 67.4343 272.858 66.8838C270.263 66.2645 264.167 64.7261 249.515 61.0445C248.424 60.7734 247.285 60.4853 246.097 60.1884C245.541 60.0458 244.984 59.9061 244.426 59.7691C244.303 59.7326 244.171 59.7035 244.043 59.6685C246.471 59.0918 250.434 57.345 253.215 55.4623C254.005 54.9448 254.738 54.3465 255.401 53.6772C255.805 53.7778 256.206 53.8783 256.602 53.9742C266.56 56.4769 274.236 58.4029 276.047 58.8558C276.597 58.9937 277.113 59.2377 277.568 59.574C278.023 59.9103 278.406 60.3323 278.697 60.8158C278.987 61.2993 279.179 61.8349 279.26 62.3919C279.342 62.949 279.313 63.5166 279.174 64.0623Z" fill="#5577CA"/>
<path d="M274.824 67.8611C274.615 67.8611 274.226 67.782 272.725 67.4148C270.485 66.8793 265.611 65.6545 254.933 62.9704L249.379 61.574C248.709 61.4079 248.019 61.2354 247.31 61.0567L245.962 60.7182C245.416 60.5784 244.86 60.4388 244.293 60.2997C244.211 60.2767 244.146 60.2603 244.082 60.2439C244.018 60.2275 243.957 60.2122 243.896 60.1955C243.778 60.1632 243.675 60.093 243.602 59.9959C243.528 59.8988 243.49 59.7803 243.492 59.6591C243.494 59.5379 243.537 59.4208 243.613 59.3264C243.69 59.2319 243.796 59.1653 243.915 59.1372C246.457 58.5335 250.322 56.7598 252.903 55.0111C253.66 54.5163 254.363 53.9433 254.998 53.3018C255.065 53.231 255.15 53.1793 255.244 53.1519C255.338 53.1246 255.438 53.1226 255.533 53.1463L255.845 53.2239C256.143 53.2967 256.438 53.3714 256.731 53.4425C266.694 55.9463 274.369 57.872 276.181 58.3263C276.801 58.4817 277.384 58.7569 277.896 59.1361C278.409 59.5152 278.842 59.991 279.169 60.5361C279.496 61.0813 279.712 61.6851 279.805 62.3132C279.897 62.9412 279.864 63.5812 279.707 64.1966C279.442 65.2393 278.835 66.1645 277.98 66.8254C277.126 67.4864 276.074 67.8453 274.991 67.8454C274.936 67.8554 274.88 67.8606 274.824 67.8611ZM246.089 59.6224L246.236 59.6589L247.582 59.9962C248.289 60.174 248.978 60.3464 249.65 60.5135L255.204 61.9095C265.878 64.594 270.751 65.8181 272.986 66.354C273.444 66.4658 274.65 66.7613 274.823 66.7682C274.878 66.7568 274.934 66.7519 274.991 66.7536C275.909 66.7531 276.795 66.4195 277.483 65.8156C278.171 65.2116 278.614 64.379 278.727 63.4741C278.84 62.5692 278.616 61.6545 278.098 60.9018C277.579 60.1492 276.802 59.6105 275.912 59.3871C274.1 58.9332 266.424 57.0068 256.467 54.5055C256.176 54.4352 255.88 54.3598 255.579 54.2869H255.574C254.941 54.8895 254.255 55.4354 253.525 55.9182C251.202 57.4395 248.706 58.6828 246.089 59.6224Z" fill="#1B1B1B"/>
<path d="M253.215 55.4614C250.712 57.3616 249.577 59.6021 249.515 61.0436C248.425 60.7726 247.285 60.4844 246.098 60.1875C245.541 60.045 244.984 59.9052 244.426 59.7682C244.303 59.7317 244.171 59.7026 244.044 59.6676C246.471 59.092 250.434 57.3452 253.215 55.4614Z" fill="#1B1B1B"/>
<path d="M249.514 61.5907C249.469 61.5909 249.424 61.5853 249.381 61.5743C248.709 61.4077 248.019 61.2352 247.31 61.0566L245.962 60.7182C245.416 60.5783 244.86 60.4388 244.293 60.2996C244.211 60.2767 244.146 60.2603 244.082 60.2439C244.018 60.2275 243.957 60.2122 243.896 60.1954C243.778 60.1632 243.675 60.093 243.602 59.9959C243.528 59.8988 243.49 59.7803 243.492 59.6591C243.494 59.5379 243.537 59.4208 243.613 59.3263C243.69 59.2318 243.796 59.1653 243.915 59.1372C246.457 58.5335 250.322 56.7597 252.903 55.0111C253.022 54.9262 253.169 54.8916 253.313 54.9148C253.458 54.9379 253.587 55.0171 253.672 55.1348C253.758 55.2525 253.793 55.399 253.769 55.5423C253.746 55.6855 253.666 55.8136 253.548 55.8985C251.219 57.6668 250.12 59.7696 250.062 61.0694C250.056 61.2102 249.996 61.3433 249.893 61.4408C249.791 61.5383 249.654 61.5927 249.512 61.5925L249.514 61.5907ZM246.089 59.6235L246.236 59.6599L247.582 59.9973L249.052 60.3659C249.261 59.4715 249.636 58.6237 250.158 57.8657C248.84 58.5353 247.481 59.122 246.089 59.6224V59.6235Z" fill="#1B1B1B"/>
</g>
<g clip-path="url(#clip3_721_46010)">
<path d="M196.606 39.8423C195.855 45.0596 185.158 47.9015 172.707 46.1888C160.257 44.4762 150.778 38.8523 151.525 33.6357C152.272 28.4192 162.972 25.5765 175.418 27.2936C177.649 27.5973 179.857 28.0451 182.028 28.634C183.311 28.98 184.536 29.3741 185.691 29.799C192.666 32.3658 197.129 36.2025 196.606 39.8423Z" fill="white"/>
<path d="M179.906 47.2452C177.472 47.2393 175.042 47.0677 172.633 46.7316C159.683 44.9455 150.169 39.1597 150.971 33.5599C151.778 27.9558 162.552 24.9667 175.497 26.7513C177.752 27.0584 179.984 27.5111 182.178 28.1063C183.428 28.4431 184.677 28.8406 185.887 29.2863C193.385 32.0457 197.706 36.118 197.16 39.9174C196.511 44.4267 189.405 47.2452 179.906 47.2452ZM168.423 27.353C159.569 27.353 152.636 29.8478 152.081 33.7127C151.388 38.5376 160.871 44.0025 172.786 45.6465C184.701 47.2905 195.357 44.5925 196.052 39.7647C196.514 36.5498 192.369 32.841 185.494 30.3111C184.307 29.8744 183.101 29.4908 181.879 29.1614C179.732 28.5794 177.548 28.1369 175.341 27.8367C173.049 27.5183 170.738 27.3567 168.423 27.353Z" fill="#1A1A1A"/>
<path d="M189.053 37.0042C188.85 38.4184 188.231 39.744 187.271 40.8193C186.311 41.8946 185.053 42.673 183.649 43.0596C182.246 43.4461 180.757 43.4241 179.366 42.9962C177.975 42.5682 176.741 41.7529 175.815 40.6497C174.889 39.5465 174.311 38.2031 174.152 36.7836C173.992 35.364 174.258 33.9296 174.917 32.6556C175.576 31.3815 176.599 30.3227 177.861 29.6086C179.124 28.8945 180.572 28.5559 182.028 28.6341C183.311 28.98 184.537 29.3742 185.691 29.7991C186.894 30.5608 187.851 31.6439 188.446 32.9205C189.042 34.1972 189.253 35.6141 189.053 37.0042Z" fill="#1B1B1B"/>
<path d="M181.639 43.885C181.255 43.8849 180.872 43.8584 180.492 43.8058C178.431 43.5223 176.561 42.4699 175.273 40.8682C173.986 39.2666 173.38 37.2396 173.582 35.2108C173.784 33.1819 174.779 31.3079 176.359 29.9804C177.938 28.6529 179.98 27.9744 182.058 28.0867C182.098 28.0889 182.137 28.0951 182.176 28.1054C183.428 28.4429 184.675 28.8404 185.887 29.2861C185.924 29.2999 185.96 29.3176 185.994 29.3387C187.285 30.1596 188.31 31.3238 188.95 32.6948C189.59 34.0659 189.818 35.5871 189.607 37.0804C189.337 38.9641 188.383 40.6893 186.919 41.9393C185.456 43.1894 183.581 43.8802 181.639 43.885ZM181.616 29.1707C179.856 29.1698 178.161 29.8229 176.874 30.998C175.586 32.1732 174.802 33.783 174.679 35.5025C174.556 37.222 175.103 38.9232 176.211 40.2628C177.318 41.6025 178.903 42.4807 180.646 42.7204C181.55 42.8458 182.47 42.7955 183.354 42.5722C184.238 42.3489 185.069 41.957 185.798 41.419C186.527 40.881 187.141 40.2074 187.604 39.4368C188.067 38.6662 188.371 37.8137 188.497 36.9281C188.677 35.6515 188.485 34.3511 187.943 33.1768C187.401 32.0025 186.532 31.0021 185.434 30.2911C184.286 29.8691 183.12 29.4977 181.938 29.178C181.83 29.1732 181.723 29.1707 181.616 29.1707Z" fill="#1B1B1B"/>
<path d="M184.395 36.4179C185.51 36.4179 186.415 35.5323 186.415 34.4397C186.415 33.3471 185.51 32.4614 184.395 32.4614C183.279 32.4614 182.375 33.3471 182.375 34.4397C182.375 35.5323 183.279 36.4179 184.395 36.4179Z" fill="white"/>
</g>
<g clip-path="url(#clip4_721_46010)">
<path d="M153.153 42.9653C152.566 42.9645 152 42.751 151.559 42.3644C151.118 41.9778 150.833 41.4446 150.757 40.864C150.326 37.5638 150.597 34.2101 151.551 31.0211C152.505 27.8321 154.121 24.8792 156.295 22.3544C158.468 19.8297 161.15 17.7897 164.165 16.3671C167.181 14.9446 170.463 14.1714 173.798 14.0977C174.44 14.0839 175.06 14.325 175.524 14.7678C175.987 15.2107 176.255 15.8191 176.269 16.4591C176.283 17.0992 176.041 17.7185 175.598 18.1809C175.154 18.6432 174.544 18.9107 173.902 18.9245C171.248 18.9854 168.635 19.6026 166.235 20.7361C163.835 21.8696 161.7 23.4941 159.97 25.5039C158.24 27.5138 156.953 29.8643 156.193 32.4026C155.432 34.941 155.215 37.6105 155.556 40.238C155.597 40.5524 155.576 40.8718 155.493 41.178C155.411 41.4843 155.269 41.7712 155.075 42.0226C154.881 42.274 154.64 42.4848 154.364 42.643C154.089 42.8013 153.785 42.9038 153.47 42.9448C153.365 42.9585 153.259 42.9653 153.153 42.9653ZM158.269 54.2373C157.924 54.2377 157.582 54.1642 157.268 54.0219C156.953 53.8796 156.673 53.6716 156.446 53.4121C154.878 51.6236 153.588 49.6107 152.618 47.4406C152.485 47.1505 152.41 46.8369 152.399 46.5179C152.388 46.1989 152.44 45.8809 152.553 45.5822C152.666 45.2835 152.837 45.01 153.056 44.7777C153.275 44.5454 153.539 44.3589 153.831 44.2288C154.123 44.0988 154.438 44.0278 154.758 44.0201C155.078 44.0123 155.396 44.068 155.694 44.1837C155.993 44.2995 156.265 44.4731 156.495 44.6945C156.726 44.916 156.91 45.1808 157.037 45.4737C157.811 47.2031 158.84 48.8072 160.09 50.2327C160.395 50.5817 160.594 51.0112 160.662 51.4699C160.729 51.9285 160.663 52.3969 160.471 52.819C160.279 53.2412 159.969 53.5993 159.579 53.8504C159.188 54.1016 158.734 54.2352 158.269 54.2354V54.2373Z" fill="white"/>
</g>
<defs>
<clipPath id="clip0_721_46010">
<rect width="99.9123" height="66.6537" fill="white" transform="translate(140.395 3.78076)"/>
</clipPath>
<clipPath id="clip1_721_46010">
<rect width="77.8729" height="65.9171" fill="white" transform="translate(140.642 4.51709)"/>
</clipPath>
<clipPath id="clip2_721_46010">
<rect width="36.3651" height="14.7301" fill="white" transform="translate(243.492 53.1299)"/>
</clipPath>
<clipPath id="clip3_721_46010">
<rect width="46.2828" height="20.9904" fill="white" transform="translate(150.924 26.2451)"/>
</clipPath>
<clipPath id="clip4_721_46010">
<rect width="25.7127" height="40.1395" fill="white" transform="translate(150.557 14.0977)"/>
</clipPath>
</defs>
</svg>
